<svg width="1177" height="145" viewBox="0 0 1177 145" fill="none" xmlns="http://www.w3.org/2000/svg">
<path d="M0 143.555C4.35222 143.314 10.0343 143.193 15.8372 143.193C22.8491 143.193 25.8715 143.434 30.2237 143.555V142.711C19.7059 142.35 15.4746 139.098 19.585 126.931C22.6074 118.018 25.6297 110.911 26.2342 109.586H54.6445C56.6997 115.006 60.2056 123.679 62.2609 129.943C65.2832 139.339 61.0519 141.989 51.2594 142.711V143.555C56.8206 143.314 63.228 143.193 71.2071 143.193C77.9772 143.193 84.1429 143.314 90.0667 143.555V142.711C81.8459 141.748 79.7907 138.013 74.5922 125.847C65.7668 105.008 53.4355 75.2554 47.3908 58.5119L46.7863 58.7528C39.2908 77.3032 23.2118 112.718 15.5954 128.979C11.0014 138.977 7.73728 141.989 0 142.591V143.555ZM26.8386 108.02L40.8625 75.6168C44.1266 83.567 50.8968 100.07 53.9191 108.02H26.8386Z" fill="#DBD8D8"/>
<path d="M138.066 145C150.034 145 158.134 140.543 163.696 132.111C168.169 125.727 169.74 115.488 169.74 104.045V78.5078C169.74 64.4143 172.037 61.162 182.797 60.5597V59.7165C176.752 59.9574 173.246 60.0779 168.29 60.0779C160.794 60.0779 158.739 59.9574 153.178 59.7165V60.5597C165.025 61.5234 167.443 64.2939 167.443 78.5078V104.406C167.443 115.609 165.872 124.281 161.882 129.702C157.53 135.845 148.825 138.977 140 138.977C130.087 138.977 121.866 134.761 118.602 125.727C116.788 120.788 116.546 113.561 116.426 104.526V78.5078C116.546 64.2939 118.723 61.162 130.208 60.5597V59.7165C122.108 59.9574 118.481 60.0779 110.623 60.0779C103.127 60.0779 97.9287 59.9574 89.9496 59.7165V60.5597C101.556 61.2824 103.611 64.1734 103.611 78.5078V104.526C103.611 121.752 106.391 129.1 110.018 133.677C115.579 141.025 123.8 145 138.066 145Z" fill="#DBD8D8"/>
<path d="M246.096 104.767V74.6532C246.096 69.594 246.217 65.4984 246.458 60.9211C264.351 60.8006 270.879 69.3531 270.879 82.7238C270.879 96.9377 262.779 105.37 246.096 104.767ZM219.499 143.555C227.357 143.314 230.984 143.193 238.6 143.193C246.7 143.193 251.052 143.314 260.24 143.555V142.711C248.151 142.229 246.096 137.532 246.096 124.643V105.731C250.932 106.213 253.349 106.815 258.911 106.454C272.209 105.611 284.54 97.0581 284.54 82.7238C284.54 63.9325 267.857 59.7165 251.778 59.7165H219.499V60.5597C231.709 61.0415 233.402 65.0166 233.402 77.785V125.366C233.402 138.134 231.347 142.229 219.499 142.711V143.555Z" fill="#DBD8D8"/>
<path d="M294.699 143.555C308.965 143.073 315.977 143.193 329.759 143.193C341.123 143.193 346.684 143.314 358.411 143.555C360.708 141.868 361.917 139.098 362.521 133.075C362.642 130.425 363.247 122.595 363.368 119.704H362.642C358.774 134.038 351.278 141.748 336.166 141.748C323.472 141.748 321.296 139.098 321.296 126.811V100.792H325.769C347.41 100.913 348.86 103.683 350.19 113.922H351.036V88.0239H350.311C348.377 96.5763 347.41 99.2264 325.769 99.3468H321.296V72.4849C321.296 68.9917 321.538 62.8484 321.659 61.2824H324.439C346.201 61.6438 352.487 64.5348 356.235 80.9169H356.96L357.444 70.919C357.686 66.3416 357.927 61.7643 356.114 59.4756C344.387 59.837 336.892 59.9574 325.648 60.0779C313.559 60.1983 303.041 59.9574 294.699 59.7165V60.5597C305.459 61.2824 308.602 63.3302 308.602 77.4237V125.004C308.602 138.254 306.547 142.229 294.699 142.711V143.555Z" fill="#DBD8D8"/>
<path d="M389.889 143.555C398.714 143.314 402.341 143.193 409.958 143.193C418.299 143.193 422.168 143.314 430.51 143.555V142.711C419.508 142.229 416.728 138.736 416.728 125.486V79.5919C416.728 73.4486 416.849 61.4029 416.849 61.4029C437.522 61.5234 442.357 66.2212 446.347 83.3261L447.193 83.2056L446.831 68.3894C446.71 64.4143 446.105 61.0415 444.775 58.9938C442.478 60.0779 437.763 60.3188 434.741 60.3188H385.537C382.756 60.3188 377.8 60.0779 375.744 58.9938C374.414 61.0415 373.81 64.4143 373.689 68.3894L373.326 83.2056L374.173 83.3261C378.283 66.2212 383.361 61.4029 403.792 61.4029C403.792 61.4029 403.913 73.4486 403.913 79.5919V125.366C403.913 138.254 401.737 142.109 389.889 142.711V143.555Z" fill="#DBD8D8"/>
<path d="M483.995 77.785C483.995 65.2575 485.93 61.0415 497.656 60.5597V59.7165C489.919 59.9574 484.962 60.0779 477.104 60.0779C469.488 60.0779 465.015 59.9574 457.398 59.7165V60.5597C469.609 61.0415 471.18 65.2575 471.18 77.785V125.366C471.18 138.375 468.883 142.229 457.398 142.711V143.555C465.377 143.314 469.73 143.193 477.225 143.193C485.325 143.193 490.524 143.314 497.536 143.555V142.711C487.018 142.35 483.995 138.857 483.995 125.486V77.785Z" fill="#DBD8D8"/>
<path d="M524.47 143.555C533.295 143.314 536.922 143.193 544.538 143.193C552.88 143.193 556.749 143.314 565.09 143.555V142.711C554.089 142.229 551.308 138.736 551.308 125.486V79.5919C551.308 73.4486 551.429 61.4029 551.429 61.4029C572.102 61.5234 576.938 66.2212 580.928 83.3261L581.774 83.2056L581.411 68.3894C581.29 64.4143 580.686 61.0415 579.356 58.9938C577.059 60.0779 572.344 60.3188 569.322 60.3188H520.117C517.337 60.3188 512.38 60.0779 510.325 58.9938C508.995 61.0415 508.391 64.4143 508.27 68.3894L507.907 83.2056L508.753 83.3261C512.864 66.2212 517.941 61.4029 538.372 61.4029C538.372 61.4029 538.493 73.4486 538.493 79.5919V125.366C538.493 138.254 536.317 142.109 524.47 142.711V143.555Z" fill="#DBD8D8"/>
<path d="M670.101 143.675L671.189 143.073C680.498 118.981 693.554 87.5421 702.259 67.0644C702.863 83.0851 703.71 114.524 703.71 128.618C703.71 138.495 701.171 141.748 690.653 142.711V143.555C698.511 143.314 703.71 143.193 711.447 143.193C717.975 143.193 723.053 143.314 729.944 143.555V142.711C719.909 141.748 717.492 138.977 716.766 128.979C716.283 119.343 715.557 94.2876 715.315 73.6895C715.315 65.6189 716.283 61.0415 727.526 60.5597V59.7165C723.657 59.837 718.821 59.9574 713.986 59.9574C710.117 59.9574 706.732 59.9574 702.742 59.837C694.159 82.3624 684.366 105.972 676.145 125.125C667.804 106.213 657.89 82.001 649.428 59.837C644.713 59.9574 641.328 59.9574 636.975 59.9574C631.777 59.9574 628.755 59.837 623.193 59.7165V60.5597C635.525 62.0052 637.217 64.053 636.734 73.9304C635.887 93.4444 635.041 109.706 633.711 126.088C632.502 138.977 627.788 141.989 618.841 142.711V143.555C625.249 143.314 628.029 143.193 634.195 143.193C640.24 143.193 643.262 143.314 649.549 143.555V142.711C640.361 142.109 636.25 139.459 636.492 126.691C636.734 109.104 637.822 83.567 638.789 68.5099C649.307 92.8422 661.154 120.909 670.101 143.675Z" fill="#DBD8D8"/>
<path d="M736.892 143.555C741.245 143.314 746.927 143.193 752.73 143.193C759.741 143.193 762.764 143.434 767.116 143.555V142.711C756.598 142.35 752.367 139.098 756.477 126.931C759.5 118.018 762.522 110.911 763.127 109.586H791.537C793.592 115.006 797.098 123.679 799.153 129.943C802.176 139.339 797.944 141.989 788.152 142.711V143.555C793.713 143.314 800.12 143.193 808.099 143.193C814.87 143.193 821.035 143.314 826.959 143.555V142.711C818.738 141.748 816.683 138.013 811.484 125.847C802.659 105.008 790.328 75.2554 784.283 58.5119L783.679 58.7528C776.183 77.3032 760.104 112.718 752.488 128.979C747.894 138.977 744.63 141.989 736.892 142.591V143.555ZM763.731 108.02L777.755 75.6168C781.019 83.567 787.789 100.07 790.812 108.02H763.731Z" fill="#DBD8D8"/>
<path d="M834.798 143.555C842.777 143.314 846.283 143.193 853.899 143.193C861.999 143.193 866.472 143.314 874.814 143.555V142.711C863.329 142.109 861.394 137.532 861.394 124.763V104.647C864.538 105.129 868.648 105.249 872.033 105.249C874.935 110.79 877.353 115.368 880.858 121.511C884.485 127.654 888.233 133.316 891.497 136.568C896.333 141.266 902.499 144.277 912.533 144.277C915.676 144.277 918.82 144.036 922.205 143.555L922.325 142.711C914.346 142.35 906.73 137.532 896.091 122.234C890.893 114.645 887.387 108.14 884.002 101.876C894.278 98.6241 900.806 90.9148 901.048 82.4829C901.652 65.1371 886.541 59.7165 867.802 59.7165H834.798V60.5597C846.887 61.0415 848.7 65.0166 848.7 77.3032V125.245C848.7 138.134 846.766 142.229 834.798 142.711V143.555ZM861.394 103.683V74.6532C861.394 69.1121 861.636 65.378 861.757 60.9211C880.859 60.9211 887.508 70.0758 887.508 83.0851C887.508 90.6739 885.211 95.8536 880.858 99.2264C876.506 102.599 869.978 103.924 861.394 103.683Z" fill="#DBD8D8"/>
<path d="M965.835 145C972.605 145 978.288 144.157 983.97 142.711C989.289 141.266 991.586 139.82 992.674 135.243C993.158 132.834 993.762 129.1 994.367 119.102H993.52C989.652 133.436 980.343 143.795 966.319 143.795C945.888 143.795 938.513 127.775 938.513 101.395C938.513 76.5805 946.492 59.4756 965.473 59.4756C980.222 59.4756 989.531 71.1599 992.311 86.9398H993.278C993.52 83.4465 993.641 72.8463 993.52 70.6781C993.037 65.0166 991.102 62.8484 985.299 61.0415C978.771 58.8733 971.396 58.271 965.473 58.271C941.415 58.271 923.522 73.3281 923.522 102.238C923.522 130.786 940.931 145 965.835 145Z" fill="#DBD8D8"/>
<path d="M1004.91 143.555C1012.89 143.314 1017.25 143.193 1024.86 143.193C1032.96 143.193 1037.8 143.314 1044.81 143.555V142.711C1034.53 142.35 1031.51 138.857 1031.51 125.486V100.913H1072.49V125.366C1072.49 138.857 1069.71 142.109 1058.83 142.711V143.555C1067.18 143.193 1071.77 143.193 1079.87 143.193C1087.49 143.193 1090.99 143.314 1098.97 143.555V142.711C1087.85 142.35 1085.31 138.857 1085.31 125.366V76.8214C1085.31 65.1371 1087.73 60.9211 1098.97 60.5597V59.7165C1090.75 60.0779 1087.24 60.0779 1079.26 60.0779C1071.65 60.0779 1067.18 60.0779 1059.2 59.7165V60.5597C1069.84 60.9211 1072.49 65.2575 1072.49 76.8214V99.4673H1031.51V77.785C1031.51 65.2575 1033.45 61.162 1044.93 60.5597V59.7165C1037.19 59.9574 1032.6 60.0779 1024.74 60.0779C1017.13 60.0779 1012.65 59.9574 1004.91 59.7165V60.5597C1017.13 61.0415 1018.82 65.2575 1018.82 77.785V125.366C1018.82 138.375 1016.52 142.229 1004.91 142.711V143.555Z" fill="#DBD8D8"/>
<path d="M1108.33 143.555C1122.6 143.073 1129.61 143.193 1143.39 143.193C1154.76 143.193 1160.32 143.314 1172.04 143.555C1174.34 141.868 1175.55 139.098 1176.15 133.075C1176.27 130.425 1176.88 122.595 1177 119.704H1176.27C1172.41 134.038 1164.91 141.748 1149.8 141.748C1137.1 141.748 1134.93 139.098 1134.93 126.811V100.792H1139.4C1161.04 100.913 1162.49 103.683 1163.82 113.922H1164.67V88.0239H1163.94C1162.01 96.5763 1161.04 99.2264 1139.4 99.3468H1134.93V72.4849C1134.93 68.9917 1135.17 62.8484 1135.29 61.2824H1138.07C1159.83 61.6438 1166.12 64.5348 1169.87 80.9169H1170.59L1171.08 70.919C1171.32 66.3416 1171.56 61.7643 1169.75 59.4756C1158.02 59.837 1150.52 59.9574 1139.28 60.0779C1127.19 60.1983 1116.67 59.9574 1108.33 59.7165V60.5597C1119.09 61.2824 1122.23 63.3302 1122.23 77.4237V125.004C1122.23 138.254 1120.18 142.229 1108.33 142.711V143.555ZM1139.52 55.0187L1164.06 38.0343L1155.24 29L1138.8 54.4164L1139.52 55.0187Z" fill="#DBD8D8"/>
<path d="M307.117 16.2015V0.52913H305V18.1668H320.622V16.2015H307.117Z" fill="#DBD8D8"/>
<path d="M342.739 18.1668H345.133L335.432 0.52913H333.064L323.363 18.1668H325.706L328.276 13.4299H340.169L342.739 18.1668ZM329.31 11.5149L334.223 2.46928L339.136 11.5149H329.31Z" fill="#DBD8D8"/>
<path d="M379.19 0.52913L370.346 11.3133L361.502 0.52913H359.184V18.1668H361.25V3.50234L370.22 14.3621H370.371L379.341 3.50234V18.1668H381.458V0.52913H379.19Z" fill="#DBD8D8"/>
<path d="M405.929 18.1668H408.323L398.622 0.52913H396.253L386.553 18.1668H388.896L391.466 13.4299H403.359L405.929 18.1668ZM392.499 11.5149L397.413 2.46928L402.326 11.5149H392.499Z" fill="#DBD8D8"/>
<path d="M415.541 18.1668V0.52913H413.425V18.1668H415.541Z" fill="#DBD8D8"/>
<path d="M431.702 8.11334C427.545 7.78579 424.219 7.33224 424.219 5.14013C424.219 2.82203 427.898 1.94015 431.047 1.96534C433.995 1.99054 436.591 2.87243 438.304 4.56061L439.967 3.14959C437.926 1.33543 434.776 0 430.947 0C426.235 0 422.052 1.88975 422.052 5.21572C422.052 8.69287 426.562 9.72593 431.274 10.1291C436.036 10.5322 438.632 11.0614 438.632 13.2031C438.632 15.3952 436.137 16.7306 431.879 16.7306C428.351 16.7306 425.504 15.7479 422.934 13.4802L421.447 15.0676C424.194 17.4865 427.898 18.696 431.753 18.696C437.498 18.696 440.798 16.3023 440.798 13.0519C440.798 9.57475 437.069 8.54169 431.702 8.11334Z" fill="#DBD8D8"/>
<path d="M456.125 18.696C462.827 18.696 466.858 15.0928 466.858 9.34798C466.858 3.60313 462.827 0 456.125 0C449.422 0 445.391 3.60313 445.391 9.34798C445.391 15.0928 449.422 18.696 456.125 18.696ZM456.125 16.7306C450.934 16.7306 447.558 14.085 447.558 9.34798C447.558 4.611 450.934 1.96534 456.125 1.96534C461.315 1.96534 464.691 4.611 464.691 9.34798C464.691 14.085 461.315 16.7306 456.125 16.7306Z" fill="#DBD8D8"/>
<path d="M489.85 0.52913V15.0676L475.462 0.52913H473.169V18.1668H475.236V3.22518L490.051 18.1668H491.916V0.52913H489.85Z" fill="#DBD8D8"/>
<path d="M517.916 0.52913H509.349V18.1668H517.916C524.367 18.1668 528.499 14.7653 528.499 9.34798C528.499 3.93069 524.367 0.52913 517.916 0.52913ZM517.765 16.2015H511.466V2.49447H517.765C522.779 2.49447 526.332 4.83777 526.332 9.34798C526.332 13.8582 522.779 16.2015 517.765 16.2015Z" fill="#DBD8D8"/>
<path d="M550.96 0.52913V9.72593C550.96 14.0598 548.365 16.7306 543.779 16.7306C539.168 16.7306 536.573 14.0598 536.573 9.72593V0.52913H534.456V9.85192C534.456 14.992 537.706 18.696 543.779 18.696C549.851 18.696 553.076 14.992 553.076 9.85192V0.52913H550.96Z" fill="#DBD8D8"/>
<path d="M586.807 0.52913V8.21413H572.293V0.52913H570.177V18.1668H572.293V10.2299H586.807V18.1668H588.923V0.52913H586.807Z" fill="#DBD8D8"/>
<path d="M613.379 18.1668H615.772L606.072 0.52913H603.703L594.002 18.1668H596.346L598.916 13.4299H610.809L613.379 18.1668ZM599.949 11.5149L604.862 2.46928L609.776 11.5149H599.949Z" fill="#DBD8D8"/>
<path d="M640.88 0.52913L632.036 11.3133L623.192 0.52913H620.874V18.1668H622.94V3.50234L631.91 14.3621H632.062L641.032 3.50234V18.1668H643.148V0.52913H640.88Z" fill="#DBD8D8"/>
<path d="M664.848 9.09601C667.443 8.89444 668.627 7.02988 668.627 5.01415C668.627 2.04093 666.083 0.52913 662.505 0.52913H650.763V18.1668H663.009C667.09 18.1668 669.635 16.5542 669.635 13.3291C669.635 10.381 667.594 9.27239 664.848 9.09601ZM652.854 2.44408H662.202C664.722 2.44408 666.511 3.0992 666.511 5.31651C666.511 7.53382 664.722 8.18893 662.202 8.18893H652.854V2.44408ZM662.631 16.2519H652.854V10.1039H662.631C665.654 10.1039 667.443 10.9858 667.443 13.1779C667.443 15.3448 665.654 16.2519 662.631 16.2519Z" fill="#DBD8D8"/>
<path d="M685.277 18.696C691.979 18.696 696.011 15.0928 696.011 9.34798C696.011 3.60313 691.979 0 685.277 0C678.575 0 674.543 3.60313 674.543 9.34798C674.543 15.0928 678.575 18.696 685.277 18.696ZM685.277 16.7306C680.086 16.7306 676.71 14.085 676.71 9.34798C676.71 4.611 680.086 1.96534 685.277 1.96534C690.467 1.96534 693.844 4.611 693.844 9.34798C693.844 14.085 690.467 16.7306 685.277 16.7306Z" fill="#DBD8D8"/>
<path d="M718.473 0.52913V9.72593C718.473 14.0598 715.877 16.7306 711.292 16.7306C706.681 16.7306 704.085 14.0598 704.085 9.72593V0.52913H701.969V9.85192C701.969 14.992 705.219 18.696 711.292 18.696C717.364 18.696 720.589 14.992 720.589 9.85192V0.52913H718.473Z" fill="#DBD8D8"/>
<path d="M747.005 18.1668L740.983 11.3385C744.233 10.9606 746.45 9.04562 746.45 5.97162C746.45 2.49447 743.628 0.52913 739.698 0.52913H727.855V18.1668H729.997V11.4141H738.387L744.233 18.1668H747.005ZM729.972 9.44877V2.49447H739.546C742.394 2.49447 744.283 3.57793 744.283 5.97162C744.283 8.36531 742.394 9.44877 739.546 9.44877H729.972Z" fill="#DBD8D8"/>
<path d="M772.249 8.99523H762.12V10.9606H770.133V13.2535C768.822 15.6976 765.95 16.7306 762.448 16.7306C757.055 16.7306 753.679 14.2361 753.679 9.34798C753.679 4.45982 757.03 1.96534 762.296 1.96534C765.496 1.96534 767.84 2.97321 769.427 4.96375L771.266 3.67872C769.503 1.61259 766.605 0 762.296 0C755.544 0 751.512 3.60313 751.512 9.34798C751.512 15.0928 755.544 18.696 762.372 18.696C767.26 18.696 770.788 16.6298 772.249 13.8834V8.99523Z" fill="#DBD8D8"/>
<path d="M780.595 16.2015V10.1795H793.042V8.21413H780.595V2.49447H795.285V0.52913H778.479V18.1668H795.537V16.2015H780.595Z" fill="#DBD8D8"/>
<path d="M810.581 18.696C817.284 18.696 821.315 15.0928 821.315 9.34798C821.315 3.60313 817.284 0 810.581 0C803.879 0 799.848 3.60313 799.848 9.34798C799.848 15.0928 803.879 18.696 810.581 18.696ZM810.581 16.7306C805.391 16.7306 802.014 14.085 802.014 9.34798C802.014 4.611 805.391 1.96534 810.581 1.96534C815.772 1.96534 819.148 4.611 819.148 9.34798C819.148 14.085 815.772 16.7306 810.581 16.7306Z" fill="#DBD8D8"/>
<path d="M829.743 18.1668V0.52913H827.626V18.1668H829.743Z" fill="#DBD8D8"/>
<path d="M845.904 8.11334C841.747 7.78579 838.421 7.33224 838.421 5.14013C838.421 2.82203 842.099 1.94015 845.249 1.96534C848.197 1.99054 850.792 2.87243 852.505 4.56061L854.168 3.14959C852.128 1.33543 848.978 0 845.148 0C840.436 0 836.254 1.88975 836.254 5.21572C836.254 8.69287 840.764 9.72593 845.476 10.1291C850.238 10.5322 852.833 11.0614 852.833 13.2031C852.833 15.3952 850.339 16.7306 846.08 16.7306C842.553 16.7306 839.706 15.7479 837.136 13.4802L835.649 15.0676C838.395 17.4865 842.099 18.696 845.954 18.696C851.699 18.696 855 16.3023 855 13.0519C855 9.57475 851.271 8.54169 845.904 8.11334Z" fill="#DBD8D8"/>
</svg>
