<svg width="491" height="449" viewBox="0 0 491 449" fill="none" xmlns="http://www.w3.org/2000/svg">
<path d="M245.213 448.142C242.382 448.147 239.665 447.027 237.661 445.027L2.99437 210.36C-1.09862 206.123 -0.980625 199.37 3.25638 195.277C7.39037 191.285 13.9434 191.285 18.0764 195.277L245.212 422.392L472.327 195.256C476.564 191.163 483.317 191.281 487.41 195.518C491.403 199.652 491.403 206.205 487.41 210.339L252.744 445.006C250.748 447.007 248.04 448.135 245.213 448.142Z" fill="white"/>
<path d="M245.213 256.142C242.382 256.147 239.665 255.027 237.661 253.027L2.99437 18.36C-1.09862 14.123 -0.980625 7.36999 3.25638 3.27699C7.39037 -0.715009 13.9434 -0.715009 18.0774 3.27699L245.213 230.392L472.328 3.25599C476.421 -0.981009 483.173 -1.09801 487.411 2.99399C491.649 7.08599 491.765 13.839 487.673 18.077C487.587 18.166 487.5 18.253 487.411 18.339L252.744 253.006C250.748 255.007 248.04 256.135 245.213 256.142Z" fill="white"/>
</svg>
