<svg xmlns="http://www.w3.org/2000/svg" viewBox="0 0 175.8 62.43"><defs><style>.cls-1{fill:#5b5b5b;fill-rule:evenodd;}</style></defs><g id="Layer_2" data-name="Layer 2"><g id="Layer_1-2" data-name="Layer 1"><path class="cls-1" d="M107.06,14.49c1.91,1.42,4.39,2.27,5.53,4.47C110.75,18.77,108.19,16.87,107.06,14.49Z"/><path class="cls-1" d="M111.54,14.75c-.08-.43.25-.46.26-.79a4,4,0,0,1,2.9,2.11C113.49,16.72,112.86,14.83,111.54,14.75Z"/><path class="cls-1" d="M124.71,60.57c1.16-4-.06-6.86,1.31-10,.87,2.12-.06,6.94-.53,9.48C125.62,60.61,125.12,60.55,124.71,60.57Z"/><path class="cls-1" d="M131,11.85c2.46.74,5.75-.15,8.95.79,4.15,1.23,8.35,4,7.64,7.38-1,4.56-6.9,2.51-11.33,3.16-1.39-2-5-1.8-5.79-4.48-1.4.34-1.34-.76-2.63-.53-1.71-2.21.56-4.3,2.63-5C131.05,13.1,130.57,12,131,11.85Zm6.32,10c3.61-1,6.9,1.15,9.21-1.84-1.09-5.49-6.75-6.42-12.9-6.85-.21,1.72-5.12.78-5,3.68C132.19,17.89,133.9,20.74,137.35,21.86Z"/><path class="cls-1" d="M131.29,16.33v-.79c.9-.11,1.5.08,1.32,1.05A1.71,1.71,0,0,1,131.29,16.33Z"/><path class="cls-1" d="M133.92,17.38c.75-.89.74-1.07.53-2.63C136.34,14.94,136.51,18.3,133.92,17.38Z"/><path class="cls-1" d="M137.09,18.7c0,.47.32.56.26,1.05C136.08,21,134.87,18.19,137.09,18.7Z"/><path class="cls-1" d="M137.35,16.59c0-.47.32-.55.26-1.05,1.18-.21,1.46.47,1.58,1.31C138.67,16.22,137.94,17.29,137.35,16.59Z"/><path class="cls-1" d="M137.87,18.7c.37-.65.91-.47,1.58-.26-.14.64-.22,1.35-1,1.31C138,19.59,138.36,18.74,137.87,18.7Z"/><path class="cls-1" d="M140.24,17.64a1.71,1.71,0,0,1,.27-1.31c.47,0,.55.32,1.05.26v1.32C140.74,17.61,140.87,18,140.24,17.64Z"/><path class="cls-1" d="M141.56,20.54a1.28,1.28,0,0,0,.27-.79c.9-.11,1.49.08,1.31,1.06A2.22,2.22,0,0,1,141.56,20.54Z"/><path class="cls-1" d="M142.35,19c0-1.21,1.19-1.27,1.85-1.84A1.51,1.51,0,0,1,145,18.7C144.49,19.17,143.24,18.89,142.35,19Z"/><path class="cls-1" d="M41,9.48c0,1.68.88,1.75.26,3.69,9.25,3,18.82,5.75,27.92,9A19.76,19.76,0,0,1,72.3,11.59c1.64-.38,2.59-1.45,3.68-2.37.84-.23,1,.23,1.32.53.37-.1,0-.47-.26-.53,5-.05,10.64,2.29,16.85,3.42A50.71,50.71,0,0,0,121,9.48c4.07-4.56,14.28-3.07,20.54-1.05,3.07,1,6.23,1.73,7.64,3.16,2.19,2.22,4,7.25,3.42,11.32-.12.91-1,1.84-1.05,2.9-.29,3-.53,6.43-1.58,9-.4,1-1.25,1.42-1.32,2.37-.14,2,1.61,3.2,1.05,5.53,5.87,2.1,13.63,3.81,20.28,5.53,2,.51,4.95.31,5.8,2.38-.65,1.38-2.36-.17-3.69-.53A65.24,65.24,0,0,0,164,49c-2.17-.28-4.42-1.31-6.59-1.85-2.43-.6-4.77-.69-6.84-1.58a30.35,30.35,0,0,0-1.85,7.11c-.3,1.9.16,4.18-.52,5.27-1.1,1.73-3.16,1.25-4.75,2.9-7.36,1.13-17.1,2.92-25.81,0-4.79-1.61-8.36-5.3-11.85-7.11-1.39-1.91-1.91-4.15-3.42-6.06-1.94-2.46-5.85-2.32-7.11-4.74-.31,0-.22.48-.26.79-2.55-1.3-7.29-3.17-9.48-2.37-2.64-2.36-6.25-2.5-9.22-4.22-2.19-1.26-3.69-3.3-6.06-4.47-.68-2.16-2-5-1-7.9-8.55-2.89-17-5.52-26.34-8.17a5.24,5.24,0,0,0-2.37,3.16,36.2,36.2,0,0,0-7.11-1.58c-.15-.58-1.53-.34-.79-1.05-10.65-1.63-20.67-5.63-30-7.64C.16,7-1.34,3.47,1.72,1.32,3,.41,4.78.91,6.46,0,17.79,4,28.3,6.14,41,9.48ZM3.56,6.06c0-1.11-1.5-.79-2.11-1.32C1.55,5.79,3,5.45,3.56,6.06Zm14.49,5C12.58,9.59,7.33,7.91,2,6.32c0-.28-.34-.21-.26.27C6.84,8.22,12.65,10.57,18.05,11.06ZM36,13.7c.13-.89.78-2.19.53-2.64-3.34-1.25-5.76-1.35-8.95-2.37-4.47-1.41-10.09-3.33-14.75-5C8.67,2.21,3.52.35,1.72,4,13.88,7.72,23.71,10.34,36,13.7ZM9.88,7.38c-1.22-.19-3-1.2-4-.79C7,6.93,8.84,7.87,9.88,7.38ZM21.47,10.8A67.39,67.39,0,0,0,10.14,7.9C13.8,8.81,17.86,10.71,21.47,10.8ZM38.06,9.75c-4.85-1-10.26-2.91-14.75-3.43C28.5,7.45,33.12,10.32,38.06,9.75Zm-10,3.95a27.09,27.09,0,0,0-3.42-.79A3.68,3.68,0,0,0,28.05,13.7ZM39.9,17.64a4.69,4.69,0,0,0,.53-2.1c-1-.27-3-1.15-1.31-1.84A4,4,0,0,0,42,15c-.06-1.26-2.19-.44-2.37-1.58,1-.54.62-3.39-.79-3.16C37.2,12.57,36,16.44,39.9,17.64ZM62,21.07a24,24,0,0,0-7.12-1.84C57,19.92,60.09,21.07,62,21.07Zm6.58,2.37c-.87-1.15-3.6-1.83-5-1.58C65.09,22.57,67.28,22.58,68.61,23.44Zm3.16,8.69c.26-3.09-.36-6.63-.26-8.69,2.38,1.57,0,7,1.58,9.74,0-4.15,1.25-9.13-1.85-12.11C71.2,25.1,69.18,29.07,71.77,32.13Zm21.86,2.11c9.42,1.12,13.32,8.15,20.8,11.85,4.88,2,11.62,2.29,17.39,3.69,7.43,1.8,19.33-2.06,16.33-10.54-.17-.45-.8-.43-1.06-.79-.11-.63.48-.57.27-1.32-5-6.77,3.27-10.16,3.95-16.06a12.57,12.57,0,0,0-2.11-7.9c-1-1.49-3-1.92-5-2.63-7-2.56-17-5.55-22.92.26,0,1.11,1.42,1,.79,2.11a1.55,1.55,0,0,1-1-2.37c-.73.32-2.8.69-2.37,1.31.28-.6,2.27.69,1.58,1.06-1.73.75-2-1.95-3.43-1.06.08,1.12,2.51,1.28,1.06,2.37-1.36-.22-1.33-1.83-3.16-1.58-.62,1.25,2,1.3,1.58,3.16-1.5-.43-2-1.89-3.16-2.63a23.2,23.2,0,0,0-2.64.79c.64.94,1.66,1.51,2.11,2.63-1.81.53-1.8-2.19-3.42-2.63-1.14-.31-2,.72-3.69.26,1.43,2.79,4.22,4.21,5.79,6.85-2.62-1.86-5.33-3.62-6.58-6.85-1.16.4-1.81-.27-2.63.27,1.82,2.49,6.26,4.9,6.32,7.11-2.68-2-5.39-3.92-6.59-7.38-1,.46-2.18-.38-2.37.53,1.69,1.49,3.24,3.66,5,5.53,1.61,1.7,4.65,3.4,3.95,5.79-2.81-4.39-7.48-6.92-9.75-11.85-1.17.21-1.58-.35-2.63-.26,1.82,2.37,5,4.82,7.11,7.11.81.86,2.85,2.54,1.84,3.95-2-3.18-5.19-5.21-7.37-7.9-1-1.28-1.42-3.78-3.69-3.42a9.46,9.46,0,0,0,3.69,3.68c1.24,2.64,5.06,4.05,5,7.11-3-3.1-5.75-6.53-9-9.48,0-1.18-1.4-2.45-2.63-1.58a22.1,22.1,0,0,0,2.37,2.37c1.39,3.08,4.85,4.1,6,7.38a1.19,1.19,0,0,0-.79.26c-2.73-3.67-6.31-6.51-8.69-10.53a17.78,17.78,0,0,1-2.36-.53c2.51,4,7.57,6.82,9,11.06-1.61-.54-2.35-2.69-3.69-4.21S89.66,16.39,88.36,15c-.47-1.2-1.59-1.74-2.1-2.9-.81.2-.78-.45-1.59-.26,2.74,3.15,5.54,6.23,8.43,9.22-.34,0-.24.46-.52.53C88,18.88,86.05,12.14,80.73,11.06c3,3.09,7,6.47,8.69,10-1.34-.25-1.86-1.3-2.37-2.37-.56-.33-1-.73-1.58-1.06A43.16,43.16,0,0,0,82,13.43c-1.09-1.19-2.33-3.19-4.48-3.16,2,3.09,5.87,6.6,8.7,9.75-2.67,0-2.71-2.56-4.74-3.17-.9-2-2.46-3.1-3.69-4.47-.68-.76-1.27-2.39-2.37-1.84,2.25,3.54,5.67,5.91,7.63,9.74-3.57-2.13-5.34-6.07-8.42-8.69C73.83,14,78,15.28,78.88,17.64c.81.43,2.35,1.51,1.85,2.38-2.83-1.29-4.87-5.21-7.91-7.11.76,2.34,4.1,4.32,5.27,7.11-3-.84-3.61-4.12-6.32-5.27-.54,1.11.68.72,1,1.05A10.1,10.1,0,0,1,75.72,20c-2.08-.47-2.42-2.68-4-3.69-.64,1.83,2.76,3.18,2.63,4.48-.74-.23-1.68-1.64-2.37-1.06,3.16,5.89,8.36,9.73,15,12.12-.15,0-.3.21,0,.26A10.47,10.47,0,0,1,93.63,34.24ZM74.4,34c-.23-.72.55-2.47-.52-2.37C74.12,32.33,73.34,34.08,74.4,34Zm.53-3.68c.42,4,1.23-3.05,0-2.9C75,28.82,75.37,29.36,74.93,30.29Zm.79-3.43c1.21,2.14-.4,7,1.32,9-.17-3.34,1.53-8-2.11-10v1.32A1.25,1.25,0,0,0,75.72,26.86Zm3.42,9.75c-.94-2.49.64-7-1.31-7.9C78.69,30.32,76.92,35.62,79.14,36.61Zm1.85,1c-.88-2.94.66-6.31-1.32-7.9C79.92,31.89,78.93,35.92,81,37.66Zm1.84.26c-.69-1.8-.2-4.53,0-6.84H81.25C81.84,33.69,81.1,37.66,82.83,37.92Zm2.37,1.32c.4-1.53-1.4-4-.26-5.27,1.86,1.33-.26,5,2.11,5.8.68-.92-1.74-4,.53-4.21-.2,1.77.42,2.73.26,4.47C97,41.89,104,45.77,107.33,53.46a1.73,1.73,0,0,1,1.31.27c2.26,2.83,6.2,4,9.48,5.79,2.69.57,6,1.85,9,1.32.3-2.71.84-6.51,1.32-10.27-6.79-1.36-14.62-2.38-19.76-6.33-2.08-1.59-3.27-3.33-5-4.74-2.69-2.18-6.13-2.5-10-3.94-3.14-1.17-6.28-3-10.27-3.69C83.53,34.13,82.33,38.61,85.2,39.24Zm46.35,22.12c1.24-2.94,1-6.15,1.58-10-.8.19-1-.27-1.58-.27-.5,2.71-1.09,6.56-.52,9.48-.91-.21-1.12.49-1.58,0,.42-2.77.78-7.19,1.31-9.74h-1.58c-.39,3.84-.59,7-1.58,10.27C129.5,61.51,130.08,60.88,131.55,61.36Zm2.11-7.9c-.32,2.1,0,4.66-.53,6.85-.32.06-.16.29,0,.53s.23.3.53.26c.52-2.73,2-6.86,1.05-9.74C133.53,51.34,133.75,52.89,133.66,53.46Zm1.58,7.64c0-.39.64-.24,1-.26.14-2.54,2.15-7,1.58-9.48h-1.58C135.85,54.5,134.74,58.48,135.24,61.1Zm3.95-.79c.83-3,.73-6.82,1.58-9.74-1-.18-1,.57-1.84.52-.16,3.36-1.39,7-1.32,9.75C137.88,60.4,138.73,60.55,139.19,60.31Zm3.43-4.74c-1.17-1,.48-3.5.26-5.27-3.56.33-1,6.89-2.64,9.75C142.34,60.21,140.75,56.28,142.62,55.57Zm.78,4a69.34,69.34,0,0,1,1.85-9.74,37.18,37.18,0,0,1-.79,8.69c1.58-2.78.93-6.27,1.58-9.75-3.15.63-3.11,6.72-3.69,10.8Zm3.43-3.42c-.12.5-.75.47-.53,1.31C147,57.6,147.42,56.29,146.83,56.1Zm-.27-4.74c-.17,3.25,1.09-.49.27-2.11C147.07,49.81,146.61,50.6,146.56,51.36Zm.53-17.12c.38.36.48-3.19,0-3.69C146.87,31.93,146.7,33.58,147.09,34.24Zm1.85-5.53c1.39.82-.73,3.5.26,4.74.48-2.73,1-4.45,1.32-6.85a13.23,13.23,0,0,0-3.16,3.69C148.58,30.46,148.27,29.1,148.94,28.71Zm-.79,21.86c-.24-1.83,1.11-3.45.52-4.74C147.7,46.32,147.61,50.31,148.15,50.57Z"/></g></g></svg>
