<svg width="146" height="26" viewBox="0 0 146 26" fill="none" xmlns="http://www.w3.org/2000/svg">
<path d="M26 9.55942L16.5527 8.93831L12.9948 0L9.43693 8.93831L0 9.55942L7.23805 15.7053L4.86291 25.0281L12.9948 19.888L21.1268 25.0281L18.7516 15.7053L26 9.55942Z" fill="#800000"/>
<path d="M56 9.55942L46.5527 8.93831L42.9948 0L39.4369 8.93831L30 9.55942L37.2381 15.7053L34.8629 25.0281L42.9948 19.888L51.1268 25.0281L48.7516 15.7053L56 9.55942Z" fill="#800000"/>
<path d="M86 9.55942L76.5527 8.93831L72.9948 0L69.4369 8.93831L60 9.55942L67.2381 15.7053L64.8629 25.0281L72.9948 19.888L81.1268 25.0281L78.7516 15.7053L86 9.55942Z" fill="#800000"/>
<path d="M116 9.55942L106.553 8.93831L102.995 0L99.4369 8.93831L90 9.55942L97.2381 15.7053L94.8629 25.0281L102.995 19.888L111.127 25.0281L108.752 15.7053L116 9.55942Z" fill="#800000"/>
<path d="M146 9.55942L136.553 8.93831L132.995 0L129.437 8.93831L120 9.55942L127.238 15.7053L124.863 25.0281L132.995 19.888L141.127 25.0281L138.752 15.7053L146 9.55942Z" fill="#800000"/>
</svg>
