<svg width="1424" height="141" viewBox="0 0 1424 141" fill="none" xmlns="http://www.w3.org/2000/svg">
<path d="M0 139.243C5.26555 138.95 12.14 138.804 19.1608 138.804C27.6442 138.804 31.3008 139.097 36.5664 139.243V138.218C23.8413 137.779 18.722 133.826 23.695 119.037C27.3516 108.202 31.0083 99.5639 31.7396 97.9533H66.1119C68.5985 104.542 72.8401 115.084 75.3266 122.698C78.9833 134.118 73.864 137.34 62.0165 138.218V139.243C68.7447 138.95 76.4968 138.804 86.1503 138.804C94.3412 138.804 101.801 138.95 108.968 139.243V138.218C99.0217 137.047 96.5352 132.508 90.2458 117.72C79.5684 92.3894 64.6493 56.2243 57.336 35.8723L56.6047 36.1651C47.5362 58.7134 28.083 101.76 18.8682 121.526C13.3101 133.679 9.36099 137.34 0 138.072V139.243ZM32.4709 96.0498L49.4377 56.6636C53.3869 66.3271 61.5777 86.3863 65.2344 96.0498H32.4709Z" fill="#9C3535"/>
<path d="M167.04 141C181.52 141 191.32 135.583 198.048 125.333C203.46 117.573 205.361 105.128 205.361 91.2181V60.1776C205.361 43.0467 208.14 39.0935 221.158 38.3614V37.3364C213.845 37.6293 209.603 37.7757 203.606 37.7757C194.538 37.7757 192.051 37.6293 185.323 37.3364V38.3614C199.657 39.5327 202.582 42.9003 202.582 60.1776V91.6573C202.582 105.274 200.681 115.816 195.854 122.405C190.588 129.872 180.057 133.679 169.38 133.679C157.386 133.679 147.44 128.555 143.491 117.573C141.297 111.57 141.004 102.785 140.858 91.8037V60.1776C141.004 42.9003 143.637 39.0935 157.532 38.3614V37.3364C147.733 37.6293 143.345 37.7757 133.837 37.7757C124.769 37.7757 118.48 37.6293 108.826 37.3364V38.3614C122.868 39.2399 125.354 42.7539 125.354 60.1776V91.8037C125.354 112.741 128.718 121.673 133.106 127.237C139.834 136.168 149.78 141 167.04 141Z" fill="#9C3535"/>
<path d="M297.74 92.0966V55.4922C297.74 49.3427 297.887 44.3645 298.179 38.8006C319.826 38.6542 327.725 49.0498 327.725 65.3022C327.725 82.5794 317.925 92.8287 297.74 92.0966ZM265.562 139.243C275.069 138.95 279.457 138.804 288.672 138.804C298.472 138.804 303.737 138.95 314.853 139.243V138.218C300.227 137.632 297.74 131.922 297.74 116.255V93.2679C303.591 93.8536 306.516 94.5857 313.244 94.1464C329.334 93.1215 344.253 82.7259 344.253 65.3022C344.253 42.4611 324.068 37.3364 304.615 37.3364H265.562V38.3614C280.335 38.947 282.382 43.7788 282.382 59.2991V117.134C282.382 132.654 279.896 137.632 265.562 138.218V139.243Z" fill="#9C3535"/>
<path d="M356.544 139.243C373.803 138.657 382.286 138.804 398.961 138.804C412.709 138.804 419.438 138.95 433.625 139.243C436.405 137.193 437.867 133.826 438.599 126.505C438.745 123.283 439.476 113.766 439.622 110.252H438.745C434.064 127.676 424.996 137.047 406.713 137.047C391.355 137.047 388.722 133.826 388.722 118.891V87.2648H394.134C420.315 87.4112 422.071 90.7788 423.679 103.224H424.703V71.7445H423.826C421.485 82.1402 420.315 85.3614 394.134 85.5078H388.722V52.8567C388.722 48.6106 389.015 41.1433 389.161 39.2399H392.525C418.853 39.6791 426.458 43.1931 430.993 63.1059H431.87L432.455 50.9533C432.748 45.3894 433.04 39.8255 430.846 37.0436C416.659 37.4829 407.59 37.6293 393.988 37.7757C379.361 37.9221 366.636 37.6293 356.544 37.3364V38.3614C369.561 39.2399 373.364 41.729 373.364 58.8598V116.695C373.364 132.801 370.878 137.632 356.544 138.218V139.243Z" fill="#9C3535"/>
<path d="M471.709 139.243C482.387 138.95 486.775 138.804 495.989 138.804C506.082 138.804 510.762 138.95 520.855 139.243V138.218C507.544 137.632 504.18 133.386 504.18 117.28V61.4953C504.18 54.028 504.327 39.3863 504.327 39.3863C529.338 39.5327 535.189 45.243 540.015 66.0343L541.039 65.8878L540.6 47.8785C540.454 43.0467 539.723 38.947 538.114 36.4579C535.335 37.7757 529.63 38.0685 525.974 38.0685H466.444C463.08 38.0685 457.083 37.7757 454.596 36.4579C452.987 38.947 452.256 43.0467 452.11 47.8785L451.671 65.8878L452.695 66.0343C457.668 45.243 463.811 39.3863 488.53 39.3863C488.53 39.3863 488.676 54.028 488.676 61.4953V117.134C488.676 132.801 486.043 137.486 471.709 138.218V139.243Z" fill="#9C3535"/>
<path d="M585.564 59.2991C585.564 44.0716 587.905 38.947 602.092 38.3614V37.3364C592.731 37.6293 586.734 37.7757 577.227 37.7757C568.013 37.7757 562.601 37.6293 553.386 37.3364V38.3614C568.159 38.947 570.06 44.0716 570.06 59.2991V117.134C570.06 132.947 567.281 137.632 553.386 138.218V139.243C563.039 138.95 568.305 138.804 577.373 138.804C587.173 138.804 593.463 138.95 601.946 139.243V138.218C589.221 137.779 585.564 133.533 585.564 117.28V59.2991Z" fill="#9C3535"/>
<path d="M634.532 139.243C645.21 138.95 649.598 138.804 658.812 138.804C668.905 138.804 673.585 138.95 683.678 139.243V138.218C670.367 137.632 667.003 133.386 667.003 117.28V61.4953C667.003 54.028 667.15 39.3863 667.15 39.3863C692.161 39.5327 698.012 45.243 702.838 66.0343L703.862 65.8878L703.423 47.8785C703.277 43.0467 702.546 38.947 700.937 36.4579C698.158 37.7757 692.454 38.0685 688.797 38.0685H629.267C625.903 38.0685 619.906 37.7757 617.419 36.4579C615.81 38.947 615.079 43.0467 614.933 47.8785L614.494 65.8878L615.518 66.0343C620.491 45.243 626.634 39.3863 651.353 39.3863C651.353 39.3863 651.499 54.028 651.499 61.4953V117.134C651.499 132.801 648.866 137.486 634.532 138.218V139.243Z" fill="#9C3535"/>
<path d="M810.725 139.389L812.041 138.657C823.304 109.374 839.1 71.1589 849.632 46.2679C850.363 65.7414 851.387 103.956 851.387 121.087C851.387 133.093 848.315 137.047 835.59 138.218V139.243C845.097 138.95 851.387 138.804 860.748 138.804C868.646 138.804 874.789 138.95 883.126 139.243V138.218C870.986 137.047 868.061 133.679 867.183 121.526C866.598 109.813 865.721 79.3583 865.428 54.3209C865.428 44.5109 866.598 38.947 880.201 38.3614V37.3364C875.521 37.4829 869.67 37.6293 863.819 37.6293C859.139 37.6293 855.044 37.6293 850.217 37.4829C839.832 64.8629 827.984 93.5607 818.038 116.841C807.946 93.8536 795.952 64.4237 785.714 37.4829C780.009 37.6293 775.914 37.6293 770.648 37.6293C764.359 37.6293 760.702 37.4829 753.974 37.3364V38.3614C768.893 40.1184 770.941 42.6075 770.356 54.6137C769.332 78.3333 768.308 98.0997 766.699 118.012C765.236 133.679 759.532 137.34 748.709 138.218V139.243C756.461 138.95 759.825 138.804 767.284 138.804C774.597 138.804 778.254 138.95 785.86 139.243V138.218C774.744 137.486 769.771 134.265 770.063 118.745C770.356 97.3676 771.672 66.3271 772.842 48.0249C785.567 77.6012 799.901 111.717 810.725 139.389Z" fill="#9C3535"/>
<path d="M891.533 139.243C896.799 138.95 903.673 138.804 910.694 138.804C919.177 138.804 922.834 139.097 928.1 139.243V138.218C915.374 137.779 910.255 133.826 915.228 119.037C918.885 108.202 922.542 99.5639 923.273 97.9533H957.645C960.132 104.542 964.373 115.084 966.86 122.698C970.517 134.118 965.397 137.34 953.55 138.218V139.243C960.278 138.95 968.03 138.804 977.684 138.804C985.874 138.804 993.334 138.95 1000.5 139.243V138.218C990.555 137.047 988.068 132.508 981.779 117.72C971.102 92.3894 956.183 56.2243 948.869 35.8723L948.138 36.1651C939.069 58.7134 919.616 101.76 910.401 121.526C904.843 133.679 900.894 137.34 891.533 138.072V139.243ZM924.004 96.0498L940.971 56.6636C944.92 66.3271 953.111 86.3863 956.768 96.0498H924.004Z" fill="#9C3535"/>
<path d="M1009.98 139.243C1019.64 138.95 1023.88 138.804 1033.09 138.804C1042.89 138.804 1048.31 138.95 1058.4 139.243V138.218C1044.5 137.486 1042.16 131.922 1042.16 116.402V91.9502C1045.97 92.5358 1050.94 92.6822 1055.03 92.6822C1058.54 99.4174 1061.47 104.981 1065.71 112.449C1070.1 119.916 1074.63 126.797 1078.58 130.751C1084.43 136.461 1091.89 140.121 1104.03 140.121C1107.84 140.121 1111.64 139.829 1115.73 139.243L1115.88 138.218C1106.23 137.779 1097.01 131.922 1084.14 113.327C1077.85 104.103 1073.61 96.1963 1069.51 88.5825C1081.95 84.6293 1089.85 75.2586 1090.14 65.0093C1090.87 43.9252 1072.59 37.3364 1049.91 37.3364H1009.98V38.3614C1024.61 38.947 1026.8 43.7788 1026.8 58.7134V116.988C1026.8 132.654 1024.46 137.632 1009.98 138.218V139.243ZM1042.16 90.7788V55.4922C1042.16 48.757 1042.46 44.2181 1042.6 38.8006C1065.71 38.8006 1073.76 49.9283 1073.76 65.7414C1073.76 74.9657 1070.98 81.2617 1065.71 85.3614C1060.45 89.4611 1052.55 91.0716 1042.16 90.7788Z" fill="#9C3535"/>
<path d="M1168.52 141C1176.71 141 1183.59 139.975 1190.46 138.218C1196.9 136.461 1199.68 134.704 1200.99 129.14C1201.58 126.212 1202.31 121.673 1203.04 109.52H1202.02C1197.34 126.944 1186.07 139.536 1169.11 139.536C1144.39 139.536 1135.47 120.062 1135.47 87.9969C1135.47 57.8349 1145.12 37.0436 1168.08 37.0436C1185.93 37.0436 1197.19 51.2461 1200.55 70.4268H1201.72C1202.02 66.1807 1202.16 53.2959 1202.02 50.6604C1201.43 43.7788 1199.09 41.1433 1192.07 38.947C1184.17 36.3115 1175.25 35.5794 1168.08 35.5794C1138.98 35.5794 1117.33 53.8816 1117.33 89.0218C1117.33 123.723 1138.39 141 1168.52 141Z" fill="#9C3535"/>
<path d="M1215.8 139.243C1225.46 138.95 1230.72 138.804 1239.94 138.804C1249.74 138.804 1255.59 138.95 1264.07 139.243V138.218C1251.64 137.779 1247.98 133.533 1247.98 117.28V87.4112H1297.56V117.134C1297.56 133.533 1294.2 137.486 1281.04 138.218V139.243C1291.13 138.804 1296.69 138.804 1306.49 138.804C1315.7 138.804 1319.94 138.95 1329.6 139.243V138.218C1316.14 137.779 1313.07 133.533 1313.07 117.134V58.1277C1313.07 43.9252 1315.99 38.8006 1329.6 38.3614V37.3364C1319.65 37.7757 1315.41 37.7757 1305.75 37.7757C1296.54 37.7757 1291.13 37.7757 1281.47 37.3364V38.3614C1294.35 38.8006 1297.56 44.0716 1297.56 58.1277V85.6542H1247.98V59.2991C1247.98 44.0716 1250.32 39.0935 1264.22 38.3614V37.3364C1254.85 37.6293 1249.3 37.7757 1239.79 37.7757C1230.57 37.7757 1225.16 37.6293 1215.8 37.3364V38.3614C1230.57 38.947 1232.62 44.0716 1232.62 59.2991V117.134C1232.62 132.947 1229.84 137.632 1215.8 138.218V139.243Z" fill="#9C3535"/>
<path d="M1340.92 139.243C1358.18 138.657 1366.66 138.804 1383.34 138.804C1397.09 138.804 1403.82 138.95 1418 139.243C1420.78 137.193 1422.24 133.826 1422.98 126.505C1423.12 123.283 1423.85 113.766 1424 110.252H1423.12C1418.44 127.676 1409.37 137.047 1391.09 137.047C1375.73 137.047 1373.1 133.826 1373.1 118.891V87.2648H1378.51C1404.69 87.4112 1406.45 90.7788 1408.06 103.224H1409.08V71.7445H1408.2C1405.86 82.1402 1404.69 85.3614 1378.51 85.5078H1373.1V52.8567C1373.1 48.6106 1373.39 41.1433 1373.54 39.2399H1376.9C1403.23 39.6791 1410.84 43.1931 1415.37 63.1059H1416.25L1416.83 50.9533C1417.13 45.3894 1417.42 39.8255 1415.22 37.0436C1401.04 37.4829 1391.97 37.6293 1378.37 37.7757C1363.74 37.9221 1351.01 37.6293 1340.92 37.3364V38.3614C1353.94 39.2399 1357.74 41.729 1357.74 58.8598V116.695C1357.74 132.801 1355.26 137.632 1340.92 138.218V139.243ZM1378.66 31.6262L1408.35 10.9813L1397.67 0L1377.78 30.8941L1378.66 31.6262Z" fill="#9C3535"/>
</svg>
