<svg xmlns="http://www.w3.org/2000/svg" viewBox="0 0 176.98 215.83"><defs><style>.cls-1{fill:#605959;}</style></defs><g id="Layer_2" data-name="Layer 2"><g id="Layer_1-2" data-name="Layer 1"><path class="cls-1" d="M13,88.88l.95.12c-.43-1.46-.85-2.8-1.24-4.16-.25-.91-.4-1.85-.69-2.75-.35-1.07-.77-2.13-1.22-3.16s-1-1.79-1.35-2.74-.48-2-.76-3c-.4-1.45-.85-2.89-1.27-4.33s-.82-3.11-1.3-4.64C5.45,62.13,4.77,60.06,4,58c-.54-1.43-.43-1.85,1.1-2.77a22.24,22.24,0,0,1,2.67-1.7c2.13-.88,4.31-1.7,6.71-.46a18.16,18.16,0,0,0-1.73-6.66c-1.1-2.42-1.66-5.08-2.57-7.59s-.29-3.43,2.07-5.07c.73-.51,1.52-.94,2.3-1.38,2.56-1.44,3.71-1.31,5.56.49,3.39-2.25,6.84-1.34,10.49-.67,1.51-.77,2.92-2.65,5.53-1.42,0-1.4-.07-2.66,0-3.92a3.53,3.53,0,0,1,3.47-3.53,38,38,0,0,1,4.64-.29,7.48,7.48,0,0,1,2.32,1,27.33,27.33,0,0,0,.3-3.5,3.14,3.14,0,0,1,1.49-2.71,14.23,14.23,0,0,1,7.42-2.79c.78-.08,1.7.84,2.52,1.37.26.16.39.53.78,1.09.08-.84.13-1.35.17-1.86l.72-8c.05-.46.13-.92.21-1.37a3.23,3.23,0,0,1,3.27-2.87,43.59,43.59,0,0,0,4.92-.84,2.72,2.72,0,0,1,3.1,1.22c.65.92,1.4,1.76,2.12,2.62a3.67,3.67,0,0,1,1.09,3.18,1.39,1.39,0,0,0,.47,1.11c3.51,2.85,4.72,6.79,5.4,11,.46,2.89,1.06,5.77,1.49,8.67.19,1.22.06,2.49.13,3.73a4.35,4.35,0,0,0,.4,1.07c.2-.22.24-.24.24-.27.27-6.54.47-13.09.85-19.63.16-2.81.67-5.61,1-8.41.14-1.11.38-2.22.44-3.33a1.88,1.88,0,0,1,1.56-1.9C88.8,1.17,90.92.73,93,.29,93.68.16,94.34.12,95.26,0a49.6,49.6,0,0,0,3.22,4,7,7,0,0,1,2,6.16,14.84,14.84,0,0,0,0,1.66c1.3-.58,2.44-1,3.54-1.58,2.47-1.23,7.11-2.13,9.35.18a19.36,19.36,0,0,1,2.75,4.51,20.26,20.26,0,0,1,1.24,3,2.88,2.88,0,0,1,.17,1.36c-.37,2.43-.72,4.87-1.23,7.28-.4,1.89-1,3.73-1.56,5.6a1.08,1.08,0,0,0,.1.82c.72-1,1.44-2.08,2.18-3.11.44-.62,1-1.21,1.34-1.86a3.37,3.37,0,0,0,.43-1.38c.06-.89,0-1.78,0-2.54a15.64,15.64,0,0,0,1.4-1.54c1.14-1.68,2.93-1.66,4.65-1.94a3.34,3.34,0,0,0,1.59-.8c1.24-1.17,2.33-2.5,3.6-3.64,1.46-1.3,2.48-1.19,3.87.12a26.79,26.79,0,0,1,2.47,2.28,8.07,8.07,0,0,1,1.56,2.74,20.09,20.09,0,0,1,.58,4,3.49,3.49,0,0,1-.24,1.82c-1.11,2.16-2.36,4.25-3.49,6.41a6.18,6.18,0,0,0-1,2.65c0,2.92.19,5.84.31,8.76l.45,0c.44-1.53.82-3.08,1.33-4.59a38,38,0,0,1,2.25-5.83,3.78,3.78,0,0,1,2.63-1.6c1.66-.16,3.44-.06,4.59,1.6.21.3.7.41,1,.57,1,2,2,4,2.82,6,.4,1,.88,2.24-.07,3.36a5.35,5.35,0,0,0-.51,1.39,23.15,23.15,0,0,0,3.9.58,4.52,4.52,0,0,1,3.68,1.87c.71,1,.65,2.49.9,3.78.1.55.1,1.13.17,2-2.66,7.54-5.43,15.42-8.2,23.29l.47-.06a16.52,16.52,0,0,1,.69,1.71c.78,3,1.52,6,2.3,9,1,4,2.1,7.91,3.08,11.88.76,3,1.43,6.09,2.09,9.15.7,3.21,1.34,6.43,2,9.64,1.48,6.79,3,13.57,4.47,20.37.8,3.73,1.36,7.52,2.18,11.25.91,4.11,2.06,8.16,3,12.27,1.17,5.27,2.11,10.6,3.33,15.86s2.62,10.57,4.07,15.82c.63,2.28-.08,4.29-.81,6.3a18.52,18.52,0,0,1-2.22,4.45c-1.26,1.77-2.4,3.81-5,4.14-2.72.34-5.45.63-8.12,1.22-4.73,1-9.49.73-14.26.74-5.43,0-10.88-.09-16.29.28-3.56.24-7.06,1.26-10.6,1.85-3.92.65-7.85,1.29-11.8,1.76-3.15.38-6.33.57-9.5.71-1.65.08-3.31-.19-5-.19a115.19,115.19,0,0,1-12.3-.66c-4.12-.45-8.13-1.28-12.17-2.12a30.75,30.75,0,0,0-6.56-.6c-3.84.05-7.67.29-11.5.57-2.27.16-4.52.72-6.78.78-3.52.1-7-.17-10.57-.14-6,.06-11.78-1.43-17.38-3.34-3.18-1.09-6.09-3-9.11-4.47-1.06-.53-2.1-1.06-3.14-1.63a6.94,6.94,0,0,1-3.58-4.58,9.38,9.38,0,0,1,.3-3.95c.47-2.22,1.24-4.39,1.69-6.61.62-3,1.15-6.06,1.56-9.11.65-4.76,1.17-9.55,1.75-14.33.48-3.94,1-7.87,1.44-11.81.52-4.56.95-9.14,1.48-13.7.24-2.11.62-4.2.92-6.3.11-.76.49-1.55-.45-2.15-.19-.12-.11-.82,0-1.21.57-2,1.29-3.89,1.76-5.87s.82-4.24,1.1-6.37c.62-4.63,1.2-9.26,1.71-13.9.37-3.29.65-6.6.86-9.91A18.64,18.64,0,0,0,14,90.28C13.92,89.8,13.38,89.4,13,88.88ZM64.66,204.8l1.56.69c.69-.78.8-1.4.19-1.87-1-.78-2.11-1.47-3.26-2.26,0,1.51.3,2.71,1.55,3.48l-.89-.09c-.12,3,2.66,3,4.3,4.16l-.55-1.59-2-.26c.22-.56.33-.87.39-1Zm70.9-125.51c2.19-2.87,4.67-5.56,5.28-9.2-1,1.42-2.1,2.93-3.19,4.43a9.51,9.51,0,0,0-2.05,4.81l-.68,1.34.21.2,1-.55s-.07-.11-.11-.17l-.6.24C135.45,79.94,135.51,79.61,135.56,79.29ZM74.05,210l-1.42-.42c.67,1.81,1.61,3.1,3.61,3.27.91.07,1.8.4,2.72.52,2.19.31,4.4.56,7,.88-1.84-.78-3.34-1.37-4.8-2s-2.82-1.41-4.23-2.12a1.52,1.52,0,0,0,.46,1.1,4.39,4.39,0,0,0,1.16.53c.3.12.61.22.93.33l-.06.18-1.92-.37,1,.89-.09.11L74,210l2.77.87c-1.21-2.09-3.29-2.44-4.89-3.71a2.07,2.07,0,0,0,1.33,2.2A3.54,3.54,0,0,1,74.05,210ZM151.13,67.32c.12,0,.33-.06.36-.14.78-1.89,1.57-3.77,2.28-5.69a48.92,48.92,0,0,1,2-5.65c1.27-2.5.1-4.61-.62-6.89.26,6.49-2.75,12.24-4,18.38-.1.61-.19,1.22-.29,1.84h.28ZM167.55,205.5c.46.75.93,1.49,1.53,2.45l1.72-1.26a4,4,0,0,0,.71-.57,23.56,23.56,0,0,0,4-8.81,1.13,1.13,0,0,0-.2-.85c-.77-1-1.6-1.87-2.41-2.8l-1.26-1.45.21-.17,3.65,3.9a25.6,25.6,0,0,0-1.14-4.21c0-.08-.15-.13-.22-.19a8.79,8.79,0,0,1-1.37-1.2c-1.42-1.9-2.75-3.87-4.17-5.78-1.09-1.49-2.25-2.94-3.39-4.4l0,0c.22.08.52.09.65.24,1.12,1.29,2.21,2.61,3.32,3.92l.18-.06-1.5-3.77.21-.07,5.83,10.65c.26-.28.28-.43.24-.57-.65-2.7-1.28-5.4-2-8.09a10.29,10.29,0,0,0-.95-2.8,19.87,19.87,0,0,0-2.3-2.91c-1.31-1.49-2.67-2.95-4-4.42l-.22.18,1.68,3.26-.5.32c-2-3.91-4-7.73-7.74-10.26l4.15,4.76-.27.23c-1-1.12-1.94-2.28-3-3.36-4-4.22-8-8.45-12-12.62-1.14-1.17-2.49-2.14-3.76-3.21l.28-.38c-.86-1.46-2.82-2.1-2.73-4.06,6.68,7.75,14.73,14.11,21.62,21.61l-2.28-5,.57-.3a24.55,24.55,0,0,0,8.75,12.63c-.47-.82-1-1.59-1.38-2.39-1.54-3-2.62-6.2-4.71-8.87s-4.43-5.59-6.73-8.31a64.74,64.74,0,0,0-12.51-11.44c-.31-.21-.6-.43-.91-.65l.35-.39c7.81,5,13.76,12,19.49,19.16-.69-1.43-1.56-2.72-2.24-4.11s-1.78-2.5-2.05-4.22c.32.11.43.12.45.16,1.5,3,2.93,6,4.51,8.89,1,1.88,2.25,3.66,3.38,5.48a5.47,5.47,0,0,1,.48.8c.5,1.31.93,2.64,1.46,3.93.43,1,1,2,1.45,3,.2.43.37.87.55,1.31l.44-.15c-1-4.55-1.92-9.11-2.74-13-1.29-1.48-2.19-2.45-3-3.47-4.74-5.73-9.41-11.51-14.21-17.19-2.18-2.57-4.62-4.91-6.92-7.39a4.5,4.5,0,0,1-.55-1.07l.41-.2c4.1,4.57,8.29,9.06,12.29,13.73s7.73,9.45,11.67,14.28c-.57-2.26-1.15-4.37-1.62-6.51-.84-3.79-1.62-7.61-2.43-11.41q-1.35-6.22-2.71-12.45c-.92-4.21-1.86-8.42-2.76-12.64-.46-2.15-.78-4.32-1.24-6.46-.58-2.68-1.25-5.33-1.87-8-.74-3.19-1.46-6.38-2.22-9.56-1-4.12-2-8.23-3-12.34-.42-1.75-.86-3.49-1.3-5.31a49.1,49.1,0,0,1-4.82,1.44c-2.72.53-5.5.77-8.21,1.33-3.13.64-6.25,1.38-9.31,2.31-5.55,1.68-11.31,1.45-17,2.11a21.06,21.06,0,0,1-5.38-.11c-1.76-.27-3.47.14-5.22,0-3.33-.24-6.69-.07-10-.07l-18.68.06c-2.66,0-5.32,0-8-.08-5.07-.12-10.14-.38-15.21-.39-2.56,0-5.12.42-7.69.63-2.41.2-4.63-.68-6.91-1.29a11.41,11.41,0,0,0-3.73-.36,28.34,28.34,0,0,1-7.75-.08c-2.18-.44-4.42-.57-6.68-.84.12,1.29.21,2.39.34,3.49.23,2,.53,3.9.71,5.87.4,4.41-.85,8.67-1.28,13-.36,3.62-1,7.22-1.45,10.83,1.35-3.3,2.36-6.73,4.48-9.67-2.1,4.6-4.1,9.23-4.93,14.24l6-13a1.74,1.74,0,0,1,0,1.28c-1.23,2.67-2.53,5.32-3.7,8-1.3,3-3,5.81-3.23,9.16-.08,1.11-.35,2.21-.53,3.31-.22,1.44-.44,2.88-.65,4.27L19,113.66a4.52,4.52,0,0,1-.27,2.27c-2,4.72-4,9.39-5.91,14.13a66.6,66.6,0,0,0-3.11,9.32,69,69,0,0,0-1,8.64c0,.2.14.41.22.61h0c-.24,1.52-.52,3-.71,4.56-.79,6.3-1.51,12.6-2.31,18.9-.5,3.9-1,7.81-1.69,11.69a11.84,11.84,0,0,0,.58,7c1,2.23,2,4.47,2.94,6.7.42.94.83,1.9,1.24,2.84l-.39.17C6.8,196.52,5,192.59,3.32,188.82c-.54,2.28-1.13,4.79-1.75,7.44l5.65,8.39a32.15,32.15,0,0,1-5.64-7.81,5.6,5.6,0,0,0,2.18,5.91c1.16.68,2.23,1.53,3.41,2.15,2.43,1.27,4.85,2.57,7.38,3.6a48.8,48.8,0,0,0,5.77,1.63,48.1,48.1,0,0,0,14.16,2c2.39-.07,4.78,0,7.18,0,0,0,0-.21.05-.39l0,0a5.78,5.78,0,0,0,1.83.48c2.57-.23,5.12-.66,7.69-.84,2.8-.2,5.61-.28,8.42-.28,2.57,0,5.15.07,7.71.29a29.24,29.24,0,0,1,4.18,1c-1.07-.78-2.13-1.21-2.67-2-1.08-1.59-2.92-1.69-4.34-2.58l.75,2.06-.16.05L63,206.32l.49,0c.42-2.46-1.71-2.68-3.11-3.67.32,2,.32,2,2.67,3.72l-1.63-.4c.21.44.39.82.7,1.49-.4-.28-.62-.35-.66-.48-.5-1.58-1.88-2.23-3.11-3.09-1.49-1.05-2.87-2.24-4.26-3.41a5.13,5.13,0,0,1-.72-1l6.94,5.4c-.17-1.93-.55-2.62-1.73-3.41-.64-.42-1.31-.83-1.91-1.31a5.36,5.36,0,0,1-.84-1L56,199c1.07.79,2.15,1.57,3.35,2.44-.19-1.32-.4-2.44-.51-3.57-.4-4.34-.87-8.67-1.12-13-.24-4.13-.29-8.27-.31-12.41,0-3,.16-6,.28-9a1.35,1.35,0,0,1,.31-.63c0,2.64,0,5.37,0,8.1.09,5.16.07,10.33.37,15.48.28,4.67,1,9.31,1.36,14,.17,2.11,1.84,2.35,3.07,3.19l.34-.18c-.41-1.16-.82-2.31-1.3-3.63a1.68,1.68,0,0,0,.26-.76c-.14-2.48-.35-5-.49-7.42-.17-3-.37-6.07-.41-9.11-.07-5,0-10,0-15.05a5,5,0,0,1,.37-1.33,45.39,45.39,0,0,1,.26,6.14c0,3.45-.2,6.9-.07,10.34.18,5.16.58,10.3.88,15.45a5.2,5.2,0,0,0,3.86,5c-1.32-5.18-1.46-10.41-1.6-15.65s-.22-10.51-.33-15.77H65c.1,1.44.24,2.87.29,4.31.26,8.1,0,16.23,1.07,24.29.16,1.17.21,2.58.88,3.39.9,1.08,2.36,1.69,3.58,2.51-.75-2.3-.3-4.82-2.12-6.68l.41-.19.8,1.09c-.06-1.05-.38-2-.47-3-.21-2.22-.33-4.45-.42-6.67q-.27-6.88-.46-13.76c0-.31.27-.63.42-.95l.43.16c0,3.46-.08,6.91,0,10.36s.32,7,.62,10.45a9.76,9.76,0,0,0,1,4.36c.8,1.21,2.39,1.9,3.83,3-1.39-6.69-1.55-21.88-.36-23.55-.37,7.85-.73,15.75.79,23.78l2.93,1.9c-.48-3.37-1.13-6.47-1.32-9.6-.2-3.28,0-6.58.1-9.87,0-.38.35-.74.53-1.11l.28.14a8.85,8.85,0,0,0-.39,1.85c0,6-.21,12,1.2,18a3.1,3.1,0,0,0,1.06,1.49,29.52,29.52,0,0,0,2.46,1.67l-.08.09-3-1.49-.34.27c.79,1.33,1.28,3.05,2.42,3.92a14.72,14.72,0,0,0,8.19,2.82c2.11.14,4.24,0,6.36,0,.95,0,1.92.18,2.87.11,3-.22,6.09-.42,9.11-.81,3.89-.51,7.78-1.11,11.64-1.81,4.28-.78,8.48-2,12.9-1.95,2.28,0,4.56,0,6.84,0,4.37,0,8.75.11,13.12,0,2.87-.08,5.72-.49,8.58-.74,0-.14,0-.28,0-.42-1.39-.49-2-2.23-3.5-2.21-.67-.67-1.25-1.24-1.81-1.82h0l.87-.15c-.2-.47-.34-.87-.53-1.24-.69-1.36-1.14-3-2.17-4-2.06-2.08-4.45-3.83-6.7-5.72q-6.65-5.58-13.29-11.18a5.24,5.24,0,0,1-.72-1l.21-.16L153,197.84l.12-.16-1.56-3.14.49-.28c1.51,3,2.84,6.07,6,7.69l-.27-1.56,2.16,3.55c-.1.24-.32.51-.28.73a10.15,10.15,0,0,0,.5,1.4l-.28.16a7.2,7.2,0,0,0-4.41-5.27c1,2.23,1.24,4.72,3.63,6.14,1.56.93,2.83,2.08,4.91,1.36a20.48,20.48,0,0,1,4.33-.59C168,207,167.78,206.24,167.55,205.5Zm-77.69-121c.31-1.56.62-3.11.92-4.67l-.34-.1c-.64,1.59-1.9,2.93-2,4.91l1.44-.18a2.6,2.6,0,0,0,.82.37q1.2.07,2.4,0c1.47-.06,2.94-.15,4.36-.23.24-1.09.42-2,.65-3a12,12,0,0,0,0-6.5c-.72-2.44-1.07-5-1.56-7.5-.39-2-.75-4-1.15-6.2-.1.4-.16.62-.2.83q-1.2,6-2.39,11.95c-.57,2.84-1.12,5.69-1.79,8.51A6.45,6.45,0,0,1,89.86,84.51Zm-19-73.26-.09.15a8,8,0,0,0-1.55.24c-2.52.89-3.44,2.23-3.14,5q.91,8.37,2,16.73c.2,1.48.93,2.89,1.09,4.37.2,2,0,4,.11,5.92.52,6.92,1.12,13.83,1.7,20.74.11,1.38.3,2.75.41,4.13s.13,2.68.28,4c.2,1.84.54,3.67.72,5.51.24,2.33.38,4.67.56,7A39.43,39.43,0,0,1,77,84.75c1.08,0,1.66-.3,1.91-1.37.61-2.69,1.34-5.34,1.9-8a43.87,43.87,0,0,0,1.26-7.66,53.78,53.78,0,0,0-.85-8c-.11-.92-.37-1.82-.65-3.11-.26.8-.4,1.21-.53,1.62l-.47-.08c.1-.84.25-1.68.3-2.52a23.15,23.15,0,0,0,0-3.33c-.2-2.24-.54-4.46-.77-6.69-.34-3.28-.5-6.57-1-9.82-.88-5.79-1.89-11.55-3-17.3-.48-2.5-.21-5.22-2.07-7.63ZM29.69,83.48c0-1.41,0-2.46,0-3.5-.07-2.34-.1-4.68-.28-7a41.93,41.93,0,0,1,.07-7.26c.32-3.26,0-6.58.1-9.87.1-4.81.32-9.61.39-14.42,0-2.39-.1-4.79-.29-7.17a1.68,1.68,0,0,0-1.09-1.19c-2.14-.13-4.29-.06-6.13-.06C19.33,49.88,20,66.64,19.33,83.48Zm57.93,1.26c.6-3.27,1.15-6.5,1.78-9.72.71-3.56,1.54-7.1,2.23-10.68.56-3,.94-6,1.5-9,.6-3.2,1.38-6.36,2-9.56s1-6.39,1.45-9.6c.27-2.15.35-4.32.53-6.75-2.27,0-4.36,0-6.45,0-.26,0-.66.46-.74.78-.32,1.26-.55,2.54-.79,3.82-.81,4.27-1.56,8.55-2.43,12.8s-2,8.3-2.74,12.49c-.84,4.79-1.24,9.67-2.09,14.46-.63,3.58-.55,7.39-2.72,10.59,0,0,0,.14.07.33Zm-20.79-16-.4-.14a11.34,11.34,0,0,1,0-1.75c.11-.68.46-1.34.52-2,.42-4.44.78-8.88,1.16-13.33a71.89,71.89,0,0,0-.83-15.3,2.08,2.08,0,0,0-2.43-1.94c-2.19.55-4.7.8-5.22,3.74-.1.61-.35,1.21-.39,1.82-.16,2.63-.36,5.26-.37,7.9,0,5.07.13,10.15.14,15.23,0,4.5,0,9-.15,13.49C58.78,79,59.14,81.61,58,84c-.07.13,0,.35.12.7H65.9c.06-.45.17-1,.2-1.51.15-2.82.29-5.65.4-8.47,0-1,.6-2.11-.82-2.69C66.08,70.9,66.46,69.81,66.83,68.72Zm57.72,12,.25,0c.9-3.43,1.77-6.87,2.71-10.3,1.12-4.09,2.3-8.17,3.44-12.26a2.06,2.06,0,0,0,0-.89c-.12-.84-.34-1.66-.42-2.5-.22-2.39-.33-4.8-.59-7.18-.46-4.28-1.07-8.53-1.49-12.81-.29-3-.27-6-.6-9-.41-3.83-1.77-4.66-5.39-3.32-1.23.45-2.62,1.14-2.66,2.73A87.9,87.9,0,0,0,121,42.36c.84,4.79,1,9.72,1.36,14.58s.76,10,1.2,14.94C123.8,74.85,124.2,77.79,124.55,80.75ZM46.33,84.44h6.31l-.69-4H51.2c-1.57-9.58-5-18.52-7.7-27.73L43,52.61c-.41-1.6-.72-3-1.13-4.35-1-3.48-2.12-6.94-3.17-10.41-.76-2.54-1.84-4.85-4.3-6.34A16.87,16.87,0,0,0,32,32.85a2.34,2.34,0,0,0-.92,1.61A30.82,30.82,0,0,0,32,40.77c2,6.77,4.22,13.46,6.32,20.2,1.94,6.19,3.19,12.6,6,18.52C45.05,81.13,45.67,82.84,46.33,84.44ZM131.2,74.09l.47.31-5,8.71c2.24-.64,4.51-1.27,6.76-1.93a.67.67,0,0,0,.35-.37,53.52,53.52,0,0,0,2-5.36c1.51-5.57,2.85-11.17,4.3-16.75,1-3.78,2.11-7.54,3.09-11.32.76-3,1.38-6,2.09-9A3,3,0,0,0,143.92,35a6.38,6.38,0,0,0-3.79-.29c-1.42.23-1.66,1.79-2,2.89-1.47,4.56-2.8,9.17-4.14,13.77s-2.59,8.92-3.82,13.41c-1.54,5.64-3,11.3-4.51,17a3.48,3.48,0,0,0,.08,1C127.66,79.65,129.43,76.87,131.2,74.09ZM104.57,52.54c.71-3,1.52-6.18,2.26-9.42,1.28-5.59,2.65-11.17,3.72-16.8a73.76,73.76,0,0,0,1.7-13.83c0-1.07-.4-1.68-1.37-1.77a15.5,15.5,0,0,0-3.91,0,3.57,3.57,0,0,0-2.39,1.3,28.15,28.15,0,0,0-1.88,5.6c-.89,3.72-1.65,7.48-2.42,11.24-.24,1.12-.73,2.44-.36,3.38a7.3,7.3,0,0,1,.51,3.84c-.82,4.76-1.77,9.5-2.68,14.25-.27,1.43-.57,2.85-.89,4.42ZM94.75,28c0-1.44-.11-2.71,0-4,.24-2.3.59-4.6,1-6.9a39,39,0,0,0,.18-13.2,14.73,14.73,0,0,0-1-2.51c-2,.28-3.79.45-5.54.79-2.55.49-3,1-3.47,3.58a7,7,0,0,0-.18.91c-.49,7-1,13.94-1.46,20.91-.34,4.84-.72,9.68-1.1,14.51a54.26,54.26,0,0,0-.45,5.52c.06,2.36.43,4.71.67,7.06a8.39,8.39,0,0,0,.18.84,1.44,1.44,0,0,0,.45-.83c.84-4.18,1.74-8.35,2.5-12.55.66-3.64,1.19-7.31,1.75-11a3.22,3.22,0,0,1,3.29-3C92.55,28.12,93.51,28,94.75,28ZM112,46.06c-.81,3.81-1.65,7.47-2.35,11.15-.56,2.93-1,5.88-1.37,8.83-.24,1.73-.37,3.46-.49,5.2-.24,3.12-.41,6.25-.66,9.38-.12,1.4-.37,2.79-.6,4.42l8.74-.44c.11-2,.17-3.84.32-5.64.43-4.91.92-9.81,1.34-14.72,0-.65-.37-1.39-.2-2a38.78,38.78,0,0,0,1.16-13.72c-.18-2.39-.86-3.15-3.16-3A21,21,0,0,0,112,46.06ZM62.19,33.5c-.06-.39-.09-.78-.18-1.14-.95-3.88-1.87-7.77-2.89-11.63a7.59,7.59,0,0,0-1.34-2.94,3.54,3.54,0,0,0-2.44-1.38,13.86,13.86,0,0,0-4.52,1.39c-2.77,1.33-3.1,2.3-2.24,5.32.35,1.23.73,2.45,1,3.69.58,2.53,1,5.09,1.68,7.6.28,1.11,1,2.11,1.28,3.23.52,2.35.75,4.77,1.31,7.11.83,3.45,1.84,6.86,2.78,10.28l1,3.7a45,45,0,0,0,.22-5.15c0-4.27,0-8.55.24-12.8C58.27,37.82,58.6,34.72,62.19,33.5Zm44.13,51.38a30.53,30.53,0,0,1-.14-3.11c.18-2.87.47-5.72.67-8.58a36.67,36.67,0,0,0,.3-6.26c-.36-3.37-1.11-6.7-1.68-10l-.89-.43c0-.21,0-.37,0-.52.12-1.58-.43-2.11-2-1.7a47.34,47.34,0,0,0-4.5,1.48A2.8,2.8,0,0,0,96.33,59a111,111,0,0,0,3,17.17c.78,2.9,1.5,5.82,2.24,8.69Zm-49-1.41c.21-.33.27-.38.28-.45,0-.27.06-.54.08-.81a34.24,34.24,0,0,0-.94-12.82C55.09,64,53.62,58.5,52.08,53.05c-.57-2-1.11-4.12-1.69-6.18S49.24,43,48.67,41a6.66,6.66,0,0,1-.37-1.54,36.37,36.37,0,0,1-1.44-4.39c-.44-2.75-2-5.32-1-8.28A2.29,2.29,0,0,0,44,24.32c-1.51.11-3,.22-4.51.41a2.35,2.35,0,0,0-2.33,2.56c0,.77-.11,1.55-.16,2.32-.1,1.5,0,2.82,1.78,3.41a10.84,10.84,0,0,1,3,1.53A8.63,8.63,0,0,1,44,37a17.26,17.26,0,0,1,1.6,3.87c2,6.87,4,13.75,5.92,20.67,1.54,5.73,2.84,11.53,4.29,17.28C56.2,80.29,56.76,81.77,57.3,83.47Zm-39.16-.33c.05-.78.12-1.48.14-2.18,0-1.44-.07-2.89.06-4.33a10.45,10.45,0,0,0-.28-5c-1.58-4.14-2.95-8.35-4.5-12.5-.75-2-1.72-3.93-2.58-5.84-2.49,1.32-4.9,2.17-6.71,4,.45,1.09.79,2.12,1.29,3,1.55,2.86,2,6,2.9,9.09.45,1.53.78,3.1,1.33,4.58.63,1.69,1.48,3.3,2.2,5,.57,1.29,1.08,2.61,1.61,3.89ZM146.45,71.56c-.66.81-1.17,1.38-1.61,2s-.82,1.29-1.36,2.15c1.05-.77,1.86-1.35,2.51-1.84.09.36-3.1,4.82-4.05,5.18,0-.42-.06-.81-.1-1.35l-1.11,1.54c-.3-.36-.48-.57-.62-.75l-2,1.82,5.23-.76c-.48-1,.48-2.37,1.75-2.66l.79.92-.62,1.24c.95-.34,1.72-.63,2.33-.86.4-1.9.72-3.68,1.14-5.43.61-2.55,1.32-5.08,1.94-7.63.72-3,1.19-6,2.17-8.93a27.36,27.36,0,0,0,1.1-6.91,1.5,1.5,0,0,0-.73-1.24c-1.59-.4-3.22-.62-4.73-.89-2.55,8.8-5.06,17.48-7.65,26.43,2.72-4,5.27-7.64,7.81-11.32l.38.18a3.19,3.19,0,0,1-.27.77c-.73,1.08-1.5,2.14-2.24,3.21-1.4,2-2.78,4-4.17,6-.89,1.28-1.82,2.54-2.63,3.85a12.76,12.76,0,0,0-.84,2l8.24-10.4.44.33-2.29,3.2ZM70.16,3.45C67.16,4,64.59,4.51,62,5a.79.79,0,0,0-.46.47,16.13,16.13,0,0,0-.85,2.89c-.27,2.2-.4,4.41-.59,6.61-.12,1.42-.59,2.92-.31,4.25.94,4.44,2.15,8.82,3.26,13.22a2.53,2.53,0,0,0,.31.64H67c0-.3,0-.64-.07-1-.62-4.62-1.45-9.22-1.83-13.85-.35-4.39-.48-6.95,4.28-8a.9.9,0,0,0,.4-.23c.22-.24.57-.52.57-.78C70.34,7.46,70.25,5.66,70.16,3.45ZM18.81,65.14c0-.68.09-1,.07-1.37-.11-2.22-.36-4.44-.31-6.65.07-3.29.37-6.57.55-9.85.13-2.47.21-5,.32-7.43.06-1.47.26-3,.18-4.41C19.5,33,18.17,32.25,16,33.25a37.33,37.33,0,0,0-3.75,2.1,2.4,2.4,0,0,0-1.16,3.08c.81,2.42,1.82,4.77,2.58,7.2C14.57,48.39,15.26,51.2,16,54,16.91,57.59,17.81,61.18,18.81,65.14Zm92.81-20.39c2.59-.58,5.15-1.25,7,1.35a10.31,10.31,0,0,0,1.1-1.58,3.25,3.25,0,0,0,.4-1.7c-.38-3-.89-6-1.28-9.08-.18-1.36-.16-2.73-.25-4.48C115.27,34.18,112,38.69,111.62,44.75Zm12.09,39.13c-.79-8.77-1.55-17.21-2.32-25.65-1,8.62-2.29,17.21-2.61,26.07ZM38.6,85.05c.29-1.07.63-2.07.84-3.1.35-1.76,1.73-3.28,1.21-5.24,0-.2.16-.44.18-.67,0-.68.05-1.37.05-2.05a4.88,4.88,0,0,0-.12-1.15C40.18,70.21,39.58,67.58,39,65l-.46.06c-.4,1.6-.79,3.2-1.2,4.81-.61,2.45-1.93,4.79-1.07,7.47a7.75,7.75,0,0,1,0,1.45c.17,2.09.35,4.18.53,6.3Zm16-30.52.27.06a3.76,3.76,0,0,1,.06.88,9.79,9.79,0,0,0,.45,4.79c.92,3,1.63,6.1,2.42,9.16a15.18,15.18,0,0,0-.33-7.25C56,56.53,54.46,50.92,53,45.28c-.61-2.4-1-4.85-1.68-7.24-.51-1.92-1.21-3.78-1.88-5.83-1.35,3-1.68,4-.52,5.44.38-.66.75-1.31,1.11-2l.21.07c-.24,1.69-.48,3.37-.71,5.06l.4.07c.35-.64.7-1.28,1-1.92l.41.15c-.23,1-.45,2-.7,3a3.49,3.49,0,0,0,.44,3.08c.32-.75.57-1.33.81-1.92l.21.08c-.26,1.39-.51,2.78-.83,4.49l1.23-.6v4.33c.48-.26.72-.38,1.18-.64V55.3l.3,0C54.22,55.07,54.39,54.8,54.56,54.53ZM133.3,27.85c.95-2.07,1.85-4,2.7-5.88a2.19,2.19,0,0,0-1-3,17.15,17.15,0,0,1-1.76-1.66c-.59-.51-1.28-1.08-2.07-.45-1.3,1.05-2.52,2.2-3.88,3.38ZM44.42,47.73l.31.09c-.46,1.75-1.65,3.53-.09,5.19.72-1.63,1.46-3.25,2.14-4.89a1.69,1.69,0,0,0,0-1.11c-1.17-3.16-2.33-6.33-3.63-9.43a8.29,8.29,0,0,0-1.7-2l-.32.23c0,2.3-1.07,4.59,0,7.17.43-1.36.79-2.48,1.16-3.61l.42.08c-.09,2.56-2.14,5.11-.18,7.69l.95-2,.36.14c-.2.69-.46,1.36-.6,2.06s-.16,1.41-.23,2.12l.36.05C43.71,48.9,44.06,48.31,44.42,47.73Zm87.33,7,.37,0a45.1,45.1,0,0,0,1.15-7c0-3.39-.41-6.8-.61-10.2,0-.91.09-1.83.06-2.74-.06-1.61-.17-3.21-.26-4.81h-.54c-.84,3.42-3.35,6.49-2,10.68l2-5.27.36.14c-.5,1.57-1,3.16-1.53,4.7-.75,2-.83,3.29-.08,4.81l1.47-3.81.36.1c-.47,3.14-2.6,6.09-1.13,9.5.25-.4.49-.77.74-1.15l.32.09C131.79,51.35,130.79,52.92,131.75,54.71Zm12.91,1.4-3.47,5.57a1.18,1.18,0,0,1,0-1c1.22-2.1,2.36-4.28,3.77-6.25a11.48,11.48,0,0,0,1.73-5.56,21.52,21.52,0,0,0-1.75,2.53,34.78,34.78,0,0,0-4.6,10.11,119,119,0,0,1-3.06,11.92c-.05.16.07.39.12.65,1.38-1.63,1.74-3.94,4-4.75.23-1.41.47-2.87.7-4.32l-.19-.07-2.44,4.21-.44-.22C140.56,64.49,144,60.92,144.66,56.11Zm-37.07,5.66c.86-5.8,1.73-11.64,2.62-17.63-1.66,3.24-4.54,5.75-4.63,9.91.7-1,1.28-1.92,1.85-2.79-.32,1.14-1.11,2.08-1.36,3.14a11.16,11.16,0,0,0,.22,3.23h.44c.32-.49.65-1,1-1.47C107.5,58.07,106.22,59.88,107.59,61.77ZM53.78,79.35l.26.05c-.14,1.66-.29,3.32-.43,5h3c-1.44-4.9-2.84-9.64-4.27-14.47-1.08,1.82-1.54,6.09-.72,6.23l.84-.78a14.21,14.21,0,0,0-.27,2.77A12.92,12.92,0,0,0,53,80.68C53.34,80.08,53.56,79.71,53.78,79.35ZM35.46,84.12c0-.9.06-1.83,0-2.75-.12-1.85-.39-3.69-.46-5.54s-.07-3.8,0-5.7c.22-4,.5-8,.8-11.94a8.85,8.85,0,0,0-1-4.79.62.62,0,0,0-.2.44c-.09,7.9-.2,15.79-.24,23.68,0,2.26.18,4.53.28,6.69l1.48.48.09-.31Zm75.42-53.49.27.07c.52-1.08,1-2.16,1.56-3.22s1.17-2.19,1.78-3.27c2.66-4.74,2.34-3.57.64-8.38a30.92,30.92,0,0,0-1.47-3c-.5,3.91-1,7.55-1.43,11.2l.35.06c.27-1.21,1.47-2.2.6-3.7L115,17.73l.41.24c-.12,3.55-2.35,6.45-3.19,9.83l-.77.29C111.23,29,111.05,29.8,110.88,30.63ZM30.38,56.48l.41.11c.73-1.74,1.37-3.52,2.21-5.2a5,5,0,0,0-.09-4.56c-.55-1.28-.94-2.63-1.39-3.95L31.2,42l-.3,0c-.13,3.26-.26,6.52-.4,10.11,1.08-1.67.53-3.56,1.7-4.79l.54.16C32,50.49,31.17,53.49,30.38,56.48ZM33.2,72l-.38.1c-.44.72-.85,1.45-1.34,2.14a5.53,5.53,0,0,0-1,3.76l2.15-4.54.4.17c-.84,2.31-1.67,4.63-2.51,6.94l.21.08,1.71-3.2.53.24c-.81,1.83-1.63,3.66-2.44,5.5l.36.21,1.72-2.74.48.29-1.4,2.44,1.87.41C33.44,79.81,33.32,75.9,33.2,72ZM70.6,201.6c.24,1.47.41,2.65.64,3.81.08.4.19.94.47,1.12,1.3.85,2.66,1.59,4.15,2.46-.27-1.46-.48-2.67-.73-3.86a1.14,1.14,0,0,0-.42-.65C73.46,203.58,72.19,202.71,70.6,201.6ZM133.85,33.49c2.75-3.47,4.18-8.49,3-10.41-1.17,2.33-2.3,4.62-3.36,6.73ZM71.21,77.13l-.47-.22-4.31,8h4.4c-.26-.78-.51-1.5-.75-2.21l-.67,0C71,81,71,79,71.21,77.13ZM50.06,59.55c-.38-1.72-.87-3.91-1.35-6.1l-.28,0-1.84,5.43-.32-.06c.21.49.43,1,.78,1.75.28-1.07.43-1.79.67-2.48s.57-1.24.85-1.86l.42.18c-.31,2.58-2,5-.83,8ZM46.15,58l2.08-6.08c-.18-.63-.51-1.75-.84-2.87C45.91,52,44.23,54.75,46.15,58ZM32.88,66.66c.17.6.37.89.29,1.06-.72,1.59-1.5,3.15-2.23,4.73-.32.7-.55,1.45-.83,2.17,2.54-3.7,4.26-7.62,3.1-12.34C32.57,63.9,32,65.43,31.37,67c-1.32,3.43-1.32,3.43-1.07,4.65Zm82.48-41.94c-1.94,4.19-5.08,7.82-5.89,12.54C111.52,33.12,115,29.68,115.36,24.72ZM79.9,211c-.39-1.14-.77-2.31-1.21-3.45a2.12,2.12,0,0,0-.66-1c-.78-.54-1.64-1-2.41-1.41C75.51,208.26,76.82,210.36,79.9,211ZM36,70.57l.32.06c.58-2.31,1.16-4.63,1.73-6.94l.39,0-1.35-3.8-.43.09ZM96.83,14.8l.57.21a60.65,60.65,0,0,0,2-6.32c.37-1.84-1-3-2.21-4.15v5.91h.19l.93-1.88.36.16C98.85,11,97.09,12.69,96.83,14.8ZM89.45,79.91a26.24,26.24,0,0,0,3.64-10.82A21.08,21.08,0,0,0,89.45,79.91Zm11.12-65.56a4.56,4.56,0,0,1,.27,1.36c-.22,2.15-.5,4.3-.81,6.44-.2,1.44-.48,2.88-.73,4.31a1.15,1.15,0,0,0,.6-.8q1.47-6,2.92-12c0-.19-.1-.44-.14-.62ZM30.69,62.11c1.84-2.65,3.34-7.87,2.68-9.68C32.43,55.73,30.1,58.4,30.69,62.11ZM117.2,71c1.85-2.6,3-6.78,2.53-8.91A14.35,14.35,0,0,0,117.2,71ZM82.31,61.77l.6-.05c-.26-3.76-.53-7.51-.81-11.45C80.1,54.34,82.22,58,82.31,61.77ZM131,26.71l-.37.16c-.38,2.42-2.31,4.57-1.24,7.25.83-1.78,1.67-3.57,2.66-5.67C131.86,28.09,131.44,27.4,131,26.71ZM142.44,52.9l.37.17a1.39,1.39,0,0,0,.25-.23c1.44-2.24,3-4.43,4.28-6.75a15.93,15.93,0,0,0,1-3.56l-.34-.1ZM113.17,33.38c-1.75,1.49-5.12,8.14-5.18,10.16.24-.48.4-.82.59-1.15,1-1.77,1.87-3.75,3.24-5.23C112.94,35.94,112.73,34.63,113.17,33.38ZM67.33,80.78c1-1.44,1.78-2.77,2.75-4a2.69,2.69,0,0,0,.51-3.43C69.16,75,67.14,79.41,67.33,80.78Zm44.3-41.47-.42-.16-4.38,8,.4.24c.78-1.09,1.37-2.43,2.38-3.19C111.4,42.87,111,40.92,111.63,39.31ZM51.47,64.91c-.82,2.5-2.21,4.93-1.06,7.52.52-1.14,1.06-2.3,1.59-3.47a1,1,0,0,0,.08-.55C51.89,67.24,51.68,66.07,51.47,64.91ZM73,211.75c-.37-2.89-2.86-3.47-5.08-4.62A7.85,7.85,0,0,0,73,211.75Zm6.41-187.1-.42,0c-.23,1.25-.45,2.49-.74,4.06l1.22-1.05c-.46,2.13-1.3,3.95-.51,6C80.6,30.59,79.72,27.61,79.45,24.65Zm65.14,21.74.37.1c.7-1.5,1.38-3,2.09-4.48.64-1.32.51-2-.71-3ZM97.07,39.76c.76-1.52,1.41-2.81,2.05-4.11l.62,0c-.43-1.36-.87-2.71-1.31-4.07l-.78,0C99,34.45,97,36.87,97.07,39.76Zm-46.72,21c-1.28,3.92-2.2,5.65-1,7.28a13.88,13.88,0,0,1,1.07-3.3C51.27,63.42,50.86,62.29,50.35,60.79Zm19.43,4.89c-.84,2.25-2.73,3.95-2,6.82C68.81,70.21,71,68.63,69.78,65.68Zm6.85-45,.29,0c.28-1.5.56-3,.86-4.64-1-2.21-1-2.28-2.36-2.43.21,1.26.42,2.46.66,3.9l1.08-1.17C77,18,76.79,19.36,76.63,20.7ZM40.72,84l-1,.89h5.59l-1.26-3.1c-.66,1.08-1.24,2-2,3.27-.19-.69-.26-.93-.3-1.06Zm26.6,120.15c0,2.1,1.92,3.84,4.33,4.1C71.23,205.78,68.75,205.63,67.32,204.15Zm50.47-120c.11-1.79.22-3.55.33-5.31-1.07,1.63-2.33,3.16-1.7,5.31ZM78.42,18.26c-.79,1.65-1.13,5.91-.58,7.22C78.73,23.14,79.48,20.84,78.42,18.26Zm40,55.14c-1,1.85-2.24,3.62-1.84,6A6.46,6.46,0,0,0,118.39,73.4ZM92.71,63.55c2.55-4.45,2.81-5.22,2.25-6.63C93.77,58.94,92.67,60.93,92.71,63.55Zm5.66-45.19c-2.16,4-3.06,5.48-2.56,7.36C96.77,23.32,98.48,21.27,98.37,18.36Zm1.14,19-.3-.11C98.1,40,97,42.69,95.86,45.44a.71.71,0,0,0,.58-.43c.61-1.26.94-2.77,1.86-3.71C99.55,40,99.1,38.62,99.51,37.31ZM73.46,9.61C73.79,8.37,73,7,71.48,6V9.52ZM98.1,43.84C97,46.49,95,48.7,94.86,51.75,95.86,49.07,98.18,47,98.1,43.84Zm.79-30.67L96,20l.46.21a21.86,21.86,0,0,1,1.88-3.35A4.08,4.08,0,0,0,98.89,13.17ZM33.48,58.71C32.4,61,30.9,63.15,30.53,66.1c1.34-1.6,1.16-3.71,2.95-4.65Zm84.46,4.52c2.09-2.88,2.7-4.76,1.88-6.41C119.56,59.18,117.62,60.68,117.94,63.23ZM94,63.45c-1,1.91-2.34,3.71-2.39,6C92.82,67.58,94.33,65.87,94,63.45ZM67.52,76.57c.78-2,2.64-3.6,2.72-5.95C69,72.47,67.56,74.2,67.52,76.57ZM97.88,28.33c-.09-1.51-.17-2.87-.27-4.48-.67,1.52-1.25,2.83-1.92,4.33ZM69.1,54.42l-.42,0-.39,5.9.34.15c.29-.44.82-.88.82-1.32C69.43,57.6,69.23,56,69.1,54.42Zm27.89-5c-1.16,2.3-2.49,4.23-2.84,6.59C95.36,54.08,97.06,52.32,97,49.47ZM81.38,46.32C81,48,80,49.59,80.83,51.49,82.38,49.81,82,48.08,81.38,46.32ZM18.68,67.49c-.24-.9-.39-1.56-.6-2.21s-.45-1.29-.7-2c-.58,1.39.21,5.4,1.3,6.28ZM118.93,48.63v5.24C120.27,51.92,120.3,50,118.93,48.63ZM40,38.8h.25c.16-1.12.31-2.23.47-3.37l-2.19-1Zm88.62-14.89c.23,1.93.41,3.43.63,5.21L130.35,26ZM80.91,42.26h-.37c-.15,1.55-.3,3.09-.47,4.93C81.77,45.5,81.39,43.89,80.91,42.26ZM79.58,42l.83.1c.14-1.44.27-2.87.4-4.3l-.68-.08C80,39.14,79.77,40.56,79.58,42Zm-12,24.3.51.55L69.9,64c-.06-.21-.16-.59-.34-1.25C68.86,64,68.26,65.08,67.6,66.29ZM120.25,54l-.32-.07-1.65,4c.62-.81,1.07-1.41,1.53-2l.44.45ZM48.06,25.85c-.41,2.09-.75,3.84-1.09,5.59l.41.08C47.34,29.69,49.12,28.2,48.06,25.85Zm69.19,46.26H117v1.62l.37.13c.63-1.33,1.25-2.67,1.87-4l-.36-.18ZM15.13,53.94l-.62-.11a9.7,9.7,0,0,0,.29,5Zm105.46-5.31.25-.07c-.1-1-.19-1.93-.29-2.89l-.35-.05-.87,1.6ZM48.77,29.88l-1.2,3.8.39.11C48.51,32.57,49.58,31.5,48.77,29.88ZM15.25,61l.65,0V57.22h-.28C15.5,58.46,15.37,59.7,15.25,61Zm1,3.45.36,0c.13-3,.13-3-.36-3.3ZM79.09,37.15l.51.1L80.38,34,80,33.92ZM9,130.87l.34.09,1.08-4.31-.3-.07C9.76,128,9.38,129.44,9,130.87Zm4.57-75.22c0-.68-.06-1.37-.1-2.14l-1.19-.06A2.1,2.1,0,0,1,13.58,55.65Zm58,26.55c-.16,1-.27,1.66-.38,2.32l.5,0C71.68,83.88,71.65,83.21,71.6,82.2ZM42.43,77.54l-.31-.06L41.79,79l.36.07C42.24,78.55,42.33,78.05,42.43,77.54Zm101.1-1.49-.26-.25-1.05,1.28.16.18C142.77,76.86,143.15,76.45,143.53,76.05Zm-6.12,2,.36.18c.16-.33.33-.65.49-1L138,77Z"/><path class="cls-1" d="M32,197.18c-.36-.83-.76-1.65-1.07-2.5a11.77,11.77,0,0,1-.35-1.69c.77,1.09,1.36,1.94,2,2.78l0,0a25,25,0,0,0,1.28,2.4A21,21,0,0,0,35.29,200c1.63-5.29,3.25-10.61,4.9-15.92,0-.13.37-.16.59-.24l-5,16.85,3.72,4c1.08-2.19,1-4.1-.55-5.91a7.55,7.55,0,0,1-.88-1.75l.33-.17,2.11,3.49c1.07-3.4,2.07-6.56,3.08-9.73l.57.18c-.34,1.26-.65,2.54-1,3.79-.57,1.88-1.24,3.74-1.75,5.64a1.89,1.89,0,0,0,.41,1.43c.72.9,1.57,1.69,2.55,2.72.72-2.15,1.39-4.15,2.07-6.15h.6c-1.54,2.57.7,3.6,1.74,5.19l1.05-1.91c.22.27.32.35.3.38-.89,1.91-.09,3.17,1.47,4.29,1.38,1,2.63,2.15,3.84,3.14-.41.22-.76.1-2.88-1.63-1-.82-1.94-1.76-3.1-2.83v3.74l1,.73-.22.3-5.19-3.87v1.88l-.83.44c0-1,0-1.61,0-2.28,0-.39,0-.91-.21-1.16-.92-1-1.93-1.88-3-2.94-.25,1.33-.47,2.55-.67,3.63,2.09,2.13,4.11,4,6.82,5.07a4.64,4.64,0,0,1-1.33-.34,35.45,35.45,0,0,1-4.28-3c-1.95-1.69-3.74-3.57-5.65-5.42-.39,2.62-1.19,5.34,2,7.05-3-1.64-4.65-4.64-7-6.85a1.26,1.26,0,0,0-.19.24c-1.29,2.66.61,4.2,2.08,5.9,1.08,1.25,2.14,2.53,2.77,3.28-2-1-3.43-3.66-5.55-5.95-.18,1.29-.32,2.33-.47,3.37l-.25,0a2.69,2.69,0,0,1,0-1c1.09-2.67-.61-4.41-2.13-6.49-.23,1.41-.47,2.61-.61,3.82a1.62,1.62,0,0,0,.37,1c.93,1.24,1.9,2.44,2.86,3.66l0,0a10.82,10.82,0,0,1-2-1.81c-1.61-2.42-3.08-4.94-4.6-7.42l.08-.08,2.73,4.29c.31-1.29.64-2.48.83-3.69.06-.34-.27-.76-.48-1.12-.49-.82-1-1.62-1.53-2.43l.1-.09,2.35,3c.1-1.16.56-2.29.18-2.87-1.78-2.76-3.8-5.37-5.77-8.08l-.56.76,0,0c-.34-1.41-.68-2.82-1-4.24l.32-.08c.28.66.57,1.32,1,2.32.8-2.31,1.44-4.27,2.16-6.19.16-.42.65-.7,1-1h0c-.86,2.38-1.73,4.75-2.57,7.14a1.15,1.15,0,0,0,.09.87c.63,1.05,1.32,2.07,2.15,3.37,3-9,5.82-17.74,8.69-26.47l.24,0A4.67,4.67,0,0,1,33,167q-2.12,6.49-4.27,13c-1.35,4.07-2.71,8.13-4,12.2a1.18,1.18,0,0,0,.11.94c.92,1.33,1.9,2.62,2.86,3.92l9.7-26.6.45.14c-.54,1.78-1,3.61-1.64,5.35-2.38,6.33-4.82,12.64-7.24,18.95-.08.22-.15.44-.22.66-.63,2.21-.11,3.66,2,5.16.26-.87.49-1.7.77-2.51a6.52,6.52,0,0,1,.54-1.05c-.27,1.08-.57,2.16-.78,3.26a1.72,1.72,0,0,0,.13,1.26c1.1,1.33,2.29,2.58,3.58,4,.32-2.52,1.17-4.92-1.26-6.76a10.49,10.49,0,0,1-1-1.27A2.89,2.89,0,0,0,32,197.18Zm14.21,3.93c-.39,1.39-.73,2.63-1.09,3.94l3.6,3.11v-4c-.31-.39-.7-.91-1.12-1.41S46.72,201.71,46.19,201.11Zm-16.43,3.08c.82-2.56.15-4.53-1.86-5.75C27.22,201.09,27.22,201.09,29.76,204.19Z"/><path class="cls-1" d="M17.07,201.8a19.53,19.53,0,0,1-1.48-2.15q-4.21-8.07-8.37-16.17a2.85,2.85,0,0,1,.06-3.14c.28,1.48.53,2.84.79,4.19l.36,0c.75-2.49,1.49-5,2.27-7.57L8.94,173.4l.5-.26,1.67,3.08c.37-.8.69-1.47,1-2.05-.34-1.12-.65-2.16-1-3.2l.43-.13c.23.76.46,1.52.74,2.42l14-29.76a3.53,3.53,0,0,1,0,1.26c-1.09,2.51-2.18,5-3.36,7.49-3.1,6.49-6.26,12.95-9.37,19.44-.6,1.24-1.06,2.47-.26,3.9s1.35,3,2,4.56c3.63-10.54,9.36-19.9,13.74-29.88l.32.08a4.07,4.07,0,0,1-.23,1.07c-2.17,4.37-4.39,8.71-6.53,13.09q-2.1,4.28-4,8.63c-.87,2-1.56,4-2.41,6a3.12,3.12,0,0,0,.15,3.06c.57,1,1,2,1.61,3.08l.8-1.32c.06,1.09-1,2.08-.06,3.21l-.53-.56c-.17.19-.31.36-.44.53a.25.25,0,0,1-.12,0s-.07,0-.07-.07a4.41,4.41,0,0,0,0-1.73c-.54-1.27-1.27-2.46-1.93-3.71-1.54,2.62.6,4.3,1.33,6.5l.76-1c-1,2.52,1,4.15,1.82,6.12,0,.07.36,0,.56,0-.22,1.53.81,2.69,1.46,4,.26.51.51,1,.77,1.55a8.08,8.08,0,0,1-.93-1.1c-.51-.87-1-1.78-1.47-2.75l-1,2.73c.07-.45.16-.9.22-1.35.11-.76.49-1.63.25-2.26a45.69,45.69,0,0,0-2.29-4.52l-.52.72c.31-2.27-.88-3.81-1.94-5.76-.33,1.64-.59,3-.87,4.39l1.78,3.41.58-.33a3.49,3.49,0,0,0,0,1.31c.68,1.42,1.45,2.81,2.21,4.2.07.12.38.11.58.15l2.4,5.05.61-.14.33-3.78a4.58,4.58,0,0,0,.6-.86,8,8,0,0,0,.32-1.23v3.67l-.08.08c-.11,0-.28-.11-.31-.07a3.73,3.73,0,0,0-.29,3.73c1.45,1.87,2.9,3.73,4.4,5.55.5.6,1.17,1.06,1.7,1.65-3.2-1.49-4.48-4.8-6.92-7.44-.18,1.47-.34,2.74-.51,4A20.72,20.72,0,0,1,17,201.76l.8,1,.38-.15a17.75,17.75,0,0,0-.08-4.5c-.39-1.44-1.45-2.71-2.28-4.18-.93,2.67-.85,3.86.3,6C16.47,200.58,16.76,201.19,17.07,201.8Zm-6.46-22c.24-.67.48-1.35.71-2l-.34-.12c-.31.86-.63,1.71-.94,2.56l.18.08.42-.53c-1.3,3.52,1.75,5.55,2.71,8.29a34.36,34.36,0,0,0,1-3.75,1,1,0,0,0-.08-.65c-.85-1.67-1.72-3.33-2.6-5Zm-1.95,5.54,6,11.68c.24-.92.45-1.58.57-2.26a3.25,3.25,0,0,0,.09-1.76c-1.8-3.5-3.71-6.95-5.7-10.63C9.24,183.48,9,184.38,8.66,185.31Zm10.28,14c-1,3.26-.38,5.65,1.85,7.28.14-.55.31-1.1.42-1.67s.39-1.24.17-1.65C20.69,201.93,19.81,200.68,18.94,199.31Zm-4.45-16.08c1.62-3-.88-4.8-1.64-7.09-.42.65-1,1.42-.8,1.9C12.71,179.79,13.62,181.43,14.49,183.23ZM11.27,177l.41.15a2.16,2.16,0,0,0,.69-2.63Z"/><path class="cls-1" d="M159.84,203.9l3.37,2.62c-.7-1.78-1.24-3.4-2-4.93-.56-1.2-1.33-2.3-2-3.45-.06-.1,0-.27,0-.42l0,0c.18.18.35.37.65.69-.5-3.06-2.72-4.54-4.92-6.47.74,2.07,1.38,3.82,2,5.59.31.94.54,1.92.81,2.88a15.42,15.42,0,0,1-.72-1.4c-.92-2.36-1.87-4.72-2.69-7.11-.49-1.43-1.71-2.12-2.67-3.08-3.8-3.79-7.58-7.59-11.38-11.37-1.76-1.76-3.58-3.45-5.31-5.23a30,30,0,0,1-2.19-2.7,1.45,1.45,0,0,1-.18-.58l20.41,20.63.28-.2-2.1-5.54.45-.17a26.8,26.8,0,0,1,1.69,4.28c.58,2.71,2.63,4.15,4.61,5.76-.19-.43-.36-.87-.56-1.3A39,39,0,0,0,155,187.2a66.75,66.75,0,0,0-5-6.52c-1.58-1.89-3.3-3.66-5-5.44-2.05-2.12-4.16-4.19-6.23-6.3a14.91,14.91,0,0,1-.93-1.17l.44-.39L152,181.88l-1.2-2.91.47-.26a37.86,37.86,0,0,0,9,12.58l-.34.27-3.63-3.85-.23.15c1.1,2.45,2.1,4.95,3.35,7.32a12,12,0,0,0,2.38,2.45l-1.94-1.1c.34,2.23,2,3.74,3.61,5.28l-.27.25-1.24-1.95-.57.44,2.75,7.17-.16.11C162.57,206.51,161.21,205.21,159.84,203.9Z"/><path class="cls-1" d="M82.21,208.77l1.24.42c-.27-1.5-.51-3-.85-4.49-.08-.31-.5-.55-.79-.78-1-.81-2.27-1.33-2.5-3.19L81.94,204l.25-.39a54.75,54.75,0,0,1-.32-7c.17-2.27-.35-4.63.37-6.86l.42,0a10.89,10.89,0,0,0-.23,1.69c.11,3.92.23,7.84.41,11.76a1.94,1.94,0,0,0,.74,1.29c1.29.84,2.66,1.56,4.06,2.36-.19-2.89-.45-5.66-.54-8.44s0-5.53.16-8.3q.15,3.18.31,6.36c.14,3.06.31,6.12.44,9.19A2.38,2.38,0,0,0,89.57,208c1.34.6,2.6,1.36,3.8,2-.39-2.73-1-5.44-1.1-8.17s.14-5.41.24-8.12l.55,0c0,.34-.06.69-.06,1-.06,4.87-.55,9.78.86,14.56a1.74,1.74,0,0,0,.64,1.05,17.12,17.12,0,0,0,6.38,2,23.67,23.67,0,0,0-1.49-3.28c-.36-.56-1.16-.84-1.77-1.23s-1.16-.73-1.75-1.09c.06-.11.13-.22.2-.33L98.94,208c-.32-4.09-.62-8-.92-11.95l.5,0,1,12.38,10.26,3.95c0,.1-.07.19-.11.28l-9.58-3.46-.24.15,1.94,3.08c-.64.37-2.61-.12-4.44-.39a11.75,11.75,0,0,1-4.24-1.75c-1.44-.83-2.93-1.56-4.65-2.47.38,1.32.7,2.44,1,3.55l-.08.07c-.39-1-.73-2-1.19-2.94a3.33,3.33,0,0,0-1.05-1.36c-1.27-.79-2.62-1.46-3.89-2.15-.5,4.55,2.7,6.09,6.22,7.37l-.24.32-4.52-2.2-.21.18L86,212.57a1.11,1.11,0,0,1,0,.17c-.41-.32-1-.55-1.21-1a6,6,0,0,0-2.6-2.9Z"/><path class="cls-1" d="M40.33,177.81c-.16-3.11-.2-6.23-.51-9.32a42.82,42.82,0,0,0-1.2-5.68c-.21-.86-.55-1.69-.84-2.52Q35.2,153,32.62,145.64c-1.86-5.28-3.77-10.55-5.52-15.86-.93-2.81-1.58-5.72-2.33-8.59-.51-2-1-4-1.47-5.94l.38-.09c.28,1.21.55,2.42.84,3.7l.43-.1a15.05,15.05,0,0,0,.33,2.56c1.61,5.19,3.21,10.39,5,15.54,1.57,4.62,3.3,9.19,5,13.76,1.64,4.34,3.44,8.63,5,13a14.49,14.49,0,0,1,.46,4.43c0,2.78,0,5.56,0,8.35v1.39Z"/><path class="cls-1" d="M162.69,189.4l-3.31-2.67c.24.62.41,1.06.68,1.73-.38-.21-.65-.26-.7-.4-1.38-3.37-4-5.78-6.44-8.31s-5-5.47-7.55-8.16-4.89-5.07-7.32-7.62a5.12,5.12,0,0,1-.61-1l.37-.26q9,9.6,17.93,19.22c-.47-2-2.22-3.4-2.62-5.41l.35-.2c.61,1,1.26,2.05,1.82,3.11a34.06,34.06,0,0,0,7,9.43,2.8,2.8,0,0,1,.35.58Z"/><path class="cls-1" d="M24.53,139.37a12.64,12.64,0,0,1-.57,2.41c-1.73,3.84-3.47,7.69-5.34,11.47C14.87,160.84,11,168.39,7.24,176c-.46.91-.77,1.9-1.14,2.86l-.34-.12c.47-1.27.87-2.56,1.41-3.79q1.51-3.43,3.16-6.8c1.18-2.37,2.44-4.7,3.66-7.05.69-1.33,1.36-2.66,2-4,1.76-3.51,3.59-7,5.26-10.56,1.09-2.32,1.94-4.76,2.9-7.15Z"/><path class="cls-1" d="M164.05,181.29c-.71-1.3-1.49-2.56-2.09-3.91a17.9,17.9,0,0,0-3.39-4.78c-3.81-4.11-7.54-8.28-11.34-12.4-1.12-1.22-2.39-2.31-3.51-3.53a6.09,6.09,0,0,1-.82-1.56l0,0c1.62,1.59,3.3,3.11,4.84,4.78,3.67,4,7.27,8,10.9,12a8.33,8.33,0,0,0,1.26,1.26c-.27-.75-.54-1.51-.8-2.26l.19-.07,4.74,7.93c-.43-.48-.77-.87-1.12-1.25l-.17.08,1.35,3.66Z"/><path class="cls-1" d="M154.53,193.43c-1.81-.61-25.47-21.81-25.5-22.78Z"/><path class="cls-1" d="M11,145.6l.57-1.71-.1-.07c-.16.2-.31.41-.46.61l-.15-.08c.44-1.09.89-2.18,1.31-3.28,1.28-3.38,2.44-6.82,3.84-10.15.95-2.27,2.29-4.38,3.32-6.62.71-1.54,1.19-3.18,1.84-4.93a5.07,5.07,0,0,1-.62,3.63c-2.15,4.93-4.39,9.82-6.49,14.77-.84,2-1.4,4.07-2.1,6.1-.22.62-.49,1.21-.73,1.82Z"/><path class="cls-1" d="M9.83,163.06c.58-1.54,1.1-3.11,1.77-4.61,1.23-2.75,2.52-5.46,3.83-8.16,1.58-3.26,3.17-6.51,4.81-9.73,1.56-3.06,3.21-6.07,4.81-9.11.25-.48.49-1,.73-1.47l.33.11a7.75,7.75,0,0,1-.43,1.39c-3.24,6.25-6.56,12.45-9.72,18.74-1.84,3.64-3.43,7.41-5.16,11.12a17,17,0,0,1-1,1.69Z"/><path class="cls-1" d="M57.32,198.35A39.79,39.79,0,0,1,55.38,193a54.57,54.57,0,0,1-1.14-8.43C54,179.75,54,175,54,170.16c0-2.34.23-4.68.34-7a26.26,26.26,0,0,1,.23-3c0,2.82,0,5.64,0,8.45,0,3.45-.16,6.91,0,10.35.22,4.48.56,9,1.14,13.42.26,2,1.26,3.84,1.92,5.76Z"/><path class="cls-1" d="M155.33,205.21c-.32-.12-.74-.14-.93-.37-.64-.76-1.13-1.67-1.82-2.38-1-1-2.18-1.9-3.24-2.89q-5.37-5-10.72-10-1.68-1.59-3.28-3.24a3.07,3.07,0,0,1-.5-.87c2.24,2.07,4.57,4.28,6.94,6.44q5.88,5.35,11.8,10.68c.55.49,1.14.94,1.66,1.46.18.17.2.5.29.75h0l-2.26-2-.21.2,2.23,2.29Z"/><path class="cls-1" d="M41.09,88.45l-15.21,28.8-.38-.2L40.56,88.14Z"/><path class="cls-1" d="M10,155.56c3.14-9.76,8.63-18.54,11.92-28.33a4.47,4.47,0,0,1-.1,1.28c-1.41,3.51-2.8,7-4.31,10.51-2.36,5.42-4.82,10.79-7.24,16.19A2.19,2.19,0,0,1,10,155.56Z"/><path class="cls-1" d="M31.06,117.1c.66-1.46,1.26-2.95,2-4.38,1.74-3.36,3.48-6.71,5.32-10,2.1-3.76,4.31-7.47,6.49-11.19a9.59,9.59,0,0,1,.86-1.07l.28.2c-.12.24-.22.5-.36.73-2,3.42-4.13,6.78-6.06,10.26-2.8,5.06-5.46,10.2-8.19,15.3a1.36,1.36,0,0,1-.24.24Z"/><path class="cls-1" d="M30.19,155.26a9.8,9.8,0,0,1-.31,2.18c-1.35,3.69-2.73,7.37-4.18,11-.95,2.39-2,4.74-3.07,7.1a1.14,1.14,0,0,1-.59.55c2.38-7.06,6.33-13.53,7.54-21Z"/><path class="cls-1" d="M136.05,193.65c-4.67-8.57-6.21-18.34-9.69-27.43l.31-.11C129.8,175.31,132.94,184.52,136.05,193.65Z"/><path class="cls-1" d="M24.53,180.93c-.06-.26-.25-.57-.17-.78q1.52-4.11,3.1-8.19c1-2.59,2.08-5.15,3.09-7.74.52-1.33,1.58-2.54,1.09-4.15,0-.07.09-.21.17-.28a5.39,5.39,0,0,1,.63-.24,21.08,21.08,0,0,1-.7,3.49c-1.89,4.76-3.88,9.48-5.82,14.23-.49,1.21-.93,2.44-1.4,3.66Z"/><path class="cls-1" d="M147.64,132.2l17.15,21.11-.17.21a5.31,5.31,0,0,1-.84-.72c-3.26-4.07-6.47-8.18-9.78-12.21-1.8-2.18-3.76-4.22-5.62-6.35a15.92,15.92,0,0,1-1.19-1.72Z"/><path class="cls-1" d="M37.4,115.81a10.13,10.13,0,0,1,.47-1.87c1.7-3.37,3.46-6.71,5.18-10.07,1-2,1.94-3.94,2.92-5.9.45-.88.93-1.74,1.4-2.62l.49.27Z"/><path class="cls-1" d="M144.73,164.22c-.31-.09-.71-.09-.91-.29-2.5-2.51-4.94-5.09-7.46-7.58-1.71-1.67-3.54-3.22-5.3-4.83a1.83,1.83,0,0,1-.55-1,100.61,100.61,0,0,1,14.2,13.71Z"/><path class="cls-1" d="M149.08,129.4l13.55,17.67C161.75,146.81,149,130.89,149.08,129.4Z"/><path class="cls-1" d="M51.79,160.55c.5,9-1.88,17.9-.56,26.92a45.43,45.43,0,0,1-.56-5c0-3.32.11-6.64.26-10,.18-3.89.45-7.77.69-11.65C51.62,160.72,51.73,160.64,51.79,160.55Z"/><path class="cls-1" d="M32.52,195.77c-.35-1.43.47-2.64.86-3.88,1.06-3.37,2.37-6.65,3.55-10,.21-.61.22-1.29.45-1.88a5.82,5.82,0,0,1,.81-1.21c.12.08.25.15.38.22-1.21,3.3-2.43,6.6-3.61,9.91-.61,1.7-1.12,3.44-1.71,5.16a15,15,0,0,1-.76,1.63Z"/><path class="cls-1" d="M47.88,185a23.42,23.42,0,0,1-.88-4.13c-.14-3.82,0-7.65-.09-11.48,0-2.13-.14-4.25-.2-6.38a2.76,2.76,0,0,1,.37-1.56,2.39,2.39,0,0,1,.24.79c0,5.15-.12,10.29-.07,15.43,0,2.07.4,4.14.61,6.21,0,.38,0,.77,0,1.15Z"/><path class="cls-1" d="M87.19,164.54c1.69-4.51,3.37-9,5.09-13.51.69-1.8,1.51-3.54,2.23-5.33.37-.89.61-1.82.95-2.72a1.35,1.35,0,0,1,.84-.79c-.84,2.17-1.65,4.34-2.51,6.5-1.62,4.08-3.26,8.16-4.89,12.25-.42,1.07-.79,2.17-1.21,3.24-.07.16-.33.24-.5.35Z"/><path class="cls-1" d="M105.15,198.78c0,.43.07.87.14,1.29.42,2.51.85,5,1.26,7.53a1.57,1.57,0,0,0,1.3,1.41,39.76,39.76,0,0,1,5.51,1.79l-5.71-1.23c0,.08-.07.16-.1.25l1.53.67c0,.08,0,.16,0,.25-.47-.12-1.11-.09-1.36-.39a6.08,6.08,0,0,1-1.43-2.37c-.62-2.62-1.06-5.28-1.53-7.93a6,6,0,0,1,.06-1.26Z"/><path class="cls-1" d="M12.84,199.06c-.91-1.61-1.88-3.18-2.7-4.83-1.23-2.44-2.42-4.9-3.48-7.41a33.72,33.72,0,0,1-1.36-4.56,2.25,2.25,0,0,1,.2-1.2c1,5.88,4.27,10.84,6.63,16.14l.78,1.8Z"/><path class="cls-1" d="M9.42,205.7q-3.25-3.88-6.5-7.79l.37-.3.84,1.11.16-.06c-.37-.86-.78-1.71-1.09-2.59a9,9,0,0,1-.52-2.8c1.12,4.8,4,8.54,7.08,12.17Z"/><path class="cls-1" d="M36.44,90.81a72.53,72.53,0,0,1-7.69,15.57Z"/><path class="cls-1" d="M150,124.29l9,13.08c-.53-.33-1-.46-1.15-.75q-4-5.82-7.93-11.7S149.9,124.78,150,124.29Z"/><path class="cls-1" d="M150.54,203.2c-1.32-.8-2.67-1.57-4-2.42-2.25-1.49-4.47-3-6.69-4.54a4.58,4.58,0,0,1-.65-.67l.23-.28c1.15.73,2.32,1.41,3.43,2.19,2.32,1.61,4.61,3.27,6.9,4.93a4.8,4.8,0,0,1,.73.82Z"/><path class="cls-1" d="M170.84,206.73c-.65-.57-1.32-1.13-1.93-1.74s-1.19-1.28-1.77-1.93l-.26.19.69,2.31a16.13,16.13,0,0,0-1.38-2.6c-1.19-1.54-2.53-3-3.8-4.45-.25-.29-.46-.61-.69-.91l3.21,2.7c0-.09.11-.25.05-.1,1.7,1.81,3.5,3.71,5.28,5.63A7,7,0,0,1,170.84,206.73Z"/><path class="cls-1" d="M112.35,201.87c.36,1.55.71,3.11,1.08,4.66.09.41.21.82.31,1.23a1.87,1.87,0,0,0,2,1.52,9.1,9.1,0,0,1,3,.53h-3.62l.82.26c0,.12-.09.24-.13.35l-2.08-.9c-.59-2.61-1.73-5-1.7-7.59Z"/><path class="cls-1" d="M90.06,169.8c.59-1.67,1.09-3.37,1.78-5,1.58-3.72,3.25-7.42,4.9-11.12.07-.15.25-.26.37-.38h0c-.48,1.4-.89,2.83-1.47,4.2-1.71,4-3.49,8-5.25,12a2.78,2.78,0,0,1-.26.34Z"/><path class="cls-1" d="M131.42,124.31q1.32-7.87,2.65-15.76l.49.09q-1.42,7.86-2.84,15.73Z"/><path class="cls-1" d="M163.64,187.77c-.4-.63-.85-1.24-1.2-1.91-1.13-2.17-2.28-4.35-3.33-6.57-.57-1.21-1-2.52-1.41-3.79a.72.72,0,0,1,.2-.67l1.74,3.81q2,4.34,3.9,8.7a1.63,1.63,0,0,1,.07.45Z"/><path class="cls-1" d="M143,199.76,153,208l-2.23-1a13.4,13.4,0,0,0-1.15-1.24c-2.11-1.81-4.26-3.59-6.38-5.4a3.12,3.12,0,0,1-.45-.65Z"/><path class="cls-1" d="M44.47,163.41v13.27h-.25V163.41Z"/><path class="cls-1" d="M98.2,181.29a44.33,44.33,0,0,1,3.59-12.82Z"/><path class="cls-1" d="M92.69,177c-.2-4.44,1.58-8.41,3.09-12.45C94.78,168.68,93,172.62,92.69,177Z"/><path class="cls-1" d="M144.22,202.76l4.23,2.68c-.06.1-.12.19-.17.29l-1.63-1c-1.54,1.08-3.11,1.81-4.82.59a1.84,1.84,0,0,1-.49-1.24c1.41,1.59,2.76,1.74,4.89.46l-2-1.81Z"/><path class="cls-1" d="M151.47,171.48a4,4,0,0,1-.92-.55c-1.74-1.79-3.47-3.59-5.16-5.43a5.34,5.34,0,0,1-.66-1.28l0,0c1.53,1.55,3.09,3.08,4.6,4.67.76.81,1.43,1.72,2.14,2.58Z"/><path class="cls-1" d="M158.17,130.92c-2-2.75-4-5.5-6.11-8.36C153,122.79,156.42,127.25,158.17,130.92Z"/><path class="cls-1" d="M92.15,141.57c.83-2.19,1.68-4.37,2.47-6.58.36-1,.59-2.07.91-3.09a8.15,8.15,0,0,1,.51-1.13l.39.15c-.73,2.12-1.42,4.24-2.18,6.34-.45,1.23-1,2.43-1.51,3.63-.11.26-.41.43-.62.65Z"/><path class="cls-1" d="M24.74,197.43c-1.27-2-2.53-3.91-3.86-6l-.52,1.07c.7-1.75-.55-3-1.07-4.44.59.69,1.19,1.38,1.78,2.08l0,0a7.55,7.55,0,0,0,.5,1.5c1.07,1.91,2.2,3.8,3.3,5.7Z"/><path class="cls-1" d="M52.24,203.48l7.36,5.27C56.6,208.11,54.44,205.75,52.24,203.48Z"/><path class="cls-1" d="M41,115.59c1.12-2.83,3-5.27,4.37-8l.36.2-4.35,8Z"/><path class="cls-1" d="M137.28,110.62c-.25,2.13-.45,4.27-.78,6.38a41.33,41.33,0,0,1-1.43,6.16q1-6.27,2-12.54Z"/><path class="cls-1" d="M152.48,102.51c-1.52.37-4.7-4.21-4.49-6.51C149.46,98.24,149.85,101.09,152.48,102.51Z"/><path class="cls-1" d="M19,183.37l2.76-7.07.5.19-2.82,7Z"/><path class="cls-1" d="M151.45,171.5a13.43,13.43,0,0,1,1.39,1.1,51.3,51.3,0,0,1,4.06,4.52,27.15,27.15,0,0,1-5.43-5.64Z"/><path class="cls-1" d="M154.38,116c1.25.31,3.7,3.81,3.4,5.08Z"/><path class="cls-1" d="M103.61,180.29c.44-2.55.87-5.09,1.3-7.64l.46.08c-.47,2.54-.93,5.08-1.4,7.62Z"/><path class="cls-1" d="M165.22,197.16c.54.58,1.1,1.13,1.61,1.73q1.9,2.3,3.79,4.61l-.24.22c-.64-.75-1.3-1.49-1.93-2.25-1-1.16-1.94-2.33-2.88-3.52a2.93,2.93,0,0,1-.33-.81Z"/><path class="cls-1" d="M150.52,203.23c1.07.72,2.15,1.43,3.22,2.16,1.4.94,2.78,1.89,4.3,2.92-.3-.05-.52,0-.65-.11q-3.44-2.49-6.85-5Z"/><path class="cls-1" d="M164,195.39v2.22c-.83-1.55-1.76-3.28-2.7-5l.23-.18,2.45,3Z"/><path class="cls-1" d="M92.12,141.54a5.17,5.17,0,0,1-.15,1.19c-.8,2.14-1.64,4.28-2.48,6.41a1.76,1.76,0,0,1-.33.4l0,0c.39-1.21.73-2.42,1.18-3.6.55-1.48,1.19-2.93,1.79-4.39Z"/><path class="cls-1" d="M87.93,140.62l3.37-7.83.26.1-.75,1.8c-.77,1.81-1.52,3.63-2.31,5.43-.1.2-.39.32-.59.48Z"/><path class="cls-1" d="M129.57,134.29c.51-3.12,1-6.24,1.54-9.36l.3,0c-.53,3.12-1,6.25-1.58,9.38Z"/><path class="cls-1" d="M23.27,114.6c-.32-1.93-.63-3.85-.95-5.77l.46-.09c.71,1.82.13,3.91.92,5.72Z"/><path class="cls-1" d="M13.24,174.54l3.4-6.33.28.14-3.39,6.34Z"/><path class="cls-1" d="M128.61,208.78c-1.81.19-2.7-1-3.52-2.34Z"/><path class="cls-1" d="M167.06,195.07a12.3,12.3,0,0,1-2-3.55l.44-.21,1.65,3.71Z"/><path class="cls-1" d="M168.32,190.28l2.81,3.64s-.41.07-.52-.07c-.88-1.08-1.71-2.21-2.55-3.32A3.07,3.07,0,0,1,168.32,190.28Z"/><path class="cls-1" d="M22.89,157.47l-2.34,4.88-.42-.23,2.79-4.63Z"/><path class="cls-1" d="M109,183.91c-.34-1.29-.68-2.58-1-3.87l.4-.1c.34,1.28.67,2.57,1,3.85Z"/><path class="cls-1" d="M89.45,211.34c.71,1.52,2.2,1.91,3.58,2.45a3.21,3.21,0,0,1-3.66-2.38Z"/><path class="cls-1" d="M15.48,203.66l-2.64-4.6.07-.06q1.27,2.34,2.54,4.68Z"/><path class="cls-1" d="M135,124.69,134,130l-.27-.05c.34-1.78.69-3.57,1-5.36Z"/><path class="cls-1" d="M42.09,168.31l.24,4.23-.29,0c-.14-1.4-.27-2.8-.4-4.21Z"/><path class="cls-1" d="M90.12,169.86,89,174.13a5.44,5.44,0,0,1,1-4.33Z"/><path class="cls-1" d="M31.15,117.18c-.52,1.24-1,2.49-1.55,3.73l-.32-.14a10.18,10.18,0,0,1,1.78-3.67Z"/><path class="cls-1" d="M48.46,109.8c-.31,1-.61,2-.92,3l-.41-.12c.31-1,.61-2,.91-3Z"/><path class="cls-1" d="M142.9,155.11c-1.41-.19-1.61-1.36-2.08-2.31l.26-.21,1.79,2.55Z"/><path class="cls-1" d="M41.71,211.74l-3.79-2.32c.09-.13.19-.26.28-.4,1.16.92,2.31,1.83,3.48,2.74Z"/><path class="cls-1" d="M173.07,201.9,170.72,199l.27-.23,2.4,2.84Z"/><path class="cls-1" d="M22.92,157.49l1.81-3.32.1.09-1.94,3.21Z"/><path class="cls-1" d="M164.06,181.28l1.62,3.17-.43.19-1.2-3.35Z"/><path class="cls-1" d="M92.21,130.92l1.61-3.71.26.11L92.46,131Z"/><path class="cls-1" d="M167.51,180.14l-.93-2.17.39-.18,1,2.2Z"/><path class="cls-1" d="M87.91,140.6c-.39,1.35-.77,2.71-1.16,4.07l-.44-.15c.55-1.3,1.09-2.59,1.63-3.89Z"/><path class="cls-1" d="M33.09,93.93l-1.58,3.12-.32-.16,1.6-3.14Z"/><path class="cls-1" d="M18.94,164.48c-.51,1.1-1,2.2-1.55,3.31l-.38-.2c.65-1,1.3-2.06,2-3.09Z"/><path class="cls-1" d="M10.63,203.39c.67,1,1.34,1.94,2,2.9l-.25.18-1.89-3Z"/><path class="cls-1" d="M144.24,202.74l-2.59-1.59.3-.41,2.27,2Z"/><path class="cls-1" d="M87.19,164.53c-.38,1.35-.75,2.71-1.13,4.06l0,0,1.11-4.08Z"/><path class="cls-1" d="M85.07,161.19c-.36,1.11-.71,2.23-1.07,3.34l-.26-.08c.34-1.11.69-2.22,1-3.33Z"/><path class="cls-1" d="M160.15,188.73c.45.91.89,1.82,1.33,2.72a1.71,1.71,0,0,1-.23.13l-1.39-2.69Z"/><path class="cls-1" d="M8.94,148.63c.43-1.09.86-2.18,1.3-3.28l.39.19-1.71,3.08Z"/><path class="cls-1" d="M132.56,135.61l.66-3.24.22,0c-.2,1.08-.41,2.16-.61,3.25Z"/><path class="cls-1" d="M24.73,154.17l1.43-2.75.34.18-1.67,2.66Z"/><path class="cls-1" d="M163.61,187.79c.49.94,1,1.88,1.45,2.83l-.42.17c-.33-1-.67-2-1-3Z"/><path class="cls-1" d="M167.07,188.25l-1-1.89.23-.13,1.11,1.84C167.32,188.12,167.2,188.19,167.07,188.25Z"/><path class="cls-1" d="M10.51,203.49c-.48-.76-1-1.52-1.46-2.28l.34-.19c.41.79.82,1.58,1.24,2.37Z"/><path class="cls-1" d="M88.06,152.73c-.32.94-.65,1.88-1,2.82l-.27-.09,1-2.82Z"/><path class="cls-1" d="M167.13,195l1.25,2.26-.33.17-1-2.38Z"/><path class="cls-1" d="M120,205.94c.31.57.62,1.15.92,1.73l-.34.19-1-1.71Z"/><path class="cls-1" d="M9.91,148.9l-.75,2.47-.29-.1c.31-.82.62-1.64.94-2.46Z"/><path class="cls-1" d="M9.81,148.81c.23-.75.47-1.5.71-2.25l.33.11c-.31.75-.63,1.49-.94,2.23Z"/><path class="cls-1" d="M170.32,200.91c-.38-.45-.76-.91-1.13-1.37l.33-.22.87,1.53Z"/><path class="cls-1" d="M86.06,168.59l-.12,2.11-.29,0c.15-.68.29-1.36.44-2Z"/><path class="cls-1" d="M19,164.5l.89-1.91.37.23-1.29,1.66Z"/><path class="cls-1" d="M155.3,205.23l1.49,1.39-.3.26c-.39-.56-.78-1.11-1.16-1.67Z"/><path class="cls-1" d="M85.49,158.73l.71-1.52.33.2-1,1.32Z"/><path class="cls-1" d="M164,195.4l1.25,1.76,0,0c-.4-.59-1.68-.56-1.25-1.75Z"/><path class="cls-1" d="M15.45,203.68l1.26,1.44-.37.23c-.29-.56-.58-1.12-.86-1.69Z"/><path class="cls-1" d="M52.52,190.15l-1-1.71.23-.12c.32.55.65,1.1,1,1.65Z"/><path class="cls-1" d="M9.1,157.69c.16-.56.33-1.11.49-1.67l.17,0c-.12.56-.23,1.12-.34,1.68Z"/><path class="cls-1" d="M85.49,158.73v1.73l-.42,0c.14-.57.29-1.14.43-1.7Z"/><path class="cls-1" d="M18.11,207.4,16.86,206l.2-.17,1.25,1.44Z"/><path class="cls-1" d="M9.8,163l-.36,1.84-.39-.12.78-1.69Z"/><path class="cls-1" d="M47.85,185l.8,1.5-.3.11c-.16-.54-.31-1.09-.47-1.64Z"/><path class="cls-1" d="M97.11,153.3c.13-.58.25-1.16.37-1.74l.36.11-.74,1.62Z"/><path class="cls-1" d="M29.72,209.72l1.39.95c-.07.09-.15.18-.22.28l-1.14-1.25Z"/><path class="cls-1" d="M89.16,149.54l-.48,1.83-.31-.11.81-1.7Z"/><path class="cls-1" d="M84.53,149.65c-.14.37-.29.75-.43,1.13l-.32-.14c.18-.37.35-.75.53-1.12Z"/><path class="cls-1" d="M170.39,200.85l1,1.14-.33.25-.71-1.33Z"/><path class="cls-1" d="M165.17,180.16c-.27-.31-.55-.61-.83-.92l.35-.2.45,1.15Z"/><path class="cls-1" d="M162.67,189.43l1,.72c-.12.1-.23.21-.34.32l-.64-1.07Z"/><path class="cls-1" d="M74.48,71.13c-.12-2.36,1.87-7.11,3.18-7.68C76.55,66.13,75.52,68.63,74.48,71.13Z"/><path class="cls-1" d="M76.77,59.91l-2,6.32C73.85,65.36,75.19,60.69,76.77,59.91Z"/><path class="cls-1" d="M74.62,61.29c-.62-1.23.65-5.2,2.16-6.59C76.08,56.85,75.37,59,74.62,61.29Z"/><path class="cls-1" d="M73.71,56.47c.46-1.28.93-2.56,1.39-3.85l.36.12L74.14,56.6Z"/><path class="cls-1" d="M74.43,75.73c.34-.76.68-1.53,1-2.29l.21.09-1,2.32Z"/><path class="cls-1" d="M73.58,53c-.07.39-.13.79-.19,1.18l-.32-.06L73.34,53Z"/><path class="cls-1" d="M26.4,47.18c-.48,1.1-.95,2.21-1.42,3.3-.65,1.5-1.29,3-2.05,4.75-.1-.09-.55-.29-.59-.56a2.53,2.53,0,0,1,.25-1.34c.81-1.88,1.66-3.75,2.53-5.61a4.92,4.92,0,0,1,.75-.85Z"/><path class="cls-1" d="M21.8,52c.16-2.43,2-4.25,2.44-6.84C25,46.39,23.35,50.77,21.8,52Z"/><path class="cls-1" d="M86.83,52.71c.44-.93.89-1.86,1.32-2.79l4-8.6a1,1,0,0,1,.69-.54A4,4,0,0,1,92.65,42c-1.51,3-3,6.06-4.6,9.07a11.4,11.4,0,0,1-1.24,1.62Z"/><path class="cls-1" d="M86.44,53.8c.43-.53.88-1,1.29-1.61,1.38-1.9,2.73-3.83,4.11-5.75a1.09,1.09,0,0,1,.75-.46l-7,11-.22-.09,1-2.73C86.36,54.05,86.4,53.93,86.44,53.8Z"/><path class="cls-1" d="M83.42,68.11l5.16-8.76.46.26-5,8.83Z"/><path class="cls-1" d="M89.61,54.46q-1.71,3-3.4,6.11l-.46-.25,3.52-6Z"/><path class="cls-1" d="M86.44,53.8c0,.13-.08.25-.11.38a3.86,3.86,0,0,1-.37-.3c.27-.4.57-.78.87-1.17l0,0C86.68,53.06,86.56,53.43,86.44,53.8Z"/><path class="cls-1" d="M127.48,49.42c-1.1,3-2.19,5.94-3.3,9C123.69,57.56,126.15,50.28,127.48,49.42Z"/><path class="cls-1" d="M128.89,58.83,125,65.4l-.29-.05a2.46,2.46,0,0,1,.12-1c1.18-2,2.41-3.87,3.62-5.79Z"/><path class="cls-1" d="M127.32,55.3l-2.95,5.42c-.44.09-.63-.31-.23-1,.89-1.56,1.85-3.09,2.79-4.63Z"/><path class="cls-1" d="M40.12,61.85A26.48,26.48,0,0,1,40,53.61h.48v8.26Z"/><path class="cls-1" d="M41.82,58.15c.78,2.1-.43,4-.6,6C40.52,62.07,41.65,60.15,41.82,58.15Z"/><path class="cls-1" d="M41.59,66.44l.6-4.11.65.11L42,66.5Z"/><path class="cls-1" d="M86.49,18.41a2.88,2.88,0,0,1,0-1.06c.41-1,.88-2,1.36-2.94,1.19-2.41,2.39-4.8,3.6-7.19a1.2,1.2,0,0,1,.67-.59C91.26,11,88,14.23,86.83,18.44Z"/><path class="cls-1" d="M93.34,10.58c-.5,1-.94,2.07-1.5,3.05-1.17,2.06-2.43,4.07-3.58,6.13a23.84,23.84,0,0,0-1.13,2.8c-.11-.25-.39-.56-.33-.79a7.3,7.3,0,0,1,.72-1.94c1.44-2.53,2.94-5,4.4-7.54.36-.61.65-1.27,1-1.91Z"/><path class="cls-1" d="M91.4,20.42,86.21,30.58l-.26,0c0-.21-.17-.48-.08-.63,1.64-3.17,3.31-6.32,5-9.47.05-.09.17-.14.26-.21Z"/><path class="cls-1" d="M13.9,67.72a38.49,38.49,0,0,1-.68,9.22V67.69Z"/><path class="cls-1" d="M11.54,72.86l.4-8.75C12.8,65,12.54,71.73,11.54,72.86Z"/><path class="cls-1" d="M15,72.18a18.84,18.84,0,0,1-.78,6.41l-.45,0,.75-6.39Z"/><path class="cls-1" d="M15,79.74c.09-1.36.17-2.72.25-4.08l.45,0c.61,1.4.11,2.74-.35,4.08Z"/><path class="cls-1" d="M10.52,63.41v5.73H10.3L10,63.4Z"/><path class="cls-1" d="M147.71,62.1l-4.19,6.41-.45-.28,4-6.46Z"/><path class="cls-1" d="M15.5,37.47c.68.64.68.64.29,5.48.32-.49.5-.78.69-1.06l.26,0c-.2,1.11-.39,2.23-.59,3.34l-.31,0V44.15l-.2,0c-.08.23-.16.46-.37,1C14.66,42.4,15.32,40,15.5,37.47Z"/><path class="cls-1" d="M16.91,48.44a3.44,3.44,0,0,1,.71-4C17.36,45.91,17.13,47.18,16.91,48.44Z"/><path class="cls-1" d="M39.7,72c-.23.84-.47,1.67-.7,2.5l-.48-.11L39,71.83Z"/><path class="cls-1" d="M38.46,69.7l-.82,3A2.41,2.41,0,0,1,38.46,69.7Z"/><path class="cls-1" d="M166.22,205.36c-.42-.5-.85-1-1.27-1.48l.2-.16c.43.49.86,1,1.28,1.46Z"/><path class="cls-1" d="M159.28,197.72l-2.61-1.79.24-.29,2.35,2.11Z"/><path class="cls-1" d="M43,84.53l.42-.8c.13.11.28.19.27.23-.08.28-.18.55-.28.82Z"/></g></g></svg>
