<svg width="512" height="512" viewBox="0 0 512 512" fill="none" xmlns="http://www.w3.org/2000/svg">
<path d="M256 0C114.844 0 0 114.844 0 256C0 397.156 114.844 512 256 512C397.156 512 512 397.156 512 256C512 114.844 397.156 0 256 0ZM256 480C132.484 480 32.0001 379.516 32.0001 256C32.0001 132.484 132.484 32.0001 256 32.0001C379.516 32.0001 480 132.484 480 256C480 379.516 379.516 480 256 480V480Z" fill="#800000"/>
<path d="M272 96.0005H240V262.625L340.687 363.312L363.312 340.687L272 249.375V96.0005Z" fill="#800000"/>
</svg>
