<svg width="66" height="56" viewBox="0 0 66 56" fill="none" xmlns="http://www.w3.org/2000/svg">
<path d="M54.0527 45.623V47.9195C54.0527 48.4522 54.4844 48.8838 55.0171 48.8838C55.5498 48.8838 55.9814 48.4522 55.9814 47.9195V45.623C55.9814 45.0903 55.5498 44.6587 55.0171 44.6587C54.4844 44.6587 54.0527 45.0903 54.0527 45.623Z" fill="#605959"/>
<path d="M64.8681 37.5421H51.204C50.3927 37.5421 49.7328 38.2022 49.7328 39.0134V39.9329H45.6221C44.5671 39.9329 43.68 40.6542 43.4211 41.6287L38.9054 40.3634C38.5656 40.2682 38.3483 39.933 38.3997 39.5841L39.3191 33.35C39.3945 32.8388 39.3348 32.3241 39.1554 31.8522H46.8967C48.9177 31.8522 50.5619 30.2081 50.5619 28.1871V25.3679C50.5619 24.8352 50.1302 24.4035 49.5975 24.4035H46.8712V22.9705C46.8712 12.5571 38.6182 4.03635 28.3097 3.60201V3.02881C28.3097 1.35882 26.9511 0 25.2809 0C23.6108 0 22.2521 1.35869 22.2521 3.02881V3.60201C19.6102 3.71117 17.0689 4.34327 14.6865 5.48878C14.2066 5.71958 14.0046 6.29574 14.2354 6.77573C14.4662 7.25571 15.0422 7.45745 15.5223 7.22691C17.8891 6.08886 20.4312 5.51179 23.078 5.51179H27.4839C37.1106 5.51179 44.9425 13.3437 44.9425 22.9704V24.4034H5.61942V22.9704C5.61942 17.5229 8.09546 12.485 12.4126 9.14852C12.834 8.82283 12.9116 8.21723 12.5861 7.79574C12.2604 7.37439 11.6548 7.29686 11.2333 7.62229C6.43988 11.3269 3.69073 16.9209 3.69073 22.9702V24.4033H0.964342C0.43164 24.4033 0 24.8349 0 25.3676V28.1868C0 30.2078 1.64414 31.852 3.66514 31.852H10.48C10.1811 32.8114 10.423 33.8281 11.1427 34.5597L15.8645 39.3601C18.9133 42.4596 22.4193 45.0402 26.2853 47.0297C30.1513 49.0192 34.2887 50.3726 38.5832 51.0523L43.3959 51.8139C43.619 52.8385 44.5319 53.6086 45.6224 53.6086H49.7331V54.5282C49.7331 55.3395 50.3931 55.9995 51.2043 55.9995H55.8559C56.3886 55.9995 56.8202 55.5678 56.8202 55.0351C56.8202 54.5024 56.3886 54.0708 55.8559 54.0708H51.6617V39.4708H63.9038V54.0713H59.7113C59.1786 54.0713 58.747 54.503 58.747 55.0357C58.747 55.5684 59.1786 56 59.7113 56H64.8681C65.4008 56 65.8324 55.5684 65.8324 55.0357V38.5064C65.8324 37.9737 65.4008 37.5421 64.8681 37.5421ZM25.2809 1.92894C25.8876 1.92894 26.3811 2.42243 26.3811 3.02906V3.5835H24.1809V3.02906C24.1808 2.42243 24.6743 1.92894 25.2809 1.92894ZM1.92868 28.1872V26.3323H48.6332V28.1872C48.6332 29.1446 47.8541 29.9237 46.8967 29.9237H29.7417C29.209 29.9237 28.7774 30.3553 28.7774 30.888C28.7774 31.4207 29.209 31.8524 29.7417 31.8524H33.4919L30.1721 37.0705C29.703 37.8079 28.7339 38.0583 27.9666 37.6407L17.3245 31.8524H25.8859C26.4186 31.8524 26.8502 31.4207 26.8502 30.888C26.8502 30.3553 26.4186 29.9237 25.8859 29.9237H3.66514C2.70774 29.9237 1.92868 29.1446 1.92868 28.1872ZM27.1677 45.3151C23.4844 43.4196 20.1441 40.961 17.2392 38.0078L12.5174 33.2074C11.8804 32.5598 12.6578 31.5094 13.4658 31.9492L27.045 39.335C28.6996 40.2348 30.7882 39.695 31.7995 38.1055L35.465 32.344C36.0773 31.3818 37.5772 31.9417 37.4111 33.0686L36.4917 39.3027C36.299 40.6095 37.1129 41.8639 38.3851 42.2205L43.3427 43.6096V49.853L38.8845 49.1475C34.793 48.5002 30.851 47.2106 27.1677 45.3151ZM45.6221 51.6803C45.4286 51.6803 45.2712 51.5228 45.2712 51.3294V42.2127C45.2712 42.0192 45.4288 41.8618 45.6221 41.8618H49.7328V51.6804H45.6221V51.6803Z" fill="#605959"/>
</svg>
