<svg width="58" height="56" viewBox="0 0 58 56" fill="none" xmlns="http://www.w3.org/2000/svg">
<path d="M47.1534 29.6309C46.6941 29.6309 46.3218 30.0032 46.3218 30.4624C46.3218 31.0447 45.8482 31.5183 45.2659 31.5183C44.6838 31.5183 44.21 31.0447 44.21 30.4624C44.21 30.0031 43.8377 29.6309 43.3784 29.6309C42.9192 29.6309 42.5469 30.0032 42.5469 30.4624C42.5469 31.9617 43.7667 33.1815 45.2659 33.1815C46.7651 33.1815 47.9849 31.9616 47.9849 30.4624C47.9849 30.0029 47.6126 29.6309 47.1534 29.6309Z" fill="#605959"/>
<path d="M54.9593 29.7668L52.6187 29.017C52.3189 28.9209 52.0827 28.6816 51.9868 28.3768C51.4935 26.8084 50.7491 25.336 49.7742 24.0003C49.3299 23.3915 48.8358 22.8102 48.2961 22.2567C48.6414 20.7419 48.8291 19.0276 48.8048 17.5464C48.77 15.4276 48.3466 14.1849 47.5104 13.747C47.0601 13.5108 45.6896 12.7934 38.2715 16.1891C38.0959 16.2695 37.9318 16.3685 37.7799 16.4818C37.2798 16.3475 36.7686 16.2231 36.2544 16.1115C36.1924 16.098 36.1286 16.0861 36.0662 16.0729C36.6673 14.7598 37.0183 13.3336 37.0843 11.8613C37.1048 11.4024 36.7496 11.0138 36.2906 10.9933C35.833 10.9706 35.4431 11.3279 35.4227 11.7868C35.3143 14.2077 34.3101 16.4854 32.5952 18.2005C31.5705 19.2251 30.3708 19.9694 29.0921 20.4381C26.8746 20.127 24.616 20.127 22.3985 20.4381C21.1197 19.9694 19.9201 19.2251 18.8954 18.2005C17.0658 16.3708 16.0581 13.9381 16.0581 11.3506C16.0581 8.7629 17.0658 6.33036 18.8954 4.5007C20.7251 2.67093 23.1578 1.66325 25.7453 1.66325C28.3328 1.66325 30.7655 2.67093 32.5952 4.5007C33.3304 5.23596 33.938 6.075 34.4011 6.99429C34.6076 7.40456 35.1077 7.56973 35.5179 7.36304C35.9281 7.15657 36.0932 6.65647 35.8866 6.24632C35.3439 5.16832 34.6322 4.18542 33.7714 3.32449C31.6276 1.18067 28.7772 0 25.7454 0C22.7137 0 19.8633 1.18067 17.7194 3.32449C15.5756 5.46843 14.3949 8.31871 14.3949 11.3505C14.3949 14.3822 15.5756 17.2326 17.7194 19.3764C18.3378 19.9948 19.0106 20.5266 19.7222 20.9722C19.7224 20.9722 19.7226 20.9721 19.7229 20.9721C19.2058 21.1064 18.6926 21.2573 18.1852 21.427C17.7496 21.5726 17.5145 22.0437 17.6602 22.4794C17.8057 22.915 18.277 23.15 18.7125 23.0045C23.2477 21.4883 28.2431 21.4883 32.7783 23.0045C32.8658 23.0337 32.9547 23.0476 33.042 23.0476C33.3899 23.0476 33.7142 22.8275 33.8306 22.4794C33.9763 22.0438 33.7412 21.5726 33.3057 21.427C32.7982 21.2573 32.285 21.1063 31.768 20.9721C31.7682 20.9721 31.7684 20.9722 31.7686 20.9722C32.4803 20.5266 33.153 19.9948 33.7714 19.3764C34.3185 18.8293 34.8014 18.2319 35.2207 17.597C35.4499 17.6415 35.6775 17.6882 35.9017 17.7368C36.2004 17.8017 36.4977 17.8713 36.7923 17.9444C36.783 17.9806 36.7736 18.0166 36.7659 18.0534C36.3603 19.978 36.3866 21.6802 36.8441 23.1124C37.2552 24.3998 37.9973 25.4427 39.0494 26.2125C40.2895 27.1196 41.7865 27.5114 43.1426 27.5114C44.1633 27.5114 45.1042 27.2894 45.7953 26.898C46.577 26.4552 47.2319 25.5223 47.7503 24.1217C47.9899 24.4013 48.217 24.6878 48.4311 24.9811C49.299 26.1702 49.9616 27.4806 50.4004 28.8759C50.6581 29.6954 51.2979 30.3403 52.1116 30.6011L54.4521 31.3509C55.0663 31.5476 55.4789 32.1129 55.4789 32.7578V36.6389C55.4789 37.2837 55.0663 37.849 54.4521 38.0457L50.6811 39.2537C50.0778 39.4471 49.5672 39.8617 49.2434 40.4213C47.7619 42.9817 45.4326 45.1005 42.3198 46.7189C41.9602 46.9061 41.7111 47.2408 41.6361 47.6374L40.4283 54.0327C40.3949 54.209 40.2406 54.3367 40.0612 54.3367H36.1342C35.9548 54.3367 35.8005 54.2088 35.7671 54.0327L35.0981 50.4983C34.9664 49.8029 34.3142 49.341 33.6122 49.4473C31.9206 49.7031 30.1776 49.8327 28.4317 49.8327C27.1329 49.8327 25.8507 49.7603 24.6204 49.6173C23.9402 49.5391 23.3065 50.0028 23.1794 50.6744L22.5437 54.0327C22.5103 54.209 22.356 54.3367 22.1766 54.3367H18.2496C18.0702 54.3367 17.9159 54.2088 17.882 54.0301L16.7191 47.9898C16.6442 47.6006 16.3998 47.2697 16.0481 47.0819C10.742 44.2492 7.93736 39.5167 7.93736 33.3963C7.93736 30.3039 8.61391 27.5695 9.94815 25.2686C11.1932 23.1215 13.0117 21.3462 15.3531 19.9918C15.7506 19.7618 15.8864 19.2531 15.6565 18.8555C15.4266 18.4579 14.9179 18.3223 14.5203 18.552C9.98029 21.1783 7.24206 25.23 6.48816 30.3761V30.376C6.40814 30.3688 6.32801 30.3618 6.24821 30.3536C6.26272 29.7984 6.16228 29.2381 5.94353 28.6944C5.46106 27.495 4.47001 26.6294 3.41858 26.4891C2.59002 26.3782 1.80153 26.73 1.25433 27.453C0.460929 28.5014 0.59028 29.3311 0.838378 29.8424C1.25723 30.7055 2.33389 31.316 4.12057 31.6998C4.07147 31.7733 4.01745 31.8472 3.9583 31.9214C2.90263 33.2454 1.6589 33.5381 0.851324 33.5657C0.378565 33.5817 0 33.9612 0 34.4343V34.4383C0 34.905 0.368185 35.2855 0.83436 35.3068C0.894069 35.3096 0.956456 35.3111 1.02141 35.3111C2.04327 35.3111 3.6833 34.9342 5.25895 32.9585C5.50771 32.6466 5.71039 32.3176 5.86619 31.9777C6.02311 31.9954 6.17388 32.0106 6.3183 32.024C6.3183 32.0236 6.3183 32.0234 6.31841 32.0231C6.29007 32.4737 6.27433 32.931 6.27433 33.3963C6.27433 36.8592 7.09987 39.9467 8.72786 42.5736C10.2289 44.9954 12.3781 46.9784 15.1178 48.4697L16.2484 54.3419C16.4302 55.3026 17.2718 55.9999 18.2496 55.9999H22.1766C23.1544 55.9999 23.996 55.3026 24.1778 54.3419L24.7526 51.3053C25.9463 51.4318 27.1822 51.4958 28.4316 51.4958C30.1459 51.4958 31.8581 51.3764 33.5269 51.1407L34.1328 54.3421C34.3147 55.3028 35.1563 56 36.1339 56H40.061C41.0388 56 41.8804 55.3027 42.0623 54.3417L43.2383 48.1151C46.5605 46.3583 49.0647 44.0505 50.6828 41.2542C50.7994 41.0526 50.979 40.9047 51.1884 40.8377L54.9593 39.6298C56.2647 39.2114 57.1418 38.0095 57.1418 36.6386V32.7576C57.1418 31.3868 56.2647 30.1849 54.9593 29.7668ZM47.0168 19.8833C46.6967 22.6206 45.8381 24.9621 44.9754 25.4507C43.9949 26.0061 41.7309 26.1134 40.0312 24.87C38.3294 23.6251 37.763 21.3866 38.3931 18.3962C38.3931 18.3961 38.3931 18.3961 38.3931 18.3961C38.4563 18.0958 38.6697 17.836 38.9638 17.7014C43.1271 15.7956 45.5274 15.1723 46.4191 15.1723C46.5537 15.1723 46.654 15.1864 46.7207 15.2126C46.9886 15.498 47.3399 17.1209 47.0168 19.8833ZM2.33489 29.1162C2.24884 28.9388 2.45196 28.6268 2.58076 28.4565C2.78488 28.1869 2.97294 28.1317 3.11501 28.1317C3.14503 28.1317 3.17305 28.1342 3.19871 28.1377C3.58107 28.1887 4.11678 28.6094 4.40059 29.3149C4.46744 29.4809 4.55427 29.7561 4.57458 30.0991C3.42338 29.8606 2.52897 29.5168 2.33489 29.1162Z" fill="#605959"/>
<path d="M26.553 10.3976V7.42173C27.5792 7.49505 27.9605 7.96413 28.3122 7.96413C28.7521 7.96413 28.9573 7.40711 28.9573 7.12854C28.9573 6.41014 27.5499 6.10233 26.553 6.07298V5.677C26.553 5.50111 26.333 5.33984 26.1132 5.33984C25.8638 5.33984 25.6879 5.50111 25.6879 5.677V6.10211C24.2952 6.24876 22.9025 6.98178 22.9025 8.82896C22.9025 10.7055 24.3686 11.2333 25.6879 11.7023V15.1475C24.1926 15.0302 23.7968 14.004 23.313 14.004C22.9465 14.004 22.6387 14.4878 22.6387 14.8397C22.6387 15.558 23.8701 16.5402 25.6879 16.5696V17.024C25.6879 17.1999 25.8639 17.3612 26.1132 17.3612C26.3331 17.3612 26.553 17.1999 26.553 17.024V16.5256C28.1363 16.3056 29.2211 15.3087 29.2211 13.5055C29.2211 11.5118 27.8284 10.8666 26.553 10.3976ZM25.7759 10.1191C24.9989 9.82592 24.3686 9.51812 24.3686 8.68253C24.3686 7.92015 24.9549 7.55364 25.7759 7.45108V10.1191V10.1191ZM26.4649 15.1181V12.0249C27.1832 12.3327 27.755 12.7432 27.755 13.6667C27.755 14.5025 27.2566 14.9716 26.4649 15.1181Z" fill="#605959"/>
</svg>
