<svg xmlns="http://www.w3.org/2000/svg" viewBox="0 0 229 229"><defs><style>.cls-1{fill:#800000;}</style></defs><g id="Layer_2" data-name="Layer 2"><g id="Layer_1-2" data-name="Layer 1"><path class="cls-1" d="M167,0H62A62.06,62.06,0,0,0,0,62V167a62.06,62.06,0,0,0,62,62H167a62.06,62.06,0,0,0,62-62V62A62.06,62.06,0,0,0,167,0ZM114.5,177.11H114l0-13.42h.54a50.75,50.75,0,1,0-.56,0V177.1a61.77,61.77,0,1,1,.55,0ZM179,66.63V53.19a4.71,4.71,0,1,0-.34,0c.11,0,.22,0,.33,0V66.63l-.34,0a19.47,19.47,0,1,1,.35,0Z"/></g></g></svg>
