<svg width="229" height="229" viewBox="0 0 229 229" fill="none" xmlns="http://www.w3.org/2000/svg">
<path d="M167.011 0H61.9881C27.8073 0 0 27.8073 0 61.9881V167.013C0 201.192 27.8073 229 61.9881 229H167.013C201.192 229 229 201.192 229 167.013V61.9881C229 27.8073 201.192 0 167.011 0V0ZM114.5 177.115C79.973 177.115 51.8845 149.027 51.8845 114.5C51.8845 79.973 79.973 51.8845 114.5 51.8845C149.027 51.8845 177.115 79.973 177.115 114.5C177.115 149.027 149.027 177.115 114.5 177.115ZM178.612 66.6512C168.409 66.6512 160.11 58.3523 160.11 48.1491C160.11 37.9459 168.409 29.6453 178.612 29.6453C188.816 29.6453 197.116 37.9459 197.116 48.1491C197.116 58.3523 188.816 66.6512 178.612 66.6512Z" fill="#9C3535"/>
<path d="M114.505 65.3086C87.3824 65.3086 65.3145 87.3748 65.3145 114.499C65.3145 141.621 87.3824 163.689 114.505 163.689C141.629 163.689 163.695 141.621 163.695 114.499C163.695 87.3748 141.629 65.3086 114.505 65.3086Z" fill="#9C3535"/>
<path d="M178.616 43.0713C175.817 43.0713 173.539 45.3495 173.539 48.1484C173.539 50.9473 175.817 53.2256 178.616 53.2256C181.417 53.2256 183.695 50.9491 183.695 48.1484C183.695 45.3478 181.417 43.0713 178.616 43.0713Z" fill="#9C3535"/>
<path d="M114 179.5V157" stroke="#9C3535" stroke-width="0.1"/>
<path d="M179 51V69" stroke="#9C3535" stroke-width="0.1"/>
</svg>
