<svg xmlns="http://www.w3.org/2000/svg" viewBox="0 0 140.22 387.98"><defs><style>.cls-1,.cls-2{fill:#eee;}.cls-1{fill-rule:evenodd;}</style></defs><g id="Layer_2" data-name="Layer 2"><g id="Layer_1-2" data-name="Layer 1"><path class="cls-1" d="M93.59,144c2.21-2,1.74-1.89.16-4.25s3.28-1.64.68-6.48c-1-1.88.28-2,1.24-3.63.87-1.44.85-2.06-.3-3.29-.61-.67-.66-1.17,0-1.7a3.33,3.33,0,0,0,1-1.09c1.55-2.89-2.33-2.75-.22-4.24,1.51-1.07,1.17-2.15.28-3.76-1.21-2.19,1.63-1.86,1.61-4.14,0-1.23,0-2.43-1-3.3-.74-.66-.6-1.05.15-1.58,4.36-3.08-.62-5,1.53-6.74,1.71-1.37,1.41-2.7.25-3.92-.21-.22-.48-.41-.5-.78.5-1.22,3.25-.84,2.17-3.61a5.55,5.55,0,0,0-.59-1c-.38-.58-.32-1,.33-1.37,4.4-2.69-.86-4.88,1.27-6.58,1.82-1.43,2.69-3.52,1.11-5.49-.77-1-.82-1,.32-1.71,1.42-.83,1.91-2.47.75-4.2-.48-.72-.39-1.09.18-1.54.81-.64,2.29-1.14,1.5-2.71-.63-1.25.19-1.32,1.11-2.39a2.55,2.55,0,0,0,.23-3.43c-.13-.21-.3-.4-.44-.61-.69-1-.63-1.5.52-1.73,1.45-.29,1.69-1.28,2-2.42a2.51,2.51,0,0,0-.64-2.26c-.54-.67-.39-1.11.32-1.49A5.82,5.82,0,0,0,111,50a1.88,1.88,0,0,0,0-2.29c-.49-.54-.28-.85.22-1.18,4.4-2.89-.06-4.52,2.27-5.48,3.07-1.25,2.1-3.64,2.35-4.56s1.69-.74,2-1.86a3.74,3.74,0,0,0-.17-3.07c-1.35-2.33,1.78-.82,3-3.53a3.3,3.3,0,0,0,.21-3.05c-.6-1.17,1-.75,2.07-2,2.12-2.43-1.3-2.77,1-3.77.79-.34,3.7-.35,3-3.51-.29-1.32-.21-1.54,1-1.49A2.43,2.43,0,0,0,130.41,13c2-3.53-.84-5.41,1.87-4.82,3.83.85.82-3.16,3.6-3.13,1.71,0,.78-1.75,3.1-1,.92.31.93,1,1,1.81.08,5.59-.31,11.17-.44,16.75-.13,6.15.32,12.28.58,18.42.89,20.82-2.65,141.89-1,164.84a5.41,5.41,0,0,1-2.57,5.33c3.13,2.68,3,6.24,2.82,24.78-1.29,124,3.28,141.48-8.14,148.19-5.78,3.4-11.63,2.34-17.93-.57a21.88,21.88,0,0,1-11.57-12.27c-5.57-14.29,3.6-22.83-1.63-40.1-7-23.12-10.35-26.58-5.28-51.16,1.1-5.34,2.43-10.63,3.38-16,6.38-36.33-20.67-54.83,2.86-54.93-7.06-15.71-10.74,9.21-7.94-38.27.14-2.37,2.37-4.15,0-6.28a1,1,0,0,1-.24-1.48c.07-.1.11-.22.18-.32,1.2-1.83.84-3.56-.41-5.18-.53-.68-.58-1.17.14-1.72a3,3,0,0,0,.65-.91c1-1.56.93-1.93-.17-3.36s-1.1-1.44.18-2.69a8.11,8.11,0,0,0,.87-1,2.15,2.15,0,0,0,0-2.92C94.13,144.77,93.9,144.47,93.59,144ZM131.23,15.32c-.79-.1-3.6.74-2,1.52a4.21,4.21,0,0,0-1.07,2.46c.52,0,.79-.41,1.2-.23l0,0c-.68,1.47-4,1.53-4.26,4.52,1.44-.48,2.36-1.76,3.82-1.93l-.05,0c.14.53-.32.6-.61.78-1.48.94-2.94,1.91-4.47,2.76-.89.49-.89,1-.44,1.9a47.58,47.58,0,0,1,11.9-5.61c-.63.92-.63.94-.9,1-4.46.86-11.12,5.12-11.57,5.9a7.31,7.31,0,0,1-3.36,3c.48,1,.86.55,3.34-1.09,2.88-1.91,6.13-3.15,9.07-4.95.29-.18.57-.22,1,.2-5.27,2.63-13.25,6.44-12.65,8.15a.71.71,0,0,0,.75-.18A68.27,68.27,0,0,1,129.1,29c.53-.27.74-.56,1.13-.1.27.31-.42.68-.8.81a30.14,30.14,0,0,0-11.13,6.82c-.71.68-.64,1.05-.15,1.69.78-.5,7.36-4.93,10.35-5.48-.46.79-14.91,7.41-13.29,10.51.79-.57,8.17-6.38,11.81-7.12a2.42,2.42,0,0,1-.85.75A65.5,65.5,0,0,0,116,43.31a1.91,1.91,0,0,0-.89,2.11c.24-.06.39-.05.48-.12a62.24,62.24,0,0,1,9.58-5.87c.33-.18.69-.42.88.25-4.19,2.1-8.07,4.75-12,7.25-1,.62-.88,1.16-.42,2.08a65.13,65.13,0,0,1,10.92-6c-1.81,2.71-9.79,3.81-13.53,10.34,1.6-1.1,3.19-2.17,4.79-3.23,1.76-1.16,3.79-1.88,5.38-3.33a1,1,0,0,1,1.27,0c0,.62.18.13-6.06,3.83A29.3,29.3,0,0,0,111.67,54c-.69.62-1,1.24-.27,2.12,8-5,8.08-5.42,9.79-5.68C117.52,53.77,112.7,55,109,59.7c-.2.26-.48.47-.26.78a.64.64,0,0,0,.86.1c3.65-1.93,10.1-8,11.2-7,0,.38-.26.57-.52.71-3.31,1.93-6.32,4.32-9.53,6.38-1.15.74-1.74,1.55-1.24,3.06,3.25-1.94,6-4.74,9.68-5.86-3.36,2.16-6.57,4.53-9.76,6.91-.41.3-.82.58-1.22.89s-1,.85-.4,1.52.92,0,1.27-.28c.73-.49,1.34-1.17,2.1-1.59a30.74,30.74,0,0,0,4.45-3c1.12-.92,2.5-1.4,3.68-2.26-.39,2.35-17.1,9.68-12.48,12.71,2-1.09,6.48-5.55,9.87-6.82-2.76,2.75-8.25,5.58-11.67,10-.38.49-.44.85-.06,1.32s.88.32,1.27,0c5.51-5.1,7-5.13,9.71-7.9.2-.2.35-.33.6-.1s.26.45,0,.65a5.75,5.75,0,0,1-.74.56c-11.42,8.25-10.37,8.42-10.18,9.73,7-4.79,7.28-5.24,9-5.38a101.33,101.33,0,0,0-11,8.35c-.3.26-.52.57-.28,1s.32.77.79.68a2.06,2.06,0,0,0,1.13-.6,33.31,33.31,0,0,1,4.25-3.42L113,78.17c.21-.15.45-.25.66,0a.41.41,0,0,1-.12.64c-.2.15-.43.26-.63.4-8.67,6.12-9.21,6.84-8.74,8.93,1.72-.83,5.81-5,8.42-6.14a1.33,1.33,0,0,1-.8,1.09c-2.81,1.9-5.31,4.21-8,6.27-1.44,1.11-1.42,1.14-.89,2.84,0,.09.14.16.26.31,2.64-2.11,5.27-4.17,7.85-6.32.43-.36.8-1.1,1.27-.52s-.47.91-1,1.3c-8.23,6.39-5.49,4.17-10.16,8.53.68.82,1.22,1,2,.21s7.24-6.4,8.27-6c-.16.61-2.57,2.1-3.85,3.19-2.4,2-5.37,3.55-6.45,6.84-.17.53-1.26.81-.6,1.53s.94-.72,1.6-.37l0,0a.77.77,0,0,1-.39.79c-1,.73-.81,1.64-.5,2.81,5.46-4.64,8.65-8.06,9.54-6.78-4.13,2.5-7.52,5.83-11,9-.9.84-.9.84.18,2.06,2.59-2.43,5.51-4.49,8-7a2.73,2.73,0,0,1,1.73-.77c-.32,2.46-10.11,6.24-9.5,10.86,1.69-.3,9.12-8.32,10.15-7.28a4.26,4.26,0,0,1-1.48,1.35c-3.57,2.45-6.61,5.55-10,8.23-.4.32-.83.7-.39,1.25s.9.15,1.28-.16c6-4.84,5.76-4.93,6.55-4.92l0,0c.11,1.53-7.46,4.62-7.28,8.28,0,.45-.35.91-.55,1.36h0c-.9.17-.1.45.5,2.92,8.69-7.9,8.38-8.07,9.54-7.51-.78.78-8.63,7.2-10.9,9.49a.82.82,0,0,0,0,1.31c.48.5.82,0,1.1-.21a75,75,0,0,0,6.78-5.94,2.74,2.74,0,0,1,1.37-.93.53.53,0,0,1,.48.16.52.52,0,0,1,0,.5,8.74,8.74,0,0,1-1.15,1c-2.2,1.57-4.12,3.47-6.17,5.2a5.39,5.39,0,0,0-2.16,4.21c1.13-.45,2.57-2.64,3.61-2.8l0,0c0,1-.85,1.16-1.39,1.61-1.09.92-1.84,2.22-3.15,2.89-.33.17-.81.19-.66.7s.17,1.32.77,1.63.76-.27,1.08-.54c9.8-8.2,8.63-8,9.44-7.65,0,.65.21.22-8.39,7.59A4.53,4.53,0,0,0,97.15,136a3.71,3.71,0,0,1-1.37,2.38c-.32.25-.71.64-.1,1l-.06,0a8.78,8.78,0,0,0,1.55,2.26c.84-1.09,6.93-8.31,9.66-9-3,2.58-8.93,8.48-10.63,11.74,3.7-3.3,7.09-6.93,11.07-9.88a2.19,2.19,0,0,1-1.16,1.6c-2.29,1.67-4.2,4.22-6.65,6.35-1.6,1.4-2.9,2.88-2.89,5.15l.29.51c0,1.09-.79.4-1.86,1.63-.38.43-.79.81-.21,1.43s1.19.34,1.59-.14c2.73-3.24,6.15-5.79,9-8.88.26-.28.62-.71,1.1-.22-.08,1.27-11.49,8.42-10.13,11.89,1.37-1.34,2.76-2.68,4.12-4,.27-.28.47-.59.92-.47l0,0c-.65,1.36-4.82,5.61-6.33,6.83a1.19,1.19,0,0,0-.07,2c.62.47,1-.1,1.32-.54,1.07-1.37,8.93-10.1,10.12-9.44-.36,1.11-1.37,1.49-2.11,2.09-2.52,2.08-4.63,4.56-6.93,6.86-1.12,1.12-2.2,2.14-1.54,3.9,0,.08.16.12.33.24,2.41-2.5,4.39-4.79,9.81-9.73.28-.25.55-.54,1.16.17-6,4.38-7.62,8-12.08,11a1.2,1.2,0,0,0,0,1.83c.66.59,1-.09,1.41-.42s.82-1.13,1.34-1.55c1.25-1,2-2.61,3.64-3.1l0,0c.08.52-.29.83-.6,1.1-1.36,1.22-2.41,2.73-3.7,4s-1.24,2.69-1.33,4.23c.81-.09.74-.61,3.93-4.54a12,12,0,0,1,2.87-2.85l0,0c-.56,1.31-5.31,6.94-6.38,8-1.25,1.28-1.36,1.28-.48,3C105.39,160,105.22,160,106,160.77c-.43,1-1.44,1.53-2.15,2.3-2.68,2.92-4.81,6.28-7.45,9.21a5,5,0,0,0-1.35,4.36c1.81-.63,5.4-7.24,7.13-7.82l0,0c-6.29,10-7.74,7.64-6.82,10.52.16-.13,8-9.46,9.25-11.29a3.3,3.3,0,0,1,.22-.3.57.57,0,0,1,.84,0c.3.29.12.47-.2.69a9.25,9.25,0,0,0-1.67,1.75c-9.28,11.14-9.58,10.86-8.35,13.39l0,0c-.88,1.25-.3,2.57-.36,3.86,1.22.11,10.93-12.06,11.56-11.54.37.32,0,.55-.21.76-11.63,12.58-12.27,12.6-11.47,14.57,1.28-.31,1.74-1.37,2.52-2.06,6.27-5.54,6.77-8.94,8.11-7.68-.2.67-8.84,9.67-10,10.72a2.18,2.18,0,0,0-.75,2.23c1.53-.76,1.48-1,10-10.53.23-.26.53-.39.8-.12s0,.41-.18.6C94.11,196.53,94.23,195.66,95,197.66c2.69-1.67,8.88-10.89,10.19-9.89,0,0-7.71,8.41-9.71,10.74-.63.73-.67,1.25.09,2a93.81,93.81,0,0,0,8.31-9c.5-.65.86-1.51,1.83-1.57a.57.57,0,0,1-.09.79c-2.54,2.61-4.76,5.51-7.42,8-.58.54-2,1.83-1.4,2.34,1.93,1.58,7.6-9.26,9-6.74-3,2-4.9,4.94-7.3,7.45,1.53,1.47.89,1.65,5.59-4.16.27-.34.51-.77,1.09-.39a3.14,3.14,0,0,1-1,1.49,42.92,42.92,0,0,0-3.25,3.89c-.3.37-.62.66-.1,1.07.78.63,1.48-.6,3.24-3.12.53-.77.51-.78,1.54-.42,0,0,0,.14,0,.17-1.43,1-2.1,2.62-3.31,3.79-.56.53.69,1.76,1.07.63.46-1.35,1.5-2.52,2.34-1.38a7.2,7.2,0,0,0-2.16,2.52c-.17.89.76,1.07,1.1,2.07.43,1.29,1.38,1.6,2.65,1.6,7.69,0,13.54.61,20.48.84,1.76.06,3.52.07,5.27.24a3.54,3.54,0,0,0,4-3.27l1-165.52c-.44-10.28-.91-6.49-.36-24a14.09,14.09,0,0,0-.15-4.58c-1.3-.09-5.12,2.48-8.3,3.66l2.07-1.59a36.65,36.65,0,0,0,5.37-2.46c1.34-.6,1.35-.72.81-2.35C133.61,11.92,132.69,12.64,131.23,15.32Zm-.18,204a3,3,0,0,1,.71-1.87c.76-1.21,1.49-2.45,2.18-3.7.29-.55-.09-1-.7-.87-.76.11-1,.73-1.27,1.28a1.61,1.61,0,0,1-1.78,1c-4.48-.1-21.76.48-27.19-1.81,1.13-.63,5.08.89,11,1.17,4.88.24,9.76,0,14.63.33,1.87.13,2-.05,2.9-2.26-10.31,0-20.49-1.27-30.82-1.15.36,1,1.32,1.24,1.41,2.31-1.59-.7-2.37-2.6-4.36-2.19.46,1.73,2.56,2.16,2.85,3.93-2.86-2.2-4.28-4.13-5-3.59-.45.36-.14.86.12,1.15,1.15,1.31,2,2.88,3.42,4,.44.33,1.07.63,1.06,1.48-2.38-1.22-3.66-3.44-5.52-5.08-.79,1.68.66,1.71,7.57,9.71a3.86,3.86,0,0,0,2.37,1.32,75,75,0,0,0,9.68,1.15,45.57,45.57,0,0,0,12.18-.22c.45-.09.86-.18,1.08.32-1.12,1.54-17.15.07-18.3,0a31.81,31.81,0,0,1-6.82-1.22c-.28-.07-.92,0-.71-.58s-.23-.91-.58-1.22c-3.42-3.11-4.87-5.45-6.46-6.38.11,2.77,1.53,3.65,9.29,11.8a1.28,1.28,0,0,1,.5,1.27l-7.67-7.88-.33.31c2.75,4.27,6.69,7.59,9.51,11.83l-7.92-8.4c-.11,2.31.07,1.77,9,11.67.2.22.68.46.12,1a97.64,97.64,0,0,0-7.57-7.79,4.93,4.93,0,0,0,1.27,3.07c2.35,2.6,4.58,5.31,7.17,7.69.51.48.94,1,1.41,1.55-3.25-2.12-5.53-5.23-8.53-7.61,1,4.52,4.91,7.08,7.31,10.66-4.18-3.32-4.29-4.82-6.92-6.6.46,3.27.28,2.95.75,3.46,2.31,2.47,4,5.47,6.46,7.81.19.18.43.47,0,.82-2.52-2.11-4.11-5.11-6.68-7.42-.34,3.09-.93,1.57,6.47,10.41a2.69,2.69,0,0,1,1,1.91l-7.58-8.36a4,4,0,0,0,1.35,4.17c.79.69,6.61,6.25,6.46,7.71a70.71,70.71,0,0,0-7.84-8c0,2.73-.92,1.31,7.67,10.19.17.18.31.41,0,.69-2.68-2.32-4.78-5.25-7.65-7.45-1.33,1.92,3.33,5.05,4.52,8l0,0c-.86,0-.79-.19-4.85-5.28-.25,1.28-.71,2.46.18,3.38,2.27,2.35,3.88,5.25,6.39,7.38a.58.58,0,0,1,.17.78c-2.31-1.21-4.72-5.52-7.06-7.27a3.17,3.17,0,0,0,.65,3.38c6.54,7.66,6.62,7.4,6.1,8-2.45-2.59-4.58-5.45-7.18-8-.47,1-.85,1.86,0,2.83.48.55,7,8,7.23,8.74-2.9-2.48-5.13-5.63-8-8.26a1.78,1.78,0,0,0,.17,2.46c7.33,9,7.41,8.93,6.94,9.43-2.8-2.74-4.83-6.17-7.63-8.95-1.31,2.27-1.46,1.16,5.65,10.05a3.6,3.6,0,0,1,1,2.06c-2.78-2.86-4.84-6-7.61-8.66-1.33,3.07-1.14,1.81,6.16,10.79.18.21.51.41.08.78-2.44-2.45-4.28-5.46-7.11-7.67a2.68,2.68,0,0,0,.45,3.14c.73.83,5.85,6.88,6.28,8.42-2.79-2.61-4.47-5.75-7.24-8.21a6.28,6.28,0,0,0,0,4.05l0,0c-.35.14-.71.21-.79.68-.52,3.09,2.17,3.1,3.78,6.06-1.63-.85-2.36-2.46-3.94-3.17a3.81,3.81,0,0,0,.93,4.2c.71.71,1.34,1.48,2,2.22.18.2.3.4.17.66l0,0c-1.56-.5-2-2.3-3.7-3.05-.11,5.42,2,3.52,2.52,5.94l-2.09-1.71c-1.5,3.06,1.31,3.43,1.41,4.47l0,0c-.62.26-.91-.61-1.59-.47-.55,2.78.33,2.65,3,5.05-1.12.06-1.57-1.06-2.57-1.3a2.83,2.83,0,0,0,.88,3.08c.18.17,10.46,9.32,10.87,9.64-2-.83-2.82-1.7-10.92-8.68.1,1.35-.06,2.7,1.11,3.53,4.15,2.94,7.85,6.45,12.07,9.29a1.8,1.8,0,0,1,1,1.13c-4.88-2.88-8.88-6.66-13.55-10,1.18,5.18-1,2.53,11.85,12.22.31.24.72.39.88,1-4-2.27-7.25-5.4-11.19-7.91.18,2.84.25,2.32,11,11.66.28.25.71.37.76,1.09-3.84-2.6-6.84-5.86-10.63-8.57,1.51,5.31-.64,2.34,9.67,10.44a24.83,24.83,0,0,1,4.05,3.47c-4.26-2.52-7.81-6-12.15-8.71.22,2,.37,2.43,1.59,3.4,2.93,2.36,5.78,4.82,8.91,6.92.61.41,1.17.88,1.75,1.32-4.11-1.84-7.29-5.06-11.11-7.52-.15,2.26,0,2.8,1.87,3.9,3.5,2.12,6.55,4.84,9.81,7.28.24.18.74.34.37.87-3.89-2.6-7.23-6-11.48-8.12-1,4.72,4.29,4,10,10.7a95.41,95.41,0,0,0-9.85-6.81c-.09,1.08-.29,2,.51,2.64,2.14,1.63,3.89,3.75,6.28,5.06a3,3,0,0,1,1.51,1.71c-3.37-1.52-5.38-4.33-8.26-6-.4.89-.19,1.81-.43,2.64a1.57,1.57,0,0,0,.76,1.92c2.31,1.52,4.29,3.47,6.5,5.11.34.26.68.52.49,1.12-2.8-1.84-5-4.39-8.16-6,0,1,.39,1.63.2,2.29-.73,2.59,6.33,4.67,6,6.38-2.16-1.26-3.84-3-6.09-4a1.92,1.92,0,0,0,.8,2.51c1.61,1,2.9,2.4,4.6,3.25a.52.52,0,0,1,.22.86c-1.94-1.07-3.61-2.55-5.44-3.73-.5.44-.3.91-.35,1.32a2.82,2.82,0,0,0,2,3.35,17.83,17.83,0,0,1,3.46,2.25c.23.17.8.23.44.95-1.83-1-3.39-2.46-5.45-3.26-.36,2.86.65,2.9,4.9,6-1.73-.12-2.69-1.65-4.3-2.11.44,3.14.44,3.14,2.88,4.7.35.22.84.3.86,1-.88.06-1.4-1-2.55-.92,2.13,3.49,3.65,7,7,9.4,6.6,4.74,15.58,4.7,17,3.39,3.83-3.51,6.42-9.07,5.15-9.6a26.77,26.77,0,0,1-5.07,5.81c-.22-.53,0-.69.17-.84,2.3-1.95,3.77-4.5,5.27-7a4.34,4.34,0,0,0,.27-3.45c-2.84,4.18-5.27,6.83-6.81,7.3A52,52,0,0,0,135,365.5c.76-1.19.65-2.22.63-3.71L129.35,369c1.25-3.85,7-7.06,6.28-12.39l-5.77,6.33-.33-.29c.51-.61,1-1.22,1.53-1.82,4.51-5.3,5.17-5.73,4.57-9.16-2.35,2.29-4.29,4.75-6.37,7.09a34.33,34.33,0,0,1,3.84-5.48,10.52,10.52,0,0,0,2.69-8.52,49.87,49.87,0,0,1-5.59,6.78,37.08,37.08,0,0,1,3-4.33,22.09,22.09,0,0,0,2.72-4.92,5.52,5.52,0,0,0,.08-2.84c-2.18,2.67-4.45,4.83-6.53,7.62-.07-.78-.23-.8,3.38-5.23,2.47-3,3.72-5.41,2.82-7.82a37.61,37.61,0,0,1-4,5.72l.05,0c-.34-1.11.56-1.73,1.08-2.44,1.38-1.94,4-5.88,2.93-8-2,2.77-2.91,4-3.6,4.78s-.93,1.66-2.18,2.05c2.33-3.81,6.94-7.16,6-12.31-2.17,2.18-3.63,4.62-5.63,6.61a1.19,1.19,0,0,1,.37-1c5.85-7.73,5.89-6.88,5.3-12l-5.67,7.09a.79.79,0,0,1,.19-.88c4-5.8,6.09-8,5.53-11.26-1.58.61-2.58,3.75-4.46,4.59l0,0c-.1-1.61,5.58-5.46,4.33-10.37-2.58,2.7-4.32,5.78-6.64,8.43,0-2,7.61-8.9,6.76-13.45l-6,7.82-.31-.24c6.56-9.21,6.63-9.13,6.38-12.8-2.22,1.91-3.33,4.5-5.48,6.16.82-1.38,1.74-2.67,2.67-4,1.47-2.05,3.91-5.71,3-8L130,299.05a1,1,0,0,1,.27-1.25c6.61-9,6.49-9.73,6.19-13.08l-5.08,6.9c-.34-1,2.31-4,3.61-6.46,1.08-2,2.27-4,1.59-7-1.43,3.24-3.94,5.24-5.33,8.05-.45.89-.53.85-1.37,1.24,3.12-6.28,7.67-10,6.7-15.16l-6.82,10.52a4,4,0,0,1,1.09-2.78c5.41-8.56,6.65-10.16,5.77-12.93a65.29,65.29,0,0,0-6,8.52c1.09-4.73,7.55-9.75,6-14.27-1.35,2.82-3.32,5.19-5,7.74l0,0c-.38-1.74,6.27-9,5.1-13.41-3.31,5.16-1.79,2.85-4.62,6.84-.72,1-1,2.42-2.22,3.06,5.14-9.51,7.49-11,6.52-15.33-1.27,1.29-5,8.93-6.44,10,.76-2.67,7.6-11.08,6.34-15.12-1.73,3.23-3.92,5.72-5.65,8.55-.08-2.91,6.95-8.26,5.65-14.45-1.39,2.9-3.35,5.42-4.84,8.21-.24.44-.35,1.17-1.17.84,2.3-4.07,5.09-7.89,6-12.66l-4.9,7.34c0-1.85.73-1.49,4.52-8.58.85-1.59.77-3.17.52-5.09l-4.81,7.75c-.28-2.62,6-8.45,4.68-13.15-1.33,3-3.5,5.34-4.94,8.17a2.32,2.32,0,0,1-.51.53s-.12,0-.17,0c-.22-.11.1-.23-.25-.08,3.31-5.62,4.37-6.89,5.88-11.4a1.74,1.74,0,0,0,0-1.46,5.21,5.21,0,0,0-1.15,1.65c-1,1.59-1.77,3.41-3.2,4.75l0,0c-.07-1.31.3-.78,3.53-7.21a3.28,3.28,0,0,0,.39-2.72c-2,2.45-3.13,5.11-4.92,7.35a26,26,0,0,1,2.2-4.69c.86-1.52,2-2.94,2.06-4.81-1.56,1.63-2.49,3.72-4.15,5.24Zm2-207.41c1.39-.4,2.31-1.34,3.46-1.75s1.25-1.26,1.29-2.19c.07-1.63-1.23-1.19-1.39-.35a3.26,3.26,0,0,1-2.6,2.62C132.89,10.45,132.82,11,133,11.87Z"/><path class="cls-1" d="M96.57,147.51a3,3,0,0,0,1.4-.91c2.7-3.19,5.8-6,8.78-8.91a.82.82,0,0,1,1-.19,2.85,2.85,0,0,1-1.19,1.5,83.54,83.54,0,0,0-8.46,8.26c-.34.36-.61.82-1.21.76Z"/><path class="cls-1" d="M95.41,183.57c-.14-1.16,8.9-11.19,9.37-12.33a2.67,2.67,0,0,1,1.63-1.41c-1.06,2-9.82,13.17-11,13.7Z"/><path class="cls-1" d="M95.68,139.39c2.68-3.13,7.92-6.86,10.45-9.68a1.94,1.94,0,0,1,1.5-.84.66.66,0,0,1-.3.89c-12.11,10.23-10.47,9.41-11.71,9.58Z"/><path class="cls-1" d="M96.5,184.64c0-.24-.12-.48.08-.7,4.14-4.55,8.8-11.61,10.18-10.79-9.31,10.09-9,11.16-10.29,11.45Z"/><path class="cls-1" d="M98.44,120c1.94-.36,8.65-8.43,10.56-8.2-10.13,9-9.18,8.62-10.55,8.21Z"/><path class="cls-1" d="M102.17,100.92c0-.69-.32-.16,7.44-7a4,4,0,0,1,1.41-.8c.76,1.19-1.22.85-7.9,7.38-.27.26-.55.53-1,.41Z"/><path class="cls-1" d="M101.42,159.39c-.12-1.16,3.27-4.07,4.82-5.11-.43,1.34-3.21,4.12-4.86,5.07Z"/><path class="cls-1" d="M101.4,127.32c.9-1.13,5.34-5.6,6.77-5.51-6.09,5.32-5.92,5.38-6.8,5.47Z"/><path class="cls-1" d="M102.18,168.82c.14-1.26,3.48-5,4.33-5.91.12-.12.33-.17.65.2-1.86,1.69-3,4-5,5.67Z"/><path class="cls-1" d="M101.42,149.21c0-.56,3.52-3.93,3.92-4.33a.58.58,0,0,1,.69-.11c-.39.9-3.11,3.48-4.64,4.41Z"/><path class="cls-1" d="M128.84,21.62c.94-.87,1.49-1,7.08-3.32-.4.83-.38.87-3.35,1.88-1.27.43-2.34,1.41-3.78,1.4Z"/><path class="cls-1" d="M131.64,18a8,8,0,0,1,4.46-2.31c-1.21,1.33-3,1.57-4.5,2.27Z"/><path class="cls-1" d="M106.31,110.34c.34-1.23,1.71-1.42,2.38-2.33.08-.11.38-.07.48.12s.19.58,0,.69c-1,.51-1.68,1.48-2.89,1.49Z"/><path class="cls-1" d="M102.55,161.27a7.9,7.9,0,0,1,3.31-3.84l-.06-.06c0,.12.1.3,0,.35-1.1,1.19-1.88,2.68-3.34,3.52Z"/><path class="cls-1" d="M131.6,17.94A4.25,4.25,0,0,1,129.28,19l0,0A2.42,2.42,0,0,1,131.64,18Z"/><path class="cls-1" d="M105.86,157.43c0-.64.25-1.07,1.15-1-.32.58-.51,1.07-1.21,1Z"/><path class="cls-1" d="M96.47,184.6c0,.57-.45.79-1,1,0-.8.48-.94,1-1Z"/><path class="cls-1" d="M130.34,221.37a89,89,0,0,1-28.48-1.73C118.82,222.08,122,221.09,130.34,221.37Z"/><path class="cls-1" d="M101.29,220.94c9,1.67,17.75,3,26.68,2.35-1.68,2-22.12-.95-25-1.4A2.22,2.22,0,0,1,101.29,220.94Z"/><path class="cls-1" d="M131.05,219.27c-2.87,0-26.81.37-29.55-2.53,10.69,1.64,10.84,2,24.86,2.19a8.81,8.81,0,0,0,2.61-.16,2.05,2.05,0,0,1,2.08.51Z"/><path class="cls-1" d="M127.67,217.28c-13.36.16-25-1.55-25.73-2.34a6,6,0,0,1,2,0,110.64,110.64,0,0,0,22.1,1.86c.55,0,1.3-.33,1.63.52Z"/><path class="cls-1" d="M113.8,360.19c6.78,0,8.94.25,12.27-.45.34-.07.87-.24,1,.24s-.45.64-.89.67C123.13,360.91,116.44,361.28,113.8,360.19Z"/><path class="cls-1" d="M113.11,363.55c4.86.26,9.65-.69,14.49-.95a.89.89,0,0,1,0,.18C124.4,363.86,115.43,364.42,113.11,363.55Z"/><path class="cls-1" d="M113.21,357.06c4.66.05,9.17.41,13.66-.36C124.89,358,115.17,358.21,113.21,357.06Z"/><path class="cls-1" d="M113.84,366.2c4.54-.19,8.83-.08,13-1.11.27.74-.28.76-.56.81a27,27,0,0,1-6.29.62C117,366.3,115,367.18,113.84,366.2Z"/><path class="cls-1" d="M114.3,375.73a55,55,0,0,0,11.47-.86c.4-.07,1.11-.57,1.23.16.2,1.16-10.94,1.21-11.81,1.19A.8.8,0,0,1,114.3,375.73Z"/><path class="cls-1" d="M115.84,354.24c2.92-.57,11-.65,12.53,0C123.92,354.8,119.88,354.11,115.84,354.24Z"/><path class="cls-1" d="M128.31,369.34a66.93,66.93,0,0,1-14.77.14c7.59,0,11.32-.3,11.32-.3C126,369.25,127.22,368.35,128.31,369.34Z"/><path class="cls-1" d="M116.34,378.53c7.46,0,12.13-1,11.42-1.09.79,0,1.84,1-3.77,1.36C117,379.27,117.12,379.32,116.34,378.53Z"/><path class="cls-1" d="M116.29,350c4.16.67,8-.51,11.73.27,0,.17,0,.34,0,.51C116.22,350.81,118.35,351.15,116.29,350Z"/><path class="cls-1" d="M128.36,372.31c-4.51,1.44-9.12.89-13.72.5A131.9,131.9,0,0,0,128.36,372.31Z"/><path class="cls-1" d="M118.24,346.46c3.29.19,6.49-.27,9.64.22v.37C117.21,347.05,118.74,347.25,118.24,346.46Z"/><path class="cls-1" d="M97.23,286.11c1-.2,3.57,4.24,6.94,8-2.92-2.6-.91-.36-6.62-7.21a1,1,0,0,1-.28-.85Z"/><path class="cls-1" d="M128.34,227.7a19.6,19.6,0,0,1-9.8-.06C121.81,227.69,125.07,227.91,128.34,227.7Z"/><path class="cls-1" d="M120.74,229.64h8.4C128,230.41,122.63,230.51,120.74,229.64Z"/><path class="cls-1" d="M127.44,344a33.76,33.76,0,0,1-7.65-.11C121.24,343.37,126.24,343.42,127.44,344Z"/><path class="cls-1" d="M126.59,340.74c-1.81-.18-3.52.21-5.32-.56A7.52,7.52,0,0,1,126.59,340.74Z"/><path class="cls-1" d="M123.36,232.75a15.59,15.59,0,0,1,5.75-.47A15.35,15.35,0,0,1,123.36,232.75Z"/><path class="cls-1" d="M124.07,238.13c1.22-.4,2.54,0,3.75-.55a.46.46,0,0,1,.58.31c.11.43-.25.51-.54.56A6.42,6.42,0,0,1,124.07,238.13Z"/><path class="cls-1" d="M129,235.07a13.78,13.78,0,0,1-4.8.41A6.24,6.24,0,0,1,129,235.07Z"/><path class="cls-1" d="M122.14,337.52a34.06,34.06,0,0,1,4.86,0c-1,1-1.84.15-2.61.27S122.9,338.55,122.14,337.52Z"/><path class="cls-1" d="M128.11,240.85c-.94.34-1.87.84-2.94.26C126.16,240.34,126.54,240.29,128.11,240.85Z"/><path class="cls-1" d="M99.43,296.72c.62-.21,2.78,2.71,3.16,3.23a11.07,11.07,0,0,1-3.12-3.27Z"/><path class="cls-1" d="M97.61,302.33c1.22.47,1.9,1.56,2.75,2.45a5.92,5.92,0,0,1-2.72-2.49Z"/><path class="cls-1" d="M99,300.2a2.87,2.87,0,0,1,1.69,1.91C100.14,301.47,99.58,300.83,99,300.2Z"/><path class="cls-1" d="M131.54,317c0,1.07-.79,1.53-1.53,2.34.3-1.12.37-1.22,1.57-2.3Z"/><path class="cls-1" d="M131.64,339.72,130,342c.4-1.69.57-1.89,1.72-2.26Z"/><path class="cls-1" d="M102.81,307.37a6,6,0,0,1-1.66-1.71C101.63,306.16,102.11,306.66,102.81,307.37Z"/><path class="cls-1" d="M127.65,217.33c.51-.65,1.09-.61,2-.16a3.51,3.51,0,0,1-2,.1Z"/><path class="cls-1" d="M102,294.82c.7.41,1.33.78,1,1.71C103,295.5,102.35,295.61,102,294.82Z"/><path class="cls-1" d="M131.9,226.08a1.17,1.17,0,0,1-.72,1.45c.14-.53.18-1.11.76-1.42Z"/><path class="cls-1" d="M106.29,262.71a1.63,1.63,0,0,1,1.19,1.53c-.69-.48-1.36-.67-1.15-1.56Z"/><path class="cls-1" d="M103.66,311.2c.41,0,.81.35.7.55-.24.42-.39-.14-.6-.23S103.7,311.32,103.66,311.2Z"/><path class="cls-1" d="M106.77,313.8c-.4-.13-.8-.24-.87-.75C106.4,313.07,106.56,313.49,106.77,313.8Z"/><path class="cls-1" d="M110,320a1.71,1.71,0,0,1-1-.82C109.74,319.22,109.74,319.22,110,320Z"/><path class="cls-1" d="M131.58,269.12a2.79,2.79,0,0,1-1,1.45,1.15,1.15,0,0,1,1-1.41Z"/><path class="cls-1" d="M129.45,303.88c.08.15.19.27.17.31-.49.86-.81.64-.62.27A3.65,3.65,0,0,1,129.45,303.88Z"/><path class="cls-1" d="M103,296.53a.69.69,0,0,1,1.11.38c-.49.13-.63-.6-1.11-.39Z"/><path class="cls-2" d="M49.44,97.85c.12-4.36-4.35-95.33-4.39-96-.16-2.3-1.4-1-3.57-1.15-1.22-.1-1.92-4.32-3,43.68-.11,4.88-.15,13.78-.68,23.56a16.26,16.26,0,0,1-.73,4.66.92.92,0,0,1-.78-.78,14.35,14.35,0,0,1-.38-2c-.3-4.26-.64-8.52-.82-12.79-.24-5.86-.9-43.73-.81-48.08C34.47,1,34.18.47,33.16.59c-6.28.76-5.11-2.58-5.53,6.69-1,22-.85,59.86-2.06,64.68-.35,1.41-2.72,3.73-2.82-7L22.13,1.53c0-1-.48-1.64-1.33-1.51-7.68,1.12-4.45-6.24-6.06,35.25,0,.68-1.41,34.43-1.54,36,0,.7-.26,1.4-.9,1.48-1.71.21-1.6-6-2.1-30.68-1-49.19,2.58-41-4.33-41.78C2.77,0,5.58,6.5,2.61,37.06c-.69,7-.86,17.52-1.29,24.5C1.16,64.16.55,81.42.53,82.1-.18,110,.22,111.69,10.71,122.2a15.68,15.68,0,0,0,3.12,2.48,4,4,0,0,1,1.46,2.19c-.15.39.05.9,0,1.3C15,163,6.38,190,4.44,194.13c-12.19,26,5.11,53.69.41,76.21-.94,4.49-1.95,9-2.45,13.56-2.09,18.83,7.06,33.18,5.21,52.2-1.73,17.71-6.48,33.95,1.46,45.49,7.26,10.53,20.36,6.36,24.32-.43,3.19-5.46,4.1-11.48,4-17.65-.1-10.93-3.77-29.87.82-44.79,9.15-29.67,2.34-44.35,1.59-50.27-3.66-28.9,2.88-26.34,3.85-49.49,1.09-26.29-7.18-24.93-10.37-70.75a152.08,152.08,0,0,1-.44-21,1.11,1.11,0,0,0,0-.37C38.89,120.45,48.9,116.16,49.44,97.85ZM41.9,3.09C43,1.79,43,1.76,43.8,1.83a17.56,17.56,0,0,1-2.12,2.83C41.22,3.92,41.49,3.56,41.9,3.09Zm1.58.38c.72-.9,1.33.8-2.15,4.42C41.16,5.88,41.34,6.14,43.48,3.47ZM44,5.58c-.08,1.35-1.22,3.1-3,4.71C41.34,8.08,42.92,7.18,44,5.58Zm-2,4.68c.73-.68,1.21-1.63,2.08-2.33a1.64,1.64,0,0,1,0,1.75,22.79,22.79,0,0,1-2.94,3.81A3.09,3.09,0,0,1,42,10.26Zm1.4,1.3c1-1.51,2,1.36-2.48,5.27C40.69,14.58,41.3,14.62,43.42,11.56Zm.52,3,.34.19c-.5,2.09-2,3.51-3.18,5.26C40.35,17.86,40.68,18.21,43.94,14.54Zm-.08,2.58c1.65.49-1.79,4.67-3,6C40.11,20.36,41.8,20.72,43.86,17.12Zm.4,2.46c.46,1.82,0,1.84-3.37,6.29C39.73,24.67,40.86,24.38,44.26,19.58ZM41.37,31.94l0-.06c-.29,0-.44.42-.82.31-.49-1.08.26-1.92.52-2.85l0,0a.19.19,0,0,1,0-.07c-.15,0-.37,0-.39-.05-.21-.85-.56-1.85.06-2.53,1.22-1.31,2.16-2.87,3.53-4.2,1.26,2.33-3.05,5.46-3.2,6.78h0s0,0,0,0c1.31-.62,2.2-2.95,3.4-3.56.38,1.22.29.89-3.1,6.1h0s0,0,0,.06c.68,0,.8-.41,3.08-3.88.65,2.35,0,2.63-2.8,6.55a2.07,2.07,0,0,1-1.17,1c-.23-1.14-.4-2.2.59-3a.91.91,0,0,0,.3-.65ZM41.12,36c1.68-1.7,2.78-4,3.57-4.41a3.08,3.08,0,0,1-.2,2.39c-.79,1.15-3.39,5-4.17,4.74A2.7,2.7,0,0,1,41.12,36ZM28.55,2.34c-.07-.36.1-.68.46-.66a6.32,6.32,0,0,1,2.28.09c-.41,1.21-1.38,2-1.94,3.36,1-.54,1.27-1.48,1.8-2.1a11.42,11.42,0,0,1,1.07-1.32c.61-.54,1.41-.23,1,.94a53,53,0,0,1-3.51,4.89c.94,0,1-.44,3.31-3.74a1.83,1.83,0,0,1-.25,2.29c-1.13,1.35-1.84,3-3,4.37a20.91,20.91,0,0,0,3.29-4,4,4,0,0,1-.41,3.22c-1.08,1.53-1.64,3.44-3.1,4.68a.34.34,0,0,0,0,.54c.2.21.33.08.47-.11a22,22,0,0,0,2.26-3.37c.15-.33.23-.71.76-.87a4.2,4.2,0,0,1-.38,3A45.49,45.49,0,0,1,29.16,19c1.13-.15,1.48-1.23,2.06-2s1-1.65,1.73-2.79c.11,1.65.38,2.86-.55,4A14.8,14.8,0,0,0,31,21a7.45,7.45,0,0,1-1.26,1.78c-.16.18-.48.32-.22.62s.48,0,.62-.17a16.07,16.07,0,0,0,1.93-3.22,2.92,2.92,0,0,1,.67-1.22,3.46,3.46,0,0,1-.43,3.75C31.4,24,30.83,25.73,29.69,27c-.21.23-.35.53-.9.4,0-13.24-.26-22-.26-22A12.77,12.77,0,0,0,28.55,2.34ZM16.93,3.1c1.51.63,1.61,2.44,2.62,3.57.51-.69,0-.78-2.14-4.28-.21-.35-.73-.84-.15-1.21.91-.59,1.32.59,3,3.59.09-1.64-1.11-2.31-1.3-3.47.11-.33.4-.22.62-.23,1.16,0,1.31.14,1.29,1.34,0,.17-.05,14.06-.14,14.19-.34.16-.43-.16-.52-.37C17.66,11.07,16.33,11,17,9c1.4,1.36,2.11,3.17,3.29,5-.52-3.7-3.8-5.16-3.32-7.91.51-.34.59.7,1.06.39C17.65,5.22,16.38,4.59,16.93,3.1ZM8.7,1.46c.5,0,.41,1.75.18,2.21A3.14,3.14,0,0,1,8,2.29C7.8,1.81,7.75,1.4,8.7,1.46Zm-1.85.12a10.56,10.56,0,0,1,2,4.49A16.86,16.86,0,0,1,6,1.56C6.34,1.31,6.68,1.3,6.85,1.58ZM5.22,4.17c1.09,1.16,1.53,2.59,2.5,3.58h0C7.25,5.17,5.23,4.59,5.25,1.67c1,1.57,1.8,2.83,2.59,4.09,1,1.64,1.47.91.85,2.8-.48-.07-.52-.72-.93-.8a.08.08,0,0,0,0,0s0,0,0,0h0c.52,2,1.39,1.12.92,4.28-.53.09-.54-.41-.7-.69C5.18,6.51,4.93,6.39,5.22,4.17Zm0,3.44c1.42,1.9,2.12,4.05,3.4,5.82a.75.75,0,0,1-.1.76c-.32.05-.4-.21-.52-.44C5,8,4.7,8.9,5.25,7.61Zm3.12,9.9c-1-2.49-3-4.48-3.19-7.36C6.62,12.42,8.52,14.47,8.37,17.51ZM5.16,13.18c2.33,3.39,3.47,6.22,3.12,7.69-.37-.05-.43-.39-.57-.65C5.32,15.82,4.63,15.23,5.16,13.18Zm.07,3.45c1.18,2.7,3.23,4.59,3.22,7.68-.74-.35-.9-1-1.21-1.53C4.7,18.57,4.63,18.69,5.23,16.63ZM5,20.07C6.36,22,7.23,23.88,8.32,25.65c.39.63.12,1.45.13,2.18-.58.05-.6-.41-.77-.7C4.92,22.3,4.5,22,5,20.07Zm-.25,3.36C6,24.66,6.9,27,7.67,28.05A4.71,4.71,0,0,1,8.37,32a61.58,61.58,0,0,1-3.68-6.67C4.38,24.72,4.66,24.09,4.72,23.43Zm-.31,6.16C6.07,31.53,7,33.81,8.32,36.12c.09-1.41-2.83-6.06-3.59-7a1.8,1.8,0,0,1-.12-2.32C9.48,35,8.65,32,8.72,41.9a2.42,2.42,0,0,1-.15,1.31c-.67-.39-.86-1.14-1.21-1.74-3.92-6.77-3.83-6.25-3-8.24L8,39.48C8.89,38,3.29,32.69,4.41,29.59ZM32.16,208.12c-.18.2-.33.44-.06,1,2.77-2.89,4.65-6.35,7.32-9.49,1.47,3.23-4,7.28-7,12.61,1.66-.63,6.81-8.15,7.45-9,.28,2.7.18,1.75-7.59,13.22.83.34,1-.23,1.32-.63s6-8.66,6.43-8.66c1.1,1.73-6.77,10.53-8.34,13.66.76.24,1.06-.12,1.45-.73.57-.86,6-9.21,7-9.63-1,3.83-7,12.63-9.43,15.9.59.51.9.07,1.08-.22.69-1.13,7.09-10.56,8.08-13a3.13,3.13,0,0,1,0,3,118.63,118.63,0,0,1-8.53,14.24,1.72,1.72,0,0,0,1.75-1c.39-.7,6-10.45,6.67-10.84.55,3.47-1.36,4.44-7.34,14.14a4.27,4.27,0,0,0-.47.67c-.22.51-1.13,1.1-.44,1.53s.87-.65,1.1-1.09c1.4-2.61,3.41-4.8,5-7.31.39-.64.37-1.7,1.65-1.85-.61,4.17,1,.83-7.69,14.06a1.07,1.07,0,0,0-.18,1.24c2.12-2.41,3.24-5.37,5.48-7.49-1.57,4.64-4.49,8.6-6.43,13.06,2.88-3.79,4.79-8.18,7.31-12.33,1.84,5.11-5.08,11.85-6.37,16.22,1.06.17,1.44-.59,1.63-1.24.67-2.29,2.32-4,3.54-6.35a2.68,2.68,0,0,1,.12,2.39c-1.47,2.71-2.66,5.58-4.49,8.09a2.64,2.64,0,0,0-.81,2.2c2.08-2.15,3.28-4.67,4.61-7.61.49,2.47-.44,4.15-1.28,5.81-3.92,7.75-4.18,7.32-3.7,8,2-2.44,2.78-5.58,5-7.87.4,4.55,0,2.77-3.14,9.17-.83,1.69-1.33,2.06-.8,2.32s.53-.3,1.93-2.58c.63-1,1.3-2,2.09-3.24a4,4,0,0,1-.16,3.95c-.15.31-3.53,6.68-3.44,7,2.15-.86,2.31-4.17,4-6.23,1.77,2.13-5.39,11.42-4.61,13.64,1.87-3.3,3.37-6.47,4.9-9.9,2.43,4.95-4.37,10.82-4.49,13.78,2.11-2.41,3.52-5.25,5.28-8.13,1.73,4.22-5,10-4.7,13,2.26-2.45,3.11-5.58,5-8.13.58,1.87.41,2.54-.44,4.35-1.33,2.8-5.27,9-5.15,10.38,1-.07,1.15-.84,1.37-1.47,1-2.67,2.66-4.93,3.89-7.44a2,2,0,0,1,.39-.49c.18-.18.33-.47.66-.34,2,.81-6.29,14.36-6.13,15.37,2.79-3.47,4.21-7.54,6.38-11.19,2.18,4.13-4.18,9.68-6.48,16.61,1.41.25.39-.09,6.88-11.21,1.43,4.82-4.46,11.25-7,17.09,1.23-.45,3.82-5.56,4.31-6.42.64-1.12,1.67-2,2.31-3.59a5,5,0,0,1-.58,3.83c-.18.36-5.06,9.88-5.4,11,2.36-1.85,3.16-5.92,5.5-9.07-.16,7.48-3.28,13.8-7.85,19.64,1.53.7.89.06,5.4-6.67-1.15,9.1-3.86,10.59-5.51,14.67,1.29-1,1.86-2.5,3.35-3.59.18,3.14-2.67,6.09-4.33,10.25l.39.23,3.42-6a6.73,6.73,0,0,1-.64,4.93c-3.49,6.38-4,6.93-3.32,7.22.44.18.52-.22.7-.52a23.93,23.93,0,0,1,3-4.67c1,4.42-2.49,7.2-3.76,10.91,1.37-.31,1.34-1.57,1.93-2.29s1.13-1.53,2-2.67c-.32,3.59-2.51,6-3.28,8.95l.38.2C31,353.56,32,351.84,33,350c1.42,3.19.12,4.8-2.85,10.4-.16.31-.44.64,0,.85s.67-.15.79-.48c.66-1.73,1.9-3.13,2.66-4.87,1.8,4-3.66,7.54-3.26,10.61,1.75-1.81,2.16-4.14,3.8-5.79,1.41,2.07-2.73,8.38-4.22,10.4-.16.21-.46.36-.19.65s.66.13.84-.16c1-1.57,1.95-3.15,2.91-4.74.24-.39.29-.93.94-1,.66.92.07,1.69-.34,2.43-4,7.26-4.1,6.85-3.8,7.51,1.17-.42,1.22-1.67,1.8-2.47s1.1-1.69,1.77-2.47c-.67,5.35-4,10.21-5.08,9.67-.32,1.95-6.25,4.83-10.86,3.6C3.59,380.34,9,350.89,9.64,344c3.27-34.67-6.21-32.26-1.73-76.32,2.73-26.81-6.84-42.05-1.6-68.92.75-3.85,13.43-5.19,26.76-2.92-.49,2.55-1.07,3.16-3.44,3.22-2,0-16.58.56-17.31-1.25H30a3.5,3.5,0,0,0-2.36-.49,100.6,100.6,0,0,1-14-.65c-.34,0-.69,0-1,0-.93-.06-1.48.22-1.27,1.29,0,.24-.36.42-.13.86a32.14,32.14,0,0,0,7,.88c14.87.3,14.22.25,14.61-.78s1.26-1.62,1.85-2.46c.42-.58,1.57-.36,1,.63a34.35,34.35,0,0,1-3.18,4.3c-.51.67-1.76.53-4.14.67.64.66,1.28.31,1.82.42.38.07.89-.3,1.15.13.66,1.05,1,.26,1.35-.21,1-1.47,2.46-2.59,3.32-4.19a2,2,0,0,1,1.27-1,20.66,20.66,0,0,1-5,7c-.11.45-.53.81-.27,1.59a45.22,45.22,0,0,0,4.88-6.07,8.54,8.54,0,0,1,1.5-2.21C41.24,194.88,35.7,204.16,32.16,208.12Zm6.37,22.09c0,.29-.15.54-.47.55-.6,0-.21-.85.29-.88C38.41,229.88,38.47,230.09,38.53,230.21ZM36.11,120.64a5.63,5.63,0,0,1-4,1.83,4.76,4.76,0,0,1-.19.53c.34,0,.67,0,1,0-.73.59-1.05.84-1.39.81a17.51,17.51,0,0,0-1.2,5.13c0,37.76,7.78,65,7.78,65a4,4,0,0,1-1.91,0C30.44,192.78,21,192,15,192.77c-2.46.33-4.81,1.06-7.4,1.64a57.1,57.1,0,0,1,2.12-9.87c5.66-20.62,8.9-47.63,7.56-55.74.26,0,.12-.68-.09-1.1a8.69,8.69,0,0,1-3.26-6,3.53,3.53,0,0,1-2.21-1.52c.72,0,1.4.09,2.09.16a6.1,6.1,0,0,1-.51-.61,2.79,2.79,0,0,1-2.8-2,14.17,14.17,0,0,1,1.76.18l-.29-.62a6.23,6.23,0,0,1-4.35-2.22,14.14,14.14,0,0,1-3.95-6.75c1.49,1.42,3.1,2.7,4.1,4.59.15.29.23.54.56.64l2.25.66c-.08-.2-.16-.4-.25-.6l-.06,0a3.36,3.36,0,0,1-1.84-1c-6-6.58-5.86-6.18-5.74-8.48.48-.06,3.88,4.51,4.18,4.9s.61.79,1.36.61a1.64,1.64,0,0,1,.59.07c-.06-.19-.13-.37-.19-.55-.32-.09-.63-.19-1-.27a2,2,0,0,1-1.14-1c-3-4.31-4.74-4.67-4.23-7.66.47-.16.63.29.8.54,1.09,1.53,2.37,2.91,3.32,4.55a5.05,5.05,0,0,0,1.59,1.74c-.07-.26-.12-.53-.18-.79C6.63,105.19,6,103.58,3.06,100,2,98.72,2,98.41,2.18,96.17c.86.42,2.53,3.57,4.17,5.59.33.4.49,1,.87,1.29a.49.49,0,0,1,.11.14l0-.28c0-.15,0-.29,0-.44-2.13-3.22-2.6-3.93-4.49-6.57A3.27,3.27,0,0,1,2,93.24a8.79,8.79,0,0,1,.19-2c.84.76,1,1.16,4.86,7.26a.91.91,0,0,0,.11.16c0-.22,0-.44,0-.67C5.65,95.5,4.07,93,2.52,90.55a2.87,2.87,0,0,1,0-3c1.76,2.1,2.86,4.69,4.77,6.64-3.32-5.64-1.7-2.9-4.58-7.37A4.09,4.09,0,0,1,2.47,83C4.34,85.55,5.69,88.35,7.69,91c0-1-.59-1.38-.9-1.89-4.7-7.91-4.9-7.1-4.21-9.83C3.33,80,4,80.84,7.93,87.53c.05.07.11.12.15.19,0-.11,0-.21,0-.32s0-.28,0-.42a5.36,5.36,0,0,1-.82-1.15c-3.93-7.7-5.73-7.22-4.6-10.2,3.9,4.72,3.62,6.34,5,7A38.2,38.2,0,0,0,3.3,75.42a3.59,3.59,0,0,1-.51-3.54l4.74,7.48c.18-2.44-5.5-7.07-4.67-11.14.36.4,4.75,7.4,5,7.86.27-.65-.1-1-.32-1.36-4.84-8.25-5-7.81-4.59-10.24A72.42,72.42,0,0,0,7.59,72c.08-1.75-5.5-7.52-4.42-11.69C4.9,62.51,6,65.08,7.51,67.34c.38-.36.08-.6,0-.82-4.54-8.09-4.6-7.39-4-10,1.74,2.12,2.77,4.69,4.35,6.84.28-.18.27-.33.14-.54-1.36-2.3-2.67-4.64-4.1-6.89a3.45,3.45,0,0,1-.27-2.87c1.22,2,2.33,3.77,3.5,5.68.34-.75-.09-1-.28-1.34C3.35,51,3.06,51.23,3.71,50.35c1.71,1.75,2.56,4.1,4,6-1-4.16-4.82-6.66-4-8.77,1.74,1.77,2.49,4.17,4,6.17a2.32,2.32,0,0,0-.54-1.6c-1-1.71-2-3.42-3.11-5.09A2.37,2.37,0,0,1,4,44.41c1.62,1.68,2.39,4,3.84,5.77a1,1,0,0,0-.12-1c-1.15-1.82-2.3-3.62-3.44-5.43C3.5,42.46,3.5,42.43,4,40.62a35,35,0,0,1,3.6,6.29c.09-.8.09-.8,0-1.08-3.2-6.95-4.4-6.11-3.49-9,.69,1.11,1.28,2,1.83,2.93.87,1.48,1.44,3.16,2.63,4.41.24.25.17.59.17.91.5,28.38.27,24.69,1.73,28.59h0c.34,0,.72-.2,1,.25,0,0,0,.13-.05.13a.83.83,0,0,1-.9-.38h0v0c-.41.19-.88-.21-1.28.14,0,.46.31.41.58.5a38.21,38.21,0,0,1,4,1.08.71.71,0,0,0,.92-.3c-.5-.5-1.2-.33-2-.68,1.2-.22,1.51-1.18,2-2,1.06.2,1.28,1.45,2.19,1.92a1,1,0,0,0-.48-1.24c-1.68-1.07-1.79-2.64-1.31-4.59,1.43.43,2.29,1.68,3.3,2.67.26-.34.18-.61,0-.77-.86-.64-1.41-1.64-2.33-2.22a1.84,1.84,0,0,1-.71-2.51c1.1.47,1.7,1.6,2.73,2.13-.87-2.42-3.71-2-2.55-6.17a9.14,9.14,0,0,1,2.22,1.8c.35.33.54.89,1.1.93-.17-1.81-4.44-2.94-3.23-5.92,1.6,1,2.61,2.67,3.91,4,.32-.51-.05-.69-.22-.88-4.54-5.06-3.82-3-3.82-7.49,1.7,1,2.48,2.62,3.72,3.79.27-.52-.1-.76-.3-1-2.7-3.22-4-3.66-3.13-6.33a24.74,24.74,0,0,1,4.05,4.37c.58-1.85-5.4-4.1-3.75-8.37a14.11,14.11,0,0,1,3.74,5,1.76,1.76,0,0,0-.43-1.77,28.07,28.07,0,0,0-2.54-3.35,2.86,2.86,0,0,1-.71-3.25c1.49,1.24,2.43,2.95,3.68,4.47.26-.54-.05-.79-.24-1-3.17-4.32-3.84-4.47-3.34-6.42a16.73,16.73,0,0,1,3.28,4.2c.17-3-4.51-3.71-3-8.7,1.5,1.07,2.24,2.78,3.21,4.28a.52.52,0,0,0,.09-.75,25.19,25.19,0,0,0-2.57-3.71c-1-1.05-.91-2.11-.71-3.56,1.52,1.4,2.2,3.26,3.37,4.73-.53-2.61-2.71-4.32-3.5-7,1.92.89,2.73,2.6,3.83,4.05C20.23,31.87,18,29.1,17,27.77c-.33-.45-.33-.45-.12-1.47a32.87,32.87,0,0,1,3.29,4.35c.34-.7,0-1.08-.33-1.49-3.13-3.95-3.23-3.86-3-6.57,1.39,1.23,2,2.85,3,4.13.67-1.53-3.58-4.09-2.8-6.86,1,.93,1.54,2.23,2.45,3.17-.43-3-3.53-3.18-2.38-7.39,1.27,1.54,2,3.39,3.09,5-.12-3.07-4.2-5.31-3.19-8.56A16.29,16.29,0,0,1,19.64,16c.28.53.3,1.23,1,1.47.31.1.21.56.22.87,0,.67.36,40.58.35,41.71a100.54,100.54,0,0,0,.4,10.56,13.39,13.39,0,0,0,.28,1.9,3,3,0,0,0,1.57,1.83,9.56,9.56,0,0,1,3.22-1.16C28,69.94,28.48,60,28.76,29.93c0-.43,0-.86,0-1.28,0-.16,0-.42.09-.45,2.12-1.06,2.64-3.45,3.85-5.27,0,0,.08,0,.26-.08.17,2.35.61,3.39-3.41,8.7,1.13,0,1.29-1,1.75-1.63s.94-1.33,1.52-2.16a4.9,4.9,0,0,1-.66,4.35A26.88,26.88,0,0,1,29,36.51c1.68-.37,2.56-3.13,3.86-4.47.5.44.32,1,.21,1.47-.57,2.49-1.72,3.73-2.38,5.61,1.06-1,1.5-2.4,2.41-3.76a5.86,5.86,0,0,1-.36,3.91,2,2,0,0,0-.37,1.32c.31.15.44-.42.76-.23.74,2.29-1.61,5.74-3,7.42-.15.18-.44.31-.22.77,1.43-1.11,2.06-2.89,3.33-4.46.05,1.11.54,2-.67,2.47-.34.14-.59.71-.77,1.14a30.47,30.47,0,0,1-2.68,5c1.79-1.53,2.55-3.9,3.94-6,1,2.55-.77,4.57-3.52,8.79,1.7-1,2.31-3,3.62-4.5a5.16,5.16,0,0,1,.38,2.09c0,.2,0,.49-.14.59-1.54,1.32-1.71,3.58-3,5,1.64-.9,1.94-2.9,3.13-4.62.1,1.73.18,3.09.25,4.45a20.44,20.44,0,0,1-3.92,6.23c2.07,0,2.28-3.28,3.88-4.39.31,1.17.71,2.07-3.27,7.43C32,67.45,33,64.4,33.76,63.64A2.25,2.25,0,0,1,33.62,66a15.53,15.53,0,0,1-2.36,3.29.58.58,0,0,0-.22.65c1.42-.51,1.71-2.26,2.92-3.1.67,1.58-.25,2.54-2,5.17,1.2-.36,1.42-1.51,2.14-2.09,1.1,1.58-.5,2.27-.91,3.41.77.26.87-.65,1.5-.8.4.57.66,1.46,1.64,1.5-.42.55-1,0-1.38.69,1.94,0,3.74.06,5.39-1-.7-.36-1.28.27-2,.15,1-1.91,1-4.06,1.11-6.12.26-5.45.29-10.9.51-16.35a44.12,44.12,0,0,1,.12-5.75c.07-.42,0-.76.57-1a2.11,2.11,0,0,0,1.09-1.55l0,0s0,0,0,0c-.62.14-.86.82-1.51,1.24a30.36,30.36,0,0,1,0-4.27.67.67,0,0,1,.2-.4c1.64-1.34,2.72-3.24,4.16-4.78,0,0,.1,0,.3,0,0,1.28-3.83,6.65-4.29,7.33,1.82-1.28,2.56-3.59,4.27-5-.35,2.25-2.78,4.5-3.15,5.81h0s0,0,0,0c1.07-.29,1.13-1.62,1.94-2.21a8,8,0,0,0,1.23-1.67c.44.67.19,1.34-2.46,5.2-.19.28-.47.52-.43.92.6-.18.67-.44,3-3.85a2,2,0,0,1-.19,2.15c-1.43,2.18-1.84,2.7-3.42,5.14l.23.2,3.5-4.66a2.63,2.63,0,0,1-.3,2.63,38.56,38.56,0,0,1-3.37,4.27c-.18.18-.57.33-.27.92a59,59,0,0,0,4.05-4.71,1.87,1.87,0,0,1-.07,2,64.09,64.09,0,0,1-4,5.95c-.1.13-.34.25-.12.64,1.72-1.63,2.75-3.85,4.37-5.62.57,1.27.05,1.63-2.85,6.1.67.2,2.56-2.64,2.87-3.26a2.15,2.15,0,0,1-.06,2.5c-2.64,4.51-4.25,5.29-3.89,6.32,1.36-1.84,2.73-3.67,4.22-5.65.52,1.75.3,1.39-4.05,9.07.9.13,3.23-5.54,4.24-6.13C47,61.09,43.74,64.12,43.8,65c.59,0,.75-.44,2.21-2.68,1.07,2.89-3.24,6-3.7,8.13.52-.17,3.61-4.39,3.86-4.71.57,1.41.62,2.44-4.69,9,1.21-.46,1.33-.76,4.82-5.69,1.4,2.14-4.08,7.28-4,8.48.64-.34,3.84-4.86,4.18-5.38,1.33,3.45-3.87,7.65-5.26,10.34a31.8,31.8,0,0,0,5.48-6.92c.84,1.69,0,2.15-5.3,10.27,0,.25,0,.49,0,.73,1.36-2,5-7.37,5.53-7.46.69.9-1.86,4.17-5.54,9.22,0,.23,0,.46,0,.69,1.63-2.25,3.34-4.45,5-6.66.18-.25.34-.63.68-.49s.31.62.19,1a6.55,6.55,0,0,1-.59,1.29,59.41,59.41,0,0,1-5.24,7.2,1.49,1.49,0,0,1-.12.14c0,.09,0,.19,0,.28a5.36,5.36,0,0,0,1.23-1.2c1.22-1.68,2.76-3.09,3.77-5a7.63,7.63,0,0,1,1-1.21c.66,1.54-3.63,7-4.62,8.22a1,1,0,0,0-.22.61c1.32-.68,4.38-5.47,4.82-6.14.73,1.19-2.67,5.13-5.86,10a1.45,1.45,0,0,1-.39.32v.05c0,.15,0,.31,0,.46a1.81,1.81,0,0,0,.45-.43c1.74-2.47,3.62-4.83,5.28-7.37.19-.28.28-.72.78-.73.38,1-.13,1.45-4.7,8.3-.29.44-.79.78-.82,1.4,2-1.65,3.7-5.2,5.24-6.63.88,3.39-1.45,3.82-1.37,5.36.7-.17.77-1,1.43-1.5a3,3,0,0,1-.4,2.66c-1.08,1.51-2,3.16-3.19,4.6a.78.78,0,0,0-.23.67c1.32-.85,2.89-4,3.6-4.52.45.24.2.57.12.82-.83,2.59-3.79,5.16-4.29,6.57,1.25-.8,2-2.13,2.93-3.25.23-.27.37-.64.86-.72a3.66,3.66,0,0,1-.54,2.38,61.18,61.18,0,0,1-3.81,4.94,5.41,5.41,0,0,1-3.09,2c-.22,0-.42.1-.63.15-.1.23-.22.44-.33.67a3.18,3.18,0,0,1,1.73-.32c.51.1.86-.48,1.24-.82a49.2,49.2,0,0,0,4.57-5.33c.09,1.65-.43,2.78-5.29,8.35a1.65,1.65,0,0,1-.84.6c-1.11.27-2.25.64-3.39,1-.16.24-.29.49-.45.72,1.14-.33,2.28-.76,3.21-1.08-1.21,2.42-2,1.67-4.47,2.62-.16.2-.32.41-.49.61,5.59-.87,4.31-2.28,9.22-6.59-.42.59-.78,1.23-1.25,1.77-1.27,1.43-2.6,2.8-3.88,4.22-.8.89-2.85,1.34-4.77,1.52l-.4.54Z"/><path class="cls-2" d="M42,99.13v-.07l0,0Z"/><path class="cls-2" d="M18.05,6.47l0,0h0Z"/><path class="cls-2" d="M42.55,56.63v0h-.05Z"/><path class="cls-2" d="M42.85,107.19l0,0,0-.07-.06,0S42.85,107.16,42.85,107.19Z"/><path class="cls-2" d="M7.81,82.73v0l-.06,0,0,0Z"/><path class="cls-2" d="M34.49,76c.11.13.22.26.32.4l1.11-.19a24.52,24.52,0,0,0,3.8-.64c.45-.14.82-.32.72-1.06A21.74,21.74,0,0,1,34.49,76Z"/><path class="cls-2" d="M13.3,76.7l.45-.29c-1.69-.42-3.41-.6-4.92-1.81-.11.83.28.94.65,1.09A12.43,12.43,0,0,0,13.3,76.7Z"/><path class="cls-2" d="M7.66,115.05h0s0,0,0,0l0,0,0,0Z"/><path class="cls-2" d="M32.7,57.32a47.31,47.31,0,0,1-3.29,5.36C30.78,61.89,32.9,58.42,32.7,57.32Z"/><path class="cls-2" d="M45.85,97.87l0,0v0h0A.19.19,0,0,0,45.85,97.87Z"/><path class="cls-2" d="M45.85,97.87a19.72,19.72,0,0,0-3.38,4.55C43,101.83,45.66,98.81,45.85,97.87Z"/><path class="cls-2" d="M32.33,40.7l.07-.09v0h0C32.36,40.63,32.34,40.66,32.33,40.7Z"/><path class="cls-2" d="M32.33,40.7a24.13,24.13,0,0,0-2.51,3.94A8.8,8.8,0,0,0,32.33,40.7Z"/><path class="cls-2" d="M41.05,68.47c.68-.49,2.57-2.52,2.7-3.38A10.88,10.88,0,0,0,41.05,68.47Z"/><path class="cls-2" d="M43.75,65.09a.1.1,0,0,1,0,0v0h0S43.75,65.07,43.75,65.09Z"/><path class="cls-2" d="M43.44,104.3l.06,0v0h0Z"/><path class="cls-2" d="M41.49,106.5a4.47,4.47,0,0,0,1.95-2.2C42.48,104.71,42.14,105.76,41.49,106.5Z"/><path class="cls-2" d="M42.51,56.67C41.23,58.09,41,58.14,41,58.8,41.79,58.09,42.54,57.69,42.51,56.67Z"/><path class="cls-2" d="M42.55,56.63l0,0a.22.22,0,0,1,0,.08Z"/><path class="cls-2" d="M20,65.89a1.39,1.39,0,0,0-1.11-1.47C18.9,65.23,19.65,65.41,20,65.89Z"/><path class="cls-2" d="M18.91,64.42v0h0s0,0,0,0Z"/><path class="cls-2" d="M41.22,72a1.65,1.65,0,0,0,1-1.45C41.62,70.77,41.47,71.41,41.22,72Z"/><path class="cls-2" d="M42.26,70.53l0,0s0,0,0-.05l0,0S42.26,70.51,42.26,70.53Z"/><path class="cls-2" d="M41.6,65.65l0,0h0l0,0s0,0-.06,0A.15.15,0,0,1,41.6,65.65Z"/><path class="cls-2" d="M41.6,65.65a2.58,2.58,0,0,0-.87,1.8C41.14,66.91,41.73,66.47,41.6,65.65Z"/><path class="cls-2" d="M40.82,46.56s.07.11.1.11c.71,0,.68-.75,1-1.1,0,0,0-.07,0-.11A1.25,1.25,0,0,0,40.82,46.56Z"/><path class="cls-2" d="M42,45.46h0s0,0,0,0h0Z"/><path class="cls-2" d="M42,99.13l0,0s0,0,0,.06Z"/><path class="cls-2" d="M41.06,79.14c.69-.5,1.15-.86,1.2-1.54A2.08,2.08,0,0,0,41.06,79.14Z"/><path class="cls-2" d="M42.26,77.6l0,0v0l0,0S42.26,77.58,42.26,77.6Z"/><path class="cls-2" d="M42,102.75c-.46.44-.87.51-.81,1.15C41.67,103.75,41.9,103.51,42,102.75Z"/><path class="cls-2" d="M18.05,6.47l0,0,.05.07A.36.36,0,0,1,18.05,6.47Z"/><path class="cls-2" d="M18.07,6.57A8,8,0,0,0,20,10,7.81,7.81,0,0,0,18.07,6.57Z"/><path class="cls-2" d="M32.68,313.85a.81.81,0,0,1,0-.09l-.06.05Z"/><polygon class="cls-2" points="32.21 204.15 32.22 204.14 32.22 204.14 32.21 204.15"/><path class="cls-2" d="M28.73,380.55h0a.08.08,0,0,1,0,0Z"/><path class="cls-2" d="M19.25,220.91c-.43.05-.88.09-1.05.51-1.19,2.81-1.61,2-.27,7.87a2.21,2.21,0,0,0,1.26,1.76,10.31,10.31,0,0,0,3.74,1,4.71,4.71,0,0,0,3.63-1.56,7.18,7.18,0,0,0,1.77-5.06C28.67,218.65,20.59,220.75,19.25,220.91Zm4,2.38c.12-.28.2-.63.61-.64s-.11,1.15-.53,1.19A.44.44,0,0,1,23.25,223.29ZM20,221.94l.38.22c-.49,1.2-1,2.4-1.48,3.61A3.06,3.06,0,0,1,20,221.94Zm.38,2.51c.43-1.17.69-2.87,2.56-3.06-.16,1.72-1.93,5.69-3.66,8C18.47,227.29,19.8,225.91,20.33,224.45Zm.82,6.24a3.65,3.65,0,0,1,.69-2.18c1.08-1.89,2.26-3.73,3.17-5.72.15-.35.4-.84.89-.54s0,.58-.11.86c-1,1.92-2.06,3.85-3.14,5.74A3.57,3.57,0,0,1,21.15,230.69Zm1.72-.41a5.74,5.74,0,0,1,1.44-2.47C24.4,229.14,23.52,229.66,22.87,230.28Zm2,0-.35-.26,2.09-3.41A3.44,3.44,0,0,1,24.87,230.32ZM25,227c0-1.34,1-2.25,1.66-3.26C26.6,225.09,25.73,226,25,227Z"/><path class="cls-2" d="M27.76,276.92c0-2.58-2.05-4.19-5.57-4.27-4.88-.12-7.45,10.14.95,10.24C26.05,282.93,27.91,281.57,27.76,276.92Zm-7,4.18c-.67.43-.91-.09-1.26-.72.65,0,1.12-.12,1.47.24C21,280.67,20.91,281,20.78,281.1Zm1-1.88a1.31,1.31,0,0,1,.76-1.14C22.81,278.79,22.23,279,21.81,279.22Zm-.58-1.3c-.41-1.3.64-1.91,1-2.76.1-.23.42-.44.15-.7-.7-.64-1.16.89-2.13,2.58-.36.63-.76,1.24-1.14,1.86l-.43-.21a8.88,8.88,0,0,1,1.39-4c.92-1.46,2.34-1.37,3.93-.8C23,275.22,22.64,276.83,21.23,277.92Zm3-.14A3.53,3.53,0,0,1,25.83,275,4.21,4.21,0,0,1,24.26,277.78Zm.79,3.49c.08-.79.65-1,.89-1.39C26.11,280.58,25.83,281,25.05,281.27Z"/><path class="cls-2" d="M30.19,204c-6.67.49-12-.41-19.37-1.09.53,1.18,15.86,2.52,21.36,1.25A8.73,8.73,0,0,0,30.19,204Z"/><path class="cls-2" d="M32.21,204.15a0,0,0,0,1,0,0h0Z"/><path class="cls-2" d="M10.71,213.33c3.29.81,18,2.51,21.53.86C25,214.68,17.88,213.66,10.71,213.33Z"/><path class="cls-2" d="M31.76,206c-7,.81-13.72-.15-20.44-.68C13.19,206.48,30.39,207.74,31.76,206Z"/><path class="cls-2" d="M30.75,209c-7.11.85-14-.69-20.88-1.23C12.62,208.86,29.48,211,30.75,209Z"/><path class="cls-2" d="M24.31,211.38c-3.91.18-10.47-1.13-13.29-.64a69.51,69.51,0,0,0,20,.62C28.75,211.36,26.53,211.28,24.31,211.38Z"/><path class="cls-2" d="M27.25,202l-15.6-1.36A51,51,0,0,0,27.25,202Z"/><path class="cls-2" d="M15.61,377.79c4.83.83,9.62,0,14.4-.91C25.22,377.13,20.47,377.94,15.61,377.79Z"/><path class="cls-2" d="M28.76,373.91c-4.38,1-8.84.71-13.28.84C20,375.8,27,375.41,28.76,373.91Z"/><path class="cls-2" d="M28.36,369.13c-4.36.2-8.71,1-13.08.5C19.68,370.75,24,370.24,28.36,369.13Z"/><path class="cls-2" d="M17.34,367.07c3.52.7,7,.31,10.78,0-1.16-1-1.32-.35-7.3-.24C19.66,366.86,18.47,366.56,17.34,367.07Z"/><path class="cls-2" d="M29.16,378.62a62.72,62.72,0,0,1-11.76,1.12A21.09,21.09,0,0,0,29.16,378.62Z"/><path class="cls-2" d="M16.33,371.8c4.08,1.51,8.15.76,12.23.08C24.48,371.62,20.41,372.62,16.33,371.8Z"/><path class="cls-2" d="M27.64,355.5a65.92,65.92,0,0,1-10.23,0A17.57,17.57,0,0,0,27.64,355.5Z"/><path class="cls-2" d="M17.86,360.2a23.84,23.84,0,0,0,10.08-.56C26,359,25.14,359.92,17.86,360.2Z"/><path class="cls-2" d="M27.56,380.36c-4.08,1.45-7.57,1.28-10.69,1.28,1.92,1.42,10.67.1,11.82-1.09C28.32,380.45,28,380.19,27.56,380.36Z"/><path class="cls-2" d="M28.72,380.57l0-.06-.06,0Z"/><path class="cls-2" d="M17.24,363.24c3.63,1.31,7.26.78,10.9.05C24.51,363.32,20.87,363.83,17.24,363.24Z"/><path class="cls-2" d="M27.15,352.63c-.9-1.37-4.23.17-8.54-.17C21.38,353.52,24.17,352.53,27.15,352.63Z"/><path class="cls-2" d="M26.74,348.57H19.22C20.75,349.4,25.57,349.19,26.74,348.57Z"/><path class="cls-2" d="M22.61,341.43c-.26-.05-.57-.08-.59.31-.06,1.09,3.15.06,4.24.1C26,340.54,24.93,341.85,22.61,341.43Z"/><path class="cls-2" d="M26.29,345.16c-2.09-.64-4.21-.09-6.31-.16C22.07,345.6,24.19,345.2,26.29,345.16Z"/><path class="cls-2" d="M23.46,338.76a4.87,4.87,0,0,0,3.06.1C25.28,338.32,24.39,338.17,23.46,338.76Z"/><path class="cls-2" d="M32.64,313.89a4,4,0,0,0-1.46,2.5C32.22,315.57,32.79,314.93,32.64,313.89Z"/><path class="cls-2" d="M32.68,313.85l0,0v.08Z"/></g></g></svg>
