<svg xmlns="http://www.w3.org/2000/svg" viewBox="0 0 925.81 241.17"><defs><style>.cls-1{fill:#9C3535;}</style></defs><g id="Layer_2" data-name="Layer 2"><g id="Layer_1-2" data-name="Layer 1"><path class="cls-1" d="M.77,138.7c2.82,12,12.63,12.61,22.33,13.67,8,.92,10.85,10.64,15.73,16,4.67,5.06,15.14,9.11,21.54,8.94,7.87-.23,37.84-34.48,36.12-37.43,9.72,17.94-15.21,66.79,16.45,72.14,7.58,1.29,15.37-7.58,19.21-13.58,1-1.63,7.92-17,6.45-17-4.09,0,6.59,43.26,11.73,47.36,16.41,13.22,30.27-3,41.39-15.37C193,211.94,207.07,200,207.07,198c0-14.57,17,8.57,18.13,9.4,10.32,8,28,10.58,40.42,9,11.64-1.53,23-9.32,35.11-8.38,6.75.51,13.49,2.8,20,4.33,8.39,2,13.63,9.48,21.53,12.18,10.78,3.66,19.93,5.73,30,10.87,4.43,2.24,19.32-3.49,22.71-7.45,4.29-5.09,9.17-3.57,16.33-4.67,22.42-3.41,63.3-20.36,83.6-5.35,12.64,9.37,54.75,31.59,68.89,19.94,9.38-7.84,25.3-3.21,35.84-13.23,5.84-5.58,20.74,12.46,31.23,11.08,15.49-2,25.36-29.6,36.22-39.22,6.49-5.73,26.12-6.61,32.26-6.61,4.8,0-5,3.14,6,1.13,1.8-.31,3.67-4.53,3.06-4.53,6.87,0,13.05-5.05,20.86-12.78,13.19-13.21,53.49,1.19,56.3-23.32,1.06-9.39-5.5-14.9,0-20.85,2.4-2.77,21.46,10.73,24,6.09,1.48-2.59,24.56-6.25,28.62-6.57,11.62-1,24.74-6,35.69-9.69,21.86-7.21,28.46-19,43.32-36.27,1.44-1.71,10.23-16.92,8.26-18.82-4.3-4.13-4.33,4.73-10,3.56-11.74-1.24-24.16-25.1-35-32.31-4.42-3-16.05-9.81-21.2-9.81-6.84,0-16.41-5.09-16.86-6.44C836.84,2.56,807.14-.5,794.76.06c-20.65,1-41.65,12.14-62,7.32-29.77-7-49.51,4.33-71.05,26.83-6.1,6.35-11.93,3.31-20.36,3.31-8.66,0-17.73,3.19-25.27,7.71-10.21,6.12-19.46,15.41-27.34,24.67-8.15,9.57-13.33,16.28-23.94,19.85-16.86,5.71-37.32,1-54.92,2.27-1.37.07-18,3.61-17.33,4.2-3.37-2.93-7.24.14-11.33-4.07-3.79-3.91-10.11-4.57-14.74-6.82-17-8.43-40.32-6.56-58.68-9-14.37-1.87-32.58-1.81-46.21-6.16-17.37-5.55-32.78-12.68-51.16-9-12.06,2.46-17.41,8.91-28.81,2.65-24.12-13.33-37.21-1.8-60,3.23-10,2.18-22.94-2.15-32.16-6.29-3.57-1.62-6.81-9.54-11.54-12.92-15.63-11.21-29.1-4.51-47-3.45-8.88.53-16.64-4.35-24.45-4.35-6.74,0-12.62-15.75-19.43-18-15.91-5.51-60.87-9-42,22.41.36.65,18.63,11.17,15.61,14.43-2.69,2.89-15.07,1.78-18.88.79-5-1.32-18.22-15.9-22.21-11.23-.41.5,3.82,17.15,4,17.72,2.21,8.69,1.66,21.3-3.5,28.73C11,107.88-3.52,120.54.77,138.7Zm4.09-15c2.12-5.5,8.6-19.9,14.86-22,.32-.11-2.46,8.3-3.16,9.7C19,106.73,31,99.29,31,94.9c0-.35-8.47,3.21-7.89,3.49-2.57-1.27,18.08-20.34,16.11-22.5-.91-.94-8,9.82-10.27,8.89-1.83-.7-3.26-23.16-3.34-26.64.25,8.7,52.71,4.37,52.71,3,0-1.81,38.11,9.16,40.1,10.35-.72,1.32-1.4,2.67-2.08,4,0-9.49,32.6-17.6,32.6-16.84,0-5.2,33.66,16.22,35,16.09,3.69-.38-17.67-13.88-17.88-15.65-.38-3,10.07,3.46,10.07,2.09,0-3.06-17.61-12.57-17.1-12.66a7.61,7.61,0,0,1-3.51,2.83,4.19,4.19,0,0,1-.5-3.64,13.79,13.79,0,0,1-3.67,3.27,2.65,2.65,0,0,1-.51-2.48c-1,0-7.3,2.91-7.3.83,0-3.44-9.13,5.09-8.69,5.09a13.64,13.64,0,0,1,2.38-4.39c0-.08-11.93,10.32-14.1,13.27.5-1.38,2.15-9.72,3-9.72.68,0-8.34,9.85-8.09,7.58,0,.24,4.84-10.1,2.91-8.79-.83.55-9.11,15.77-10.53,11.78-1.3-3.69,3.63-1.53,4.76-3.18-.56.82-3.27-5.07-2-4.82-2.84-.52-1.51,2.94-6.54.33-3.76-1.94-.59-8.83-1.1-8.83-2.53,0-2.74,6.93-4.35,6.2a5.48,5.48,0,0,1-1-3.82c-2-.85-3.09,4.18-5,1.89a2.63,2.63,0,0,1,.93-2.87s-4.62,4.53-4.62,2c0-1.46,5.2-5.66,4-7,.23.27-6.66,2.31-3.71-.45-1.24,1.15-3.41,6.64-5.65,6.54,6.64.21-4.74-10.17-4.74-5.12A4,4,0,0,0,82.58,42a3.21,3.21,0,0,0-2,1.47c-.52,0,5-8.45,2.37-8.45-2.35,0-3.33,10.15-6.36,10.15.35,0,4-11.38,4.13-11.47-2.74,1.81-1.83-2.29-3.5-1.55-2.46,1-2.48,7.8-5.37,7.94-1.74,0,5.24-11,5.28-11C74.52,24.56,67.24,45,65.93,39.37c-1-4.33,3.87-3.84,5.15-5.45-2.19,2.72-3.74-11.4-2.59-9.2-5.23-9.36,21.78-.52,15.22,4,1.25-.79,23.67,15.18,22.93,16.49,0-.1,27.43,2.29,31.61,2.05C141.81,47,169,39,169,47c0,.75,24.11,20.14,20.85,22.33,6.55-4.25,21.44,1.37,30.76,2.51,4.05.52,14.94-7.69,19.22-8.92,7.82-2.25,20.35-5.5,28.18-1.2-.5-.29-9.93,24-14.88,23.11a3.92,3.92,0,0,0,.51-2.45c-1.44,0-17.41,14.47-19.77,10.24C236.77,97.79,270.7,83.38,274,82c7.15-3,12.91-6.76,19.46-10.82,8.31-5.17,16.44-4.4,25.05-7.54,4.74-1.76,30.22,1.17,33.32,7,3.8,7.25,27.09,5.2,33.54,5.41,12.78.38,26.77,3.18,39.33,5.47,13.34,2.41,33.79-.76,44,10.26,6.84,7.39,16.88,15,3.27,25.17-8.76,6.48-18.78,16.18-30,16.18-4.54,0-21.19,7.45-27.47,5.88,16.43,4.42,45.66-8.59,58.7-18.55,12.59-9.62,12.22-20.51,29.6-23.78,16.32-3.07,32.86-1.38,49.35-1.73,30.19-.61,41.48-32.73,65.81-47.12,4.69-2.76,24.62-11,29.32-6.21,2.4,2.49,9.15-2.43,11.1-.3,2.36,2.58-4,14.83-3.88,14.83,4.41,0,8.26-11.38,7.56-12.61.51.9,11.69-16.41,12.12-16.93,3.69-4.29,8.21-5.61,11.91-9.37,4.09-4.2,37.49-15.56,36.91-7.06-.12,1.82-30,15.82-27,19.21C695,28.12,752.52,1.92,752.52,12c0,6.68-16.71,7-17.73,12.62.38-2,32.09-16.62,36-17.33,11.19-2,22.26-4.73,33.73-3.52,1.49.15,28.26,7,23.92,9.76-2.54,1.66-45.53.64-45.6,9.75,0-7.08,48.32-5.5,51.89.44,2.86,4.8,20,1.25,25.22,6.35s16.47,6.67,22.76,11.42c9.66,7.29,20.38,29.34,32,30.71-3.1-.32-21.31,21.23-24.63,18.53-1.57-1.28,5.9-9.18,6.39-9.18-.47,0-11.15,7.33-9.55,3.15.17-.42,10-6.54,5.67-6.54-1.53,0-5.88,7-7.43,4.24-2.19-3.9,3.16-2.65,2.27-2,.87-.59,2.87-6.45,3.91-6.45-2.32,0-5.14,4.29-7.37,5.17-1.21.5,6.67-8.43,6.67-7.8,0-.79-8.09,5.62-9.13,5.79-3.49.5-.23-5.11-1.73-6.12-.18-.09-3.26,2.15-3.09,1-1.66,10.74-4.74-.62-2.47-.55-4.75-.17-1.89.32-6.24-1.74.51-.48,7.62-8.47,5.74-8.47-2.28,0-3.38,6.13-6.22,6.41-4.57.47,1.18-6.07,1.31-5.94.51.57-10,6.17-9.95,3.17.23-4.47,11.61-6.66,11.61-10.65,0,.41-18.55,15.82-18.39,16-.36-.4,8.39-11.91,10.24-13.37-2.45,1.92-9.73,10.35-12,10.35-1,0,15.56-19.06,16.71-17.62-.19-.21-11.17,7.58-11,6.46a45.22,45.22,0,0,1,5-5.68c-1,1.43-9.18,4.61-9.18,7.27,1-.13,1.9-.23,2.84-.31-1,3-12.12,8.05-13.93,6.74-.25-.17,7.58-10.4,8.54-10.4-2.12,0-10,10.23-11.17,6.27s14.23-10,14.5-14.19c0,1.63-16.64,12.36-16.66,11.1-.06-3,11.7-13.35,13.18-13.35-2.65,0-13.88,13.5-16,10-1.85-3,15.91-15,15.26-15.73-2.74-3.1-22.7,22.63-25.52,19.55,0,0,16.29-18.86,17.62-18.86-1.57,0-16.52,12.6-16.52,13.91,0,0-8.75,13.17-3.5,13.17-.32,0-5-6.33-5-6,0-3.09,13.9-13.62,13.14-14.56-1.61-1.88-18.41,17-20.82,14.13-.05-.07,17.72-17.12,19.67-19.2C824.65,42,811.21,55,809.24,52.47c-2.23-2.82,17.41-15.52,16.07-17C822.09,32,805.68,55.34,802,52.38c-3.9-3.05,14.44-14.32,14.78-16.09-.85,4.42-17.29,9.12-19.89,11.51a3.08,3.08,0,0,1,.27,3.31c-6.83,6.18,10.51-18.94,10.51-15.41,0,1.55-12.23,9.06-13.86,11.44-1.45,2.08-4.78-1.06-4.78-2.8,0-2.4,11.34-8.18,9.94-9.72-.73-.79-22.13,17.45-21.08,19.21.71,1.18,8.76-8.64,10-8.64,1.53,0,7,7.55,6.09,8.55-2.91,3.25-3-7.66-7-1.06C784.17,57.22,781,57,778,57c-.74,0,2.46,3.4-.15,3.4-3.65,0,.3-4.45.3-5.23-.13-3.73-4.12,1-4.48,1,.36,0,16.49-20.26,20-22.32-2.55,1.42-25.54,23.55-27,22C765.05,54,788.8,28.59,789.41,29.2c-2.33-2.32-21.9,20.77-26.32,22.87,6.68-3.17,12.42-22.95,21.29-22.95-5.31,0-23.48,21.24-25.41,19.11-2.27-2.48,12-13.57,12.14-13.46-.93-1.15-27.15,20.1-26.77,21-1-2.67,14.2-19.1,15.5-19.1-2.35,0-16.33,15.75-17.87,14.18-2.32-2.44,6.9-9.89,7.59-11.17.83-1.57-13.11,8-13.63,7.41-2.12-2.32,5-3.65,5-5.5s-18.53,13.1-18.46,12.8,11.63-11.61,8.34-11.74c-.79,0-7.73,6.18-8,6.91a11.18,11.18,0,0,0-1-3.57c-.11,0-6.5,4.69-6.5,2.44,0-.32,1.64,6.53-2.23,3.92-2.78-1.82,1.28-1.86,1.13-2.77-1.32-8.1-12.44,11.83-14.73,5.2-.26-.73,3-2.41,1.5-3.27,1.15.65-24.71,11.84-24.44,9a9.46,9.46,0,0,1,1.81,1.23C671,64.42,627.6,70.09,627.6,80.4c0-9.8,69-18.17,75.36-18.48,11.72-.5,21,.57,32.32,5.32C749.21,73.11,758.83,90,776,84.61c10.08-3.22,20.91-4,31.27-6,6.52-1.34,27.51,4.31,31.82.56,15.56-14,35.2,36.67,48.74,17.27a3.62,3.62,0,0,1-2.93-.31C887.47,93,900.59,87.48,905,85c1.38-.76,15.13-14.14,15-12.44-.49,13.33-22.62,29.75-31,36.43-13.14,10.46-31,8.13-43.71-1.79a128.27,128.27,0,0,0-31.4-18c-7.85-3-16.58-2.64-24.75-3.85-3.44-.48-17.28,4.86-18.9,3.74.85.57,14.06-1.14,15.84-1.14a77.41,77.41,0,0,1,23.7,3.55c6.2,1.92,48.8,24.78,43.24,30.09-5.19,5-21.95,6.41-29.11,7.91-14.71,3.21-12.7-8.33-23.94-10.85-33.93-7.57-9.34,38.84-24.57,39.92-.82,0-38-13.25-39.72-16.24,4.36,7.44,32,7.43,30.68,19.05-.45,3.9-27,.31-30.47-1.86-4.15-2.63-18-18.59-22.39-16.7C715,142.18,733.9,160,732.67,163c-1.36,3.29-11.06,15-15.59,15-2.24,0-37.27-42.72-45.85-33.5,4.25-4.67,35.31,27.14,39.47,31.55,7.78,8.56-35.92,8.33-38,7.89-3.68-.78-16.18-14.41-14-14.41-.85.52-1.64,1.08-2.47,1.66.84.15-44.23-36.48-44.23-30.49,0-.44,17.49,11.08,16.93,11.08,3.21,0,12.4,8.58,16.67,9.36-1.12-.21,11.17,10.66,7.51,13.1-6.28,4.25-15.13,3.74-24.24,3.22-18-1.05-37.83,8.25-56.11,4.19-16.68-3.75-21.89-19.76-41.18-12.8-17.07,6.18-31.42,20.42-47.94,27.26-16.13,6.67-30.25,14.83-47,18.7s-34,3.8-49.59,11.55c-5.84,2.91-11,7.64-17.17,3.17-7.9-5.69-15.68-11.41-24.95-14.08-6.81-2-16.9-3.59-22.67-8.3-.11-.1-15.1-14.77-5.76-14.77-1.61,0-8.43,10.88-10,9.83-3.95-2.66-25.35.7-30.46,2.07-2.61.7-21.4,3.55-21.32,3.42.25-.4-5.81-6.76-5.94-8.89-.42-6.1,4.46-11.17,4.35-16.75-.06-2.3-4.08,3.46-4,3.45a4.39,4.39,0,0,1,3-2.38c0,1.05-4,10.09-4.78,10.09-2.06,0,1.3-3.22.69-3.88,4.73,5-9.26,17.18-15.25,15.66-8.22-2.1-14.5-12.2-19.32-18.83-7-9.63-20.17-46.23-37-27.72-10.85,11.89,4.84,46.43,2.54,62.47-1.89,12.85-23.6,8.83-28.79,3s-6.13-15.74-6.72-23.45C142.32,186,150,116,122.39,123c-24.77,6.23,1.72,45.42,4.09,57.87,1.89,9.73,3,27.52-11.63,27.2C93.36,207.57,100,169.46,100,155.37c0-14.54-1.65-44.18-24.26-34.61-1.23.56-7-15.23-6.59-16.34-3.48,10.44-5.49,27.47-1.42,34.62.79,1.42-2.43,6.84-3.12,6.8A8.13,8.13,0,0,1,68.17,144a25.5,25.5,0,0,0-1.45,3c0,.19,2.81-2,2.49-.53-.66,1.26-1.34,2.53-2,3.8,0,.06,3,27.6-8.15,23.46-1.08-.4,4-5.69,3.42-6.43s-7.77,9.11-10.15,4.89c-.51-.87,5.81-9.17,5.81-12.16,0,.61-9.27,9.54-10.88,9.54-.73,0,11.16-14.12,12.25-16.07-2.09,3.7-8.54,8.62-11.92,11.42-5.28,4.33-12.42-5-10.42-6.37C39.4,157,8.89,142.7,8.6,144.27a45.92,45.92,0,0,1,4.07-4.61C7.6,152.06,2.38,130.17,4.86,123.7Zm42-97.64c4.85-9.89,9.79-3,17.34-3.73C64,22.37,69,17.1,69,20.39c0,1.15-6,12.1-6.89,12.1-2.17,0,1.78-9,0-8-2.38,1.31-2.57,7.49-5.45,7.94-2.08.35,4.1-10.91,3.29-10.91C54.68,21.5,49.72,35,45.62,35A11.2,11.2,0,0,1,46.88,26.06Zm1.29,9.74c2.51-1.44.62,1,.62,2.26C48.79,38,43.31,38.63,48.17,35.8ZM53.92,35c3.46,0-2.78,5.8-2.86,5.84C51.38,40.69,49.14,35,53.92,35Zm-2-5.08a7.88,7.88,0,0,1,1.9-2.54c3.88,0-3.34,5.84-3.47,5.87A2.7,2.7,0,0,1,51.92,30ZM54.37,43.3c3.14,3.46-1.31-1.4,0,0ZM57.22,36c1.05-.85,2.09-1.7,3.15-2.54,3.45,1.23-5.66,8.61-5.24,6C55.85,38.26,56.53,37.11,57.22,36Zm.27,11.58c2.12,2.36-3.09-3.33,0,0Zm1-4.06A6.39,6.39,0,0,1,60.82,42q.87,3-2.32,3.19C56.45,44.64,56.41,44.07,58.46,43.49ZM59.63,49a5,5,0,0,1,4.67-.58C64.3,53.5,57.36,50.58,59.63,49ZM64.3,34.17c3.85-2.28-1.84,7.19-3.1,6.33A7.23,7.23,0,0,1,64.3,34.17Zm-.8,9.32a7.2,7.2,0,0,1,3.08-1.74C72.09,45.29,57,43.49,63.5,43.49Zm3.12,9.93C71.59,52,65.5,57,65,56.1,64.3,54.5,64.85,53.61,66.62,53.42Zm-.78-4Zm.48-18.61Zm4.19,17c6.83-5.3-3.23,5.35-2.27,2.45Zm-.69-4.28Zm-.17,77.86c1.4.5,1.85,1.54,1.3,3.13C70.16,126.66,67.49,121.35,69.65,121.35Zm4.48,10.91c1.93-2.19,4.88-9.69,8.88-8.2-.18-.07-8.62,15-11.94,15A7.14,7.14,0,0,1,74.13,132.26ZM71.29,132c1.74-1.19,1.4-6.37,4.73-6.37C80.76,125.58,65.58,135.72,71.29,132Zm1.93,7.18a52.76,52.76,0,0,0,4.48-3.4c-.93,0-3.57,6.77-5.78,6.77C70.88,141.23,71.31,140.12,73.22,139.13ZM73,144.2c2.48,0,11.35-7.53,13.69-15.07-.42,1.34-5.31,3.28-5.31.86,0-12.62,19.87,3.19,5.36,3.19-4.32,0-11.75,20.92-14.66,25C72.07,156.54,71.93,144.2,73,144.2Zm0-95.46c4.11-4.47-4.44,4.89,0,0Zm2.33-6.93c.32,1.95-.61,2.85-2.78,2.72A3.31,3.31,0,0,1,75.32,41.81Zm-.15,100.31c3.46,2.31-2.71-1.78,0,0ZM76.1,38.34a3.74,3.74,0,0,0,.62-2.88c2.91-1.84,1.55,5.5-1.25,5.5C73.94,40.16,74.15,39.3,76.1,38.34Zm3.27,113.55c.77-.62,1.54-1.23,2.34-1.85a9.7,9.7,0,0,1-3.91,5.16C77.21,153.94,77.74,152.82,79.37,151.89ZM79,48.8c3.69-2.51.84,2.22-.85,2.29C77.13,50.24,77.44,49.49,79,48.8Zm3.18,1.46Zm2.08,94.6c.87-1.71,2,3.56-.68,3.56A3.9,3.9,0,0,1,84.22,144.86ZM94,132.65c-1.07-3.45,5.66,3.93-.92,3.93A6.89,6.89,0,0,1,94,132.65Zm-.62-77.31c1.53.57,1.53,1.12,0,1.69C91.86,56.46,91.86,55.91,93.41,55.34Zm2.08,82.33Zm6.14-79.79Zm3.86,1.23c4.44-1.49,1.06,3.1-.53,2.44C103.45,60.54,103.62,59.73,105.49,59.11Zm12,73.15c3-7.82,18.87-6.59,15.2.9-1.22,2.49-7.62,17-10.3,17-2.1,0,3.16-8.12,2.61-7.88s-6.39,7.3-6.39,6.29c0-2,12.27-18.11,10.87-19.12-1.74-1.19-10.74,19.66-12.52,19-2.26-.89,4.71-14.16,6.27-15.18-3,2-5.47,6.8-7.8,9.75A42.48,42.48,0,0,1,117.51,132.26Zm.57-67.62c.48,1.16-.08,1.73-1.64,1.71C116,65.2,116.53,64.64,118.08,64.64ZM123,157.15c.89-6.41,12-11.82,12-19,0-2.57-3.84,1.77-3.9,1.77-1.06,0,3.25-6.52,4.33-5.53,3.2,2.81,3.67,20.13,3.89,23.3.33,4.41-10.26,19.65-10.94,17.53-1.61-4.89,5.1-8.72,5.1-12.38a6.56,6.56,0,0,1-2,.38,13.1,13.1,0,0,1,2.61-5.15c-1,1.35-5.35,7.26-7,7.23.65,0,10.88-20.31,10-20.31-3.48,0-8.19,19.48-12.85,19.48C122,164.51,122.85,158,123,157.15Zm3-9.74c-.24.32,4.29-7.16,4.75-5.5.82,3.08-6.82,8.7-6.77,8.89C124.62,149.66,125.31,148.54,126,147.41Zm4.22,29.4a2.45,2.45,0,0,1-.38,2.84A2.33,2.33,0,0,1,130.18,176.81Zm1.63,14.35c1.66-1.1-2.92,1.89,0,0ZM133,180c.64.27,5.07-5.46,4-6.82a11.06,11.06,0,0,1-3.14,3.31c-.8-1.4,3.67-10.3,5.18-10.3,2.08,0-1.7,5.29-1.72,5.87a3,3,0,0,1,2.27-1C142.09,178.75,131.37,179.34,133,180ZM153.53,52Zm3.12,2.95c1.78-1.14-3,2,0,0Zm3.4.43a1.74,1.74,0,0,1,1.72,2.29C160.54,59,157.33,55.34,160.05,55.34Zm17.54,120.17c2.92,0,4.36-9.16,5.54-10.4-1.47,1.51-3.85,8.19-6,8.6-.06,0,6.12-12.7,7.78-14.24-1.94,1.74,5.88,3,5.87,3.2-.8,7.24-11.69,14.38-13,18.45.72-2.23,5.25-6.17,5.25-8.65C183,177.88,175.29,175.51,177.59,175.51Zm0-11.52a8.61,8.61,0,0,1,5-5.25c.76.77-5,9.09-5.57,9C177.22,166.53,177.42,165.26,177.63,164Zm2.88,17a93.7,93.7,0,0,0,10.11-16.11c3.44-6.92,7.79,3,5.13,3a2.82,2.82,0,0,1,.09-3c.28.72-2.51-.48-1.78-1-4.9,3.45-8.79,21.71-15,21.71C177.9,184,178.39,182.45,180.51,181Zm.64,4.9c1.26-1.4,7.7-13,9.69-13-1.18,0-7.9,15.19-10.75,16.93C178.37,188.74,178.73,187.42,181.15,185.91Zm2.63,4.83a6.41,6.41,0,0,1,3.11-2.72c0,1.68-3.81,7.79-5.42,7.79C180.17,193.88,181,192.18,183.78,190.74Zm-.76,7.18c.66-.43-3,1.91,0,0Zm1.21,2.3c1.36-2.13,14.77-16.68,13.41-18.8,2.37,3.73-14.2,22.19-14.16,22.27A2.56,2.56,0,0,1,184.23,200.22Zm1.49,14.21Zm2.9-6.69c3.21-3.74,13.88-22.89,17.29-24.33,1.86-.76,4.58,6.2,4.85,5.8-.23.34-6.64,6.6-6.79,6.6-2.08,0,.77-3.08.77-3.52,0,4.35-20.17,18.69-20.17,20.7A35.79,35.79,0,0,1,188.62,207.74Zm1.38-25c1.55-1.07-2.78,1.75,0,0ZM193.87,195Zm1.72-23.28a10.27,10.27,0,0,1,2.33-3.8c2.09,0-4,9.32-4,9C194.48,175.13,195,173.42,195.59,171.68Zm-.45-2.94Zm1.44,22.51c1.55-2.26,6.61-12.41,6.61-14.21,0-.1-3.87.76-3.87,1.27,0-1.86,1.41-4.32,1.7-6-.36,2.29,7.37,6.81,3.76,10.74C203.44,184.55,192.7,196.8,196.58,191.25Zm4.36,6.26Zm60.29-117.7c2.82-1.11.89,2.61-1.47,2.61Q258.37,80.55,261.23,79.81ZM265,71.47c-.07.1,5.28-8.72,4.92-8.92,3.08,2-5.06,14.62-7.26,15.56C260.7,79,266.18,69.3,265,71.47Zm8.94-2.66c.71-1,1.41-2.07,2.09-3.09,3.63-3-4.26,11.4-3.69,6.72C272.88,71.23,273.41,70,273.93,68.81Zm4.6.92Zm1.09-3.38Zm182,144.26c1.84-1.17-3,2,0,0Zm7-89.68c1.62-1.1-2.92,1.89,0,0Zm11,85.89c3.86,0-1.95,3.9-3.76,2.26A4.63,4.63,0,0,1,479.57,206.82Zm4.65-3c1.87-.65,18.57-15.39,19.42-14.36,1.89,2.3,27.58-13.85,30-14.77,15.82-6,31.51,15.27,48.22,14.87,2.39-.06,34.09-5.2,34.09-5,0-1.81,46.17,1.93,50.59,1.93,2.44,0-21.59,31.29-20.1,32.93,1.22,1.34-16,14.05-19.16,13.74-13.56-1.25,4.15-18.9,5.27-25.51,3.71-22.32-42.27,20.09-46.55,22-7.14,3.32-14.76,3-22.64,4.72-2.84.62-22,.52-21.48-.56-1,2,29.85-7.4,32.4-7.4,3.35-.08,10.08-4.47,11.1-8.07-.45,1.56,5-9.78,5-8.23,0,1.38-13.34-1.85-15-2.59,1-1.55,3.29-1.06,3.37-3.81,0-1.39-7.4,7.33-7.37,7.36s-4.11-2.83-4.54-2.94c-6.77-1.93-.46-3.16-.59-7.24,0,.43-4.81,5.13-5.62,4.22.08-.84.13-1.71.19-2.58a21.15,21.15,0,0,0-4,1.17c-1.64-1.12,2-6.73,2.12-6.73-2.64-.66-13.61,13.09-13.61,9.29,0,2,5.27-6.19,2.1-5.19-.19.06-6.17,8.32-6.68,7.47C539,205.43,551,197.47,547.91,194c-.85-.95-10.11,12.24-10.41,11.75-2-3.4,6.48-9.23,5.21-10.57-1-1.13-11.74,11-10.79,12.68-2.87-5.16-8.47,1.39-5.49,2.64,1.12.45.82-4.59,2.27-2,2.84,5-5.84,3.1-5.82,3.34l3.36,3c.12.32-5.4-.7-6.06-2.7-.76-2.39,10.73-11.06,9.88-14.64-1.3-5.31-16.26,18.74-16.89,17.36-1-2.2,10.47-15.41,10.47-17.28,0-.49-16.3,14-16.3,16,0-2,8.2-12.91,7.33-14.46-.65-1.17-14.29,14.74-14.27,16-.17-5,9.05-9.92,8-14.69s-9.51,10.65-11,10.8c-3.8.43,3.74-11.11,3.74-11,0,1.41-5.36,3.74-6.27,3.08,2.37,1.74-2.2,4.44-2.33,4.23A15.74,15.74,0,0,0,491,203C495.28,205.62,476.43,206.55,484.22,203.81Zm6.22,6.3c1.68.22-2.51-.35,0,0Zm4.92,2.64Zm15.86-.43c.83-.53-3.13,2.11,0,0Zm4.27,7.44Zm4.73.93c1.3-.11,1.92.52,1.87,1.84C522.09,225.35,516.49,219.14,520.22,220.69Zm2.87,7.18c.79,1.8.3,2.08-1.46.89C520.82,227,521.31,226.68,523.09,227.87Zm6.13-4.23c1.79.24-2.58-.32,0,0Zm2.53-9.95c1.57.78,1.34,1.53-.7,2.31C529.46,215.22,529.69,214.47,531.75,213.69Zm3.44,2.56c1.15.74.94,1.51-.63,2.23C533.39,217.76,533.6,217,535.19,216.25Zm0-9.36c.58-1,2.76,3.31,0,3.31C534.23,209.25,534.21,208.16,535.19,206.89Zm1.77,7.37c2.08,2.21-2.91-3.27,0,0Zm1.74,4.14c1.95-.87-3.08,1.31,0,0Zm-.34-8.2c1.4-2.46,3,3.38-.35,3.38A2.89,2.89,0,0,1,538.36,210.2Zm2.73,2.21c2-1.38,2.91-.82,2.68,1.65C542.88,215.64,538.27,216.44,541.09,212.41Zm1.95,6.24Zm1.94-9.6q1.9,3.31-.89,1.87C543,209.38,543.28,208.77,545,209.05Zm.08,6.72c1.32-1.88,2.42-1.83,3.28.15C548,217.1,543.64,219.8,545.06,215.77Zm3.27-3.87a3.62,3.62,0,0,1,2.81,2.47C549.46,215.21,546.85,211.9,548.33,211.9Zm2.38,5.2c1.13.75.93,1.49-.64,2.25C548.91,218.59,549.12,217.85,550.71,217.1Zm-.14-9.38a3.2,3.2,0,0,1,2.75,3.44C551.09,213.6,549.27,207.66,550.57,207.72Zm1.78,13.49Zm.78-6.78c.66,0,1.38-6.45,3.06-3.4C559,216.12,549.73,214.43,553.13,214.43Zm-.07-8.45a1.75,1.75,0,0,1,1.32,2.27C553.34,209.4,551.24,206,553.06,206Zm2.55,16.31c.17.09-3.23-1.36,0,0Zm-1.08-18.37c1.42-.32,2.12.3,2.08,1.85Q554.14,207.39,554.53,203.92Zm.93-4.72Zm2.77,19.45Zm.82-5.07c.94,0,6.5,5.6,6.2,5.88C562.92,221.54,555.11,213.58,559.05,213.58Zm.36-7.56c1.43,1.64,1.17,2.34-.76,2.1C557.19,206.49,557.46,205.79,559.41,206Zm-.06,16.88Zm3.23-1.87c2.14,2.31-3-3.33,0,0Zm.12-13a8.83,8.83,0,0,1,3.57,2C567.76,217.63,558.31,205.75,562.7,208Zm5.16,4.45c2.08.43,2.08,1.07,0,1.94C565.78,214,565.78,213.33,567.86,212.49Zm.4,8.72c1.32.63,1.5,1.46.58,2.48C567.67,224.13,565.87,221.21,568.26,221.21Zm1.45-3.39a3.42,3.42,0,0,1,2.76,1.8C572,222.8,568,217.82,569.71,217.82Zm2.19-3.37a2.64,2.64,0,0,1,2.78,2.17C573.94,217.43,569.22,214.43,571.9,214.45Zm2.48-3.14c.91.38,2.78-4.52,4.1-.45C580.62,217.63,570.88,209.89,574.38,211.31Zm2,11.72c1.93.4,1.66,1-.81,1.78C573.58,224.41,573.85,223.83,576.42,223Zm-.45-4.38Zm2.74-2.53c3.12.58,3.12,1.13,0,1.7C575.63,217.25,575.63,216.7,578.71,216.12Zm2.17-2.73c2.5,1-.7-1.41-.26-2.11a4.27,4.27,0,0,1,4,.62c.58,1.13-3.9,3.4-4.73,3.06C578.54,213.62,578.89,213.09,580.88,213.39Zm3.36-26Zm32.7-8.21c-.29-.14-4-1.76,0,0Zm2.23,41.68c2.36,1.71,1.15-4.76,1-4.48a2.63,2.63,0,0,1,2.68.34,6.76,6.76,0,0,1-4.48,5.35C617,221.21,617.26,220.78,619.17,220.82Zm6.19-13.58a3.39,3.39,0,0,1,3.81,1.28c-1.57,1-8,.34-9.06-1.26A8.63,8.63,0,0,1,625.36,207.24Zm2.24-4.93c2.1.95,2.1,1.4,0,1.38C625.52,202.73,625.52,202.29,627.6,202.31Zm8.88-47.11a8.88,8.88,0,0,1,2,2.51A4,4,0,0,1,636.48,155.2Zm11,26.51c1.73,1.83,0,0,0,0ZM710.08,54.4c2.89,3.17-2.59-2.76,0,0Zm3,124.32c3.17,3.5-1.39-1.49,0,0Zm5.18-126.34L721,49.84a32.89,32.89,0,0,1-5.62,5.28C716.34,54.21,717.32,53.28,718.31,52.38Zm14,3.38q3.3-1.95,0,1.7Q729.07,59.43,732.35,55.76Zm2.8,5c.23.08,4.09,2.61.32,1.59C733.47,61.4,733.35,60.86,735.15,60.77Zm6.17-13c-1.33,0-3.71,5.93-6,5.93C736.68,53.66,739,47.73,741.32,47.73Zm-3.55,11.83c2.16,1.68,2.16,2.2,0,1.49C735.66,59.37,735.66,58.88,737.77,59.56ZM740.9,63Zm.73-6.11c.8-1.6,1.47-1.69,2-.33,0,2.19-1,3.26-3,3.31C739.76,58.73,740.1,57.73,741.63,56.85Zm3,9.16c.93-.63-2.31,1.51,0,0ZM748,69.77c1.85,1.36,1.74,1.72-.36,1.06C745.77,69.51,745.89,69.14,748,69.77Zm.68-14c0,.19,3.43-3.61,1.21-.74a14.52,14.52,0,0,1-3.46,2.65Zm2.32,3.8ZM754.24,57c.15,1.48-.45,2.24-1.81,2.27A1.75,1.75,0,0,1,754.24,57Zm-.71,15.42q1.86,1.49,0,3Q751.54,73.94,753.53,72.46ZM755.4,65c1.87,2-2.78-2.91,0,0Zm.24,5.6Zm1.23-10.16c2,0,.62,4.27-1.47,2C755,61.15,755.49,60.47,756.87,60.43Zm.17-6.36c1.61,1.75-1.3-1.37,0,0Zm3.63,11.44c3.07,0-2.25,3.24-2.7,2.93C757.87,66.6,758.74,65.61,760.67,65.51Zm-.62-7.24c.77.33,1.85-4.06,2.38-1.05A3.34,3.34,0,0,1,758.74,60C758,58.61,758.48,58,760.05,58.27ZM762.3,48.1a37.66,37.66,0,0,1,6.08-5.17c-2.68,1-6,10.73-10,10.73C758.25,51.07,759.56,49.24,762.3,48.1Zm-1.48,23.67c1.63,1.74-2.34-2.74,0,0Zm.25,5.58Zm2.55-14.48c2.7,2.93-2.31-2.61,0,0Zm-.25,11.51c1.08.89,1.08,1.87,0,3C762.35,76.42,762.35,75.46,763.37,74.38ZM762.92,68Zm4.82-18.2a21.61,21.61,0,0,1,5.43-4.38c1.38,1.48-10.76,11-10.47,10.12A22.18,22.18,0,0,1,767.74,49.83Zm-2.67,10.81c1.76,1.28,1.86,2.1.35,2.38C763.77,61.81,763.68,61,765.07,60.64Zm2.37-2.51c1.61,1,1.68,1.94.22,2.62Q765.4,59.16,767.44,58.13Zm.19,10.75Zm1.79-1.66a2.12,2.12,0,0,1,2.16,2.42C771,70.69,767.55,67.18,769.42,67.22Zm2.5-11.44a4,4,0,0,1,0,4.65c1.06,0-3-3.42-2.34-1.76C769.36,56.72,770.18,55.76,771.92,55.78Zm.66,9.37c1.72,2.16,1.63,2.55-.28,1.15Q769.81,63.16,772.58,65.15ZM774.24,75c3.16-2.19,1.27,2.37-1.07,2.37C772.48,76.35,772.82,75.55,774.24,75Zm.4-13.68c1.67-1.52,2,3.85,1.81,4C774.83,66,772.72,63.06,774.64,61.3Zm6.62,8.52c2.23,3.81-1.55-2.7,0,0ZM780.84,63c1.57.57,1.57,1.12,0,1.68C779.29,64.08,779.29,63.53,780.84,63Zm2.27-3.32c1.87-1.73,2.74,2.45.08,2.45C781.64,61.66,781.62,60.83,783.11,59.64Zm2.95,4.06c1.83.24-2.67-.32,0,0Zm-.15-8c1.72.21,2.46,1.21,2.17,3C786.82,60.59,783.54,57.35,785.91,55.74Zm1.25,69.31c1.17,1.23,8-4.12,11.45-.29.29.29-5-.68-5,.23,0,5.11,12.89-.39,13.16,6.7C806.84,132,786.52,124.32,787.16,125.05Zm1.05-58.7Zm1.88-13.5a2.77,2.77,0,0,1-.25,4.18C785.43,57,789.73,52.43,790.09,52.85Zm-.3,7.14c3.17,2.09-1.24-.81,0,0Zm.3,8c1.43-.07,2.1.64,2,2.19C789.79,73.23,789.63,68,790.09,68Zm2.4-10.15q2.35.7,0,2C790.92,59.39,790.92,58.75,792.49,57.88ZM794,65.51c1.34.63,1.53,1.46.58,2.49C793.47,68.41,791.64,65.51,794,65.51Zm.42-5.08Zm1.39-5.77c1.33.8,1.2,1.6-.34,2.37C794.19,56.27,794.29,55.48,795.85,54.66Zm1.27,9Zm.87-6.42c1.93,2.08-1.51-1.76,0,0Zm.62-5.18c2.48-2.3,3.82,4.83,1.23,4.89C798.1,57,797.24,53.3,798.61,52Zm1.72,7.52c1.39.8,1.48,1.8.23,3C799.35,63.4,797.12,59.56,800.33,59.56Zm1.06,9.32Zm1.27-12.42c2.15-.78,1.78,5.09-.49,3.58A2.29,2.29,0,0,1,802.66,56.46Zm2.48,9.21c2.77-1-4.78,1.78,0,0Zm1.07-12.34c3.35-2.39,3.27,5-.53,3.39C804.23,55.52,804.42,54.36,806.21,53.33Zm4.16,16.4c1,.27,2,.57,3.07.86a6.9,6.9,0,0,1-6.6,0A4.37,4.37,0,0,1,810.37,69.73Zm-2.74-6.35c1.72-1.14-3.42,2.18,0,0Zm4.81-3.82a2.15,2.15,0,0,1-1.86,2.53A2.19,2.19,0,0,1,812.44,59.56Zm1.94,3.63c1.66.59,1.7,1.36.15,2.32C812.85,65,812.81,64.17,814.38,63.19Zm6.43-4.46Zm1.87,2.53Zm5.71-4c2.36,2.14-3.55,4.25-3.89,3.87C824.65,58.44,825.93,57.16,828.39,57.22Zm.34,5.05c2.13-2.33,3.73.54,4.18,2.63,1.09-.9,2.78-4.68,4.38-2.92,2.12,2.3-8.52,3.53-8.71,3.53C827.54,64.51,827.58,63.44,828.73,62.27ZM829.9,54c1.23-1.55,2.19-1.49,2.87.15.14,2.14-.81,3.07-2.89,2.82C828.09,56.35,828.09,55.34,829.9,54Zm5,3.52a2.34,2.34,0,0,1-.17,3.38C832.26,62.51,832.66,56,834.87,57.52Zm4.25,10.85c6.23.25-1.17,1.5-2.24,1.4C836.35,68.43,837.08,68,839.12,68.37Zm-.87-4c1.58.75,1.58,1.51,0,2.26C836.73,65.88,836.73,65.12,838.25,64.37Zm5,.67c1,.64,3.13-3.17,3.13.11,0,.33-2.66,2-2.72,2C842.3,66.49,842.15,65.76,843.27,65ZM846,68.88a6.12,6.12,0,0,1,2.4-1.47C852.21,71.26,841.15,68.88,846,68.88ZM848,71c1.59-1.07-2.89,1.79,0,0Zm5,4.49Zm3.06-2.37c1.53.5,2,1.48,1.22,3C855.1,77.52,854.12,73.11,856.05,73.11Zm3.29-3c1.21-.84,5.52-3.5,6.33-2.63C870.07,72.3,851.36,75.74,859.34,70.15Zm-.6,7.66Zm5.57-4.7a12.43,12.43,0,0,1,3.29-2.42c.83,1.5,2.84,5.45-.38,5.73.26,0-1.3-4-2-2.1.22-.62-.23,5.36-.23,4.8,0-9.45,12.86,7.11,9.31,5.6.56.23-5.44-5.25-5.44-4.67,1.1,2.18,2.14,4.41,3.12,6.66C872.36,84.63,855.42,80.76,864.31,73.11ZM874.39,90c2.15.71,2,1.27-.48,1.71C871.76,91,871.91,90.47,874.39,90Zm3.78-14.38a4.24,4.24,0,0,1,1.74,3.89,4.06,4.06,0,0,1-4.64,0A4,4,0,0,1,878.17,75.65Zm-.32,11c1.55.57,1.55,1.12,0,1.69C876.29,87.77,876.29,87.22,877.85,86.65Zm3.62,3.63Zm.18-7.27c5.59-4,1.4,8.16-1.14,3.64C879.45,85,879.83,83.8,881.65,83Zm3,6.44Zm3.49-1.61c1.7,1.85-2.51-2.79,0,0Z"/><path class="cls-1" d="M6,131.52a14.27,14.27,0,0,0,3.58-3.81C9.62,127.58,3.7,131.52,6,131.52Z"/><path class="cls-1" d="M8.26,133.18a5.33,5.33,0,0,0,2.53-2.56C10.89,130.66,5.94,133.18,8.26,133.18Z"/><path class="cls-1" d="M12.55,115.51c.66-.75,1.33-1.46,2-2.22C14.84,112.72,8,120,12.55,115.51Z"/><path class="cls-1" d="M12,125.54a4.25,4.25,0,0,0,3-2.46A4.19,4.19,0,0,0,12,125.54Z"/><path class="cls-1" d="M15.24,127.6c-4,3.29,11.4-8.71,7.31-8.3-1.24.13-10.22,8-10.22,9.83A3.51,3.51,0,0,0,15.24,127.6Z"/><path class="cls-1" d="M13.08,122.19Z"/><path class="cls-1" d="M15.18,141.57c1.93-1.89,1.84-2-.34-.41C13.48,142.54,13.63,142.69,15.18,141.57Z"/><path class="cls-1" d="M14.89,131.76c8-5.33,15.17-15.48,23.09-19.85C30.48,116.05,19.09,129,14.89,131.76Z"/><path class="cls-1" d="M17.88,135.63a8.16,8.16,0,0,0,3.22-3.53C19.53,129.13,11.84,140.44,17.88,135.63Z"/><path class="cls-1" d="M15.73,119.66a8.16,8.16,0,0,0,2-2.51A4,4,0,0,0,15.73,119.66Z"/><path class="cls-1" d="M15.73,116.28a8.73,8.73,0,0,0,2-2.54A4.14,4.14,0,0,0,15.73,116.28Z"/><path class="cls-1" d="M16.64,122.19c1.47,0,11.13-11.32,11.68-10.76C26.6,109.62,16.35,122.19,16.64,122.19Z"/><path class="cls-1" d="M24.5,134a24.14,24.14,0,0,0,4.86-4.41c0,.36-7.45,5.43-8.3,6.43Q23.07,136.6,24.5,134Z"/><path class="cls-1" d="M21.85,140c1.44,0,12.2-8.29,12.2-10.15C34.05,129.32,21.69,140,21.85,140Z"/><path class="cls-1" d="M22.1,131.52c1.74,0,16.22-10.88,16.22-10.82,0,1.55-7.28,7.67-7,7.53,1.39-.78,8.94-6,8.94-7.76,0,.63,3.23-7,4.89-5a9.55,9.55,0,0,1-3.11,1.31,5.72,5.72,0,0,1,1.58-2.54C40.63,109.72,23.22,131.52,22.1,131.52Z"/><path class="cls-1" d="M22.78,109.51c.79,0,3.14-2.74,3.88-3.56C25.6,106.31,22.38,109.51,22.78,109.51Z"/><path class="cls-1" d="M29.07,116.13A36.75,36.75,0,0,0,35.26,110c0,2.74-11,4.61-11,8.8C26.17,119.55,27.77,118.68,29.07,116.13Z"/><path class="cls-1" d="M30.15,137.43c2.11-1.47,2.11-1.78,0-.85Q27.06,138.8,30.15,137.43Z"/><path class="cls-1" d="M29.93,82.42c1.36,0,6.75-7.53,6-8.31C34.61,72.63,30.4,82.42,29.93,82.42Z"/><path class="cls-1" d="M30.13,78.18c1.74,0,3.26-6.77,3.22-6.77C32.2,71.41,30.7,78.18,30.13,78.18Z"/><path class="cls-1" d="M31.71,141.23c2.89-1.87-1.65,1.11,0,0Z"/><path class="cls-1" d="M31.8,149.26c1.82,0,5.33-4,5.5-4.07C37.07,145.26,32.26,149.26,31.8,149.26Z"/><path class="cls-1" d="M37,131.8c-.48.46,9.65-9.61,9.23-9.61-2.29,0-13.74,10.36-13.74,12.86A10.75,10.75,0,0,0,37,131.8Z"/><path class="cls-1" d="M33.82,152.67c3.52,0,7.33-9.3,10-9.3C40.89,143.37,34.75,152.67,33.82,152.67Z"/><path class="cls-1" d="M34,139.11c.85,0,2.89-2.72,3.55-3.65C37,135.74,32.1,139.11,34,139.11Z"/><path class="cls-1" d="M35.15,141.67a8.79,8.79,0,0,0,2-2.54A4,4,0,0,0,35.15,141.67Z"/><path class="cls-1" d="M35.41,128.9c3.46-.18,8.47-8.9,11.08-11.05C44.79,119.25,35.54,128.9,35.41,128.9Z"/><path class="cls-1" d="M36.37,87.11a45,45,0,0,0,6.22-6.91C42.59,78.48,36.26,87.18,36.37,87.11Z"/><path class="cls-1" d="M36.15,155.2c2.11,0,6.59-4.12,7.64-6C45,147,36.15,155.2,36.15,155.2Z"/><path class="cls-1" d="M38.64,139.11Z"/><path class="cls-1" d="M39.48,157.24c1.64-1,10.81-10.41,11.41-10.41C48.46,146.73,38.66,157.73,39.48,157.24Z"/><path class="cls-1" d="M40.57,110.17c3.63-3.67-2.72,2.72,0,0Z"/><path class="cls-1" d="M41.42,161.43q2.38-1.92,0-1.16Q39,162.13,41.42,161.43Z"/><path class="cls-1" d="M42,142a4.61,4.61,0,0,0,3.18-3.74C43.93,138.26,37.66,146.05,42,142Z"/><path class="cls-1" d="M44.7,133.4c2.31-2.15,5.23-6.42,7.53-8.27a69.65,69.65,0,0,0-11,11C42.65,136.61,43.79,135.72,44.7,133.4Z"/><path class="cls-1" d="M42.05,113.65c.75-1.06,1.45-2.18,2.11-3.33C43.84,109.6,41.7,114.14,42.05,113.65Z"/><path class="cls-1" d="M43.2,163.65c1.76,0,9.47-6.61,9.47-8.54C52.67,154.83,41.48,163.65,43.2,163.65Z"/><path class="cls-1" d="M42.89,131.52a9.07,9.07,0,0,0,2-2.54A4,4,0,0,0,42.89,131.52Z"/><path class="cls-1" d="M47.79,145.8A51.29,51.29,0,0,0,55,137.34C54.79,140.6,44.9,143.75,44.9,148A4.86,4.86,0,0,0,47.79,145.8Z"/><path class="cls-1" d="M45.22,142.5c1.23,0,7.45-6.87,7.45-8.21C52.67,134.43,44,142.5,45.22,142.5Z"/><path class="cls-1" d="M47.24,108.24c2.1-2.29,2.1-2.56,0-.86Q44.08,110.8,47.24,108.24Z"/><path class="cls-1" d="M46.77,137.43a9,9,0,0,0,2-2.52A4.11,4.11,0,0,0,46.77,137.43Z"/><path class="cls-1" d="M47.15,121.35Z"/><path class="cls-1" d="M49.1,125.58Z"/><path class="cls-1" d="M50.25,134Z"/><path class="cls-1" d="M51.1,114.16c2.15-2,2.15-2.38,0-1.27Q47.92,115.82,51.1,114.16Z"/><path class="cls-1" d="M56,151.35c3.57-1.4-1.4.54,0,0Z"/><path class="cls-1" d="M57.32,120.08q3.15-3.4,0-.86Q54.14,122.66,57.32,120.08Z"/><path class="cls-1" d="M59.63,159c3.46-2.3-1.68,1.17,0,0Z"/><path class="cls-1" d="M63.35,82.68c12.33,6.83,27,8.83,39.76,15.13,15.73,7.84,28.36,19.26,45.09,24.85,14.69,4.9,32.65,25.58,49.87,13.45,3.48-2.47,41.59,10.58,41.59,5.8,0,3.23-14.48,32.26-7.37,31.86,6.27-.4,17.77-27.89,25.07-27.89,2,0,9.13-19.13,14.06-15.65,4.38,3.05,34.79-6.36,42.2-6.6,24.14-.77,46.41-.17,70.42,2.9a231.62,231.62,0,0,0,31.38,1.79c12.77-.11,28.1-6.13,39.19-6.13,1.12,0,8.74-7.61,7.09-7.61-3.4,0-6,4.23-9.13,4.23-3.72,0,8.57-7.62,6-7.62-1.55,0-14.05,8.17-14.05,7.62,0-3.87,9.09-4.93,9.94-9,.06-.32-7.8,3.93-8.31,3.38-.14-.17,3.31-5.43,1.94-5.43-.73,0-7.47,3.46-7.47,0a3.61,3.61,0,0,1,1.23,1.48,8.41,8.41,0,0,1-5-2.07c-.27-.17,2.86-4.39,3.4-4.88-2.19,1.16-15.07,4-14.79,3.54.42-.64,4.37-5.65,4.69-5.65-2.6,0-7.47,8.72-9.85,7.08-.55-.35,6.16-8.79,7.45-8.79-3.61,0-6.13,7.62-9.7,7.62-2.21,0,2.51-5.06,2.67-5.06-.87,0-8.8,5.73-8.51,4.91.74-2,3.31-4.46,4.76-6-1.87,1.63-4.65,4.56-6.88,5.13-1.79.47,4.67-8.25,5.2-8.25-2.63,0-6.84,6.17-8.81,7.83-3.4,2.87-1.32-2.14-2.53-2a2.45,2.45,0,0,0,2.61-1.2c-.34,4-12.4.45-7.53-2.07-.05.06-6.5,6.84-6.5,4.28,1.4-1.68,2.74-3.38,4.07-5.09,1.85.24-9.18,4.32-7.57,2.17-.32.41-.64,7.72-3,7.06-6.2-1.71-1.4-8.36,1.51-10.48-1.17,1.26-8.73,7.66-10.53,5.7-1.49-1.6,3.6-5.08,3.88-6.22-.46,1.68-15.18,7.41-15,6.36,0,.13,6-6.27,6.17-6.15-1-.85-6.17,4.89-7.62,4.89-2.16,0,2.81-5.89,2.74-5.89s-8.43,6.54-7.77,1.64a13.66,13.66,0,0,0,2.49-3.34c-7.71-.38-8.5,13.82-16.94,4.1.25-.28,4-4.86,3.41-5-.8-.09-9.83,3.24-10.08,3.54-5.22,6.24-5-4.61-6.27-5.23-5.3-2.61-1,7.29-1.39,7.74a36.17,36.17,0,0,1-5.72-3.34c-4.22-.87,1.66-5.18,1.66-6.59,0,1.09-8.13,9.87-9.64,7.61-3-4.36,6.16-10.49,7.82-14.82-.66,1.72-13.09,15.79-12.88,10.68a3.25,3.25,0,0,1,.35,3.76c-4.38,3.94-2-5.65-2-5.7.16,2.21-4.33,1.28-5,1.74-.08,0,2,4.81-.32,4.81-6.6,0,1.17-9.64,1-10.11.13.27-9.06,10.59-10.3,12a28.65,28.65,0,0,0-3.07-3.21c0,.54,4.13,6.43.89,6.43-11.38,0,2.95-13.91,2.95-16.49-.05,2.41-11.08,9.8-10.7,11.93,1.51,8.72-10.45-7.3-1.32-7.3-1.65,0-2.46,6.9-4.24,6.76-1.17-.14-5.86-4.9-4.15-6.34-7,5.92-2.82,3.48-10.08,3,10.13.62.51,11.37.37,11.84a24.12,24.12,0,0,0,3.5-5.67c7.43,7.67-15.78-1.15-6.77-1.15-5.3,0,0,0-1.73-5.28.07.25-3.67,3.39-3.65,3.46.86,4,4.83,6.92,6.05,10.22-.27-.69-3.75,4.3-4.07,4.3,1.82,0-2.33-4-2-2.53-.35-1.35,4.78-3,1-4.58-1-.41-.85,3.73-2.85,3.73a16.86,16.86,0,0,1,0-5.67c-.42-.82-6.48,10.39-7.39,4.33-.25-1.63,5.76-8,4.9-8-4.5,0-9.38,16.92-13.81,15-.3-.12,4.6-14.13,6.4-14.84-5.24,2-9.59,14.28-13.35,18.76-5.39,6.41-1.71-12.28,2.76-15.27-3.42,2.32-9.17,10.79-10.44,15-1.79,5.84-2.82-10.19-.11-7.26.41.51-6.35,8.11-6.66,7.39,1.71,3.86,7.74,4.61,8.34,7.81.19,1-12-11.66-12.78-13.1.85,1.53-5.88.09-5.31.09a12.83,12.83,0,0,0,2.55,3.14c-1-4.18-9.13,3-9,3.06-2.26-1.64-6.69-9.94-10.4-8.53a15.75,15.75,0,0,0,3.94,3.75c1.51,4.19-8.68-1.42-9.4-2.29,3,3.74-1.87,1.31-3.14,1.82-1.57.6,4.71,3.53,3.29,5.38-1.68,2.21-11.93-8.52-11.51-7.27s9.36,10.15,8,10.83-16-20.82-17.35-17.55c-.23.52,3.76,5.15,3.76,5.15a13.65,13.65,0,0,0-3.72-2c2,2.37,4,4.73,5.92,7.1.1.24-12.41-8.57-12-9-.32.34,5.46,6.61,5.58,6.88.66,1.42-12.1-10.61-6.71-10.61-.09,0-7.61-.76-6.87-1.27,1.65-1,3,6.4-.71,9-.35-1-2.29-9.57-1-8.18-.15-.17-6.29,3.27-6.1,3.13,1.91-1.38-13-14.53-7.52-14.53-7.47,0,6.33,12.66,5.91,13.15-.87.92-8-6.16-7.9-4.63a11.77,11.77,0,0,1,2.21,4.11C131.75,102.88,133,96,131,96a7.17,7.17,0,0,1-.1,2.53c-2.47,0-12-6.61-7.9-8-1.3.43-2.46,6.56-3.48,6.11.11.07-5-5.79-5.27-5.47a38,38,0,0,1,3.29,5.56c-1.71,3-9-7.55-12.27-7.55A14.3,14.3,0,0,0,107,93.5c1-3-45.82-11.89-45.82-12.86C61.89,81.32,62.64,82,63.35,82.68Zm45.16,11.59Zm12.27,2.78c1.12-2,9.23,9.68,10.13,8.67.58-.58-2.81-3.82-.73-3.82,1.91,1,2.29,2.58,1.13,4.64C128.88,108.38,119.71,99,120.78,97.05Zm13.13,12.8c1.56,1.7-2.35-2.7,0,0Zm2.59-.55c.49.87,1,1.74,1.43,2.63a6,6,0,0,1-4.16-4.22Zm2.68-3.69c-.6-.68,4.42,5.26,2.31,4.47C140.28,109.62,135.59,101.66,139.18,105.61Zm3.32,5.58a4.16,4.16,0,0,1,2.5,2.7C145,114.94,140,111.19,142.5,111.19Zm11.05-1.94c4.48-5.2,2.46,5.5,1.53,3.3a10.1,10.1,0,0,1,2.8,4.43C158,116.71,149.35,114.1,153.55,109.25Zm4.89,2.77c1.18,0,5.66,5.69,4.86,6.52C162.32,119.62,155,112,158.44,112Zm1.38,5.09Zm5.51,3.23Zm8.62-1.82a13.56,13.56,0,0,1,4.87,6.83C176.46,127.92,168.94,114.31,174,118.52Zm1.45,11.12c2.19,2.41-3.12-3.36,0,0Zm7-.85c2.14,2.31-3.06-3.36,0,0Zm4.73-9.13c1.84-.07,2.61.81,2.33,2.61C187.73,124.18,184.78,119.66,187.12,119.66Zm.93,8.45q2.35.84,0,1.7Q185.73,129,188.05,128.11Zm.36-13.53Zm2.29,8.47ZM194,126.6c1.88.72,2.33,2,1.31,3.69C193.55,131.53,190.32,126,194,126.6Zm3.14-2.84Zm-1-8.34a2.54,2.54,0,0,1,1.32,3.06C196.16,120,194.31,115.42,196.22,115.42ZM197.74,129Zm1.5-10.15a3.34,3.34,0,0,1,2.23,3C199.88,123.5,197.35,118.81,199.24,118.81Zm3.13,4.24Zm3.15,3.38Zm-.32-8c1.09-3.09,4.27.73,5.12,2.18-.23.48-3.25-2.18-3.25.22,0,.05,4.22,3.85,1.49,3.85C206.2,124.73,204.54,120.36,205.2,118.48Zm6.14,8Zm.38-10.15c2.25,0,.91,3.93-.61,3C210.3,118,210.51,117,211.72,116.28Zm2.32,2.53c.25,0,4.66,5,4.66,5.51C218.7,129.26,209.94,118.81,214,118.81Zm9.56,10.07c.31,1.53-.48,1.65-2.33.32C221.09,127.68,221.85,127.56,223.6,128.88Zm3.34-9.73c.72.28,7,5.41,5.76,6.07C229.21,127.13,225.2,118.48,226.94,119.15Zm.62,8.13c1.78.22,2.48,1.19,2.1,2.89C229.19,130.47,224.61,127.28,227.56,127.28Zm5.69-8.13c1.87-.57,2.78.21,2.7,2.32C233.85,122.72,233,121.93,233.25,119.15Zm3.31,9c1.49.39,1.93,1.24,1.27,2.42C236.73,131,233,128.11,236.56,128.11Zm-.24-13c1.73-.33,2.58.48,2.57,2.4C237.2,119.87,234.75,116.8,236.32,115.15Zm1.34,6.2a6.45,6.45,0,0,1,2.78,3.47C240.44,126.81,235.39,121.35,237.66,121.35Zm2.82,8.46Zm2.28-11c4.56,2.72-2.87,4.5-3.46.66C240,118.11,241.17,117.88,242.76,118.81Zm-.83,34.33c2-1.38-3.16,2.12,0,0Zm.06-5.55Zm.77,3c1.62-1.09-2.82,1.8,0,0ZM245.43,111c7.26-9.62,2.66,11.59-2.59,5.82C242.06,114.5,242.91,112.55,245.43,111Zm-.34,32.33Zm0-21.61a2.32,2.32,0,0,1,2.7,2C246.54,125.22,242.48,123.5,245.09,121.76Zm2,25.12a2.37,2.37,0,0,1,1.4,3.14C247.66,150.25,244.14,146.24,247.11,146.88Zm-.47-17.5c1.81-1.17-3,2,0,0Zm1.25-12.27a6.43,6.43,0,0,1,2.63,2.8C250.52,121.8,245.5,117.11,247.89,117.11Zm1.54,7.62c1.35.81,1.23,1.59-.33,2.36C247.77,126.28,247.89,125.5,249.43,124.73Zm.35,16.94c.81,0,3.1-2.12,5-1.71A7.79,7.79,0,0,1,249.78,141.67Zm1.13-27.13c1.1.83,1,1.61-.32,2.38C249.53,116.09,249.62,115.29,250.91,114.54Zm1.23,12.32a3.08,3.08,0,0,1,1.34,3.41C252.59,130.81,248.74,126.86,252.14,126.86Zm.32-5.82c3.55,1.46-3.33-1.34,0,0Zm2.21,21.19c3-4.17,0,3.4-1.43,4C251.8,145.09,252.29,143.78,254.67,142.23Zm-1.81-26.37c3.82-2.59,3.4,5.57,1.43,4.14C254.05,119.83,251.59,116.71,252.86,115.86Zm1.07-7.2c1.69.25,2.16,1.13,1.41,2.7C253.33,113.52,251.76,108.66,253.93,108.66Zm.85,14.39c1.58.56,1.58,1.13,0,1.68C253.24,124.18,253.24,123.61,254.78,123.05Zm2-11.86q2.64.51,1.91,3C256.36,115.23,254.37,111.19,256.81,111.19Zm-.08,20.33Zm1.14-12.71c.36,0,5.68,3.74,5.4,4.24a5.7,5.7,0,0,1-3.36,2.23,14.75,14.75,0,0,0-.19-4.4c.49.35-4,.92-3.31.22C256.17,120,256.66,119.25,257.87,118.81Zm2.7-4.23Zm1.59-1.69Zm3.06,11a4.11,4.11,0,0,1,2.25,2.44c.83-.75-4.29,1-3.38,1C263.27,125.79,263.65,124.67,265.22,123.89Zm-.66-5.93c1.15,1.17.87,1.83-.82,2C262.42,118.83,262.71,118.13,264.56,118Zm.64-9.17c1.14.76.91,1.49-.66,2.25C263.37,110.28,263.61,109.53,265.2,108.79Zm2.2,11.87a4.71,4.71,0,0,1,3.72,0C272.67,127.25,263.33,120,267.4,120.66Zm1.05-9.23c1.4,2.76,1,3.52-1.24,2.31C265.88,111.72,266.32,111,268.45,111.43Zm-.09,6.53Zm1.81-12.52c4.69.44.35,4.24.06,4C268.9,108.24,268.9,106.92,270.17,105.44Zm3.31,10.84c1.2.88.89,1.45-.92,1.68C271.36,117.07,271.67,116.52,273.48,116.28Zm-.32-15.07a3.69,3.69,0,0,1,2,3.68C273.46,106.73,271.07,100.43,273.16,101.21Zm.87,7.94c1.89-2.82,3.33,2.63,2.92,3.25C275.92,113.91,271.93,112.26,274,109.15Zm.55-14.46c1.25,0,5,6.46,2.38,6C275.58,100.41,271.12,94.69,274.58,94.69Zm2.7,24.39c1.4,1.39,1,1.92-1.15,1.62C274.68,119.32,275.07,118.78,277.28,119.08Zm.38-12.75c2.23,2.13,2.23,2.78,0,1.91Q274.38,105,277.66,106.33Zm1.61,7.4c1.64.71,1.49,1.28-.48,1.69C277.15,114.7,277.3,114.14,279.27,113.73Zm.38,12.7Zm-.06-24.53c1.27,1.17,8.17,5.32,8.17,7.8C287.76,114.8,276.76,99.34,279.59,101.9Zm2.3,8.44Zm4.24-8.44c1.06,0,5.09,4.94,4.35,5.74C289.55,108.66,284.11,101.9,286.13,101.9Zm1.33-1.71a12,12,0,0,1,4,4.74C290.82,105.55,285.34,100.19,287.46,100.19Zm5.44,5.91a5.67,5.67,0,0,1,3.4,2.48C296.3,112,290,106.1,292.9,106.1Zm3.55-4a3.44,3.44,0,0,1,1.93,3.77C297.46,106.92,294,101.19,296.45,102.09Zm1,8.25Zm4.72-13.19c1.59,2.4.06,5.06-1.85,6.74C298,100.62,299.84,93.61,302.18,97.15Zm-2.7,9.35c1.75-.22,2.27.48,1.53,2.14C299.25,109.85,297.61,107.74,299.48,106.5ZM301,115Zm2.17-13c-2.86-2.23,9.21,3.66,2.73,4.84-.08,0,5.61-4,4.33.22C309.56,109.21,299.1,107.74,303.12,102.06Zm1,8.79c.81,1.67.55,2.48-.81,2.44C303.09,113.19,302.86,107.27,304.09,110.85Zm2.61-14c2.5-.19,3.4,1.1,2.74,3.83C308.31,102.21,304.09,99.24,306.7,96.86ZM310,110.39a3.06,3.06,0,0,1,3.64,1.8C311.25,113.73,306.64,110.26,310,110.39Zm1-10.2c.86,0,4.07,3,2.35,4.23C309.56,107.09,309.63,100.19,311,100.19Zm3.72,20.57c-.65-.19-5-1.57,0,0Zm-.14-16.07c2.1-.33,2.69.53,1.8,2.53C314.15,108.19,313.54,107.35,314.6,104.69Zm-.45-7.49a3.39,3.39,0,0,1,2,3.59C315.62,101.38,311.75,98.75,314.15,97.2Zm4.27,11.74q2.74-.9,1.89,1.85C318.61,112.85,315.81,110.09,318.42,108.94Zm.38-7.09c1.87.59,2.36,1.61,1.45,3C318.73,106,315.4,99.85,318.8,101.85Zm1,17.81c.95.26,1.91.52,2.84.74C326,122.92,312.81,119.6,319.8,119.66Zm1.08-23c1.4-1.67,4.16-.12,4.31,2C325.45,101.87,316.45,102,320.88,96.64Zm2,8.56c2.8,3-2.48-2.73,0,0Zm2.5,3.46c2,.06,2.36.77,1.1,2.16C324.81,112,321.28,108.66,325.4,108.66Zm-.38-7.27c3.84-3.87,3,4.75-.47,3.26C323.07,103.65,323.22,102.57,325,101.39Zm5.1,2.31c.95,2,.38,2.84-1.7,2.7Q327.05,103.46,330.12,103.7Zm2-4c2.4-1.65,5.33,6.59,3.33,5.79C334.37,105.14,330.08,101.06,332.09,99.74Zm3.08,9.39c.64,1.32.17,2-1.42,2.06C333.13,109.88,333.6,109.21,335.17,109.13Zm6.3-11.78c2.55,2.57-2.75,5.37-3.71,4.49C336.19,100.37,339.27,95.18,341.47,97.35Zm-1,18.07Zm4.18-14.68c6.89,2.81-5.63,9.58-4.61,3.19A6.45,6.45,0,0,1,344.7,100.74ZM346,106.1Zm1.3,2.18c1.57-.2,2.27.51,2.12,2.16C348.94,111.23,343.34,109.92,347.27,108.28Zm.59-4.69Zm1.75,2.53a3.81,3.81,0,0,1,2.91,3.39C351.59,111.21,347.57,106,349.61,106.12Zm3.41-2.53s1.06,3.22,1.25,3C352.9,108.09,351,103.59,353,103.59Zm2.81-2.55c1.21-2,2.54-2.19,4-.61C362.53,104.05,351,107.32,355.83,101Zm.21,11.85Zm3.72-5.09a3.88,3.88,0,0,1,2.5,3.24C362.26,112.36,357,107.8,359.76,107.8Zm4.14-.92c1.84,1.36,1.94,2.25.31,2.63C361.88,109.51,360.73,103.12,363.9,106.88Zm1.5,4.9c4.78-5.64,1.93,7.27-1.08,3.89C363.55,114.16,363.9,112.87,365.4,111.78Zm.47-6.17c.59.84,1.16,1.71,1.72,2.54C365.87,110.08,361.31,101,365.87,105.61Zm3.77,3.9c1.66,1.68,1.66,2.17,0,1.51C368,109.33,368,108.83,369.64,109.51Zm.38,6.33Zm2.72-8.85c3.8,3.46-3-2.7,0,0Zm1.53,8.68q2.34,1.36.08,2.21C372.45,117.24,372.45,116.5,374.27,115.67Zm.87-10.68c1.24.85,1.4,1.8.45,2.81C374,107.8,372.29,103.8,375.14,105Zm3.17,4.58a14.48,14.48,0,0,1,4.09,5.18C382.47,118.37,374,106,378.31,109.57Zm1,6.71Zm3.48-8.43c3.82,3.47-3-2.71,0,0Zm1.17,8.43Zm6-5.75a2,2,0,0,1,.38,3.1C388.58,113.46,388.43,112.44,390,110.53Zm.23-4.43Zm1.63,1.7a6.57,6.57,0,0,1,3.72,3.39C395.61,114.34,387.43,107.8,391.89,107.8Zm4,5.66c2-.89-3.1,1.32,0,0Zm.53-9.72a4.73,4.73,0,0,1,2.65,4.72C398.8,108.85,391.34,104.8,396.46,103.74Zm1.44,11.77c1.32-1.33,1.68-1,1.11,1.07C397.73,118.72,397.35,118.36,397.9,115.51Zm2.28-6.78c1.48-.69,1.67-.15.48,1.63C399.16,111.13,399,110.6,400.18,108.73Zm3.58,10.93c3.63,0,.81,2.65-1.38,1.85C400.81,120.29,401.26,119.66,403.76,119.66Zm-1.25-3c3,2-2.95-2,0,0Zm0-6.16c1.18.76.94,1.5-.64,2.25C400.7,112,400.92,111.21,402.51,110.47Zm1.8,3.27a2.64,2.64,0,0,1,2.79,2.1C405.71,117.41,401.87,113.71,404.31,113.74Zm3.72-8.46Zm6.2,14.38Zm.78-8.47Zm.7-5.47c-.08.07,3.76,3.35,3.17,3.75C416.87,110.91,413.87,106.93,415.71,105.72Zm4,13.94Zm-.36-4.24Zm3.43-3.4Zm2.33,2.56c3.72,0-.08,3-1.1,1.94C423.16,115.23,423.53,114.58,425.11,114.58Zm.12,7.49c2.27-1.37,3.84-1.14,4.73.73C429.36,124.48,422.72,122.4,425.23,122.07Zm-.16-3.07c-.85-.26,7.16-2.57,6.57-1.84,2.12-2.72-2-6.6,4.63-2.32A11.4,11.4,0,0,1,425.07,119Zm.79-10.76c2.27-1.47,2.64,3,.32,3C424.86,110.44,424.76,109.47,425.86,108.24Zm4,2.1c1.84,0-.77,3.84-1.81,3.33A3.18,3.18,0,0,1,429.83,110.34Zm2.68-2.54Zm1.91,1.29a5.59,5.59,0,0,1,4.65,2.17C439.07,115.2,431.78,110.87,434.42,109.09Zm3.24,6.33A2.17,2.17,0,0,1,435.8,118,2.17,2.17,0,0,1,437.66,115.42Zm1.68,2.54c.11,0,5.16-5.52,5.16-2.54,0,.87-5.29,5.22-6.24,5.34A1.82,1.82,0,0,1,439.34,118Zm1.21-5.78q1.72,1.13-.68,2.22C438.72,113.67,438.94,112.92,440.55,112.18Zm1.25,8.46c2.3-1,2.49-.56.62,1.21C439.19,122.94,439,122.55,441.8,120.64Zm8.3-1.79c2.12-.17-2.12,4.07-3.08,2.3A8.06,8.06,0,0,1,450.1,118.85Z"/><path class="cls-1" d="M64.07,165.73Z"/><path class="cls-1" d="M64.62,151a8.2,8.2,0,0,0,2-2.52A4,4,0,0,0,64.62,151Z"/><path class="cls-1" d="M65.84,153.07c3-1.95-1.73,1.17,0,0Z"/><path class="cls-1" d="M70.51,30c2.51,0,.8-4.39-.07-3.79A2.86,2.86,0,0,0,70.51,30Z"/><path class="cls-1" d="M71.75,24.87a2,2,0,0,0,1.6-2.54A2,2,0,0,0,71.75,24.87Z"/><path class="cls-1" d="M85,39.05c1.4-2.48,1.25-2.65-.5-.51Q83.05,41.22,85,39.05Z"/><path class="cls-1" d="M88.36,32.92Z"/><path class="cls-1" d="M106.59,54.5c1.68-1.69,1.68-2.25,0-1.7C104.91,54.5,104.91,55,106.59,54.5Z"/><path class="cls-1" d="M111.64,55.76c2.93-1.95-1.76,1.15,0,0Z"/><path class="cls-1" d="M131,92.59c2.1-1.49,2.1-1.76,0-.85C129,93.21,129,93.5,131,92.59Z"/><path class="cls-1" d="M140.65,95c3.62-3.75-2.72,2.72,0,0Z"/><path class="cls-1" d="M142.66,96.39c3-2-1.84,1.17,0,0Z"/><path class="cls-1" d="M158.8,101a6.34,6.34,0,0,0,3.12-3.8A5.87,5.87,0,0,0,158.8,101Z"/><path class="cls-1" d="M164.7,102.72a8.74,8.74,0,0,0,2-2.49A4,4,0,0,0,164.7,102.72Z"/><path class="cls-1" d="M167.12,51.11c.34-1,.72-2,1.08-3C168.2,48,164.63,55.91,167.12,51.11Z"/><path class="cls-1" d="M172.68,106.1a3.26,3.26,0,0,0,1.83-3.38A3.35,3.35,0,0,0,172.68,106.1Z"/><path class="cls-1" d="M177.9,61.26Z"/><path class="cls-1" d="M181.79,108.66a9,9,0,0,0,1.88-3.29C183.49,104.93,180.32,108.66,181.79,108.66Z"/><path class="cls-1" d="M199.07,110.34a3.27,3.27,0,0,0,1.84-3.36A3.29,3.29,0,0,0,199.07,110.34Z"/><path class="cls-1" d="M203.82,110.34Z"/><path class="cls-1" d="M210.57,110.32c3.86-3.65-3.1,2.74,0,0Z"/><path class="cls-1" d="M215.14,109a2.17,2.17,0,0,0,1.38-2.86A2.16,2.16,0,0,0,215.14,109Z"/><path class="cls-1" d="M216.37,114.58Z"/><path class="cls-1" d="M222.44,104.42Z"/><path class="cls-1" d="M227.56,107.8Z"/><path class="cls-1" d="M232.68,100.62c2.92-1.94-1.71,1.12,0,0Z"/><path class="cls-1" d="M239.59,96.46c2-1.49,2.15-2,.51-1.64C238.05,96.45,237.88,97,239.59,96.46Z"/><path class="cls-1" d="M248.85,95.61c.56-.77,1.1-1.57,1.67-2.36C250.52,91.62,244.84,99.5,248.85,95.61Z"/><path class="cls-1" d="M251.14,79.54c1.79-1.19,7.69-9.42,7-11.77C258,67.33,251.57,79.26,251.14,79.54Z"/><path class="cls-1" d="M254,98.24a2.13,2.13,0,0,0,1.67-2.74A2.24,2.24,0,0,0,254,98.24Z"/><path class="cls-1" d="M254.33,180.23s11.52-13.86,10.23-8.21c.57-2.34,14.16-17.18,16-14.87,1.13,1.32-5.36,2.32-3.09,4.64.54.52,10.33-9.31,10.33-9.08,0-14.61-21.72,10.58-21.42,10.49,1.37-.42,9.79-7.86,9.79-7.26C276.13,155.67,252.92,181.18,254.33,180.23Zm31-29.17Z"/><path class="cls-1" d="M254.26,81.57c1.4,0,4.8-5.55,4.8-7C259.06,72.42,253.07,81.57,254.26,81.57Z"/><path class="cls-1" d="M259.76,72.74a7,7,0,0,0,1.34-3.82C260.51,68.67,258.15,73.8,259.76,72.74Z"/><path class="cls-1" d="M264.48,162.8Z"/><path class="cls-1" d="M270.23,90a8.81,8.81,0,0,0,1.89-3.28C272,86.35,268.77,90,270.23,90Z"/><path class="cls-1" d="M279.16,86.65Z"/><path class="cls-1" d="M284.54,158.59a6.63,6.63,0,0,0,2.14-4.23A6.71,6.71,0,0,0,284.54,158.59Z"/><path class="cls-1" d="M287.76,161.54c3.11-2-1.08.76,0,0Z"/><path class="cls-1" d="M288.48,158.59Z"/><path class="cls-1" d="M289.16,151.82c2.28,0,11-5.88,11,2.15,0-1.47-7.79,6.06-3,5.37,9.13-1.29.93-9.11.85-10.21-.43-5.84,7.13-3.23,5.6-.89a20,20,0,0,0-3.09-1.11c0-.63,4,15,.4,12.74,2.86,1.92,2.82-7.07,5.39-5.58,4,2.35-6.35,10.31-4.29,12.48,1.81,2,6.48-10.73,7.45-10.73,1.62,0-1.68,7.77-1.56,8.35.33,1.44,7-12.55,7.87-13.1a10.64,10.64,0,0,1,.42,3.85,5.81,5.81,0,0,1,3.32-1.23c2.31,1.58-8.58,15-6.63,17.11,0,0,5.52-8.82,5.56-8.81.7.78-3,9.8-2.46,9.63,2.68-1,12-21.08,13.33-18.23,3.36,7.53-24,30.81-19.08,39.65-.56-1,7-6.77,7-7.87a1.94,1.94,0,0,0-2.23-.74c1-10.43,28.33-25.06,37.3-28.34,9.15-3.33,43.76-4.49,48.79-13-.19.3-17.88-7.08-21.65-7.16a2.39,2.39,0,0,0,1,1.4,3.62,3.62,0,0,1-4.6-.08,6.62,6.62,0,0,1,1.62-1.42c-10.84-7.39-33.89-3.71-45.89-2.37-12.46,1.39-24.86,6.19-37.19,7.1a6.74,6.74,0,0,0,1.89,2.36c.87-4.76-7.22,3.56-5.61,2.52a2.51,2.51,0,0,1,3.33,1.11C294,146.59,287,151.82,289.16,151.82Zm10.28-11c2.18.71,2,1.25-.48,1.69C296.81,141.81,297,141.25,299.44,140.81Zm5.2-1c.53,0,6.42-1.85,5.86-.25C309.34,142.84,298.76,140.19,304.64,139.83Zm1.51,4.57c1.87-1.24,3.22-1,4.05.74.09-.45-5.34,4.12-4.82,4.12C304.21,149.26,304.26,145.13,306.15,144.4Zm1.74,4Zm2.46-2.18c1.85-.23,2.48.55,1.85,2.34C309.71,149.24,309.08,148.45,310.35,146.24Zm2.25-3.74c1.57,0,1.93.66,1.06,1.95C312.67,145.55,308.89,142.5,312.6,142.5Zm.45,7.27c1.4.37,1.3,1-.3,1.83Q310.65,151.14,313.05,149.77Zm2.65-12.34c-.44,0,7.86-1,6.86,0-.79.79-9.08,3.18-10.19,2C311.61,137.18,312.71,136.53,315.7,137.43Zm-.85,6.77c1.34.68,1.47,1.55.41,2.53C313.94,146,313.79,145.19,314.85,144.2Zm2.4,3c1.29.32,1.74,1.17,1.32,2.57C317,150.16,316.55,149.3,317.25,147.17Zm4.19-6c-.09,0,5.11-1.34,5.11-.27,0,.67-7.2,3.88-8.11,4,2.38-.43-2.46-3-1.83-1.72A7.15,7.15,0,0,1,321.44,141.16ZM320,159.42Zm-.42-13.54Zm.87,3.38c1.52,0,1.74,5-.07,3.78A3.4,3.4,0,0,1,320.42,149.26Zm1.95,20.14c.74-1,1.48-2,2.2-3,0,0-1.29,7.45-3.52,7.45C319.74,172.44,320.19,171,322.37,169.4Zm.78-22.46c-.4-.8,4.61,4.88,1.87,4.88C324.3,151.82,318.67,146.09,323.15,146.94Zm1-2.74Zm4.44,14.46c.42-3.43,1.79-5.12,4.14-5,0,1.59-4.31,10-5.83,10C326.34,161.82,326.91,160.15,328.63,158.66ZM328,142.5a1.74,1.74,0,0,1,1.32,2.29C328.29,145.91,326.25,142.5,328,142.5Zm1.63,6.52c1.7.64,2,1.68.94,3.08C329.69,152.43,326,148,329.67,149Zm1.93-7.35c2.24,2.66,2.11,3.1-.38,1.26C329,140.25,329.12,139.83,331.6,141.67Zm0,5.92Zm1.57,9.81c.77-.67,1.57-1.33,2.34-2,1,1-4.2,5.37-4.23,5.23Zm1.6-7.13c2,2.17-1.55-1.75,0,0Zm1.91,2.4Zm-.43-13.56Zm.39,8.48Zm.78-12.71Zm2.33,5.93c.71,1.82.47,2.1-.78.86C338.25,139.83,338.52,139.55,339.75,140.81Zm.75,6.78Zm.4-9.63c4.32,1.81-3.55-1.38,0,0Zm1.49,13.95c5-5.08-2.12,4.46-1.81,2.54ZM343.47,134a2.88,2.88,0,0,1,3.18,2.09C346,136.81,339.29,134,343.47,134Zm1.17,5.83c2.87,3.22-2.64-2.8,0,0Zm.48,12.8a3.11,3.11,0,0,1,3.43-1.34C348.29,152.52,342,158.17,345.12,152.67Zm.53-5.94q2,1.2-.35,2.37C344,148.3,344.11,147.51,345.65,146.73ZM348,140Zm2-4.91c2.21.78,2.75,1.34,1.62,1.7C352.15,137.64,344.72,134.26,350,135.05Zm1,10.83c1.67,1.71,1.67,2.25,0,1.71C349.31,145.88,349.31,145.32,351,145.88Zm2.47,7.07a2.3,2.3,0,0,1-2.46,2.16A2.42,2.42,0,0,1,353.47,153Zm.25-2.84c2.06.12,2.06.5,0,1.1C351.64,151.1,351.64,150.74,353.72,150.11Zm3.4-14,2.53,1.74c.59,2.83-5.46-2.11-6.08-1.86C354.76,136,355.94,136.05,357.12,136.09Zm.47,9.79Zm7.21-9.27c5.37.09-3.71,2.15-2.95.82Zm1,6.76c5.29,0-2.35,3.59-3.2,2.7A2.74,2.74,0,0,1,365.82,143.37Zm14.42,4.46c.17.06-3.23-1.34,0,0Zm5.75-9c1.58,1,1.46,1.7-.4,2C384,139.79,384.11,139.13,386,138.81Zm5.05,1.4c3.32-.3-5,.39,0,0Z"/><path class="cls-1" d="M289.31,148.42Z"/><path class="cls-1" d="M290.41,82.42a8.23,8.23,0,0,0,2-2.52A3.93,3.93,0,0,0,290.41,82.42Z"/><path class="cls-1" d="M295.13,153.8c3.25,1.27-4.16-1.68,0,0Z"/><path class="cls-1" d="M302.1,79.35c1.61-1.28,1.61-1.65,0-1.17C300.54,79.45,300.54,79.83,302.1,79.35Z"/><path class="cls-1" d="M309.5,173.41c4.29-2.87-2,1.38,0,0Z"/><path class="cls-1" d="M311.85,174.65Z"/><path class="cls-1" d="M311.35,167.88a10.35,10.35,0,0,0,2.48-5.74C313.76,162.06,310.33,167.88,311.35,167.88Z"/><path class="cls-1" d="M314.15,176.77c3-1.94-1.86,1.15,0,0Z"/><path class="cls-1" d="M314.15,76.5Z"/><path class="cls-1" d="M314.45,192.42Z"/><path class="cls-1" d="M314.85,161.12a3.15,3.15,0,0,0,1.38-3A3.16,3.16,0,0,0,314.85,161.12Z"/><path class="cls-1" d="M314.93,157.3c3.53-2.39-1.93,1.25,0,0Z"/><path class="cls-1" d="M316.93,82.21q2.13-3.72-.46-.51C315.53,83.49,315.68,83.65,316.93,82.21Z"/><path class="cls-1" d="M326.17,79.87a5.58,5.58,0,0,0,2.76-3.37A3.8,3.8,0,0,0,326.17,79.87Z"/><path class="cls-1" d="M331.22,83.91q3.18-3,0-1.07C329.12,84.85,329.12,85.2,331.22,83.91Z"/><path class="cls-1" d="M334.87,95.4a2.34,2.34,0,0,0,1.85-2.81A2.37,2.37,0,0,0,334.87,95.4Z"/><path class="cls-1" d="M338.59,85c1.67-1.68,1.67-2.25,0-1.68C336.91,85,336.91,85.54,338.59,85Z"/><path class="cls-1" d="M342.87,86.23c3.49-2.26-1.9,1.19,0,0Z"/><path class="cls-1" d="M344.42,90Z"/><path class="cls-1" d="M353.17,212.27c3.63-1.45-1.42.55,0,0Z"/><path class="cls-1" d="M371.56,203.43Z"/><path class="cls-1" d="M378.2,203.71a17.83,17.83,0,0,0,6.09-1.11c-1,1-8.3-.35-10.38.86A5.32,5.32,0,0,0,378.2,203.71Z"/><path class="cls-1" d="M376.19,199.2Z"/><path class="cls-1" d="M376.8,195.87c1.91.21,5.73,3.25,7.17.73,1.21-2.08-4.58-1.81-4-1.19a29.38,29.38,0,0,1,1-3.82,3,3,0,0,0-3.29-.09C377.76,191.71,381.34,196.45,376.8,195.87Z"/><path class="cls-1" d="M383.66,193.18c2-.09-3.23.25,0,0Z"/><path class="cls-1" d="M383.74,200a40.21,40.21,0,0,1,4.12-3.26C387.86,192.9,382.42,199.83,383.74,200Z"/><path class="cls-1" d="M385.76,202.49c3.56.41,23.82-5.45,23.82-8.31a10.45,10.45,0,0,0-4-.61,2.42,2.42,0,0,1,.83-2.79c2.5-.87,8.12,5.24,13.37,3.94a4.09,4.09,0,0,1-1.13-1.63c2-2,10-1.54,10.4-1.68,2.89-1.16,17.82-9.38,18.18-10,.75-1.34,15.07-8.73,16.88-8.41a18.77,18.77,0,0,1-.81,3.05c.32.36,53.14-29.38,55.12-24-1.32-3.6,28.23-12.61,33.37-14.49a107,107,0,0,1,30.88-6c9.66-.59,19.32,4.44,28.85,2.21,16.16-3.86,28.35-7.76,45.58-4.25,16.75,3.45,34.92,8,52,7.13C721.16,136,730.63,132,741,126c4.24-2.44,10.68-5.59,14.06-9.45.95-1.09,11.88-19.74,9-19.74-4,0-12.57,20.31-17.94,20.31-.45,0,7.15-11.1,7.15-12,0,.15-9.25,9.47-10.31,9.47.5,0,4.9-9.27,5.09-10.17,0,.12-7.34,10.34-7.68,10-1.4-1.44,4.52-7.47,3.33-8.78-.93-1-7.84,14.68-9.92,13.9,0,0,8.67-17.61,8.71-17.61-1.91,0-9.09,18.44-11.66,15.65-1.12-1.26,7.69-13.11,7.69-15.25,0-1.21-4.78,8-6.28,6.51-2-1.94,2.88-7.77-5.29-7.77-3.72,0,5.62-5.35-.53-5.92a3.88,3.88,0,0,0-.68,3.36c.72-1.28-12.66-3.72-12.47-4.09A6.26,6.26,0,0,1,716,93.15a6.83,6.83,0,0,0-3.29-2.24c-.27,0,.38,8.38-4.78,5.87-.93-.47-8-3.94-8.38-4.69,1.14,2,8.07,3.16,6.4,6.39-1.67,3.39-13.81-7.91-16.44-9.08,2.74,1.21-3.71,6.41-3.71,3.94,0,3.44,7.76,2.89,6.49,6.58-1.62,4.64-8.87-5.53-11.44-4.59.79-.27,5.28,4.14,3.31,6.32-2.91,3.21-4.33-4-3.67-4-.75,0-10.26-4-8.83-4.66a28.43,28.43,0,0,1-3.27,3.81c.29,0-7.41-4.17-7.41-5.5,0-4.76,7.58,2.12,8.25,2.1.28,0-7.85-6-7.74-5.92-.07-.07-3.25,7.52-3.29,7.55a3,3,0,0,0-2.66-.93c0,1.71,3.29,2.36.45,4.53a29.49,29.49,0,0,1-5.58-2.41c-1,1.07,6.79,3,3.58,5.23a33.23,33.23,0,0,1-4.67-2.4s4.33,5.37,2.65,5.37c-11,0-.92-8.54-3-10.76a6.18,6.18,0,0,1-3.23,1.39,5.42,5.42,0,0,1,.26-3.83c-1.19-1.45.45,8.59-1.53,7.82-4.31-1.69-.4-2.58-4.16,1.39-4.69,5.1-3.93-10.79-1-9.43-1.48-.68-3.24,6.65-4.92,6.65-.53,0-3.33-4.93-4-3,.9-2.5,1.83,7.84,1.83,7.71,0,3.63-6.91,7.15-6.17,3.13.82-4.23,5-3,3.88-8.52.79,5.2-4.94,3.18-5.67,3.18a11.54,11.54,0,0,1,1,4.17c-1.67,1.17-3.42,7.4-6.64,4.8-1.25-1,2-10.92,2.61-11.7-1,1.31-4.55,11.61-7,12-4.54.67,0-9.83.28-10.19-.7.93-7,13.84-8.51,12.86-2.92-2,3-8.45,3-10.3,0-.56-7.35,11.73-7,11.45a3.78,3.78,0,0,1-3.61-1.51,12.24,12.24,0,0,0,1.77-3.67c.31.3-17.16,8.79-17.06,8.51a15.51,15.51,0,0,0,2.58,1.58c-1.62,1.51-3.46,1.61-5.42.28,6.07,4-11,4.91-10.82,3.54l3.67-6c-1.53.07-7.18,9.07-8.73,7.1a11.42,11.42,0,0,1,1.15-3.08c0,3.93-12.93,4.11-13.08,5.26.1-.74,5-6.3,5-6.32-2.27-4-5.07,7.49-7.45,7.49-1.53,0,2.55-4.86,1.19-5.39-1.65-.62-4.69,11.06-8,7.51.65.71,4.92-7.19,2.92-7.19-.91,0-11.12,1.4-11,1.1,1.12-3.09,6.9,5,6.85,4.9.11.2-3.57,5.84-5,2.47a30.05,30.05,0,0,0,2-3c0-5-20.45.76-17.11,5.28,1.65,2.23,4.16-4.24,4.79-1.76.36,1.4-4.35,9.2-5.79,7.56a11.2,11.2,0,0,1,1.29-3.34c0-1.44-6.93-.14-7.64,1.56-2.88,6.93-4.54-2.13-3.73-2.07.06,0-8,5.76-8,4.1,1.49.2,3,.4,4.48.58.64,1-17.77,5.73-17.68,7,0,2.52,5.24,1.16,6.2,1.84.1.06-10.86,5.69-10.86,4.25a10.2,10.2,0,0,0,2.47-2.56c-.38,0-12.32-5.17-12.32-.57,0,2.7,9.07-.23,9.07,2.72,0,1.76-17.23,9-17.53,8.61-1.62-1.88,8.21-9.73,7-13.25-1-3.14-4.59,8.36-6.25,8.36-2.12,0,1.25-5.27,1-6,.17.54-4,5.76-5.79,4.52-.18-.13,3.69-11.3,3.23-11-2.39,1.36-4.27,10.87-6.8,10.87-1.62,0,2.74-7.62,2.48-8.11,3.91,7.68-17,8.51-17,6.34,0,1.49,9.68,1.43,10.89,2.24,1.36.87-2.21,6.83-4.61,5.09a6,6,0,0,1-.33-3.67c-1,.23-1.94,2.93-2.76,3.61.91,1,4-.06,4.3,2.1q-.89,2.61-3.27,2.31a21.13,21.13,0,0,0,.51-2.84c-2.25-.07-10.23,2-10.11,3.27a7.82,7.82,0,0,0,1.24-3,9.48,9.48,0,0,0-6.33-.53,15.14,15.14,0,0,1,4.12,1.83c.24,1.16-14.54,6.64-11.48,6.64-1.68,0-16.31,3.74-16.31,1.68,0,1,6.67,8.37-3.48,7,8.37,4.12-3.16,5.57.24,9.43a22.37,22.37,0,0,0,4.6.79c.74,1-8.13,2.42-8.17.42,0-.47,4.84-8.18,3.52-8.7s-7.34,12.1-7.34,7.36a13.73,13.73,0,0,0,1.63-2.63c.66,1.34-2.61-4.4-1.16-3.42-1.07-.74-11,13.24-10.58,15.78-.1-.56,14.27-11.13,15.26-5.82.13.76-4.7,6.62-4.94,6.15-.34-.63,3.33-5.15.72-5.15,1.51,0-7,5.43-6.32,3a19.27,19.27,0,0,1,4,2.24C398.58,198.36,387.15,202.63,385.76,202.49Zm10.63-13.87c1.54-1-3.43,2.29,0,0Zm15.44-5.47c-.68,0,.84-3.79,4-2.07-.8.95-4,6-5.33,5.11C409.64,184.6,410.09,183.58,411.83,183.15Zm1.63,5c3.12,0,9.88-5.07,12.57-5.07.94,0-3.29,5.73-3.88,5.89-1.17.88-2.32,1.81-3.42,2.79C415.54,192.86,412.15,188.19,413.46,188.19Zm1.47-12.68a25.71,25.71,0,0,0,.38-3.6,6.51,6.51,0,0,1,4.73,1.17,14.45,14.45,0,0,0-2.9,4.24,6.82,6.82,0,0,0,3.59,1.23c.86,2.39-7.48.07-7,.15A2.29,2.29,0,0,1,414.93,175.51Zm-.32,9.64c.7-.73,3.65-4.18,4.2-3.8C423.38,184.39,410,190.19,414.61,185.15Zm6.11-2.29c1.13-3.46,2,4.49-1.74,4.49A5.45,5.45,0,0,1,420.72,182.86Zm.19-9.3a1.94,1.94,0,0,1,2.62,1.19C423.53,175.82,418.73,176,420.91,173.56Zm2.68,5.33Zm-.51-9.59a46.22,46.22,0,0,0,5.5,1C431.21,175,418.07,171.46,423.08,169.3Zm2.84,5.35c1.66.73,1.49,1.29-.48,1.7C423.8,175.64,424,175.07,425.92,174.65Zm2.83,4.58c1.64,1.76-3.93,2.63-3.57,1.13A4.29,4.29,0,0,1,428.75,179.23Zm-1.64,6.93c2-.54,2.17-.16.42,1.16C425.44,187.91,425.33,187.51,427.11,186.16Zm2.19-11.51c1.31.06,1.83.7,1.53,2C429.68,177.87,426.65,174.65,429.3,174.65Zm.41-8.44c.91,0,5.24,1.13,5.13.92,1.49,3.16-4.6,1.61-5.48,1.61Q426.89,167.26,429.71,166.21ZM431.4,184c-.32,0,4,1.84,3.66,1C436.61,188.72,426.44,184,431.4,184Zm.3-13.29a2.09,2.09,0,0,1,.87,3C431,174.56,428.68,170.67,431.7,170.67Zm5.43,5.39c3.23,1.29-1.35,3.85-2.12,3C434.69,177.3,435.39,176.28,437.13,176.06Zm-1.93-3.94Zm2.46,9.59c.09,0-3.16-1.39,0,0Zm1.26-9.4c2.38.74,2.27,1.53-.32,2.34C436.26,173.92,436.33,173.14,438.92,172.31Zm-1.09-5.78c3.42-3.73.13,3-.56,3C436.43,168.55,436.61,167.52,437.83,166.53Zm5,12.72c1.16.11,2.29.23,3.44.32.15.23-7.18,1.83-7,.53C440.49,179.84,441.68,179.54,442.87,179.25Zm-.32-9.62a2.19,2.19,0,0,1-2.7,1.58C440.17,170,441.08,169.46,442.55,169.63Zm-1.76-1.75Zm1.36-3.36a6,6,0,0,1,6.75,1.15c-1.34,4.46-3.68-1.19-2.91-1.16S436,168.14,442.15,164.52Zm.65,8.07c2.4-1,13-2.09,14-6.19a13.05,13.05,0,0,0-3,1.83,3.3,3.3,0,0,1,2.33.34C456.15,174.39,437.22,174.86,442.8,172.59Zm2.55-2.8c4.25-.35-5.33.42,0,0Zm3.8,7.41ZM452.67,163q2.18-3.74,2.15-.19c-.06.27-3.23,3.23-3.27,2.93C451.93,164.81,452.29,163.89,452.67,163Zm4.25-7.12c4-5.23-1.55,3.91-1.55,3.43C455.88,158.17,456.39,157,456.92,155.87Zm1.44,5.42c4.95-.78-1.59,2.28-1.1,2.08C455.58,162.71,456,162,458.36,161.29Zm2,5.39c2.44.62,12.84-7.6,13.39-7,.94,1-12.67,9.59-15.41,8.63C457.84,167,458.51,166.45,460.36,166.68Zm-.17-10.89c5-7.32-3.08,10.28-2,3.57C458.85,158.17,459.51,157,460.19,155.79Zm4.9,13c1.66.72,1.49,1.26-.46,1.68C463,169.7,463.16,169.15,465.09,168.74Zm-.42-11.44c4.11-4.06-1.47,4.37-1.51,2.9C463.67,159.23,464.16,158.26,464.67,157.3Zm10,4.24q1.68-1.84,3.19-3.81c2.31,0-4.66,7.19-4.08,6.26C472.65,163.33,472.93,162.52,474.67,161.54Zm6.36-2.12c1.62.73,1.47,1.28-.49,1.7C478.91,160.4,479.06,159.83,481,159.42Zm2.28-3.8a4.25,4.25,0,0,1,4.63-.42C487.94,157.77,480.67,157.38,483.31,155.62Zm10.31-3.77c3.61.1-1.76,2.06-1.95,1.94C491.18,152.29,491.8,151.64,493.62,151.85Zm3.32,1.1c3.77-1.56-1.13,3.84-2.25,3.9A4.22,4.22,0,0,1,496.94,153Zm-.45-8.75c1.64-.12,2.23.64,1.7,2.19C497,148.38,491.69,144.2,496.49,144.2Zm2.7,5.61c3.52-1.38-4.27,1.75,0,0Zm3,1.29,2.91-.34c.13.12-3.8,3.6-4.46,3.6Q498.3,152.38,502.22,151.1Zm.92-8c3.75-1.53.42,2-.15,2C501.52,144.52,501.55,143.86,503.14,143.05Zm4.69-2.57c1.27-1.5,2.67-1.74,4.18-.71C512,142,506.39,144.54,507.83,140.48Zm2.48,7.94c.45,1.15-.08,1.69-1.65,1.65C508.18,149,508.73,148.42,510.31,148.42Zm2.4-2.82c-.17,1.4-1,1.91-2.35,1.57C510.54,145.77,511.29,145.26,512.71,145.6Zm4.21-10.08c1.33-.28,2.1.26,2.35,1.71a4.5,4.5,0,0,1-4.63,1.53A5.35,5.35,0,0,1,516.92,135.52Zm-.66,10.36c1.61-.51,1.61-.11,0,1.13C514.66,147.53,514.66,147.17,516.26,145.88Zm9-5.92c.28,1.5-.41,2.35-2.09,2.54C522.86,141,523.56,140.17,525.24,140Zm1.71-4.74c-1.18.74-1.06-2.87,1.34-1.19A3.11,3.11,0,0,1,526,138.1,9.47,9.47,0,0,1,527,135.22Zm2.19,3c-.7,0,4.25,1.62,4.4,1-.34,1.38-5.57,3.2-6.33,2A3.71,3.71,0,0,1,529.14,138.26Zm.39-9c5.28-3.72.72,3.94-.87,3.94C527,131.89,527.23,130.57,529.53,129.24Zm1.84,3.75c.76-2.39,1.76-2.94,3-1.72a13.82,13.82,0,0,1-3.81,5.18C529.37,135.6,529.65,134.45,531.37,133Zm2.82-5.43c3-1.28,1.74,3.31,0,2.61Q531.87,128.87,534.19,127.56Zm1.32,5.3c1.59-1.14,2.44-.78,2.51,1.09C537.55,134.84,532.56,136.11,535.51,132.86Zm3.46,2.87c.91-1.55,2-2,3.31-1.27a7.15,7.15,0,0,1-3.67,3.8C537.15,137.86,537.27,137,539,135.73Zm6.24-2.11a1.79,1.79,0,0,1-1.55,2.11A1.7,1.7,0,0,1,545.21,133.62ZM544,130.57a31.74,31.74,0,0,0,4.48-.85C548.48,133.73,541.2,130.83,544,130.57Zm7.56,1.34c1.08-.73,6.73-2.83,7.54-.53C559.69,133,548.48,134,551.56,131.91Zm7.81-5.48c1.66.7,1.51,1.26-.47,1.68C557.27,127.39,557.42,126.84,559.37,126.43Zm1.89,3.38Zm9.3-5.37c3.59-1.39-4.29,1.72,0,0Zm6-.47c3,.11-.34,2.48-1.3,1.61C573.47,124,573.92,123.5,576.55,124Zm3.56-.11a21.36,21.36,0,0,1,5-.35C589.22,126.24,575.69,124.18,580.11,123.86Zm8.62-.36c4.46-.93-4,3-2.53,1.23Zm5.55-.45c.9.26,1.8.56,2.67.84,1.06,1.85-5.43,2.82-6.43,1.7C591,123.8,592.26,123,594.28,123.05Zm-1.09-4.51Zm3.61-3.36q2.55-2.75,3.8-.12C600.83,120.51,592.53,120.21,596.8,115.18Zm5.56.66a4.79,4.79,0,0,1,3-3.31c3.12,1.29-2.42,6.07-3.56,6.52C600.49,118.17,600.64,117.09,602.36,115.84Zm4.7,4.82s3.51-5.24,4.33-5.24c1.29,0-4.33,10.16-7,10.16Q602.13,122.85,607.06,120.66Zm5.66,7.53c2.44-.19-2.67,3.34-4.14,1.7A5,5,0,0,1,612.72,128.19Zm-1.36-18.68a3.33,3.33,0,0,1-1.84,3.38A3.33,3.33,0,0,1,611.36,109.51Zm.36,10.32c-.34.71,5.44-6,2.3-6.16-.36,0,7-2.31,5,1.89-.34.66-7.31,10.38-8.35,7.2C611,121.8,611.36,120.82,611.72,119.83ZM617,109.51a3.82,3.82,0,0,1,3.42,3C619,114.06,614,109.51,617,109.51Zm2.18,8.37c1.05-2.46,2.47-3,4.2-1.6,0,0-4.83,5.07-5,5.07C617,120.4,617.31,119.25,619.15,117.88Zm2.94-5.39a3,3,0,0,1,3,2.52C624.31,115.9,619.58,114.19,622.09,112.49Zm2.33,5.54c.91-.87,1.82-1.74,2.7-2.61,1,0-5.08,6.3-4.82,5.46C623,119.92,623.7,119,624.42,118Zm.1-9a1.93,1.93,0,0,1,3.78.4A3.7,3.7,0,0,1,625,112.6C623.44,111.93,623.29,110.74,624.52,109.07Zm4.23,2.63c2.06-1.34,3.5-.79,4.25,1.65C632.76,114.06,625.44,116.58,628.75,111.7Zm.87,5.41Zm2.72-8.83c2.57.91-.79-2.47.44-4.09,4.61-6.1,1.81,7.33,1.81,6.15C634.59,113.93,627.6,106.65,632.34,108.28Zm3.09,11.84c2.77,1.83-2.86-1.75,0,0ZM637,100.19c1.8.7,2.35,1.87,1.65,3.55C636.07,106.56,632.21,97.46,637,100.19Zm-.85,11Zm1.59,4.23Zm.36-7.88c1.3-.56,1.15-6.59,3.42-3.65.81,1-2.17,6.09-3.19,6.3C636.52,109.68,636.44,108.79,638.09,107.54Zm4.25,15.64c2.52.57,2.92,1.47,1.18,2.7C642.12,126.45,636.16,120.79,642.34,123.18ZM641,118.3c2,.64,2.21,1.59.55,2.85C643.12,120.7,635.65,118.08,641,118.3Zm-.17-8.47c.32-.21,4.52,1.19,4.42,1.43C644.44,114,638.07,111.78,640.87,109.83Zm1.17,5.09c.19.07,4.1,2.64.3,1.6C640.34,115.57,640.25,115.05,642,114.92Zm.62-15.58c3.47,0,.59,4.5-.7,3.34C640.87,101.19,641.11,100.08,642.66,99.34ZM646,122.19c2.27-.54,2.82-.09,1.69,1.36a3.44,3.44,0,0,1-4.54-1.15C644.08,122.34,645.05,122.27,646,122.19Zm-.34-15c1,.7,1.91,1.41,2.86,2.15-.2-.14-5.26,2.78-5.37-2.59C643.48,105.09,644.31,105.22,645.65,107.15Zm0,12.22c5-1.44,0,2-.17,2C643.34,120.88,643.4,120.21,645.61,119.37Zm.16-17.35c2.64-.6-.59,3.2-1.16,2.8C643.76,103.42,644.12,102.49,645.77,102Zm3.92,2.34c2.75,2.45-.56,4.13-2.36,2.54C646.61,104.56,647.41,103.72,649.69,104.36Zm-1.53,9.92c2.44-1,1.84,3.27-.43,2.34C646.61,115.67,646.77,114.89,648.16,114.28Zm1,9.17c2-1.49,2.84-1.16,2.52,1C650.7,125.58,645.52,126.28,649.11,123.45Zm3.2-4.93,2.87-.22c2.68,1.41-7.67,4.69-6,1.73Zm-1-7.82c.72.28,2.86-5.81,5.51-1.12S647.33,108.94,651.3,110.7Zm.34,4.72Zm2.27,7.72c.25-.44,4.33-3.46,3.84-4.06C662.23,124.78,651.44,127.25,653.91,123.14Zm.31-9.41c1.94.07,2.91,1,2.89,3C656,117.45,651.61,113.73,654.22,113.73Zm2.49-7.94c2.08.88,2.48,1.83,1.15,2.87a6.46,6.46,0,0,1-4-4Zm-.79-4.45c1.85.72.89-4.63,2.91-4.18,1.49.32,6.39,5.73,2.68,6.15a10.87,10.87,0,0,0-3.36-2,13.53,13.53,0,0,0,2.68,3.71C662,110.06,651.15,99.36,655.92,101.34ZM658.34,112c1.36.82,1.23,1.61-.35,2.38Q656,113.19,658.34,112Zm1.55,5.94Zm.7,4.22c1.49-1,2.32-.63,2.51,1.11C662.82,124.29,657,125.39,660.59,122.18Zm2-8.89c.17.06,2.76-3.87,2.25-.33a4.78,4.78,0,0,1-4.08,3.81C659.57,114.61,660.19,113.47,662.55,113.29Zm-2.36-4.63ZM659.89,94c1.81-2,6.59,5.17,4.42,5.23C663.1,99.26,657.86,96.23,659.89,94Zm2.64,12.09Zm1.55,12.29a7.92,7.92,0,0,0,2.23-2.93c3.18-.71-2.15,6.37-2.53,6.2C662.08,120.45,662.17,119.36,664.08,118.39Zm1-11.22a7.3,7.3,0,0,1,2.6,3.65C665.75,112.25,662.29,106.18,665.05,107.17Zm-.42-6.55c.66-1,1.29-2,1.93-3,3.61,0-3.25,7.87-3.21,6.85C663.78,103.19,664.21,101.91,664.63,100.62Zm1.65,3.12c1.13-2.06,4.27.51,3.52,2.71C668.71,109.45,664.73,106.46,666.28,103.74Zm1.68,10Zm1.25-14.23a3.47,3.47,0,0,1,2.45,3.73C670,105.18,666.12,98.87,669.21,99.5Zm1.49,24.56c.8,1-1.27-1.6,0,0Zm-.85-6.1Zm2.76-22c.28,1.35.6,2.71.89,4C671.53,103.46,667.85,93.18,672.61,96Zm-.85,24.54c1.74,1.21,1.44,1.87-.93,2C669.93,121.23,670.24,120.57,671.76,120.51Zm-.7-10.17Zm.85-4.24a2.35,2.35,0,0,1,1.09,3.2C672.15,110.15,668.81,106.1,671.91,106.1Zm-.55,9.32c1.27.56,1.61,1.4.93,2.54C671,117.41,670.72,116.56,671.36,115.42Zm2.65-2c2.15,1.08,2.31,2,.38,2.63C674,116,669.34,112.09,674,113.46Zm1.8,8.79c4.25,2.48-2,3.1-2.76,2.19C673.05,122.76,674,122,675.81,122.25Zm-2.57-19c1.6-.3,2.24.4,2,2.08Q672.45,106.93,673.24,103.23Zm2.07,5.84c-.47,0,3.41,2.21,3.28,1.46C679.81,117.41,669.64,109.07,675.31,109.07Zm.08-9.47c1.79-.38,2.44.36,1.93,2.2C676.16,103.82,672.14,100.92,675.39,99.6Zm2,20.31c.25.09-3.29-1.39,0,0Zm1-13.77c.5.85,1,1.71,1.48,2.58C679.34,111.59,673.24,100.85,678.41,106.14Zm.42,9.89q2.2,1.23,1.26,3.25C678.55,120,675.47,115.09,678.83,116Zm0-13.73a2.92,2.92,0,0,1,3.87,1.78C682.7,108.61,676.32,104,678.83,102.3Zm.45,11.1c1.17-3.42,5,.66,3.67,2C681.5,117,678.47,115.73,679.28,113.4Zm4,6.63c.48.61-2.15,4.4-3.13,3.36A3.64,3.64,0,0,1,683.27,120Zm-.92-11.37c4.31,0,8.77,11.47,2.11,9.88-1.51-.35,2.44-3.9,2.34-4.46C686.8,114,678,108.66,682.35,108.66Zm1.43-3c1.23-.51,6.69,3.26,6,4.24C688.79,111.13,679.85,107.3,683.78,105.63Zm1.59-4c1.59-2.33,6.28-.2,4.1,3C688.06,106.82,683.09,105,685.37,101.65Zm3.07,16.72c2.07-.39,3.27.57,3.59,2.92C692,121.43,685.22,121.91,688.44,118.37Zm1.72-26.05a7.91,7.91,0,0,1,5,3C695.16,99.2,687.28,95.46,690.16,92.32Zm1.09,22.26c2,0,1.42,3.85,0,2.92A1.84,1.84,0,0,1,691.25,114.58Zm-.3-9.65c.76-1.47,1.63-1.72,2.59-.68q.33,3-2,3.84C690.29,107.41,690.1,106.35,691,104.93Zm2,5.81a5.59,5.59,0,0,1,3.46,2.85,2.7,2.7,0,0,1-3.84.44C692.74,112.93,692.86,111.84,693,110.74Zm1.59-10.37c2.19-.46,1.31,4.37-1.08,2.77C692.59,101.76,692.93,100.85,694.56,100.37Zm1,5.91c.44-.84,5.43,2.68,1.74,6.68A5.29,5.29,0,0,1,695.54,106.28ZM695,96.42c1.78-1.2,4.79,2.2,2.29,3.33Q694.35,100,695,96.42Zm.85,22c1.8-1.13-3,1.93,0,0Zm2.8-3.79c1.78,0-.1-4.24,3.1-4.24.42,0-2.06,8.91-4.57,6.22Q696.61,114.63,698.68,114.58Zm-.81-13.37c5.41-12,10.64,11.55,5,7.84.25.17,2.16-10.39-3.71-6.67a11,11,0,0,1,2.33,4C698.21,109.88,697,103.07,697.87,101.21Zm1.51,18.45c3,0,3-8.47,5.2-8.47C709.36,111.19,696.3,119.66,699.38,119.66Zm6.85-2.89c1-1.14,4.44-3.22,3.3-5.79a56.77,56.77,0,0,0,5,3c.19.09-10.32,6.06-10,5.06C705.11,118.32,705.66,117.55,706.23,116.77Zm.13-8.21c1.37,1.12,1.37,2.1,0,3Q704.37,109.9,706.36,108.56Zm.39-9.66c2.65-1.78,3.57,3,.3,3C705.73,101.11,705.64,100.11,706.75,98.9Zm1.16,26.68Zm2.46-3.08c1.79.3,5.15-4.54,6.23-3.35,2.43,2.81-10.32,6.92-9.3,4.14Zm-.57-17.68c.68,2,0,3-2,2.89C707.15,105.69,707.81,104.72,709.8,104.82Zm.28-3.63c2.14-.93,2.8-.27,2,2C709.8,104.89,709.14,104.21,710.08,101.19Zm1.85,6c1.17-.51,3.42,1.14,2.9,2.67C714,112,708,108.85,711.93,107.18Zm.34,10.29c2.46-1.63.53,2.93-.68,3A2.7,2.7,0,0,1,712.27,117.47ZM713.2,97c1.64.89,1.74,2,.32,3.2Q709.77,99,713.2,97Zm.23,7.09c1.06-1.78,2.09-1.78,3.16,0C717.45,106.58,712.07,107.94,713.43,104.08Zm2.81,5.62c1.31,1,1.31,2,0,3C715,111.68,715,110.7,716.24,109.7Zm-.09-10c2-.08,2.79,1,2.48,3.08C716.38,103.52,715.54,102.49,716.15,99.74Zm.52,16.19c1.59-.31,2.27.36,2,2.07C716.79,119.08,716.15,118.39,716.67,115.93Zm-.1-8.67a6,6,0,0,0,2.46-2C719.4,105.29,719.51,110.44,716.57,107.26Zm1.68-10.87c1.68,0,6.84,4.35,6.23,4.91C721.86,103.65,715.54,96.39,718.25,96.39Zm1.3,15.63c2.69,0,1.87,4.75-.45,3.39C717.58,113.91,717.72,112.8,719.55,112Zm2,5.94c2.06,0-1.39,4.84-2.54,4.2A5.13,5.13,0,0,1,721.58,118Zm-2-15.49c1.21-1.32,4,1.74,1.87,3.22C719.51,106.28,718.91,105.2,719.63,102.47Zm2.32,6.66c3.54-1.49,1.17,3.74-.15,3.2C720.33,111.21,720.39,110.15,722,109.13Zm2.35,4c.13-1.88,1-2.58,2.47-2.06,1.93,1.28-1.94,7.58-3.72,6.42A6.45,6.45,0,0,1,724.3,113.14Zm-.48-8.72c1.57.61,2.18,1.8,1.8,3.63C723.58,110.42,721.35,104.42,723.82,104.42Zm.78,15.66c1,.65,6.62-11.31,7.07-10.83,2.55,2.83-5.86,12.22-7.85,14C723.76,123.06,723.78,119.55,724.6,120.08ZM726.87,102c1.91,1,2.08,2,.45,3C725,106,722.54,99.05,726.87,102Zm1.59,4.09c.75-2.22,1.68-2.72,2.76-1.51.6,1.65-2.11,6.84-4.07,6C725.55,109.15,726,107.65,728.46,106.1Zm0,16.53c1.68-1.16-2.88,1.89,0,0Zm10.22-5.48c1.17-.14-4.19,7.35-4.27,5.65A16.08,16.08,0,0,1,738.7,117.15Z"/><path class="cls-1" d="M386.76,193.94c1,1,3.25-1.19,2.91-1.55C387.75,191.36,386.78,191.9,386.76,193.94Z"/><path class="cls-1" d="M386.31,189.43c2.63,1.68-1.82-1.2,0,0Z"/><path class="cls-1" d="M389.8,186.16c4.11,2.18,2.45-3.09,3.47-3C392.44,183.08,386.42,184.42,389.8,186.16Z"/><path class="cls-1" d="M390.18,190.3c2.9-1.85-1.66,1.12,0,0Z"/><path class="cls-1" d="M397.18,174.65Z"/><path class="cls-1" d="M417.92,167.85c4.18-.1-1.57-1.55-1.57-1.55C415.22,167.32,415.73,167.83,417.92,167.85Z"/><path class="cls-1" d="M429,105.28c1.26,0,7.18-6,6.88-6.32C434.69,97.64,426.75,105.28,429,105.28Z"/><path class="cls-1" d="M436.59,103.07c4.92-3.09-1.22.22-2.56,1.62C434.88,104.14,435.73,103.59,436.59,103.07Z"/><path class="cls-1" d="M439.37,187.35c1.81-.24,2.12-.8.95-1.69C438.5,185.88,438.2,186.45,439.37,187.35Z"/><path class="cls-1" d="M441.82,156.88c.33-1,.69-2,1.05-2.94C442.87,153.22,439.64,161.08,441.82,156.88Z"/><path class="cls-1" d="M445.28,159.1c2.06-.3,2.06-.85,0-1.63C443.19,157.77,443.19,158.32,445.28,159.1Z"/><path class="cls-1" d="M444.85,106.4c1.64-1.26,1.64-1.64,0-1.12C443.29,106.52,443.29,106.92,444.85,106.4Z"/><path class="cls-1" d="M458.47,110c3.32,2.28-3.27-2.21,0,0Z"/><path class="cls-1" d="M467.32,116.28Z"/><path class="cls-1" d="M468.3,147c1.61-.16,2.33-1,2.12-2.41C470.19,144.45,467.11,145.82,468.3,147Z"/><path class="cls-1" d="M470.72,157.18s8.13-5.7,9-4.83C475.81,148.54,469.81,156.57,470.72,157.18Z"/><path class="cls-1" d="M472.8,141.16c1.3-1.7,1.21-2.25-.3-1.69C471.12,141.35,471.21,141.89,472.8,141.16Z"/><path class="cls-1" d="M474.27,145a2.19,2.19,0,0,0,.48-2.94A2.25,2.25,0,0,0,474.27,145Z"/><path class="cls-1" d="M478.34,144.84c1.4-2.47,1.25-2.64-.48-.52Q476.45,147,478.34,144.84Z"/><path class="cls-1" d="M483.31,143.77c2.93-2-1.83,1.18,0,0Z"/><path class="cls-1" d="M486,146.36c2.55-.42,3.84-1.87,3.91-4.37C490.2,142.23,479.87,146.26,486,146.36Z"/><path class="cls-1" d="M497.63,141.1a38.38,38.38,0,0,1,1.92-3.94C499.53,136.47,493.92,142.59,497.63,141.1Z"/><path class="cls-1" d="M511.53,133.62a2.14,2.14,0,0,0,2.79.75C514.32,131.4,509.49,131.8,511.53,133.62Z"/><path class="cls-1" d="M518.67,130.59c1.32-.91,1.45-1.72.39-2.48C517.68,129.08,517.55,129.9,518.67,130.59Z"/><path class="cls-1" d="M525.19,127.28Z"/><path class="cls-1" d="M545,120.53c1.29.2,2.57.4,3.85.62-.26.31-5.91-4-7-2.3A4.25,4.25,0,0,0,545,120.53Z"/><path class="cls-1" d="M555,115c1.16-2.27,1-2.69-.34-1.21C553.45,116.05,553.57,116.46,555,115Z"/><path class="cls-1" d="M557.8,115.84a4,4,0,0,0,1.7-3.82A3.85,3.85,0,0,0,557.8,115.84Z"/><path class="cls-1" d="M560.88,120.89c2.63,1.7-1.79-1.19,0,0Z"/><path class="cls-1" d="M562.32,116.28a2.92,2.92,0,0,0,2.08-2.55A3,3,0,0,0,562.32,116.28Z"/><path class="cls-1" d="M566.31,117.55c1.77,1.13-2.93-1.93,0,0Z"/><path class="cls-1" d="M575.61,120.51c.68,0,3.28-5.1,1.92-4.61C576.89,116.13,573.47,120.51,575.61,120.51Z"/><path class="cls-1" d="M622.87,84.12c1,0,3.46-2.46,4.35-3.4C626.58,81,621,84.12,622.87,84.12Z"/><path class="cls-1" d="M636.14,87.08Z"/><path class="cls-1" d="M653.63,93.71c3.32-1.34-2,.84,0,0Z"/><path class="cls-1" d="M655.54,90c1.66,0,1.55-.51-.4-1.39C653.54,88.74,653.66,89.18,655.54,90Z"/><path class="cls-1" d="M659.15,86.14c1.06.42-4.31-1.66,0,0Z"/><path class="cls-1" d="M663.78,84.46c4,1.64.06-1.9-.49-2C662.11,83.1,662.27,83.76,663.78,84.46Z"/><path class="cls-1" d="M671.85,90c-1.85-1.24,8.59,7.09,7.17,3.76-.65-1.43-11.72-8.32-12.29-7.67A27.33,27.33,0,0,0,671.85,90Z"/><path class="cls-1" d="M683.94,92.85c4.06-1.68-2,.8,0,0Z"/><path class="cls-1" d="M702.57,53.91c3.18,3.47-3.1-3.35,0,0Z"/><path class="cls-1" d="M716.05,90Z"/><path class="cls-1" d="M723.82,95.12Z"/><path class="cls-1" d="M734.69,101.45c3-2-1.86,1.22,0,0Z"/><path class="cls-1" d="M737.32,99.64c1.5,1,4.49.87,4.31-2.19C741.76,101.61,732.18,96,737.32,99.64Z"/><path class="cls-1" d="M766.34,90.36c3.52,2.6-2.57-1.77,0,0Z"/><path class="cls-1" d="M810.26,33.77c2.57-1.82,2.74-2.24.45-1.27C808.2,34.3,808,34.71,810.26,33.77Z"/><path class="cls-1" d="M820,33.34Z"/><path class="cls-1" d="M830.51,43.79q2.4-1.89,0-1.13Q828.07,44.52,830.51,43.79Z"/><path class="cls-1" d="M842.78,37.11c3.57-1.41-1.39.56,0,0Z"/><path class="cls-1" d="M847.8,62.09a4.18,4.18,0,0,0,2.56-4.46C849.07,56.21,845.75,62.09,847.8,62.09Z"/><path class="cls-1" d="M851.23,52.8c1.39,0,3.93-3.2,4.89-4.57C855.16,48.82,848.66,52.8,851.23,52.8Z"/><path class="cls-1" d="M854.16,45.19Z"/><path class="cls-1" d="M864.27,62.4a7.45,7.45,0,0,0,4.18-3.88C867.22,57.71,863,63.47,864.27,62.4Z"/><path class="cls-1" d="M863,57a7.78,7.78,0,0,0,2-2.52A4.06,4.06,0,0,0,863,57Z"/><path class="cls-1" d="M871.48,59.94c4.53-3.09,0-.95-1.33.53C867.88,63.06,870.93,60,871.48,59.94Z"/><path class="cls-1" d="M871.57,71.41a7.89,7.89,0,0,0,2-2.52A4,4,0,0,0,871.57,71.41Z"/><path class="cls-1" d="M876.29,63.61c.89-.87,1.8-1.73,2.71-2.6,0-1.37-5.64,3.84-5.31,3.94C874.54,64.5,875.42,64,876.29,63.61Z"/><path class="cls-1" d="M874.65,68.88Z"/><path class="cls-1" d="M876.43,70.6a5.39,5.39,0,0,0,3.35-3C881.21,67,873.36,70.69,876.43,70.6Z"/><path class="cls-1" d="M882.87,71.26Z"/><path class="cls-1" d="M898.41,84.12Z"/><path class="cls-1" d="M74.35,153.13c.5-.46,3.42-8.12,3.69-7.81C76.45,143.63,71.56,155.79,74.35,153.13Z"/><path class="cls-1" d="M88.47,131.7Z"/><path class="cls-1" d="M126.31,140.81Z"/><path class="cls-1" d="M127.93,155.94c.55-.64,5.77-10,5.75-10-1.89.13-8.87,11-8.87,13.06A9.3,9.3,0,0,0,127.93,155.94Z"/><path class="cls-1" d="M131.77,169.15a8.18,8.18,0,0,0,2.95-4.44C134.68,166.53,130.16,168.05,131.77,169.15Z"/><path class="cls-1" d="M184.36,171.27a68.52,68.52,0,0,1,3.08-6.92C186.05,165.62,184.27,171.57,184.36,171.27Z"/><path class="cls-1" d="M530.65,203.69c2-.57,4.84-8,5.29-9.13C536,194.45,528.19,204.39,530.65,203.69Z"/><path class="cls-1" d="M549.31,200c-.78,0,2.84-2.83,2.57-2.37C553,195.85,544.91,200,549.31,200Z"/><path class="cls-1" d="M549.24,204.72c2.73-1.84-1.78,1.13,0,0Z"/><path class="cls-1" d="M552.35,195.58c2.07-.4,2.07-.89,0-1.45Q549.23,194.78,552.35,195.58Z"/><path class="cls-1" d="M561.18,200.89Z"/><path class="cls-1" d="M567.67,206.47c.41.21,4.89,2.35,5.39,1.65C575,205.3,562.94,204.11,567.67,206.47Z"/><path class="cls-1" d="M571.75,203.85Z"/><path class="cls-1" d="M583.78,206Z"/><path class="cls-1" d="M586,217.78c3.16,2.77,12.27-10.18,11.21-13.46.82,2.7-8.5,7.9-10.39,8.88C588.23,212.49,585.25,217.1,586,217.78Z"/><path class="cls-1" d="M588.91,208c4.2-3.29-5.49.7,0,0Z"/><path class="cls-1" d="M591.94,208.52Z"/><path class="cls-1" d="M791.38,125.58Z"/></g></g></svg>
