<svg xmlns="http://www.w3.org/2000/svg" viewBox="0 0 796.21 290.72"><defs><style>.cls-1{fill:#9C3535;}</style></defs><g id="Layer_2" data-name="Layer 2"><g id="Layer_1-2" data-name="Layer 1"><path class="cls-1" d="M.53,198.34c3,26-2.06,34.06,19.76,51a172.13,172.13,0,0,0,58.77,30c32.6,8.93,63.4,13.56,97.66,10.36,39.75-3.74,80.81-6.57,118.41-21.68,32-12.87,62-33.3,95.41-42,16.87-4.4,32.35-5.09,49.79-5.18,8.63,0,50.94-5.49,50.94-18.91,0-14.74-.9-33.27,2.85-47.7,1-3.73,41.43,9.25,47.47,11.22,30.89,10.11,61.44,26.31,91.28,39.67,13.66,6.14,30.25,15.65,42,25,16.91,13.72,42.38,13.85,62.26,19,8.66,2.23,27.08,1.9,31.06-7.14,6.75-15.27,14.32-30.21,20.32-45.9,18.21-47.49,3.91-92.79-39.33-121.59C717,53.06,678,44.8,641.41,33.8c-32-9.59-65.09-20.7-98-26.58C506.22.6,471.72-.3,433.85.07c-42.93.37-90.71,3.07-131.77,15.52-12.48,3.79-25.07,10-37.74,12.78C254.2,30.74,235.22,47.43,226,47.43c-15.38,0-11.4,36.84-15.92,40.88-3.66,3.14-54.25,2.32-50.55,9.25,1.64,3,46.34-3.52,50.76-3.76.29,5.49-.05,40.22,8.08,40.22,3.46,0,15.36,6,21.36,8.5,8.77,3.58,18.81,5.11,28.74,5.25,10.48.17,23.31,2,33.6-.35,5.24-1.16,15.32-2.81,20.41-.71,1.15.49,7.59,8.82,5.81,9.55a4,4,0,0,0-3.21,0c1.6,4.27,20.91,8.87,25.41,8.5.35,0-9.1-3.39-6.74-5.79,1.68-1.61,11.6,4.45,12.14,3.19,1-2.45-10.33-3.13-10.33-6.24,0-1,17,5.89,17.36,5.49-1.48,1.53-28.78-15.94-28.25-16.82,3-5.16,32.53-1.94,40.82-3.57,7.22-1.39,20.55,16.34,30.93,13-1.24.4-8.16-4.72-8.83-5.13.26.14,8.34-2.41,8.34-.2,0-.21-2.6-6.62-3-8,2.76,0,21.49,2.21,21.49,3.92,0-2.48-6.44,0-6.44-2.52,0-3.9,49.31,8.15,54.19,10.68-3.72,3-10.64,9-15.84,8.33-5.55-.72-24.91-4.48-28.29-7.85,5.2,5.21,19.92,7,27.29,8.34-14.68,7.68-26-7.28-38.43-3,2.88-1,19.16,6.51,22.82,7.66-4-1.26-16.06,3.9-23.37,1.1-2.52-1-17.95-6.54-19.79-4.7-.19.19,15.12,4.33,16.17,5.41-2.63-2.69-31.46-.61-36.78.17-11.53,1.66-23.6,6.67-34.76,10.18-25.14,7.89-49.58,16.91-75.4,22.64-53.77,11.92-113.69,16.83-168.64,11.34-29-2.87-57.49-7.73-80.43-27.08-21.55-18.27.5-35.45,16.61-44.86,20.06-11.77,48.64-25.95,71.89-29.8,4.29-.7,53.53-8.7,53.53-13,0-5.85-80,17.87-87.19,19.85C30.67,128.73-4.8,151.82.53,198.34Zm8.31-13c.76.72,4.06,14.08-.82,11.3C6.43,195.76,3.62,182.48,8.84,185.36Zm.78,14.84c4.21-5,1.32,19.51.28,19.55C7.8,219.78,8,202.21,9.62,200.2ZM9.5,221.89c2.65-6.82,3.34,12.73,2.88,10.66.19.85,4.72,5.15,4.72,4.87,0-6-6.06-9.25.78-14.48a78,78,0,0,0-2.44,8.94c0,.11,8.11,5.18,8,7.18,0-1.36-3.69-18.07-1.2-17.12,3.22,1.2,1,21.24,3,22.25-1.45-.76-5.14-7.31-5.69-7.34-3.85-.24-.9,3.49-.9,4.1C18.69,236.61,6.13,231.26,9.5,221.89Zm6.45-4c6.27-.42-2.31,4.85-2.12,5.12A4.09,4.09,0,0,1,16,217.92Zm-1.29-7.85c5.93-6,1.26,9-1.12,6.65A6.47,6.47,0,0,1,14.66,210.07Zm-.48-4a12.54,12.54,0,0,1,3.41-.52,10.44,10.44,0,0,1-3.74,2.9C12.68,207.5,12.81,206.74,14.18,206Zm-.32-7.78a5,5,0,0,1,3.3-3.55c2.86,0-2.5,4.32-2.9,4.79.69.43,3.11-1.84,3.64-.06S13.41,205,13.11,204C13.29,202.08,13.54,200.17,13.86,198.26ZM20.29,242a3.08,3.08,0,0,1,2.1,2.49S18.11,243.43,20.29,242Zm1.58-25c4.35-2.68-2.86,1.79,0,0Zm0-15.78c.19,0,1.85,7.79,1.07,8.1C20.57,210.2,21.26,201.18,21.9,201.18Zm0-5.28a2,2,0,0,1,0,3.25A2.07,2.07,0,0,1,21.9,195.9Zm4.16,6.32c.29-.35-1.9-4,.06-3.27s2.55,24.88.87,25.46C27.16,224.34,23.83,205.05,26.06,202.22Zm1.4,23.39c1.12-.4,1.12,14.36.8,14.23C26.09,239.11,25,226.45,27.46,225.61Zm2.91,21c1.19.7,11.14,7.51,10.62,7.78-1.82.91-13.45-5.69-13.45-8.39C28.37,245.11,29.33,245.32,30.37,246.62Zm-2-5ZM30,202.35c0,.18,7.58,2.21,8.77,2.84,2.47,1.32,4.81,17.64,2.56,19-.35.2-3-9.8-2.15-10.67-1.31,1.24.64,12.69-1.15,12.69-4,0,.8-17.13.8-17.94C38.8,206,26.66,227.9,34,227.9c-2.08,0,.67-6.5-2.49-6.5-1.44,0,1.69-15.14,1.69-15.36a8,8,0,0,0-3.77-.12A9.91,9.91,0,0,1,30,202.35Zm.78,9.74c1.85-1.08-3,1.81,0,0Zm.81,32.39c3.46,2.05-1.68-1.09,0,0Zm.59-18.41c1.7,4.41,0,.1,0,0Zm1.35,4.29c2.81-2.38.56,6.85,1.25,5.62S30.91,232.55,33.5,230.36Zm.72,7.48c.56-.57,1.82,5.4.07,6A6.46,6.46,0,0,1,34.22,237.84Zm.56,7.84c1.1.81,1.1,1.64,0,2.43C33.73,247.32,33.73,246.49,34.78,245.68ZM38,248.11Zm.29-21a8.94,8.94,0,0,1,.89,6.92C38.8,234.39,35.67,227.07,38.29,227.07Zm.51,16.11c0-2.92,1,2.9,1.05,3C38.61,241.37,38.8,252,38.8,243.18Zm.35-7.2a7.7,7.7,0,0,1,.3,5.33A7.38,7.38,0,0,1,39.15,236ZM40,248.9Zm1.17-23.45c2.59,0,.06,13.73.36,14.14C40.51,238.33,40,225.45,41.15,225.45Zm.71,15.39c.85,0,2.14,7.11,1.39,7.92C41.67,250.38,39.74,240.84,41.86,240.84Zm1.07,13.09c1.5,1,1.59,1.86.22,2.55C41.7,255.5,41.6,254.65,42.93,253.93Zm-.08-3.8c3.32,2-1.29-.79,0,0Zm2.49-41.67c2.1,0,7.24,28.6.7,29.09C46,237.57,44.08,208.46,45.34,208.46ZM47.63,238c1.12-1.3,2.46,3.11,2.46,4.47a4.22,4.22,0,0,1-3.16.15c.8-1.25,1.52,5.59.32,4.54a12.32,12.32,0,0,1,2.87-.93,7.72,7.72,0,0,1-.11,5.13C44.08,251.35,45.34,240.83,47.63,238Zm-.14,18.69c3,.27,4.53,1.23,4.21,4.39C50.74,260.78,44.13,256.39,47.49,256.68Zm1.23-4.2c.81.55,1.61,1.12,2.42,1.69C53.07,257.66,41.08,250.56,48.72,252.48Zm1.93-42.41c3.63,0,3.86,24.27,2,24.27C49.71,234.34,48.72,210.07,50.65,210.07Zm1.69,35.65c1.64.07,5.68,6.64,3.84,7.56C53.18,254.76,50,245.59,52.34,245.72Zm.57-10.56c2.8,0,2.63,6.48,1,6.48C50.58,241.64,51.43,235.16,52.91,235.16Zm.64,19.37c.7.05,5.21,2.39,2.55,3.18C54.33,258.23,51.73,254.34,53.55,254.53Zm.56-11.29c2,.9,2.15,1.72.56,2.44C51.83,244,51.64,243.19,54.11,243.24ZM54.59,259c2-.2,2.74.72,2,2.74C54.41,265.23,52,258,54.59,259Zm2.9-46.91c8.26,1.85,44.51,3.24,46.39,12.19-.85-10.26,24.63-4.93,31.33-4.87,19.18.09,38.51-1,57.66-2.05,10.49-.58,20.83-1.95,31.38-2.73,10-.76,29.16-7.75,34.55-7.75,1.17,0,9.46,2.58,9.46-.1A3.24,3.24,0,0,0,265,206c7.45,6.36,46-13.43,54.76-15.66,39.39-9.66-15.33,14.62-15.33,15.8s19.92-9,21.83-9c3.13,0-1.13,8-2.72,8.73-2.66,1.25-15.88,8.64-17.75,8,3.25,1.37,8-3.76,11.27-3.76.37,0,.42,3.87.43,4.47,2.87-14.74,15.54-4.23,7.34.5-4.3,2.44-16.54,8.06-17.72,1.92-.06,5.71-5.58,7.63-10.71,8.33,0-1.59.43-12.77-.83-12.77,4.61,0-4,15.81-4,14.67,0,1.82,14.78-4.09,15-3.78,3,3.84-4.06,5.2-5.45,6.57.66-.65,6.14-1.92,6.31.32.15,1.9-7.47,5.68-9,5.68-3.55,0,1.21-5.94,1.22-5.66-.08-1-9.66,1.88-10.91,2.41,16.57-5.38,0,11.31-3.46,7.7,1.54,1.53,8.89-2.84,10.93-2.84.89,0-.45,12.95-8.66,11.16,1.64.33,8.53-2.63,9.34-1.27,1.55,2.51-25.25,4.69-24.86,6.41.57,2.28,23.48-3.73,24.81-3.24,2.43.93-15.61,5.78-16.34,5.92-3.17.56-14.81,4.45-17.35,3.42,6.73,2.72,29.51-9.4,33.74-5.15,1.76,1.76-42.32,13.73-49,12.54a51.05,51.05,0,0,0,8.67.24c-34.3,10.5-72.78,12.33-108.4,12.18-9-.06-18.18.15-27.14-1-6.43-.81-4.53-12.28-4.89-17.18-.86-12,.28-20.1-2.48-31.88,8.5.16,19.92-2.19,27.38-1-8-1.28-55,4.35-56.12-8.56-1.25,6.52,9.57,10.29,8.49,11.85a17.78,17.78,0,0,0,.35-3.86c7-4.45,21.67.09,19.11,9.8-8.53,1.67-7.61-7.69-8.87-7.69a24.21,24.21,0,0,0-.07,6.8c-.39,1.31-8.78-1.94-8.78-.31,0-3.45,19.82,11.1,3.78,8.35-2.49-.41-5.9-8-5.15-10.55-2.12,7.71-9.62-6.78-7.83-6.37-1.49-.33-.34,15,0,14.75-7.3,6.4-3.67-10.13-3.67-7.82,0-.81-2.86-2.17-2.92-4.85-.07-4.47,2.92-2.93,2.92-4,0-1.59-3-.25-3.46-3.05.43,3.1-.81,7.49-.57,10.86-1-.35-3.73.22-4.47-.27,3.64,2.55,6.59,2,5.26,8-4.64.19-11.7-8.09-7.4-8.35-1.54.07-11.27-8.38-9-8.52,1.12-.07-3.74,15.46-3.74,12.73,0,1.08,4.05,1.63,4.05,5.08,0,3.89-4.62.31-5-2.17C57.77,238.82,54.59,211.37,57.49,212.05Zm1.72,32.82c3,0,11.26,2.68,12.07,5.75C72.33,254.42,55.62,244.87,59.21,244.87Zm.53,16.2A6.66,6.66,0,0,1,66,266.31c1-1.53,7.44-2.85,7.44-.59,0-2.86,20,7.48,14.47,7.48-2.82,0-7.78-3.24-11.11-3.56C72.46,269.21,57.79,261.07,59.74,261.07Zm1.86-4.41c.92.7,1.85,1.41,2.74,2.11C66.91,264.27,54.06,254.26,61.6,256.66Zm-2.31-7.76c2.87,0,6.57,4.59,2.39,5.52,1.68-.36,14.66-3.16,10.59,3.85C70.76,260.86,54.89,248.9,59.29,248.9Zm7.61-8.71c7.79,2-1.48,12.11-3,.15Zm-.79-7.46c3,0,5.3,4.29,3.77,6.83C67.86,242.92,59,232.73,66.11,232.73Zm3,26.23c.15,0,6.32,2.15,3.88,4.17s-7.22-2-7.56-4.57A5.91,5.91,0,0,1,69.11,259Zm6.65-16.55c16.09,8.85-11.86,3.31-3.15-.58C73.66,242.06,74.71,242.23,75.76,242.41Zm-.94,7c3.32.68,3.09,1.15,5.33,2.45a68.14,68.14,0,0,0-6.81,1.3C71.23,252.27,72.64,249,74.82,249.44Zm.7,10.8c2,0,14.45,4.66,13.13,7.14S69.86,260.24,75.52,260.24Zm-1.12-5.66c1.12,0,9.48,4.66,5.69,5.54C75.75,261.11,72.08,254.58,74.4,254.58Zm5.46-2c2.64,1.7-1.66,2.53-2.69,1.49C77.52,252.66,78.43,252.18,79.86,252.54Zm3.56-8.67c7.29.91.47,8.81.47,5.25C83.89,250.73,76.29,243.07,83.42,243.87ZM82.7,257c1,0,7.77,3.57,4.9,4.77C84.23,263.15,79.58,257,82.7,257Zm.3-5.66c1.17,0,7,3.33,3.35,4.66S79.75,251.35,83,251.35Zm5.41-15.06c3.25,1.26,8.33,2,5.43,7.9C90.93,249.55,83.84,234.59,88.41,236.29Zm3.14,16.51c2.76.31,3.71,1.73,2.83,4.21C92.47,260.09,84.13,252,91.55,252.8Zm-2.25-7.86c3,.17,7,3.44,4.91,6.95C91.42,256.39,84.42,244.66,89.3,244.94Zm2.16,13.71c2.57-.11,3.8,1.12,3.71,3.71s-7.75.34-6.41-2.75C89.65,259.28,90.56,259,91.46,258.65Zm-.89,5.64a14.73,14.73,0,0,0,5.73,1.54c.37-1.86.69-3.75,1-5.63,1.73-1.64,4.06,2.26,4.44,1.87,3.89-3.94,4,2.32,3.89,4.49-2.23-.46-4.74-1.75-7.07-1.26,0,0,8.15,3.38,7.6,3s-4.33,4.1-3.83,4.1c4.81-.08,7.84-8.36,10.78-8.83a36.44,36.44,0,0,1-5.76,3.05c-6.36-1.65,4.16-4.64,5.12-4.8-4.42-1.33-10.92-1.25-14.88-3.49-8.78-5,13.46-1.43,7.51.25-1,.31,8.58-5.91,8.58-3.27,0-1.19-8.05-.53-8.05-.69.06-1.3,1.58-12.84,4.35-8.26-1.72-2.65-10.12-10.19,1.12-7.63,4.53,1,3,14.06,3.25,17.23.76,9.4,7,23.45-5.74,21.39-.71-.12-22.83-4.41-17.85-7.1a8.51,8.51,0,0,1,5.39,1.67,4.89,4.89,0,0,0,.23-3.66C99.63,271.8,82.59,264.29,90.57,264.29Zm9.64-18c4.19.43,5.25,3.38,4.62,7.65-5.82.74-9.47-2-8-8C97.93,246.07,99,246.18,100.21,246.28Zm76.46,36.86Zm2.61-.53c3.73-1.3-4.48,1.64,0,0Zm31.88-4c2.25.81,1.9,1.17-1,1C207.71,278.9,208.07,278.56,211.16,278.63Zm3.33-193.16c-.52,0,5.07,22.57,4.75,22.9a19.61,19.61,0,0,1-2.47-3.46,14.86,14.86,0,0,0-.21,5.35C216.63,110.2,210.9,85.47,214.49,85.47Zm1.44,27.9c.54,1.2,7.25,13.37,3.7,13.37-3.19,0-.62-4.76-1.45-5.46-.19,1-.85,1.41-2,1.17C214.88,120.06,216.26,114.16,215.93,113.37Zm2.35-1.21a2.5,2.5,0,0,1,.9,3.25C217.87,114.73,217.57,113.64,218.28,112.16Zm.08-16.58a4.73,4.73,0,0,1,0,5.25A4.55,4.55,0,0,1,218.36,95.58Zm.9-28.32c3.17-3.23,32.08-3.12,32.08-7.69,0,.22-28.52,4.85-30.18,4.85-1.06,0,8.69-6.38,10-6.74,6.72-1.81,13.8-1.74,19.67-5.09-1.34.73-25.22,4.18-25.22,3.84,0-7.88,31.14-11,34.78-10.5-6.41-.89-17.18,4.18-23.11,1.19,3.19,1.61,24.91-12,27.65-9-1.44-1.69-11.66,2.27-14.13,2,4.15.52,16.47-7,21.08-8.42,5.28-1.54,18-6.11,25.82-8.59,20.73-6.56,42.62-9.78,64.13-12.75,28.08-3.85,57.36-1.75,85.62-2.48,21.83-.55,44.42-1,66.2,1.6C560.39,15,610.85,26,655.16,42.15c24.08,8.8,49.19,14.28,72.45,25.42a146.9,146.9,0,0,1,35.54,24c1.89,1.74,25.09,24.88,21.49,28.57-.43.44-6.14-5.46-6.38-5.63,3.58,2.36,11.69,12.7,11.69,17.77,0-1.61-10.46-10.2-10.46-10.35,0,6.15,12.29,13.9,13,22.16-1.38-1.46-9.56-10.57-9.32-11,.66-1.08,10.48,23.46,9.84,22.52-1.3-1.84-7.65-13.49-9.61-13.49-.21,0,14.86,20.75,9,23.71-1.55.76-9.34-12.91-10-12.27-2.58,2.44,12.33,13.46,7.82,19-2.25,2.69-10.09-11.9-10.48-11.51-3.16,3.08,12.44,13.12,7.51,18.14-3.4,3.32-5.31-6.33-8.23-6.33.63,0,9.15,14.27,4.52,13.75-3-.34-13.86-12.45-14.91-14.75,1.1,2.47,15.19,17.51,12.5,19.21-3.16,1.93-12.71-15.79-16.35-15.79,1.9,0,11.77,14.5,14.74,17-9.92,8.53-16.76,4.05-26.2,4.05a18.15,18.15,0,0,0,1.77,2.18c-8.71,7.25-23.47-13.51-30.15-14.39,3.63.48,11.68,9.54,14.43,12.94-11.91.16-28.72-3.89-38.18-8.75-8.5-4.35-34.76-11-38.52-20.14-2.2-4.93-20.84-12.9-25.8-15.51-9-4.69-19.17-13.65-29-15.81-10.64-2.32-19.81-11.9-30.4-15.41-11.83-4-24-6.91-35.89-10.73C507.07,99.6,472.94,95.76,436.92,97.14c-7,.27-106.66,6.67-106.66,8.79,0-1.94,15.15-6.86,14.38-8.25-.15-.32-17.6,6.28-17.6,7.38a13.36,13.36,0,0,1,1.88,1.21c-4.15,1.18-30.87,3.57-30.87,2.9,0-1.38,8.53-5,9.42-5-2.69,0-44,9.4-44,2.53,0-1.28,19-10.16,20.36-9.61-10.3-4.18-19.68,14.29-30.22,9,.85.41,16-11,20.32-10.77-6.52-.36-34.45,17.74-37.7,4.06-.42-1.71,22.8-10.43,22.8-10.43-1.61-1.59-27,11.7-27,7.91,0-.44,23.45-12.09,23.55-12-2.85-.9-27.19,14.31-28.22,8.85C226.87,90.72,251.52,81,252.6,81c-4.51-.1-18.8,3.69-22.17,6.16.1.72.63,1,1.52.78a11.17,11.17,0,0,1-5.54,3.13c-2.22,0,2.37-2.91,2-2.35.64-1-4.45.66-5.12-.09-2.89-3.12,19.58-9.27,21.62-10.55-3.44,2.15-14.25,4.27-18.92,5.42C219.88,85,218.21,79,222,79c3.91,0,24.32-10.22,26.74-7.83-3-3-29.56,7.9-29.56,5.27,0-3.14,26.31-10.08,27.14-9.27C245.25,66.14,212.32,74.5,219.26,67.26Zm1.5,60.27Zm1.53-28.6c-.11-1-.22-1.91-.32-2.88-.05.06,4.39,12.24,2,14.45C222.71,111.71,222.45,99.45,222.29,98.93Zm.88,13.67a9.53,9.53,0,0,1,1.3,6.63C223.5,120.17,221.73,111.67,223.17,112.6Zm1.54,16.9c4.26,2.6-3.28-2.06,0,0Zm.06-6.39c1.16,1.21,1.16,2.29,0,3.21C223.64,125.12,223.64,124,224.77,123.11ZM226.72,100a7.76,7.76,0,0,1,.32,5.35A7.59,7.59,0,0,1,226.72,100ZM228,114.59Zm2.21,15.64c1.29,2.05,1.09,2.49-.64,1.28C228.35,129.46,228.54,129,230.22,130.23Zm.6-22.93c.69,0,4.62,9.49,4.4,10C234.46,118.78,227.42,107.3,230.82,107.3Zm0-4.85a7,7,0,0,1,4.32,3.24C233.18,105.69,229.36,102.45,230.82,102.45Zm2,17.82c1.12,1.46,1.14,2.79,0,4C231.74,124.31,231.71,118.55,232.81,120.27Zm1.65,3.61a5,5,0,0,1,.59,4.05C235.36,127.45,232.46,125,234.46,123.88Zm.76,8.52c3.19,5-.59-.93,0,0Zm3.34-19.76a4,4,0,0,1,.49,3.5C237.87,116.39,236.24,111.2,238.56,112.64Zm-.88-6.13c1.43,1.75,1.43,3.11,0,4Q235.57,108,237.68,106.51Zm.88,13.88a5.49,5.49,0,0,1,.63,5.53C238.94,125.92,236.27,119.59,238.56,120.39Zm.63,11.64a3,3,0,0,1,1.33,3.33C240.06,136.2,237.06,133.38,239.19,132Zm3.7-22.29Zm3.27,1.65c2,1.71,14.16,1.31,9.06,8.67C256.37,118.4,243.24,108.89,246.16,111.39Zm1,3.93c2.78.73,2.24,6.23,2.24,6.23S241.17,113.76,247.16,115.32Zm.06,8.16c1.76.4,2.48,1.37,2.24,2.92C247.8,127.63,243.58,123.48,247.22,123.48ZM249.43,135c-.91-1.67,1.42,4.84,1.5,4.67C252.19,137.63,244.71,135.32,249.43,135Zm-.56-7.5a3.64,3.64,0,0,1,1.35,3.82C248.65,133,247.07,127.53,248.87,127.53Zm4.26,81.19Zm-1-89.27c1.76.52,2.31,1.61,1.66,3.29Q250.8,122.48,252.09,119.45Zm1.61,4.86a3,3,0,0,1,2.49,2.84,4.9,4.9,0,0,1-3.63.56C251.64,126.13,252,125,253.7,124.31Zm.07,7.69c3.38,2.11-1.37-.84,0,0Zm1.13,2.84q2.37.67,1.29,2.79C253.9,139,252.94,134.84,254.9,134.84Zm1-5.34c1.71,1.68-2.55-2.66,0,0Zm.48,10.2c1.95-.26,3.17.41,3.62,2.06C259.54,142.28,250.85,139.63,256.43,139.7Zm2.17-19.83a2.85,2.85,0,0,1,0,4A2.85,2.85,0,0,1,258.6,119.87Zm1-5.75a4.72,4.72,0,0,1,4.62,1.66C264.24,120.64,254,112.64,259.62,114.12Zm-.38,21.51a4.83,4.83,0,0,1,4.21,1.94C263.45,141.36,256.64,135.58,259.24,135.63Zm3.62-9c2.47,2.47-3.68.95-4-.21A4,4,0,0,1,262.86,126.65Zm-2.7,4.93c3.17,4.84-.53-.8,0,0Zm1.26-13.74c3,0,2.93,6.47,2.55,6.44S257.86,117.84,261.42,117.84Zm5.71,22.31c-.76-.09,10-.33,10,1.65s-14.4,1.48-15.75-.34A5.36,5.36,0,0,1,267.13,140.15Zm-5.31-28Zm1.29,17.25c.51-.16,3.57,5.43,1.59,5.43C263.22,134.84,260.61,130.2,263.11,129.41Zm2.73,6c1-.28,2.47,1.93,2.37,2.73C268,140,261.12,136.61,265.84,135.4Zm2.84-16.77c3.73,0-.56,6-.5,6A5.06,5.06,0,0,1,268.68,118.63Zm-.37-3.11c3.52,1.22-2.14-.68,0,0Zm2.52,149.82Zm1.59-131.65c3.06,1.89-1.19-.68,0,0Zm-.56-7Zm1.63,9.7c1.37.6,1.6,1.42.62,2.41C272.91,139.28,271,136.44,273.49,136.44Zm-.85-6.47Zm2.06-2.82c1.31-.8-2.88,1.7,0,0Zm0-7.7c1.14,1.28,1.14,2.35,0,3.24C273.54,121.44,273.54,120.33,274.69,119.45Zm.78,11.73c1.32,1.52,1.34,2.59,0,3.23C275.09,134.17,274.2,128.19,275.47,131.18Zm3.33.4c1.13,1.14,1,2-.38,2.73C277.28,133.22,277.43,132.3,278.8,131.58Zm.13-15c2.73.74,6.09,8.59,2.57,8.59C280,125.13,274.25,115.26,278.93,116.54Zm.11,19.09c1.51-.07,2.2.61,2,2.12C278.71,140.58,278.61,135.63,279,135.63Zm3.16,4.26c1.61.94,1.55,1.69-.16,2.22C280.43,141.19,280.48,140.47,282.2,139.89Zm-.32-9.6c1.07,1,1.1,2,.08,2.93C281.18,133.22,279.54,128.85,281.88,130.29Zm5.47-.61c1.92-.18,3.06.58,3.44,2.23C290.79,137.51,280.62,128.45,287.35,129.68Zm-1.18-13.1c-.32-.11,9.09,3.24,4.85,4.43a3.13,3.13,0,0,0-2.64-1c0,1.38,2.41,3.88,2.41,5.07C290.79,129.82,280.3,114.91,286.17,116.58Zm.61,19.47c3.42,2-1.46-.85,0,0Zm1.53,2.84a4.3,4.3,0,0,1,3.3,3.54C291.61,145.65,282.5,138.89,288.31,138.89Zm1.77-3.71c2-1.17,2.44,4,2.12,4.32C293.4,138.23,286.82,137.15,290.08,135.18Zm5.17-4.08c1.68,1.73,1.52,2.14-.52,1.27C293,130.7,293.2,130.26,295.25,131.1Zm.23-7.45,2.41,1.55C298.53,128.53,288.27,122.81,295.48,123.65Zm-1.56-5.41a3,3,0,0,1,.27,4.26A3.18,3.18,0,0,1,293.92,118.24Zm4.13-1.21c2.48.54,3.38,1.91,2.65,4.17C298.57,124.23,291.64,117,298.05,117Zm-1,17.38c1.51,0,5.79,5.79,5.79,7.3a11.66,11.66,0,0,1-6.23-.31C297,141.69,295.5,134.41,297.09,134.41Zm1.13-5.88c3.78-.73,3.66,8.83,2,7.19C299.65,135.12,295.47,129,298.22,128.53Zm4.58,124.19c10.81-3.2,2.82,5.3-4.64,4.91C294.1,257.43,304.7,252.18,302.8,252.72Zm-1.34-17c9.73-4.48,5.69,5.84-1.2,8.55C296,246,296.6,237.26,301.46,235.74Zm1.26,12.52c3.11-2.9,5-2.94,5.8-.15,0,3.24-8.24,5.16-10.28,3.64C298.74,249.68,300.22,248.52,302.72,248.26Zm0-3.71c1.45-.34,2.9-.71,4.34-1.05,2.21,0-9.39,7-8.84,3.94A7.47,7.47,0,0,1,302.72,244.55ZM299.9,122.92a2.09,2.09,0,0,1,.63,3C298.8,125.92,297.7,122.18,299.9,122.92Zm6.2-5.49c3-.89,4.47-.25,4.47,1.95-1.85,1.32-10.45-.11-8.09-1.74C303.68,117.57,304.89,117.49,306.1,117.43Zm-.41,10.1c3.16,0,2.25,6.1,1.21,7.5C307.33,134.46,300.59,127.53,305.69,127.53Zm-.8-5.64a3.57,3.57,0,0,1,2.43,3.87C303.61,129.53,303.15,121.89,304.89,121.89Zm.48,13.38c1.35.81,3,3.87,3.87,5.46-.12-1.56-1.27-13.2,0-13.2-.37,0,7,10.57,7.08,10.28,1.58-5.67-1.69-6.46-2.36-13.63,2.22-6.14,13.35-3.26,11.33.82-1.84.32-3.68.69-5.49,1.08,0-1.3,22.05,6.91,17.46,11.67-1.31,1.29-16.68,1.93-16.68,1,0,.78-11.24,2.69-10.22,2.51C303,142.68,306.83,136.13,305.37,135.27Zm6.92,86c1.72-.21,3.43-.45,5.13-.68,2.92.74-7.65,6.49-9.47,6.49C304,227.07,313.17,221,312.29,221.26Zm-.64,10.45q3.17-1.28,6.27-2.64a19.86,19.86,0,0,0,1.2,5.78c-3-1.83,4.7-9.56,7.38-9.74,4.42-.29-2.19,8.74-3.37,9.28-4.38,2-8.75,4.16-13.09,6.3C308.29,237.64,307.54,232.76,311.65,231.71Zm1.29-5.08q4.2-4.27,5.23-.45c0,2.22-9.65,6.68-9.65,4A5.69,5.69,0,0,1,312.94,226.63Zm-3.22-105.57c1.6,1.34,1.65,2.75.16,4.3C308.32,124,308.27,122.59,309.72,121.06Zm1.37,129.06a15.36,15.36,0,0,0,6.81-3.38c-.78-.86-7.54,2.8-8.08,2.78-3.58-.11,10.06-12.19,9.89-6.84.33-5.62,7.5-12.38,15.3-12.38,1.29,0-.57,10.54.93,10.54,3.5,0,0-18.25-.08-18.17,1-.65-4.36,13.93-7.45,8.62-5.33-9.08,13.92-10.7,12.78-13.64a6.46,6.46,0,0,1-4.6.1,7.81,7.81,0,0,1,5.73-3.86c3.63,1-.69,20.84,2.26,23.7-.5-.47-1.77-23.56-.7-25.5,5.87-10.64,8,15.8,7.57,18.09.93-4.79-4.43-29.81,3-29.81-.1,0,3.19,18.32,2.9,20,1.2-6.86-1-15.39-1.5-22.44-1.56.63-2.83,3.38-4.75,3.15-.49-1.31-1-2.63-1.45-4,1,0-2.87,11-6.08,8-6.26-6.63,12.38-13.21,12.22-13.37-2-1.94-23.62,10-27.37,11.76.51-.23-1.62-6.58,1.59-8.15,4.14-2,14.63-4.42,16.82-8,.91-1.52-12.33,3.24-11,3.57-6-1.48,10.81-9.28,11.48-9.51,7.19-2.6,14.66-4.67,22.15-7,11.62-3.6,34.32-.79,48.54,1.65-.11-.06-5.68,6-6.2,5.43,2.53,2.51,20.68-1.07,20.68,2.65a3.93,3.93,0,0,1-2.41,1.67c0,.69,4,1.65,4,2.43,0,1.68-14.29-1.21-16.33,4.36.18-.47,5.56-4.09,7.21-1.32,1,1.58-.35,5.11-4.15,3.88,2.95.94-1.16,5.53-2,8.08.45-.38,14.63-14.42,13.5-7.88.16-.92-5.39,5.86-4.58,5.86a18.12,18.12,0,0,1-1.56-3.23c.05,0-1.43,7.27-.77,7.27,0,0,7.88-8.7,7.88-3.06,0-.47-12,9.43-12,8.09a9.22,9.22,0,0,0,1.88-3.41c-4,0-13.36,4.58-18.64,5.59-8.36,1.62-16.46,3.11-24.35,6.46.06-1.42-.93-9.75-.48-10.17-1.69,1.73,1.53,11.08-1.8,11.08-2.54,0-7.32,2.79-9.33,4-5.64,3.54-14,6.89-19.92,12.22-5.46,4.92-13.37,7.89-20,10.8-3.41,1.46-6.89,2.83-10.25,4.37C313.5,253.48,305.67,251.63,311.09,250.12ZM312,241a53.85,53.85,0,0,1,6.72-2.87c.6.1-6.06,6.42-8.94,6.23Q308.22,242.09,312,241Zm6.48-124.26c6.18-.64,37.36-1.74,41.36-5.66-1.82,1.91-47.24,8.38-47.24,7.31A7.39,7.39,0,0,1,318.43,116.69Zm4.34,100.69c1.26-.47,2.52-1,3.77-1.42,3.29.17-6.53,11-7.77,5.61Q318.4,217.84,322.77,217.38ZM320,223.85c2.24-.78,4.42-1.69,6.57-2.65,2.23-.1-5.61,5.33-7.06,5.36C318.67,225.58,318.84,224.68,320,223.85Zm6.81-105.45c3.78-.52,16.63,16,17.91,15.25.14-.1-10.49-17.68-5.57-17a10.36,10.36,0,0,1,4.56,5.5,14.74,14.74,0,0,1-3.12,1.07c1.24.57,15.05,11.44,15.21,11.25,1.45-1.69-8.67-9.82-8.67-11.27a12.86,12.86,0,0,1,3.77-.69c-1.54,1.76-3-6-3.52-6.69.05,1.33.07,5.16-1,5.9-.27.2-4.91-4.81-4.81-5.23.48-2.36,23.87-4.18,27.68-5,.27,1.32.68,7.52-.59,7.93a40.3,40.3,0,0,0-5.42-3.94,16.82,16.82,0,0,1,1.82,4.06c-1.65,1.89-10.7-1.67-10.7-3.85a9.75,9.75,0,0,1,2,4.55,12.89,12.89,0,0,0-4.38,1.19c0,2,9,14.34,9.47,13.84-8.56,9.11-36.53-3.77-30.93-14.38-.58,1-.24,3.83-.29,5.06-1.42-.85-6.44-5-6.44-6.58C324.82,119.09,325.83,118.75,326.83,118.4Zm1,26.53c1.84-1.09-3.08,1.92,0,0Zm1.58,74.83c1.85-.78,3.68-1.55,5.53-2.31,1.44-.27-4.95,6.65-6.64,5C328.68,221.55,329.06,220.66,329.43,219.76Zm1.63-6.5,3.42-1.38c3,.65-2.79,8-5.92,6.6C327.61,216.22,328.46,214.49,331.06,213.26Zm-1.15-8.84c8.23,0,5.88,8.89-1.49,8.89C328.74,213.31,326,204.42,329.91,204.42Zm2.44-56.65a3.57,3.57,0,0,1,3.11,2.51C334.25,152.25,330.61,147.77,332.35,147.77Zm2-30.36c3.81-1.2,3.17,5,2.58,5.16C336,122.79,330.25,118.71,334.36,117.41Zm5.21,91.64c.93-.46,1.83-.93,2.76-1.4-.46,2.44-1.58,8.16-5.55,7.12C335.94,212.33,336.88,210.44,339.57,209.05Zm-1.06-8.63c1-.36,2-.74,3-1.1-1.34.59,2.53,9.93-5.08,9.93C334.89,209.25,336,201.31,338.51,200.42Zm7.49,4.9c1.05-.58,2.14-1.15,3.2-1.72,1.74,0-1.46,7.27-4.78,7.27C342.33,208.31,342.82,206.44,346,205.32ZM348,9.41ZM356,121.66c3.51-.93,2.33,3.7,3.25,5.11-.94-1.45,9.62,5.7,9.62,8.07C368.9,137.63,350.78,123,356,121.66Zm7.79-.44c2.22-.46,3.63.35,4.23,2.37.05.94-9.2,1.21-7-1.36C362,121.89,362.9,121.57,363.82,121.22Zm-2-11.24c-2.84,0,8.29-1.13,7-.39C366.36,111.2,360.14,110,361.85,110Zm4.64,15.15c2.07,0,5.42,4.11,5.92,4.09-2.64.14-8.7.11-9.12-3.9C364.37,125.25,365.45,125.18,366.49,125.13Zm7.05,5.81c.38.32,12.32-2.12,10.55,2.32-1.53,3.78-6.93-1.32-8.38-1.64,2.55.56-8.87,6.61-7-.27A5,5,0,0,1,373.54,130.94Zm-2.48-10.37c2.21-.47,3.47.27,3.81,2.2C373.47,125.05,364.32,121.31,371.06,120.57Zm2.17-10.09c5.52-.19,7.67,1.58,9.59,6.84C385.38,124,360,110.9,373.23,110.48Zm-1.83,6.31a2.58,2.58,0,0,1-.67,3.22A2.85,2.85,0,0,1,371.4,116.79Zm1.32-8.79c54.33-2.78,104.23-8.14,157.84,4.48C559.88,119,584,132.7,610.67,145c2.23,1,34.75,19.66,28.54,25.89-3.46,3.34-19.71-15.07-22.05-17,.43.35.49,3.71.67,4.38-10.05-4.81-18.46-11.75-29.55-14,2.44.53,11.18,5.1,13.09,7.09,3.29,3.17-7,7.46-7,3.69,0,1.65,4.8,1.65,4.8,3.3,0,2.89-3.35,9.87-5.31,12-1.25,1.34-8.34-8.13-8.34-8.16,1.07,1.8,2.07,3.62,3,5.5-6.82,7.68,0-22.48.77-20.23,0,0-3.93,9.24-4.82,9.61a39.23,39.23,0,0,1-3.79-2.28c0-.08,4.78,11.08-.46,9-3.37-1.36-6-7.72-8.47-10.74,4.54,7.71,8.2,10.09,4.41,15.39-.14.21,3.29,4.54,1.41,6-4,3.17-15.17-9.74-16.95-10.86,1.24.75-7.18-.4-8.71-1.2-3.27-1.64-8.61-7.15-11.3-8a4.53,4.53,0,0,1-.1,3.06c-4.4,0-56.12-17.81-50.49-23.24-2,2.1,6.19,8.29,6,10.59-.39,4.78-16.73-8-15.52-9.19,1,2.06,2,4.15,2.92,6.3-12.66,4.15-9.32-18.47-18-18.47-1,0,9,14.57,9,16.31-.12,3.47-12.23-11.63-13.65-13,.47,0,3.61-.82,3.77-.62.44.5-11.51-10-10.86-9.86,1.33.25-11.41,5.34-11.41-1.58a20.25,20.25,0,0,0,1.5,3.2c-2.27,4.33-11.24-4.51-10.88-6.24-1.12,5.32,6.07,7.74,5.14,11.4-.85,3-12.79-1.17-10.45-3.75a25.88,25.88,0,0,0,5.82-.56c0,2.71-10.75-6.64-7.19-6.64a11.8,11.8,0,0,0-.53,2.41,29.31,29.31,0,0,0-3.47-2.7c.12,1.33,2.39,4.73,3.4,6-5.59-.1-6.07-6.34-9.6-7,.6,2,1.27,4,2,6.1-1,5.2-4.09-5.75-4.23-6.87,2.57,15.2-21.26,7.75-26.26.32,5.78,6.7.26,12-4.75,4.36-6.16-9.39,17.95-9.15,19.82-7.21C400.08,105.13,368.58,108.22,372.72,108Zm1.57,16.31c2.13,0,4.8,2.65,6,4.42C376.9,129,368.8,124.31,374.29,124.31Zm6.41-3.85c.33.24,6.17-1.17,5.06,1.55-1,2.33-10.74-.35-10-1.25A6.39,6.39,0,0,1,380.7,120.46Zm.35,4.77c.94,1.38,9.6-3.36,9.6,3.4C390.65,135.12,377.63,120.17,381.05,125.23Zm1.1,17.68Zm5.5-12.94a7.88,7.88,0,0,1,7.81,3.25c0,2.84-13.14-1.32-11.77-2.7Zm.73-10.31c1.42.67,1.82,1.64,1.18,2.88C388,123.47,385.22,119.44,388.38,119.66Zm1.47,24.23a4.49,4.49,0,0,1,3.39,3.4C392.31,146.84,383.49,144.05,389.85,143.89Zm7.38-18c.73.71,1.45,1.39,2.17,2.08-4.46.53-6-.19-9.25-3.23A6.48,6.48,0,0,1,397.23,125.88Zm-5.43-6.43a3.22,3.22,0,0,1,2.42,3C392.58,124.68,388.61,119.45,391.8,119.45ZM398,129.86a20.35,20.35,0,0,1,8.3,3.36c.4,0-2.78-2.93-3-3.09,4.32-1.31,8.37,1.26,11.11,4.71-1.77-.09-21.35-1.19-19.32-4.47Zm.25-10.41a4,4,0,0,1,4.49,2.6c0,1.65-9.95.23-7.41-2C396.26,119.87,397.23,119.66,398.21,119.45ZM397.28,4.8c-.18-.09-4.32-1.72,0,0ZM401.6,124a7.52,7.52,0,0,1,5.14,3.76C406.74,131.8,394.71,123.88,401.6,124Zm7.56-4.16c-.27,0,15.25.3,11.51,2.66-3.2,2-15.43-2.92-16.63-2.44Zm-3.08-115c.21.06-3.35-1.32,0,0Zm4.48,119.44c5.76.24,11.42-1.52,14.69,4.12-.53-.25-9.62-2-8.58-3a2.91,2.91,0,0,1,.18,3c-1.09,0-12.49-2-10.51-3.88A12.47,12.47,0,0,1,410.56,124.24Zm.82-120.58c7.58-.2,42.35,3.58,45.82-.2-2.92,3.29-49.67-.09-49.67,1A6.08,6.08,0,0,1,411.38,3.66Zm3.89,126c-1.28-.08,13.06,4.16,8.48,5.84-2.88,1.08-13-1.28-13-5.55A9.22,9.22,0,0,1,415.27,129.61Zm2.87,47.81c2.33-1.8,13.39-2.56,15.66-.27-1.51-1.52.3,3.5.3,2.13,0,2.24-18.51,1.12-18.51.78C416.43,179.2,417.3,178.31,418.14,177.42Zm3.73-58.28c1.45-.88,5.82,1.87,5.82,3.39C427.69,124.75,418.12,121.53,421.87,119.14Zm2,10a9.8,9.8,0,0,1,6.2,5.68C430.08,139.25,417.05,129.16,423.88,129.16Zm5.64-3.17c3.77,4.74-3.94.7-5.14-.38C425.86,124.73,428.2,124.39,429.52,126Zm.11,64.83a6.85,6.85,0,0,1,4.17.81c.59,1-7.75,1.64-7.75,0A5.07,5.07,0,0,1,429.63,190.82Zm.29,19,3.59,1.15c-.16-.48-6.63,3.12-6.63-.23C427.29,209.31,428.32,209,429.92,209.8Zm-1.54-3.6a3.69,3.69,0,0,1,4.89,1.47C433.13,208.14,425.82,210.27,428.38,206.2Zm2.67-76.4c2.08.48,6.11,4.24,6.67,6.25C438.82,140.06,422.91,127.93,431.05,129.8Zm-.2,73.8ZM441,126.23c4,4-7.75,1.73-10.23-.71C433.29,125.05,439,124.28,441,126.23ZM432.49,198Zm14.08-64.77c1.07,1.07,2.15,2.18,3.24,3.26-6.09,1.08-12.12-.95-15.78-6.07C438.51,129.26,443.27,129.86,446.57,133.18Zm-9.39,76.68c1.29.09,2.6.18,3.92.29C443.7,211,429.65,209.46,437.18,209.86Zm.54-9.49c2.69.81,2.69,1.6,0,2.43C435.06,202,435.06,201.18,437.72,200.37Zm-.08-2.83c2.06.56,2,1.2-.15,1.9C435.35,198.9,435.39,198.26,437.64,197.54Zm-1.2-3.65Zm.88-3c1.68.38,2.06,1.11,1.15,2.16C438.15,193.06,433.38,190.58,437.32,190.88Zm.24-4.91c1.94,1.07,1.85,2.07-.29,3.08C435.3,188,435.39,187,437.56,186Zm.16-3.39c1.63.81,1.63,1.61,0,2.42C436.11,184.19,436.11,183.39,437.72,182.58Zm.09-6.49a5.81,5.81,0,0,1,1.21,3.24,20.89,20.89,0,0,1,1.55-2.43c1.89,0,.36,3.69-1.63,3.82C435.28,180.94,436.48,176.09,437.81,176.09Zm1.57,29.13c1.72.7,1.58,1.22-.46,1.62C437.19,206.18,437.35,205.63,439.38,205.22Zm6-84c.47.85,1,1.66,1.42,2.52-1.1,3.44-7.24-2.56-8.54-3.87C440.43,119.39,443.92,119.46,445.42,121.22Zm-4.31,61.54a4.22,4.22,0,0,1-.54,4.66A4.27,4.27,0,0,1,441.11,182.76Zm.24,14.37c1.07.82,1.07,1.63,0,2.41C440.29,198.76,440.29,198,441.35,197.13Zm-.32-3Zm0-4.85c2.72,2.81-.77-.77,0,0ZM443.76,205q3.5.78-.48,1.84C441,206.34,441.2,205.75,443.76,205Zm2-28.91c6.66,0,5.12,6.83-.81,7.28.94-.51,3.68-1.79,3.77-2.86a7,7,0,0,0-4.95-1.31C443.08,177.59,443.75,176.53,445.79,176.09Zm-1.29-51c3.44,0,5.16,1.27,5.13,3.78C445.9,131.33,440.83,125.13,444.5,125.13Zm-.35,84.12Zm2.6-37a2.88,2.88,0,0,1,3.57,0c2.12,3.49-6.52,2.51-6.52,1.83C444.78,173.51,445.75,172.87,446.75,172.24ZM445.37,185Zm2-55c2.28,0,9.68,3.51,9.17,6.67C455.75,141.58,442.84,130,447.33,130Zm3.13-10.38c3.78.12,6,2,6.9,5.68-2.29.13-13.28-2.79-10.89-5.21Zm-2.09,69.21c-.84.93,0-6.34,1.83-4.07a6.37,6.37,0,0,1-1.85,6.59C446.42,191.24,446.42,190.39,448.37,188.8Zm.3,16c3.42-2.11-4.3,2.7,0,0Zm.82-11.68Zm.41,4Zm3.78-71.34c-.27,0,9.17,4.2,7.48,4.45-.22,0-14.08-2.16-11.05-4.25C451.27,126,452.5,125.86,453.68,125.79Zm.56,67.29Zm-.32-4.61c1.41,1.41,3.27-4.88,4.47-3.68.89.88-.53,10.53-1.54,9.45a14.16,14.16,0,0,1-.25-5.19c.08-.65-3.48,2.5-3.16,2.58C453.41,191.39,453.64,188.2,453.92,188.47Zm.72-7.53c1.49,1.27,1.59,2.62.32,4.06C455.31,185,452,180.94,454.64,180.94Zm-.34-11.81c.58-.34,4.79-2.6,6-3,4.74-1.75-7,10-4.24,5.73A30.6,30.6,0,0,1,454.1,178C453.17,177.93,453,170,454.3,169.13Zm1.39-38.35c1.63,0,14.54,5.95,12.07,8.5C462.8,144.26,453,130.78,455.69,130.78Zm.44,45.95c3.29-4.46,2.59,5.46,1.33,6.22C456.65,183.47,455.36,177.77,456.13,176.73Zm1.49,26.07c.81.93.54,1.69-.8,2.26C456,204.12,456.22,203.38,457.62,202.8ZM457.46,141c2.62-1.6-1.77,1.05,0,0Zm2.62,67.77c-.34-.13-4.12-1.7,0,0Zm3.06-.61c.84.48,9.66-9.16,10.14-8.6,4.13,5-3,12.18-5,8.86-.12-.14,4-2.7,2.06-3.1C466.82,204.53,463.79,208.48,463.14,208.11Zm-.85-2.89Zm0-10.11c1.09.86,1.09,1.8,0,2.84C461.19,197.1,461.19,196.13,462.29,195.11Zm0-9.71c1.18-2.73.83,3.65,0,3.65C461.16,188,461.19,186.8,462.32,185.4Zm.71-6.53a5.61,5.61,0,0,1-.42,4.5A5,5,0,0,1,463,178.87Zm2.07-12.71c1-1,6.2-9.6,8.15-7.69,1,1,1.15,12.77-.5,12.77s.67-8.43-1.35-9.23-2.54,14.69-3.47,15.31a37.58,37.58,0,0,1-1.19-7.66c-1.35-2.54-3.41,6.71-3.65,6.85C462,177.15,463.8,167.5,465.1,166.16Zm-1.65-2.22c1.1.95.95,1.79-.42,2.46C461.92,165.44,462.07,164.61,463.45,163.94Zm1.12,37.41c1.76-1.18,2.59-.83,2.49,1.13C465.66,204.12,462.93,203.91,464.57,201.35Zm6.27-53.22c1.16.59,2.34,1.18,3.51,1.8,0,3.08-7.32-2.26-7.91-2C467.88,148,469.36,148.05,470.84,148.13ZM467.3,3.18c.19.09-3.46-1.33,0,0Zm1,193.2c1.88-.21,2.19.53,1,2.27C467.14,199.6,466.8,198.85,468.26,196.38Zm0-8.16c2.93,0,.54,4.72-.36,5.27A4,4,0,0,1,468.29,188.22Zm0-9.08c1.35.36,1.35,5.05-.45,5.05A4.36,4.36,0,0,1,468.32,179.14Zm10-176.37a27,27,0,0,1,8.12.89c0,.2-16.38,1.61-17.51-.11C468.1,2.27,481.35,2.87,478.32,2.77Zm-5,188.9c1.59,6.11.22.87,0,0Zm0-7.68c1.66,4,.18.42,0,0Zm0-10.52q1.29,2.52-.23,3.85C473.18,177.93,473,171.77,473.31,173.47Zm2.11,15.89a4,4,0,0,1-.09,4.21A4,4,0,0,1,475.42,189.36Zm0-7.27a4,4,0,0,1-.09,4.22A4.05,4.05,0,0,1,475.42,182.09ZM476,196c1.33,1.33,2.15,6.85,1.13,8.48C475.19,207.61,474.92,194.91,476,196Zm2-41.49c.4-.15,1.29,9.89.39,10.93C478.67,165.09,475.19,155.46,478,154.52Zm.62,11.88a5.94,5.94,0,0,1-.22,5.65A6.07,6.07,0,0,1,478.6,166.4Zm1.86,38.17c1.21,1.34-1.86-2,0,0Zm-1.25-12.29c.41-.63,2.28,5.2,1.93,5.86,3.37-6,2.38-18.81,1.78-26.09.37,4.77,6.5,30.75-4.28,30.75C477.89,202.8,478.49,193.4,479.21,192.28Zm.06-15.38c.75,0,1.43,12.44,0,13.3C479.41,190.13,477.41,176.9,479.27,176.9ZM485,200.06c1,.61-.1-4.27,1.49-3.3,2.43,1.48-3.15,8.11-4.33,7.53A5.86,5.86,0,0,1,485,200.06Zm-2.7-41.26c.42-.27.77,6.45.63,6.8C483.52,164,480,160.27,482.25,158.8Zm.18-7ZM486,151c3.21,2.86,1,43.7,0,43.56C487.07,194.71,481.89,151,486,151ZM501.12,3.33c.42,0,18.06,1.8,18,2-1.62,2.74-27-1.79-27-2.11A42.72,42.72,0,0,1,501.12,3.33ZM581,171.24c2.24,0,7.88,6,7.5,6.39a12.59,12.59,0,0,1-1.15-3.53c3-3.91,2.2,4.63,1.66,5.9C587.74,182.31,574.07,171.24,581,171.24Zm.1-3.81c2.53-2.56,10.76,2.8,10.82,6C591.83,171.06,577,171.62,581.06,167.43Zm10.77,8.74c1.32-2.09,8.47,8,9.31,8.35-.93-.37-3.47-5.69-3-5.88,2.22-.82,15.65,8.93,14.47,10.09C609.73,191.53,587.79,182.67,591.83,176.17Zm2.34-3.62c.62-.37,20.28,11.28,20.28,9.2,0-1-5.85-3.1-2.57-5.14.61-.38,6.67,11.61,8,11.61C616.2,188.22,593.88,172.72,594.17,172.55Zm2.56-4.15c3.16-2.85,4.14,6.33,5.3,5.61C600.64,174.86,592.84,172,596.73,168.4Zm2.35-6.66c2.25-5.72,9.07-.3,7.17,4.62S597.16,166.47,599.08,161.74Zm3.14,7.54c2.42,1.26,2.74,2.43.94,3.47a10.89,10.89,0,0,1-3.64-4.36C600.42,168.7,601.33,169,602.22,169.28Zm0-15.59c1.27-5.66,10.35,4.79,7.38,6.66,7-4.24,6.93,4.06,6.36,4.06C609.29,164.34,600.94,159.94,602.19,153.69Zm2.48,18.53c3.24-5.1,9.87,6.31,4.45,6.31C606.6,178.53,603.15,174.62,604.67,172.22Zm2.71-6.4c4.26-9.89,10.32,7.88,4.72,6.59C608.57,171.6,605.87,169.42,607.38,165.82Zm11.74,23.6c3.39.91,5.17,2.9,5.4,6-1.81,1.72-11.94-8.26-11-8.58A17.42,17.42,0,0,1,619.12,189.42Zm-4.24-19.31c3.44-8.17,9.54,3.27,8.29,4a10,10,0,0,0,1.35-2.91c8.79,0,6.86,13.31-.25,7.3C620.62,175.5,612.52,175.78,614.88,170.11Zm4.4,7.75c2.9,1.53,7.84,9.47,10.7,9.55-.64-1.25-1.24-2.51-1.79-3.79,4.91-2.51,4.79,3.55,4.79,4.95,0-6.5,16.49,7.54,14.24,9.84-2.72,2.83-31.82-18.58-32.56-21.53C616,175.38,617.48,175.69,619.28,177.86Zm-.8-14.71a2.07,2.07,0,0,1,0,3.25A2,2,0,0,1,618.48,163.15Zm2.17-1.71c.64.36,8.31,9.23,1.9,7.08C621.42,168.15,617.24,159.57,620.65,161.44ZM622,186.6c4.67,0,10.67,7.54,13.53,9.41,1.3.81,16.56,4.13,17.07,9.65a2.59,2.59,0,0,1-1.78,1.67C650.1,208.17,621.05,186.6,622,186.6Zm4.91-21.83c.6,0,3.66,7.48,4.18,7-.41-1.47-.76-2.93-1-4.4a3.13,3.13,0,0,1,2.91,3.06C633,179,620.39,164.77,626.93,164.77Zm-.68,29.12c2.65,0,11.47,5.62,13.16,7.68C639.36,201.52,624.29,193.89,626.25,193.89Zm4.51-15.62c3.83-8.09,6.91,4.65,5.44,5.51,1.25-.76.61-7.15,3.86-4.23.81.77,8.71,7.51,2.71,8.56C638.8,188.8,628.91,182.28,630.76,178.27Zm2.92-7c1.8-2.85,10.3,6,8.55,7.87C641.27,180.11,631.54,174.73,633.68,171.31Zm4-9.78c4.15,0,15.83,9.8,19.67,12.43,2.21,1.49-.4,7.53-3.08,6.46-2.37-.9-3.84-9.18-5.56-9.18-1,0,1.87,6,1.77,6.12C645.75,182.46,637,161.53,637.72,161.53Zm6.2,42.12c1.4,1.74.92,2-1.47.71C641,202.64,641.51,202.39,643.92,203.65Zm1.13-27.84c2.39,1.76,2.55,3.56.54,5.45C644.62,181.37,639.44,172.48,645.05,175.81Zm-.86,11.42c-.05.88,3.08-4,2.18-3.76a3.26,3.26,0,0,0,2.7.9c0-1.32-3.57-3.7-.88-5.41s6,4.92,5.25,6.54c-.37.74-3.37-1.3-4-1.4,7,7.73-4.58,8.32-5.14,6.43s8.1,8.34,3.89,6.4C644.7,195.3,644,190.44,644.19,187.23Zm5.82,9.5c3-6.53,7.89,4.47,2.89,5.14C649.58,202.32,649.18,198.53,650,196.73Zm3.57-8.51c.46-1.37,5.1,8.28,3.27,8C652.51,195.68,652.59,191.24,653.58,188.22Zm.14-7.28Zm.91,28.31a3.58,3.58,0,0,1,2.3,2.37C655.69,212.39,652.78,209.25,654.63,209.25Zm2.31-4.49c.23.08-.32-4.34,1.57-2.44.94.94,1.81,7.8-1.6,6.45C655.4,208.17,654,203.59,656.94,204.76Zm-.32-21.07c7.76-2.9,2.25,8.83,1.62,8.5C656.58,191.35,654,184.7,656.62,183.69Zm2.51-5.65c6.48-4,10.54,7.46,8.31,13.85-.53-1.46-6.06-13.49-7.07-12.61a23.52,23.52,0,0,1,1.23,4.53C658.6,186,656.82,180.51,659.13,178Zm.81,21.5c-2.14,0,3.76-10.12,3.59-7.27,0,.63-3.75-6.84-.62-5.5,3.5,1.52,3.6,7.42,2.43,9.92C663,201.66,658,199.54,659.94,199.54Zm1.4,10.86c-1.09-5.77,5.87,5,1.76,5.31S661.56,211.59,661.34,210.4Zm3.77-9.61c.68-1.31,1.37-2.61,2.06-3.92,2.34-2.21-.37,16-2.14,13.2C662.37,205.93,663.08,205.29,665.11,200.79Zm3.12,16.48c2.88,1.54,1.54-7.11,5.19-6.64.61.08-2,11.29-5.52,8.31C666.21,217.37,666.29,216.81,668.23,217.27Zm.58-36.62c1.58.61,5.56,5.95,6.13,5.95-.49,0,9.43,2.55,6.73,3.53,8.7-3.27,7.87,10.85,7.5,10.85-2.21-.1-3-9-5-9.8-1.14-.45-.7,5.53-2.15,6.25-2.39,1.18-3.83-10-5.73-10,4.68,0,.4,11.61.4,11.63C678.12,197.77,666.46,179.81,668.81,180.65Zm1.23,29c.55-1,1.09-2.11,1.67-3.17-.78,2.68-.64,5.73-2.68,8C667.15,213.63,667.5,212.05,670,209.61Zm-.93-18.47c1.4-3.48,5.6,6.81.73,6.81C668.3,198,669,191.38,669.11,191.14Zm4,6.11c1.21-.41,3.06,8.59-.13,7.91C672.57,205.06,671.32,197.91,673.13,197.25Zm.81,21.37c.65-.41-3.5,2.14,0,0Zm.9-3.26c3-1.91,3.95,7.38.35,7.58C676.29,222.87,673.71,216.06,674.84,215.36Zm.44-10.87c.91-1-.83,3.74-1.34,4.38C674.22,207.75,674.64,205.2,675.28,204.49Zm3.59,6.38c1.21-1.86,1,5.1,0,4.45A3.66,3.66,0,0,1,678.87,210.87Zm2.44,13.37c.68.67,1.34,1.37,2,2C682.23,228,675,220.94,681.31,224.24Zm0-21.41c0,1.19,1.39,5.14-.18,7.32C680.17,211.44,681.28,203.11,681.28,202.83Zm0,18.16a2.84,2.84,0,0,1,3.2,2.27C684.48,222.46,678,223,681.28,221Zm2.16-10.12c1.36-1.3,5.59,7.67,1.46,8-2.19.21.49-6,.06-6.1a6.14,6.14,0,0,0-2.73,2.06A13.55,13.55,0,0,1,683.44,210.87Zm.19-13.68c.15-2.55,3.13,7.81.12,6.05A10.15,10.15,0,0,1,683.63,197.19ZM687,202.8c2.87,0-1.7,5.39-1.93,5.17A6.38,6.38,0,0,1,687,202.8Zm.41,24.79c3.59,1.35-4-1.52,0,0Zm1.21-2.89a2.77,2.77,0,0,1,2.09,2.85C689.11,229.12,685.33,222.94,688.61,224.7Zm-.9-17.65c0-3.65,3.9,4.65.33,4.65A4.26,4.26,0,0,1,687.71,207.05Zm1.92,15.16Zm.18-6.22c2.23,2.22-.34-.33,0,0Zm1.12-11.57Zm.57-4.69c1.46,1.31,1.39,2.61-.24,3.87C689.84,202.3,689.91,201,691.5,199.73Zm-.16-7.74c1.32.47,7.75,5.43,5.89,7.23C694.43,202,689.11,191.13,691.34,192Zm.37,24.65c1.77-2.84,2.67,2.8,2.25,3.45C693.1,221.36,690.26,218.89,691.71,216.64Zm2.2,5.11c1.75,1.75-2.57-2.7,0,0Zm1.05-8.84c3.37,2-1.36-.82,0,0Zm-.24-5.54a8.14,8.14,0,0,1,2.65,5.47C697.38,211.81,692.12,209.87,694.72,207.37Zm1.37,17.79a2.73,2.73,0,0,1,1.77,2.74C695.77,227.9,694.34,224.52,696.09,225.16Zm3.84-4.73c3.19,4.84-2.42,1.78-2.84.85C696.23,219.48,698.5,218.25,699.93,220.43Zm-2.84-17.16c1.51-3.9,4.28,2,3.15,3.24C698.86,208,696.51,204.83,697.09,203.27Zm1.09,4.38Zm1.53,16.2c1.53,0,2.32.65,2.33,2C701,226.89,695.6,223.85,699.71,223.85Zm.08,3.22Zm-.08-30.74c2.95.07,3.81,1.44,2.57,4C700.49,203.17,697.49,196.33,699.71,196.33Zm.89-144.06Zm1.28,163.6c2.17.85,2.28,1.41.32,1.7C700.16,216.76,700.05,216.2,701.88,215.87Zm-.46-5.06c0-3.7,4.44,6.77-.23,3.52A4.5,4.5,0,0,1,701.42,210.81Zm2.09,9a2,2,0,0,1,.32,2.94C703.83,223.16,700.09,219.8,703.51,219.8Zm2.25-15.38c1.81,0,4,3.77,2.59,5.22C706.28,211.75,700.45,204.42,705.76,204.42Zm-.34,25.07Zm2.17-18.34c.57.6-.48,4-.8,5C706,215,704.91,208.27,707.59,211.15Zm-2.17-10.36c3.57,2-1.82-1.11,0,0ZM707,226.71c2.78-1.64-1.91,1.18,0,0Zm1.86-27.52c.69.22,6.05,5.11,2,5.11C709,204.3,704.84,198,708.89,199.19ZM710.41,231Zm-.55-9.58Zm1.76-4.53c1.84,1.82-2.69-2.71,0,0Zm-1.37-11.65c1.07.82,1.07,1.62,0,2.43C709.18,206.84,709.18,206,710.25,205.22ZM712.68,223Zm-.1-10c1.5-.06,1.88.73,1.18,2.35C712.13,216.2,711.72,215.41,712.58,213Zm2.58-5.7c3.86,2.42-3.06,6-2.93,3.34A5.15,5.15,0,0,1,715.16,207.29Zm-1.67,21.41Zm.8-3.25Zm.79-21.43c.52.28,3.21-3.09,3.21-.12C718.29,207.61,712.79,202.64,715.08,204Zm.42,35.2c1.42.34,2,1.16,1.77,2.42C715.58,241.66,715,240.85,715.5,239.22Zm0-10.52Zm1.66-4.62c1.39.56,1.54,1.4.48,2.54C717.65,226.58,714,224.08,717.11,224.08Zm1.35-9.15c1.82,0-.54,5.22-1.78,4.48A4.74,4.74,0,0,1,718.46,214.93Zm.42-156.66c1.82,1.84-2.74-2.74,0,0Zm-.59,176.89Zm2.44,5.68a7.18,7.18,0,0,1,4.58,2.1C723.55,244.73,717.75,240.84,720.73,240.84Zm-.4-11.35ZM719.47,219Zm.37-9.64c1.17-1.84,2.58,4.65,1.86,4.73C719.55,213.45,718.93,211.88,719.84,209.34Zm1.53,15.85c2.32-1.47,1.18,3.51.1,3.51A2.63,2.63,0,0,1,721.37,225.19Zm.87-21.16c2-.47,3.11.39,3.3,2.57C725.54,210.54,718.62,206.3,722.24,204Zm1.6,14.22c.62-1,2.9,3.15,0,3.15C722.85,220.5,722.83,219.46,723.84,218.25Zm2.52,12.48c1.25-.78-2.87,1.65,0,0Zm.4-19c1.94-1.57,1.24,4-.5,4Q724.72,213.69,726.76,211.73Zm1.18,30.56a26.15,26.15,0,0,1,6.07,1.28C731.86,246.62,724.86,241.58,727.94,242.29Zm-.58-15.82q2,1.41,0,2.82Q725.35,227.88,727.36,226.47Zm2.22,10.76c3.57,2.16-2.81-1.72,0,0Zm-.34-32.74c1.12-1.11,1.39,4.76-.54,4.76A5.05,5.05,0,0,1,729.24,204.49Zm0,14.16c1.28-3.29,3.42,3.56.74,3.56C728.45,221.52,728.21,220.32,729.24,218.65Zm4.36,8.43c3.38,1.82-1.32,4.6-2.62,2.61C730.67,227.79,731.55,226.94,733.6,227.08Zm-1.77,4Zm.57-18.68c2.12,0,1.19,5.48-.4,4.5A3.44,3.44,0,0,1,732.4,212.44Zm4,25.56q3.44.47,1,2C736.12,240.19,731.13,238.26,736.42,238Zm-2.09-32.78c2.77,0,.89,6.36-.08,5.59A6.06,6.06,0,0,1,734.33,205.22Zm.88,29.94Zm0-15.77c2.21-1.38,2.2,3.12.56,3.47C734,222.09,733.77,220.94,735.21,219.39ZM736,67.26c4.2,2.58-2.55-1.59,0,0Zm.81,176Zm.5-7.5a2.06,2.06,0,0,1,2.74,1.13C738.65,237.89,737.74,237.52,737.31,235.74Zm.22-22.43a5.27,5.27,0,0,1,1.38,4.61C737.1,219.78,735.86,213.31,737.53,213.31Zm1.39,19.09c1-2.69,3,1.83,1.36,2.66C738.2,236.14,738.8,232.78,738.92,232.4Zm.42-26.83c3.91-2.58,3.51,8.73-.12,6.55A7.77,7.77,0,0,1,739.34,205.57Zm2.85,34.27c.23-.93.45-1.87.71-2.82,3.08-2.25-2.16,12.74-3.58,7.62A8.1,8.1,0,0,0,742.19,239.84Zm.34-13.9a3.61,3.61,0,0,1-.06,4.36A3.77,3.77,0,0,1,742.53,225.94Zm.9-5.18c3.82-3.83,3,3.09,2.23,3.09C744.36,223.85,741.73,222.46,743.43,220.76Zm-.18-5.83Zm1.56,27.53a1.6,1.6,0,0,1,1,2.34C744.34,244.67,744,243.87,744.81,242.46Zm.06-10.14a3,3,0,0,1,0,4.06A3,3,0,0,1,744.87,232.32Zm.76-15.76c3.21,5-.58-.95,0,0Zm0-8.5Zm1.87,21.36a2.87,2.87,0,0,1-.4,3.27C746.11,232.57,745.57,227.47,747.53,229.42Zm.12-18.55s.43-9.22,4.14-4.79c1.58,1.89-6,9.17-3.94,11C746.39,215.81,746.1,212.18,747.65,210.87Zm.55,29.63c-.25-.16,1.49-5.16,2.06-6.38.14,1.92.61,9.93-2.33,9.93A2.34,2.34,0,0,1,748.2,240.5Zm.72-14.56c.85,1.59.58,2.35-.81,2.35C747.87,228.15,747.68,222.51,748.92,225.94Zm1.73,15.2c.65-1,1.32-2,2-3,1.83-1.11.33,6.2-.3,5.88a3.24,3.24,0,0,1,3.17-1.7c2.83,2.82-5.23,2.48-5.53,1.94C750.18,243.21,750.42,242.19,750.65,241.14Zm-.15-22.56a3.47,3.47,0,0,1,0,4.46A3.55,3.55,0,0,1,750.5,218.58Zm3.4-8.51c1.73,0,0,9.34-1.71,6.57A7.67,7.67,0,0,1,753.9,210.07Zm.15,13.51c.72-1.6,1.46-3.19,2.22-4.81.74-1.12-2.92,11.39-3.35,11.12C751.57,227.86,752,225.78,754.05,223.58Zm1.28,8.74c1.13.61,1.13,1.41,0,2.43C754.19,234.16,754.19,233.38,755.33,232.32Zm1-26.93c3.72-.68-.2,6.2-1.22,3.73C754.29,207.4,754.7,206.13,756.3,205.39ZM757.61,239c1,4.24-.38-1.83,0,0Zm.62-14.31c3.16-5.26-1.37,6.26-.55,4.86C756.24,228.2,756.43,226.58,758.23,224.66Zm1.14,15.77c.75,1.44.46,2.37-.87,2.75C757.75,241.76,758,240.84,759.37,240.43Zm-.32-30.68c1.65-4.57,2.86,4.89-.26,4.34A7.75,7.75,0,0,1,759.05,209.75Zm4.25,26.47c1.76-3.16.45,10.34-2.58,7.29A16.68,16.68,0,0,1,763.3,236.22ZM761,235.16Zm.38-18.6c2.39-4.23,1.26,4.05-.46,4.05C759.75,219.37,759.89,218,761.36,216.56Zm5.23,13.05c2.31-.77-1,6-.43,5.36C765.77,235.43,763.46,230.68,766.59,229.61Zm-1.2-23.5c1.26-1.2-.67,5.21-1.17,6C764.34,210.72,764.62,206.91,765.39,206.11Zm3.83,15.53c.51-.88,1-1.77,1.57-2.66,1.49,0-2.07,11.29-2.56,11A11.23,11.23,0,0,1,769.22,221.64Zm-.59-7.27c1.39.56,1.56,1.4.49,2.54C769.22,216.83,765.44,214.37,768.63,214.37Zm3.22-8.33c2.89,0,.29,5.25-.57,4.76A3.61,3.61,0,0,1,771.85,206Zm1.32,6.05c.46-1,5.47-8.71,5.82-8.36,1.78,1.72-7.2,12.45-6,14.3C773,216,773.09,214.07,773.17,212.09Z"/><path class="cls-1" d="M39.61,156.67c1.25,0,7.26-4.48,7.26-5.66C46.87,150.28,36.59,156.67,39.61,156.67Z"/><path class="cls-1" d="M44.13,163c2.21,2,6.29-3.72,7.09-2.44C52.85,163.17,46,164.21,46,166c0,3.25,18.15,3,20.54,2.74-.66.58-3.32,2.19-3.49,3,.54-2.5,28.35-17.9,30.71-18.89-3.74-2.46-9.22-1.64-12.45-3.81a7.56,7.56,0,0,1,1.7-2.69c.48,1-8.48,4-9.39,2.69.74,1.09,2-5.78.37-5.07-5.39,2.33-10.32,8.24-16.77,8.68a26.67,26.67,0,0,1,4.1-4.26C61.36,151.48,38.79,158.2,44.13,163Zm13-5.92A6,6,0,0,1,53,160.16,6,6,0,0,1,57.17,157.08Zm1.45,8.17c2.12-.84-3,1.15,0,0Zm14-19.46Zm4.49,14.07a9.61,9.61,0,0,1,4-2.12c.29.29-5.82,5.41-7.1,5.41Q72.6,160.72,77.13,159.86Zm-1.92-6.77c1-.42,2-.82,3-1.21a6.87,6.87,0,0,1-4.18,4C73.09,154.8,73.45,153.87,75.21,153.09Zm.63,4.4ZM80.69,153c.06.05,3.43-2.33,3.11-.51C83,156.87,79,151.94,80.69,153Z"/><path class="cls-1" d="M49.27,149.39Z"/><path class="cls-1" d="M52.1,151.28q2.49-1.78,0-1.08C50.42,151.41,50.42,151.78,52.1,151.28Z"/><path class="cls-1" d="M59.62,145.43c2.69-1.43,3-2,1.06-1.79C58,145.07,57.66,145.66,59.62,145.43Z"/><path class="cls-1" d="M62.08,175.27Z"/><path class="cls-1" d="M63.77,142.52c3-1.77-1.69,1,0,0Z"/><path class="cls-1" d="M64.59,177.71c8.48,0,16.82-14.36,22-17.33C82.12,163,67.65,177.71,64.59,177.71Z"/><path class="cls-1" d="M67.8,146.55q3.26-3.26,0-.8Q64.53,149,67.8,146.55Z"/><path class="cls-1" d="M69.4,180.14Z"/><path class="cls-1" d="M73.19,177.61c1.53-1.25,12.81-10.16,12.17-10.81C83.75,165.2,70.46,179.74,73.19,177.61Z"/><path class="cls-1" d="M75.16,180.1c3.42.11,8.48-8.48,11-7.69.49.17,5.57,14.73,12.81,7.23,2-2,10.94-12.89,10.94-15.56a46.31,46.31,0,0,1-5.52,3.76c-.92-1,3.48-9.27,3.51-9.77a7.15,7.15,0,0,0-4.38-.58,4,4,0,0,0,.87-2.4C102,152.71,78.27,180.2,75.16,180.1Zm14-8.69c2.69-3.87,4.82,7,5.86,5.89C92,180.15,86.3,175.5,89.16,171.41Zm4.17-2.81c1.73,4.46,0,.1,0,0Zm5.06,2.64Zm3.42-2.43c1.12.93.71,1.49-1.22,1.62C99.49,169.5,99.89,169,101.81,168.81Zm1.75-8.75c1.62-1.66,1.93,6.34-.6,6.34A9.59,9.59,0,0,1,103.56,160.06Z"/><path class="cls-1" d="M80.69,138.89Z"/><path class="cls-1" d="M84.58,145.33a2.8,2.8,0,0,0,2.18-2.42A2.86,2.86,0,0,0,84.58,145.33Z"/><path class="cls-1" d="M86.76,134.05l2.86,2.8c-.48.32-3.6,2.86-3.14,3.29,3.9,3.6,40.4-7.87,36.12-11.61,1.35,1.17-6.71,1.93-6.48,1.87-5.74,1.78-1.8-4.17-2.55-4.42-.16-.08-4.71,4-4.71,1.82,0-2.52-10.58-4.24-12.14-4.53C90.47,122.14,80.26,127.69,86.76,134.05Zm.35-5.69a25,25,0,0,0,1.54-2.44c2.79,0,.08,2.71.08,3.36,0,.47,6.44-2.16,6.44-.92,0,0-3.93,6.29-3.78,6.26C89.08,135.12,84.77,128.36,87.11,128.36Zm14.34-1.87a5.93,5.93,0,0,1,4.18,2.92C105.63,133.67,94.6,124.75,101.45,126.49Zm5.79,3.48Z"/><path class="cls-1" d="M86.93,165.57a5.34,5.34,0,0,0,2.63-2.44C89.64,163.15,84.55,165.57,86.93,165.57Z"/><path class="cls-1" d="M97.61,145.33Z"/><path class="cls-1" d="M101.85,151c1.88-1.68,5.39-8,5.39-10.52C107.24,139.28,100.8,151.94,101.85,151Z"/><path class="cls-1" d="M104.73,180.49c1.92,1.22,8.63-6.34,10-7.15,1-.59-3.41,7.74-3.43,7.6,1.25,9.23,25-.27,26.2-8.57.29-1.89-6.34,5.45-7.66,4.84-2.07-1,2-7.66,2.72-7.93-1.07.85-2.12,1.7-3.24,2.52-1.18.25,1.5-13.94-6.33-8.15C120.39,165.62,105.63,181,104.73,180.49Zm15.89-2.29c2.17-.86-3,1.16,0,0Zm1.93-4.14c1.83-1.09-3.06,1.9,0,0Zm1.77,6.08c-2.46,0,3.41-2.53,1.8.85C124.27,184.87,123.9,180.14,124.32,180.14Zm.49-16.83c.85.94.57,1.69-.81,2.26C123.19,164.64,123.46,163.89,124.81,163.31Zm.15,9.14Zm2.4,4.45Z"/><path class="cls-1" d="M104.26,174.48c1.1,0,7.11-7.25,6.54-6.85C109.4,168.55,104.18,174.48,104.26,174.48Z"/><path class="cls-1" d="M107.24,121.47c3-1.73-1.68,1.06,0,0Z"/><path class="cls-1" d="M116.35,158.66c3.77-1.39-1.54.55,0,0Z"/><path class="cls-1" d="M120.92,157.89c3-1.74-1.71,1,0,0Z"/><path class="cls-1" d="M120.92,117.43c3-1.81-1.78,1.08,0,0Z"/><path class="cls-1" d="M124.75,132.4c2.88,0,8.47-6.68,9.7-8.41C134.27,124.24,120.76,132.4,124.75,132.4Z"/><path class="cls-1" d="M126.93,118.63a2.19,2.19,0,0,0,1.39-2.42A2.25,2.25,0,0,0,126.93,118.63Z"/><path class="cls-1" d="M128.19,160.32c3-1.83-1.85,1.09,0,0Z"/><path class="cls-1" d="M130.2,185c1.61,0,10.91-10.72,10.77-10.85C139.54,172.67,129.07,185,130.2,185Z"/><path class="cls-1" d="M130.34,164.77a7.18,7.18,0,0,0,4.06-4.54C132.2,158,131.3,164.77,130.34,164.77Z"/><path class="cls-1" d="M130.67,132.08a2.12,2.12,0,0,0,2.26-2.31C132.61,129.12,127.78,130.23,130.67,132.08Z"/><path class="cls-1" d="M131.72,118.63c1.32-.52,1.64-1.31.95-2.42C131.38,116.74,131.06,117.55,131.72,118.63Z"/><path class="cls-1" d="M138.56,184.19c3.92,0,5.44,2.41,10.23,2.41,3.75,0,17.18-13.78,15.19-17-.63-1-6.57,5.94-7.21,6.8-.51-2.57.91-11.38.32-12C154.49,161.85,138.29,184.19,138.56,184.19Zm7.72-6.15c2.61-3.53-.15,3.71-.31,3.71C144.66,180.65,144.78,179.44,146.28,178Zm1.62,4.54c.1,0,5-2.82,3.56,1.23C150.34,187,144.25,182.58,147.9,182.58Zm.73-4.87Zm3-7.12c.95,1.16.95,2.17,0,3.08C150.53,172.48,150.53,171.44,151.62,170.59Zm2.33,3.47a3.49,3.49,0,0,1,0,4.47A3.46,3.46,0,0,1,154,174.06Z"/><path class="cls-1" d="M138.31,130.78c1.27,0,6.87-6.62,6.61-6.88C144.2,123.17,137.23,130.78,138.31,130.78Z"/><path class="cls-1" d="M138.7,125.13Z"/><path class="cls-1" d="M144.85,170.75c.53-.89,1.06-1.78,1.58-2.67C146.52,167.35,141.43,174.24,144.85,170.75Z"/><path class="cls-1" d="M144.19,129.16a8.43,8.43,0,0,0,3.6-4C147.74,124.05,141.15,129.16,144.19,129.16Z"/><path class="cls-1" d="M149.1,166.18c1.67-.65,2-1.39,1-2.24C148.75,163.94,145.83,168.28,149.1,166.18Z"/><path class="cls-1" d="M149.69,123.67c1.29-3.5-.11.23,0,0Z"/><path class="cls-1" d="M152.32,124.55c2.47-1.2,2.58-1.7.33-1.54Q149,124.77,152.32,124.55Z"/><path class="cls-1" d="M152.32,120.66c3-1.79-1.66,1.07,0,0Z"/><path class="cls-1" d="M154,96.38c3-1.75-1.74,1.07,0,0Z"/><path class="cls-1" d="M156.91,187.41a4.35,4.35,0,0,0,3.22-3A4.25,4.25,0,0,0,156.91,187.41Z"/><path class="cls-1" d="M157.66,124c1.42.11,2-.53,1.85-1.9C159.35,120,154.25,125.25,157.66,124Z"/><path class="cls-1" d="M160.78,116.16c3.9-3.25-3,2.59,0,0Z"/><path class="cls-1" d="M161.5,183.37a6.93,6.93,0,0,0,2.92-3.31C164.42,179.23,159.61,183.37,161.5,183.37Z"/><path class="cls-1" d="M163.59,118.63c.83-.86,1.63-1.74,2.43-2.62C166,115.61,156.55,123.63,163.59,118.63Z"/><path class="cls-1" d="M162.64,123.48a5.15,5.15,0,0,0,3.14-3.7C165.38,119.39,160.53,123.48,162.64,123.48Z"/><path class="cls-1" d="M163.59,112.16Z"/><path class="cls-1" d="M165.2,178.53c.1,0,7.53-1,6-4.67C171.15,173.86,163.8,178.53,165.2,178.53Z"/><path class="cls-1" d="M167.44,123c2.69,1.76,8.88-3.09,10-5.27C177.1,118.35,166.21,122.23,167.44,123Z"/><path class="cls-1" d="M168.42,112.58c3.18-1.84-1,.65,0,0Z"/><path class="cls-1" d="M169.68,188.4c2.77-3.93,10.57,2.61,15.49-3.18,1.91-2.31-1.76-16.83-1.95-16.75C178,170.13,170,187.93,169.68,188.4Zm12.25-8.4c.85-7.36,3.65,5.79-.86,5.79A10.13,10.13,0,0,1,181.93,180Z"/><path class="cls-1" d="M175.1,172.05c5.81,0,.24-4-.71-3.18C172.67,170.52,172.9,171.58,175.1,172.05Z"/><path class="cls-1" d="M177.29,123.06c2.28-.34,3.43-1.42,3.48-3.24C176.65,120.49,175.47,121.58,177.29,123.06Z"/><path class="cls-1" d="M182.45,118.63c1.43-.12,2-.86,1.76-2.16C182.74,116.61,182.15,117.35,182.45,118.63Z"/><path class="cls-1" d="M183.77,122.32c.23.15,3.95-4.75,3.65-5.06C187.29,117.14,180.51,120.24,183.77,122.32Z"/><path class="cls-1" d="M187.67,189.86Z"/><path class="cls-1" d="M188.31,123.48c.49,0,2.49-5.31,2.33-5.38C189.27,117.57,186,123.48,188.31,123.48Z"/><path class="cls-1" d="M189.28,187.42c1.37,0,14.59-15.33,14.59-17C203.87,167.48,187.72,187.42,189.28,187.42Z"/><path class="cls-1" d="M195,170a10.14,10.14,0,0,0,5.61-3.79C200.67,164.59,191.53,171,195,170Z"/><path class="cls-1" d="M198.67,189.86c.72,0,5.36-5.34,6.85-3.67a4.8,4.8,0,0,1-1.5,3.44c0-1.31,24.79-12,24.79-21.06,0,.24-12.31,10.23-12,9.08.25-.87,9.1-12.16,7.68-11.49-3,1.37-6,9.93-9.18,9.93-2.22,0,2-7.83,1.8-8a18.21,18.21,0,0,0-3.49,3,9.82,9.82,0,0,0-2.85-3c-5,2.15-7.5,14.15-12.16,17.32,1.7-1.14,4.63-6.09,6.68-6.09C204.32,179.33,200.33,189.86,198.67,189.86Zm14.47-13c1.62.15,3.44,7.33.27,6.51C214.14,183.53,211.37,176.7,213.14,176.82Z"/><path class="cls-1" d="M207.38,191.47Z"/><path class="cls-1" d="M213.79,165.86c2.19-1.06,2.92-2.48,2.15-4.25C211.69,164.12,213.14,169.18,213.79,165.86Z"/><path class="cls-1" d="M218.83,187.66a4.36,4.36,0,0,0,3.43-3.24A4.47,4.47,0,0,0,218.83,187.66Z"/><path class="cls-1" d="M224.77,162.34Z"/><path class="cls-1" d="M226,180.94Z"/><path class="cls-1" d="M226.9,164.77a18.44,18.44,0,0,0,2.73-6.24C229.64,159.06,225.32,164.77,226.9,164.77Z"/><path class="cls-1" d="M230.4,156.67c1.16-1.26,1.16-2.32,0-3.23C229.26,154.72,229.26,155.79,230.4,156.67Z"/><path class="cls-1" d="M231.87,180.27a11.31,11.31,0,0,0,4.93,3.83,34.56,34.56,0,0,1-3.24,4.3c2.18-4.07,17.24-5.72,12.33-14.21,0,.13,10.15-16.49,10.17-16.26.08.62-11.75,12-13.1,12.16.27,0-6.93-6.33-5.66-6.49C231.39,164.35,229.74,176,231.87,180.27Zm2.49-7.86c-.35-.21,4.69-2.13,1.91.56C234.49,174.71,233.21,171.69,234.36,172.41Zm2.11,6.76q3.79-.34.47,1.73Q233.07,182.21,236.47,179.17Zm4.59-8.27c.14.08,4,5.91,2.46,5.91C240.16,176.82,239.94,170.21,241.06,170.9Z"/><path class="cls-1" d="M231.24,151.81Z"/><path class="cls-1" d="M245,159.35a9.47,9.47,0,0,0,1.43-4.08C245.81,154.12,244.47,159.86,245,159.35Z"/><path class="cls-1" d="M249.25,175a2.8,2.8,0,0,0,.43-3.8C247.88,171.24,248.54,175.27,249.25,175Z"/><path class="cls-1" d="M250.08,184.9c-.21-.15,18.18-15.4,18.18-15.28,0,.85-3.05-3.36-1.73-3.09C264.21,166,247.5,182.82,250.08,184.9Z"/><path class="cls-1" d="M251.31,172.85a6.19,6.19,0,0,0,3.41-4C253.4,168.81,249.94,172.85,251.31,172.85Z"/><path class="cls-1" d="M256.11,165.57q3.66-.39,1-1.63C254.63,164.23,254.33,164.77,256.11,165.57Z"/><path class="cls-1" d="M260.29,183c-.4-.25,4.75-3.66,4.75-4.09C265,176.23,258.38,181.77,260.29,183Z"/><path class="cls-1" d="M266.48,177.71a8.59,8.59,0,0,0,4.3-4.86C271.36,172.85,263.77,177.71,266.48,177.71Z"/><path class="cls-1" d="M269.39,180.94c2.68,0,5.52-5.05,4.52-4.69A14.17,14.17,0,0,0,269.39,180.94Z"/><path class="cls-1" d="M275.47,176.87c1.4-.34,1.86-1.25,1.4-2.79C275.45,174.37,275,175.29,275.47,176.87Z"/><path class="cls-1" d="M304.22,154.54c3,3.11-2.12-2.11,0,0Z"/><path class="cls-1" d="M308.24,159.38c3.13,3.09-2.1-2.06,0,0Z"/><path class="cls-1" d="M313.69,164.55a9.72,9.72,0,0,0,4.83,1.1c.43-.68-7-4.15-8.32-3.33A3.93,3.93,0,0,0,313.69,164.55Z"/><path class="cls-1" d="M309.83,156.38c1-1,30.12,7.63,31.56,8.59C336.88,161.94,312,154.3,309.83,156.38Z"/><path class="cls-1" d="M313.31,167.39c3.32.94-3.61-1,0,0Z"/><path class="cls-1" d="M320.44,163.4c1.37.45,16.1,6.67,17.79,4.91-1.26,1.28-21.2-8.78-25.13-8.25A12.31,12.31,0,0,0,320.44,163.4Z"/><path class="cls-1" d="M321.65,155.8c5.21,1.77-1.53-1.58-1.63-1.58C318.31,154.8,318.86,155.32,321.65,155.8Z"/><path class="cls-1" d="M321,170a12.65,12.65,0,0,0,6.86,1.94C327.85,169.35,318.81,169.13,321,170Z"/><path class="cls-1" d="M321.31,167.19c1.93,0,2.11-.34.48-1.09C319.82,166.1,319.67,166.47,321.31,167.19Z"/><path class="cls-1" d="M321.89,150.72c1,1.09,1.93,1.25,2.72.45C324.61,149.46,318,149.41,321.89,150.72Z"/><path class="cls-1" d="M345.65,147.85c2.55,1,2.64.7.3-.75C343.46,146.14,343.37,146.42,345.65,147.85Z"/><path class="cls-1" d="M353.34,150.89a13.91,13.91,0,0,0,4.94,1.34c.47-.52-9.51-5-9.51-3.25A43.6,43.6,0,0,0,353.34,150.89Z"/><path class="cls-1" d="M354.5,146.55c3.86,2,4.81,7.84,7.86,10.65,1.56,1.46,19.42,1.86,19.42,2,0-2.74-14.49-12.08-14.49-14.37,0-1.49-15.28-2-15.28-.14Zm7,.4c2.6-.13,3.19.68,1.79,2.44C360.51,150.83,358.85,147,361.48,147Zm8.69,3.82a3.54,3.54,0,0,1,3.56,2.33C373.73,153.46,368,153,370.17,150.77Z"/><path class="cls-1" d="M366.49,162.75c3.44,2.22-3.35-2.1,0,0Z"/><path class="cls-1" d="M371.72,145.83c2.09.43,2.25.19.4-.69C370.11,144.74,370,145,371.72,145.83Z"/><path class="cls-1" d="M378.19,148.92q3.76,1.28,1.26-.38C376.92,147.68,376.5,147.82,378.19,148.92Z"/><path class="cls-1" d="M379.57,153.4c3.17,1.34,6.58,3.27,10,4-3.06-.64-7.52-6.77-11.48-6.25C377.35,152.15,377.84,152.91,379.57,153.4Z"/><path class="cls-1" d="M389.11,153.76l2.94.94C393,153.76,381.59,150,389.11,153.76Z"/><path class="cls-1" d="M393.81,162.52c3.34.95-3.59-1,0,0Z"/><path class="cls-1" d="M398.37,157.39c2.18-.11-3.39.2,0,0Z"/><path class="cls-1" d="M407.93,150.74c2.06.41,2.22,0,.5-1.32C406.32,149,406.14,149.41,407.93,150.74Z"/><path class="cls-1" d="M411.25,162c1.29.33,15.48,4.37,16,5.18C425.15,163.75,407.48,161.08,411.25,162Z"/><path class="cls-1" d="M418,149.39Z"/><path class="cls-1" d="M425.34,156.67c1.36,0,20,6.78,20,5.92C445.37,159.53,427.16,156.67,425.34,156.67Z"/><path class="cls-1" d="M436.11,151.28c3.51,1.36-4.34-1.58,0,0Z"/><path class="cls-1" d="M437.1,146.46c5.37,1.51,30.06,5.07,31.25,7.06C465,148.11,438.5,146.87,437.1,146.46Z"/><path class="cls-1" d="M440.06,152.27c3.64.91,18.66,9,22,5.7C461.86,158.13,435,151,440.06,152.27Z"/><path class="cls-1" d="M62.5,219a3.43,3.43,0,0,0,.37-3.69A3.41,3.41,0,0,0,62.5,219Z"/><path class="cls-1" d="M93.33,223.23c0-.29,3.83-3.43.65-3.43C92.31,219.8,92.89,225.65,93.33,223.23Z"/><path class="cls-1" d="M95.72,234.51c1.33-3.35,0,.15,0,0Z"/><path class="cls-1" d="M112.39,223a2,2,0,0,0,.5-2.84A2,2,0,0,0,112.39,223Z"/><path class="cls-1" d="M118.53,239.45c2.55,0,2.71-.36.48-1C116.49,238.38,116.31,238.74,118.53,239.45Z"/><path class="cls-1" d="M125.45,256.94c2.2-.13-3.45.15,0,0Z"/><path class="cls-1" d="M125.77,225.85c-4.4,4.61,6.08-2.81,0-2.81Q123.64,223.22,125.77,225.85Z"/><path class="cls-1" d="M126.68,240.5c5.24,3.46-3.68,24.61,2.39,28.31-5-2.89,3.35-28.79-1.94-34.13A8.18,8.18,0,0,0,126.68,240.5Z"/><path class="cls-1" d="M127.13,232.9c1.3-3.59-.1.26,0,0Z"/><path class="cls-1" d="M129.55,274.18c1.29-3.49-.08.21,0,0Z"/><path class="cls-1" d="M130.27,239.94c2.21-.12-3.45.17,0,0Z"/><path class="cls-1" d="M139.47,226.25q1.6-1.27,0-2.82C138.37,224.28,138.37,225.24,139.47,226.25Z"/><path class="cls-1" d="M141.09,248.52c.74,6-.81,23.51,3.3,27.5-6.61-6.42,3.93-33.88-3.81-41.59C141.28,235.15,140.9,247.15,141.09,248.52Z"/><path class="cls-1" d="M144,229.42c2.16-.13-3.43.18,0,0Z"/><path class="cls-1" d="M235.24,268.76c2,1.11-3.11-1.93,0,0Z"/><path class="cls-1" d="M241.28,268.5a7.61,7.61,0,0,0,5.23-.88C246.51,267.39,239.7,266.92,241.28,268.5Z"/><path class="cls-1" d="M257,260.89Z"/><path class="cls-1" d="M272.33,242.46a42.62,42.62,0,0,0,.68,8.07c1.77-9,.32-20.5-1.37-29.54C271.74,228.15,272,235.31,272.33,242.46Z"/><path class="cls-1" d="M278.74,250l3-.8C281.88,249.14,273.16,251.06,278.74,250Z"/><path class="cls-1" d="M279.54,241.47Z"/><path class="cls-1" d="M279.57,214.33c3.61-1-3.32.92,0,0Z"/><path class="cls-1" d="M281.18,234.34Z"/><path class="cls-1" d="M282.76,227.9c.86,0-.64,9.24.78,10.07-.73-.43,2.39-19.29-1.29-19.61C282.17,218.36,281.8,227.9,282.76,227.9Z"/><path class="cls-1" d="M284.36,213.26c1-.46,2.09-.93,3.13-1.37C287.56,211.83,278.4,215.27,284.36,213.26Z"/><path class="cls-1" d="M282.5,208.63c1.32-3.47-.08.18,0,0Z"/><path class="cls-1" d="M284.17,249.72c2.73,0,1.12-4,.21-5C285.13,245.56,281.91,249.72,284.17,249.72Z"/><path class="cls-1" d="M283.3,241.87c1,2,1.42,1.8,1.28-.63C284,238.22,282.83,240.07,283.3,241.87Z"/><path class="cls-1" d="M287.27,233.47Z"/><path class="cls-1" d="M288,228.22c3-.41,3.55-.78,1.53-1.15C286.38,227.54,285.87,227.9,288,228.22Z"/><path class="cls-1" d="M292.42,211.5c3-.23,6-2,8.43-3.75C299,208.11,287.41,211.83,292.42,211.5Z"/><path class="cls-1" d="M299.68,216.38Z"/><path class="cls-1" d="M302.08,207.65Z"/><path class="cls-1" d="M327,191.47c1.1-.82,1.1-1.62,0-2.42C326,189.85,326,190.65,327,191.47Z"/><path class="cls-1" d="M66.45,243.6c3.73-1.35-1.53.57,0,0Z"/><path class="cls-1" d="M98.88,271.5c2.21-.13-3.44.14,0,0Z"/><path class="cls-1" d="M111.29,272.36Z"/><path class="cls-1" d="M246.51,101.53c4.4,0,23-10.18,24-9.19-.59-.58-26.5,6.7-27.52,8.42A3.15,3.15,0,0,0,246.51,101.53Z"/><path class="cls-1" d="M275.5,31.9Z"/><path class="cls-1" d="M282.76,106.2c3.22-.58,7.95-4.58,10.79-4.53C291,101.62,279.74,106.78,282.76,106.2Z"/><path class="cls-1" d="M306.68,58c1.82,0,15.53-12.6,15.53-14.6,0,1.62-4.9-3.21-2-3.21-1.07,0-14.1,9.32-14.1,9.9,0,1.76,9.57-4.51,10-4.66C313.61,46.12,306.58,58,306.68,58Z"/><path class="cls-1" d="M313.84,107.74c2-.76,6.73-3.67,8.53-3.62C319.45,104,312.93,108.11,313.84,107.74Z"/><path class="cls-1" d="M313.28,62c1.32,0,10.11-10.51,8.21-10.51C318.38,51.49,310.89,62,313.28,62ZM321,53.26c.41.44-.91-1,0,0Z"/><path class="cls-1" d="M324.31,66c6.33,7.62,27.25-8.27,35.45-9,.05,0-12.81,11-13.63,8.73a19.32,19.32,0,0,1,3.94-4.28c-.42-.42-15.52,8.57-16.62,9.8.91-1,9.76-4.56,11-4.58-.39,1-.79,1.86-1.17,2.79,9.78-.47,20.26-18.79,28.75-18.79,3.07,0-8,8.62-8.28,9.31,2-5.38,16.4-10,16.4-15.75,0-.53-13.51,9.66-15,7.63C362.25,47.94,377.9,44,375.4,41.52c-1.78-1.8-10.07,8.86-12.92,7.1-.58-.35,8.76-9.78,10.75-9.78,3.42,0,10.37,6.72,8.11,6,12.7,4.22,2.5-14.36,11.35-14.36-7.75,0-6.08,7.86-6.08-1.39,0,11.77-8.48-6.59-4.75-2.88,1.2,1.21-16.18.43-16.18,0,0,2.56-15.14,4.48-2.41,12.21-3.7,2.36-9,7.55-13.19,7.79-.82,0,10-9.07,10-10.22,0,.81-17.51,12.71-19.09,11.17-1.34-1.35,16.52-12.3,14.65-14.15-2.08-2.06-16.88,17.69-22.77,14.38a4.89,4.89,0,0,0,.8-2.35C325.65,45,319.4,60.11,324.31,66Zm1.23-5.34c1.91,3.32,6.33-1.47,6.33-2,0,.69-2.12,7.17-2.73,7.3C325.29,66.64,324,58,325.54,60.63Zm2.31-7.9c.91-.62,1.84-1.24,2.78-1.85.36.24-4.76,7.86-5,7.74C325.09,56.42,325.83,54.42,327.85,52.73ZM338,62Zm1.18-11.34Zm.68-2.42c2,.8,2,1.4,0,1.82C337.8,49.29,337.8,48.67,339.81,48.24Zm4.93,1.14c0-2.06,2.8-1.16,2.95-1.64C346.83,50.79,344.74,52.94,344.74,49.38Zm3.68,6.95Zm2.76-7.24a3.6,3.6,0,0,1,4.1-1.8c2.31,1.33-5.9,5.82-6.39,5.82A13.15,13.15,0,0,1,351.18,49.09Zm2.41,3.18ZM359.17,43c.69.76,6.92-5.5,9.63-3.77,1.69,1.07-9.56,7.71-13.82,6.31C355.5,45.11,358.75,42.59,359.17,43Zm1,6.83c1.17.79.87,1.39-.9,1.82C357.94,51,358.25,50.38,360.14,49.87Zm2-20.56c.54-1.39,4.21-1.48,5.57-1.3-.24.28-4.4,4-4,4,1.86.08,4.15-2.4,4.23-2.4C376.07,29.62,357,43,362.12,29.31Zm11.65.37c5.78,3.11-5.26-.26-3.34-.13C370.94,28.31,372.05,28.34,373.77,29.68Zm4,6.43Zm4,1.61Zm1.28-1.89c3.58,1.35-4-1.56,0,0Z"/><path class="cls-1" d="M323.08,42.59c1.6,0,14.4-11.32,14.4-13.54C337.48,28.61,322.77,42.59,323.08,42.59Z"/><path class="cls-1" d="M325.35,45.8c4.66,0,13.65-10.53,16.58-14.07C338.34,34.56,324.18,45.8,325.35,45.8Z"/><path class="cls-1" d="M338.78,42c4.54-3.76,14.31-8.76,16.93-13.32-1.64,2.9-20.64,8.58-20.64,15.57A6.23,6.23,0,0,0,338.78,42Z"/><path class="cls-1" d="M342.55,74.11c5.71.26,13-11.3,17.59-11.3C354.34,62.81,346.83,74.28,342.55,74.11Z"/><path class="cls-1" d="M343.13,32.46c3.06-1.86-1.85,1.11,0,0Z"/><path class="cls-1" d="M347,28.83a2.11,2.11,0,0,0,1.93-2.43A2.08,2.08,0,0,0,347,28.83Z"/><path class="cls-1" d="M348.29,75a7.52,7.52,0,0,0,3.64-3.17C352,70.11,345.27,75,348.29,75Z"/><path class="cls-1" d="M352.15,76.31c1.47-.37,15.38-8.1,14-9.09C364.56,66,349.72,76.91,352.15,76.31Z"/><path class="cls-1" d="M353.59,71.71Z"/><path class="cls-1" d="M356.59,70.16a10.92,10.92,0,0,0,4.27-3.63C360.86,65.05,352.07,72.79,356.59,70.16Z"/><path class="cls-1" d="M359.71,76.77c1.85,1.82,8.71-7.07,9.76-6.59,2.47,1.09-4.18,5.36-4.31,6.13.37-2.14,9.68,4.31,11,4.31,4.9,0,11.13-7.13,13.57-11.23-.46.8-4.16,3.13-5.11,3.13,1.06,0-2-12.82-2-12.14C382.59,60.06,358.9,76,359.71,76.77Zm20.46-9.51c2.49-2.24,1.18,2.83-.95,2.83C378.13,69.1,378.43,68.18,380.17,67.26Zm0,3.57c0-1.94,2.79,2.33,1.1,4C379.06,76.91,380.17,70.46,380.17,70.83Z"/><path class="cls-1" d="M362.39,66.05Z"/><path class="cls-1" d="M368.9,61.19Z"/><path class="cls-1" d="M370.82,64c.84-.85,1.62-1.68,2.41-2.53C373.43,61,365.41,67.57,370.82,64Z"/><path class="cls-1" d="M389.63,74.79c-.52.35,4.88-2.7,4.06-3.49s-7.86,4-7.86,5.31A6,6,0,0,0,389.63,74.79Z"/><path class="cls-1" d="M386.61,60.79c3.11-2-1.91,1.16,0,0Z"/><path class="cls-1" d="M390,39.3c6.7.18,11.56-14.28,15-16C401,25.32,393.09,39.4,390,39.3Z"/><path class="cls-1" d="M389.85,26c2.85-1.73-2,1.09,0,0Z"/><path class="cls-1" d="M391,43.39c3.24,0,6.38-8.73,8.82-8.86C396.91,34.7,392,43.39,391,43.39Z"/><path class="cls-1" d="M392.26,76.58Z"/><path class="cls-1" d="M394.59,65.23Z"/><path class="cls-1" d="M395.46,27.21c.54-.95,1.09-1.89,1.63-2.83C397.09,23.65,391.41,32.35,395.46,27.21Z"/><path class="cls-1" d="M396.55,73.4c.73-.77,1.43-1.55,2.13-2.32C398.68,69.89,391.75,77.74,396.55,73.4Z"/><path class="cls-1" d="M396.28,68.89c1.8-2,1.64-2.41-.42-1.22C394.08,69.66,394.2,70.06,396.28,68.89Z"/><path class="cls-1" d="M397,79.8c3.59,0,12-1.87,14.56-5.26,4.59-6.07-.81-6.74-.81-13C410.75,55.69,394.42,79.8,397,79.8ZM401.75,72c2.24,1.31,2.32-8.85,4-6.14.59.89-1.58,9.86-2.27,9.86S400.85,71.47,401.75,72Zm7.59-8.4a2.37,2.37,0,0,1-1.43,2.42A2.24,2.24,0,0,1,409.34,63.63Zm1.45,2.5c2.29,3.68-1.6-2.58,0,0Z"/><path class="cls-1" d="M400.61,64.7c2.09-1.15,2.27-1.76.5-1.84C399.05,64,398.87,64.6,400.61,64.7Z"/><path class="cls-1" d="M400,41.77c4.19,0,6.73-10.38,11.58-9.13s-5.14,9.13-3.63,9.13c1.87,0,5.24-6.75,6.11-6.42,2.69,1-.19,5.62-.86,5.62,6.71,0,10-25-1.37-21C406.05,22,410.83,41.77,400,41.77Zm11.14-19.9c3.54-4.81,4.88,9.28.44,6.54a33.65,33.65,0,0,1,1-3.64A3.41,3.41,0,0,1,410.75,26C410.88,24.63,411,23.24,411.12,21.87Zm4.86.48c1.52.71,1.62,1.5.32,2.38C414.25,23,414.14,22.27,416,22.35Z"/><path class="cls-1" d="M401,33.67Z"/><path class="cls-1" d="M403.51,31.25Z"/><path class="cls-1" d="M413.58,63.63Z"/><path class="cls-1" d="M416.37,74c.79-.86,1.61-1.69,2.41-2.52C418.87,70.16,411.06,78.11,416.37,74Z"/><path class="cls-1" d="M419.62,77.38Z"/><path class="cls-1" d="M420.26,38.51a9.59,9.59,0,0,0,4.05-4.42C423.27,33.09,418.14,38.62,420.26,38.51Z"/><path class="cls-1" d="M422,75Z"/><path class="cls-1" d="M424.31,78.17c-.25,0,11.4-2.6,10.09-.63,1.82-2.75,6.94-6.62,10-10.28-.88,1-5.12,6.06-6.5,6.06-1.57,0-2.66-15.58-8-13.5C425.24,61.59,429.25,78.17,424.31,78.17Zm5.82-9.26c2.69,1.6-2.67-1.57,0,0Zm2-3.68c1.67,1.16,1.67,2,0,2.44C431.09,67.67,429.86,63.42,432.09,65.23Z"/><path class="cls-1" d="M425.58,32.86a8.1,8.1,0,0,0,1.95-3.15C427.34,29.3,424.07,32.86,425.58,32.86Z"/><path class="cls-1" d="M428,36.11Z"/><path class="cls-1" d="M432.19,31.25c1.66-1.43,3.27-2.93,4.81-4.52,2.14-.87-.44,6-.4,6.13,1.87,5.81,15.46-5.91,15.68-9.06.06-.88-9,7.25-9,7.21-.48-.6,2-8.93,2-8.74-.16-2.1-5.51-4.94-5.51-3.57C439.75,19.79,433.51,31.25,432.19,31.25Zm7.87-9.42c3.59-.21-.06,2.94-.56,2.94C439.65,24.77,436.76,22,440.06,21.83Z"/><path class="cls-1" d="M440.46,63.63Z"/><path class="cls-1" d="M446.3,72.85c.46-.26,6-6,7.48-6,1.67,0-1.23,7.25-1.92,7.24,1.72.09,12.85,1.62,12.85-1.65,0-.45,11.84-10.6,10.54-11.08-.78-.29-10.06,7.83-10.3,8.56,1.07-3.15-4.57-11.42-8.33-9.5C452.33,62.61,450.51,70.57,446.3,72.85Zm12.34-10A3.12,3.12,0,0,1,460,66.05C459.82,66.05,457.23,62.81,458.64,62.81Z"/><path class="cls-1" d="M448.55,63.63Z"/><path class="cls-1" d="M448.61,19.52c3-1.83-1.81,1.08,0,0Z"/><path class="cls-1" d="M451.43,33.67c2,0,6.69-8.78,6.85-8.74C456.37,24.3,448.37,33.67,451.43,33.67Z"/><path class="cls-1" d="M455,20.31c3.52-2-1.8,1.12,0,0Z"/><path class="cls-1" d="M459.15,33.67c-.11,0,21.18-3.38,15.61-8.75a17.17,17.17,0,0,0-4.26,3c2.49-.25,1.36-8.08-.79-8.91C463.25,16.55,461.26,33.67,459.15,33.67Z"/><path class="cls-1" d="M461.9,21.21c1.72-1.73,1.72-2.18,0-1.3Q459.32,22.57,461.9,21.21Z"/><path class="cls-1" d="M473.39,71.19a7.68,7.68,0,0,0,4.53-5.3c-.19-.31-7.59,5.51-7.59,7A5.12,5.12,0,0,0,473.39,71.19Z"/><path class="cls-1" d="M471.94,19.12Z"/><path class="cls-1" d="M474.44,34.48c1.06,0,12.7-12.5,12-13.18C485.19,20,472.18,34.48,474.44,34.48Z"/><path class="cls-1" d="M476.69,22.46c.56-1.07,1.15-2.11,1.69-3.19C478.38,18,473.31,26.3,476.69,22.46Z"/><path class="cls-1" d="M480.17,63.63Z"/><path class="cls-1" d="M480.71,34.05c1.1.65,9.76-7.39,9.76-8.88C490.47,24.59,477.52,32,480.71,34.05Z"/><path class="cls-1" d="M483.07,73.94c.67-.48,6.58-4,6.58-6C489.65,63.41,478.62,77.23,483.07,73.94Z"/><path class="cls-1" d="M484.76,66.05a2.81,2.81,0,0,0,2.66-2.79A2.7,2.7,0,0,0,484.76,66.05Z"/><path class="cls-1" d="M486.12,34.48c1.39,0,8.57-7.32,8-7.91C492.81,25.25,486.66,34.48,486.12,34.48Z"/><path class="cls-1" d="M491.18,66.05Z"/><path class="cls-1" d="M493.53,22.67c2.52-.45,3.13-1.11,1.85-1.94-1.45,0-3.3,2.37-4.51,3.22C491.76,23.53,492.64,23.11,493.53,22.67Z"/><path class="cls-1" d="M492.56,34.48c1.78,0,6.68-6,6.21-6C496.39,28.79,493.86,34.48,492.56,34.48Z"/><path class="cls-1" d="M497.71,36.5c.87.53,5.45-5.33,5.5-5.54C503.29,30.44,494.69,34.75,497.71,36.5Z"/><path class="cls-1" d="M500,22.35A4.73,4.73,0,0,0,502.49,20C502.07,19.8,497.93,22.35,500,22.35Z"/><path class="cls-1" d="M501.52,38c.55.57,9.49-7.59,9-9.24C510.21,28,500.42,36.91,501.52,38Z"/><path class="cls-1" d="M504.52,24a2.81,2.81,0,0,0,2.17-2.41A2.87,2.87,0,0,0,504.52,24Z"/><path class="cls-1" d="M506,28c2.1-.9,2.37-1.41.78-1.57C504.66,27.33,504.39,27.87,506,28Z"/><path class="cls-1" d="M507.05,39.34c1.41-.07,7.85-6.43,7.42-6.88C512.25,30.2,507.69,39.3,507.05,39.34Z"/><path class="cls-1" d="M509.81,24.38c3.67-2.3-2,1.21,0,0Z"/><path class="cls-1" d="M513.41,25.86c1.66-1.19,1.66-1.56,0-1.09Q510.91,26.6,513.41,25.86Z"/><path class="cls-1" d="M516.6,29.62a2.21,2.21,0,0,0,1.4-2.41A2.24,2.24,0,0,0,516.6,29.62Z"/><path class="cls-1" d="M519.2,41a3.13,3.13,0,0,0,1.9-3.25A3.08,3.08,0,0,0,519.2,41Z"/><path class="cls-1" d="M522.59,36.93A4.73,4.73,0,0,0,525,34.62C524.63,34.39,520.48,36.93,522.59,36.93Z"/><path class="cls-1" d="M524.21,39.68c2,.56,2.74,0,2.25-1.63C524.48,37.5,523.7,38.05,524.21,39.68Z"/><path class="cls-1" d="M525.89,34.07c2.88,1.67-2-1.26,0,0Z"/><path class="cls-1" d="M539.49,39.34Z"/><path class="cls-1" d="M539.9,31.25Z"/><path class="cls-1" d="M542.8,36.93Z"/><path class="cls-1" d="M544.41,39Z"/><path class="cls-1" d="M548,86.23c.88.73,7.58,5.2,7.5,5.3C558.64,88.39,544.14,83.06,548,86.23Z"/><path class="cls-1" d="M558.1,34.9c3-1.81-1.74,1.09,0,0Z"/><path class="cls-1" d="M559.1,91.93c.11,2,.84,2.7,2.21,2,.92-.56-1-6.89-.81-6.82C557.75,86.28,558.84,91.36,559.1,91.93Z"/><path class="cls-1" d="M560.26,36.83c2-1.81,1.89-1.93-.35-.39C558.53,37.76,558.62,37.9,560.26,36.83Z"/><path class="cls-1" d="M567,91.93c1.5,0,9.67,9.32,9.67,5.11,0-3.06-7-7.89-9.49-8.25C565.89,89.79,565.83,90.83,567,91.93Z"/><path class="cls-1" d="M576.63,93.37c.14.18,5.77,7.89,6.66,7,1.69-1.7-8.23-13.86-9.82-12.87C572.14,90,573.19,91.91,576.63,93.37Z"/><path class="cls-1" d="M583.07,92.74Z"/><path class="cls-1" d="M593.91,50.7c2,1.1,2.12.87.32-.71C592.34,48.93,592.22,49.19,593.91,50.7Z"/><path class="cls-1" d="M598.34,108.93Z"/><path class="cls-1" d="M600.64,104.77c1.74,2.75-.46-4.19-.16-2.92Q598.74,102.38,600.64,104.77Z"/><path class="cls-1" d="M603.73,112.13c4.47,3.49,10.72-5.15,10.72-9.35C614.45,98.3,595.36,105.54,603.73,112.13Zm.82-5.42c.89,3.18.37,1.23,0,0Z"/><path class="cls-1" d="M607.37,46.63Z"/><path class="cls-1" d="M608.47,51.49c.08,0,4.27-2.11,3.51-2.65C609.74,47.18,605.19,51.49,608.47,51.49Z"/><path class="cls-1" d="M614.25,115.42c-.18,3,.68,4.16,2.61,3.61,2.21-1.38-4-8.64-4-8.5A26.69,26.69,0,0,0,614.25,115.42Z"/><path class="cls-1" d="M615.26,51.69c.64.19,4.83-2,4.83-1.92,0,.62-5-1.11-5.24-1Q612.29,50.47,615.26,51.69Z"/><path class="cls-1" d="M618.72,115.65a15.16,15.16,0,0,0,2.43,5.41c.49,0-2.81-13-3.56-12.48C615.88,109.64,618.66,115.44,618.72,115.65Z"/><path class="cls-1" d="M618.32,54.24c2.25,1.43,12.36-2.93,11-4.22C628.93,49.64,617.19,53.52,618.32,54.24Z"/><path class="cls-1" d="M621.69,48.66c3.09-1.94-1.88,1.1,0,0Z"/><path class="cls-1" d="M625.08,124.87c7.13,6.51,7-4.87,11.23-3.67,2,.6,7,6.6,7.37,7.53-.5-1.28-8.77-19.35-7.08-18.7C634.74,109.29,620.86,121,625.08,124.87Z"/><path class="cls-1" d="M624.59,47.35c2.2-.1-3.4.21,0,0Z"/><path class="cls-1" d="M629.66,55.53c1,0,6.51-2.72,6.38-2.84C634.57,51.21,627.91,55.53,629.66,55.53Z"/><path class="cls-1" d="M641.35,62c8,0,12.85-11.57,4.69-10.88C641.4,51.51,638.4,62,641.35,62Z"/><path class="cls-1" d="M641.9,119.07c4,2.51,5.29,15.53,5.35,15.55,5.24,1.91.6,8.91,10.19,4-2.23,1.13,8.8-6.33,6.61-6.84,5.11,1.24,5.72,12.1,9.49,15.06-1.41-1.12-11.27-25-12.3-30.35.24,1.28-5.48.15-4.82-.89C648.89,127.35,651.28,124.85,641.9,119.07ZM650,133.85a2.29,2.29,0,0,1,3.05,1.06C653.09,136.68,646.52,135.12,650,133.85Z"/><path class="cls-1" d="M643.84,113.77c1.58.11,1.72-.52.49-1.91C642.72,111.75,642.58,112.4,643.84,113.77Z"/><path class="cls-1" d="M650.07,63.3a2.7,2.7,0,0,0,3-1.2C653.09,59.57,644.52,64.77,650.07,63.3Z"/><path class="cls-1" d="M658.46,64c.5-.08,8.32-2.21,8.32-2.75,0-2.28-11.53,1-11.92,2.29C655.65,64.78,656.87,64.93,658.46,64Z"/><path class="cls-1" d="M655.51,60.38Z"/><path class="cls-1" d="M660.12,57.59c2.17-1,2.26-1.45.32-1.3C658.36,57.25,658.24,57.68,660.12,57.59Z"/><path class="cls-1" d="M663.64,167.66Z"/><path class="cls-1" d="M664.38,71.62c3.9,1.64,10.9.77,14.31-1.44-.81.53,15.62-13.74,5.25-12.12C678.42,58.92,672.62,74.66,664.38,71.62Zm18.91-10.7c1.61.81,1.61,1.47,0,1.89C681.66,62,681.66,61.35,683.29,60.92Z"/><path class="cls-1" d="M666,119.05Z"/><path class="cls-1" d="M669.88,126c7.7,12.14,9.66,23.81,19.93,32.6,0,0-2.1-6.42-2.82-8,10.06-8.86,10.71,14.17,19.32,14.17-3.67,0-14.56-21-14.38-25.47-.26,5.55,20,20.35,22.52,25.07-4.44-8-12.11-15.58-17.85-22.54-2.1-2.57-19.83-19-20.09-16.2,0,.54,4.86,10.07,1.79,10s-6.36-15.17-10-14.31A5.71,5.71,0,0,0,669.88,126Zm16.23,7.6c4,3.66-.82,4-.82,5.45C685.29,137.71,684.28,131.94,686.11,133.59Z"/><path class="cls-1" d="M670.53,163.45c3.18,3.16-2.19-2.31,0,0Z"/><path class="cls-1" d="M670.77,62.81Z"/><path class="cls-1" d="M677,170c2.39,2.38,12.37,13.38,15.64,12.57-2.29.58-16.58-15.25-19.7-17.29C673.26,167.41,674.59,169,677,170Z"/><path class="cls-1" d="M675.68,150.2Z"/><path class="cls-1" d="M677,74.9c1.88.21,2.58-.31,2.12-1.5C679.52,73.4,673,74.79,677,74.9Z"/><path class="cls-1" d="M679.67,77.76c2.84,1.81,17.68-3.13,15.77-5-1-1-5.81,4.63-7.32,4.63-1.77,0,2.62-5,.61-4.75C687,72.9,677.91,76.66,679.67,77.76Z"/><path class="cls-1" d="M685.25,70.29c2.58-1.5,2.78-2.21.51-2.06C685.52,68.35,680.46,73.08,685.25,70.29Z"/><path class="cls-1" d="M691.75,131.18c1.92,1.16-3.64-2.15,0,0Z"/><path class="cls-1" d="M692.06,80.62c.78,0,6.92-3.39,6.92-4C699,73.74,688.21,80.62,692.06,80.62Z"/><path class="cls-1" d="M694.16,69.28Z"/><path class="cls-1" d="M697.76,83.33c1-.16,5.49,1.74,5.94,1.58a10.64,10.64,0,0,1-2,2.9c1.93.19,11.51-6.8,12.61-2,.11.64-10.53,6.88-8.06,6.88,9,0,16.34-13.91,8.7-19.7-2.3-1.21-20.75,7.76-20.75,10C695.36,83.15,696.59,83.24,697.76,83.33Zm18.87-3.81c2.65,2.44-7.86,1.57-6,.73C711.69,79.79,715.69,78.78,716.63,79.52Z"/><path class="cls-1" d="M699.87,183.18a22,22,0,0,0,4.9,4.24c.76,0-9-9-9-8.73A56.24,56.24,0,0,0,699.87,183.18Z"/><path class="cls-1" d="M698.18,132c2,1.19-3.67-2.27,0,0Z"/><path class="cls-1" d="M699.39,85.36c2.46-1.26,2.36-1.57-.3-.9C696.7,85.61,696.81,85.93,699.39,85.36Z"/><path class="cls-1" d="M700.05,139.85c-1.82-2.16,9.23,10.51,8.54,8.05-1.13-4-10.14-8.08-10.5-10.86Z"/><path class="cls-1" d="M705.42,183.62c.14.14,10.41,7.37,10.41,7.55.11-4.37-15.23-8.38-15.23-12.48A36.2,36.2,0,0,0,705.42,183.62Z"/><path class="cls-1" d="M701.42,69.68c3-1.9-1.85,1.13,0,0Z"/><path class="cls-1" d="M704.77,72.48c1.59,0,2.26-.72,2-2C706.84,70.46,701.93,72.39,704.77,72.48Z"/><path class="cls-1" d="M707.11,138.05c2.76,0,3.94,28.87,17.75,28.3-4.53.18,5.07-7,6-2.59-.58-3,3.73-7,2.54-11.53,2.87,2.69,8.32,10.11,12.15,10.11-3.83,0-17-18.13-20.91-21.42C718.85,136,709.86,138.05,707.11,138.05Zm6.57,1.83a3,3,0,0,1,0,4.47A3,3,0,0,1,713.68,139.88Zm4.69,16a4.61,4.61,0,0,1,.59,3.83C718.72,159.86,715.4,155.88,718.37,155.88Zm1.54-12.58c1.85-1.1-3.09,1.95,0,0Zm2.89,15.33c1.66-.29,2.7.3,3.1,1.78a7.82,7.82,0,0,1-5.33.67C720.57,159.76,721.3,159,722.8,158.63Zm1.37-14.08c3.43,0,6.86,9.67,6.89,9.67C725.66,154.22,724.13,144.55,724.17,144.55Zm2.92,9.32c1.28.32,1.61,1.08,1,2.28C726.45,156.47,726.13,155.72,727.09,153.87Z"/><path class="cls-1" d="M710.25,93.13c2.12.09,3-.54,2.7-1.92C708.74,92,708.81,95.11,710.25,93.13Z"/><path class="cls-1" d="M714,185.89c1.76,1.64,7.36,8,10.26,8-1.93,0-11.85-13.47-13.65-12A14.38,14.38,0,0,0,714,185.89Z"/><path class="cls-1" d="M716,135.07a14.12,14.12,0,0,0,4.43,3.46c.42-.4-6.39-8.08-7.7-7.62A8.91,8.91,0,0,0,716,135.07Z"/><path class="cls-1" d="M715.53,90.91Z"/><path class="cls-1" d="M715.87,167.62c1.91,1.08-3.07-1.89,0,0Z"/><path class="cls-1" d="M717,94.21c-.41.06,4.57.15,4.57.94a10.16,10.16,0,0,0-3.8,4.69c5.48,7.83,23.15,1.93,28.85,6.36-1.13-.89-11.37-1.52-11.37-3,0-2.72,19.63-6.91,2.82-13.75C733.36,87.56,716.6,94.27,717,94.21Zm15.2,8.5c.31.13-3.57-1.36,0,0Zm7.54-9.91c1.55,1.13,1.53,1.94-.06,2.38C737.31,95.18,736.42,89.93,739.7,92.8Zm-.36,3.93c4-2.17,1.45,2.31-.12,2.71C737,99.07,737,98.15,739.34,96.73Z"/><path class="cls-1" d="M718.7,89.79c1.64-.93,1.64-1.38,0-1.37Q716.24,89.82,718.7,89.79Z"/><path class="cls-1" d="M719.13,121.89Z"/><path class="cls-1" d="M730.23,141.74c1.9,1.81,18.67,14.63,18.67,16.7,0-5.29-27.65-25.63-27.23-26C720.68,133.24,730.18,141.71,730.23,141.74Z"/><path class="cls-1" d="M722.5,120.92c5.13,5.06,31.25,17.93,31.25,23,0-1.42-13.57-12-13.9-11.87,3-1.71,20.31,7.88,20.31,10.27,0-4.21-8.89-5.41-10.08-9-.14-.44,13-9.34,1.62-15.83-3.8-2.21-19.07-4.61-23.89-4.53C729.2,113,718.1,116.34,722.5,120.92Zm8.85-3.35a2.84,2.84,0,0,1-1.23,3.49,3.64,3.64,0,0,1-2.37-2.66A4.86,4.86,0,0,1,731.35,117.57Zm4,7.86c-.14-.05,6,4.32,3.55,4.18C737.62,129.53,733.33,124.48,735.36,125.43Zm4.34-3.54Zm0-4Zm13.22,3.22c2.78,0,.37,5.9-.28,5A8,8,0,0,1,752.92,121.06Z"/><path class="cls-1" d="M722,110.76c1.28,1.1,2,1,2.17-.28C722.89,109.38,722.18,109.47,722,110.76Z"/><path class="cls-1" d="M723.15,187.84c1.77,1.06-3-1.85,0,0Z"/><path class="cls-1" d="M727.81,128.8c6.28,4.44,22.45,23.82,30.34,23.82-9.52,0-22.59-28.31-34.2-28.31C722.89,126.52,724.2,128,727.81,128.8Z"/><path class="cls-1" d="M724.67,87.07a4,4,0,0,0,3.27-2.41C727.31,83.83,720.42,87.07,724.67,87.07Z"/><path class="cls-1" d="M726,189.86c1.64.47,1.64.12,0-1.1C724.3,188.29,724.3,188.63,726,189.86Z"/><path class="cls-1" d="M728.18,134.35c4.06,3.55,29.57,23.48,29.57,25.56,0-9.87-32.21-20.87-32.21-28.56Z"/><path class="cls-1" d="M727.31,108c4.24,4.38,15.46,3.35,18.79,6.83C742.29,110.8,728.54,109.17,727.31,108Z"/><path class="cls-1" d="M728.54,192.11a9.35,9.35,0,0,0,5.06,3.09C733.6,194.73,727.06,188.45,728.54,192.11Z"/><path class="cls-1" d="M733.65,185Z"/><path class="cls-1" d="M736.15,187.31c2.47,1.11,2.7.89.66-.71C734.33,185.5,734.11,185.72,736.15,187.31Z"/><path class="cls-1" d="M741,191.35c2.85,2.17,3.06,1.87.63-.86C738.85,188.45,738.63,188.73,741,191.35Z"/><path class="cls-1" d="M745,188.47a30.54,30.54,0,0,0,5.55,4.93c0-1.66-10.62-10.92-10.8-10.75A35,35,0,0,0,745,188.47Z"/><path class="cls-1" d="M745.74,195.5Z"/><path class="cls-1" d="M747.65,185.49c1.72,1.11,1.72.67,0-1.32C746,183.11,746,183.53,747.65,185.49Z"/><path class="cls-1" d="M752.92,190.89a7.42,7.42,0,0,0,3.21,2.31c0-2.32-6.41-5-6.41-6.06A11.52,11.52,0,0,0,752.92,190.89Z"/><path class="cls-1" d="M759,192.32c.57,1.28,1.35,1.81,2.36,1.57-.56-1.3-5.23-4.16-5.23-4.68A22.86,22.86,0,0,0,759,192.32Z"/><path class="cls-1" d="M761.07,188.61a9.49,9.49,0,0,0,3.94,3.17c0-3.33-7.69-5.65-8-7.95A26,26,0,0,0,761.07,188.61Z"/><path class="cls-1" d="M766.11,185.89c-1.75-2.17,7.81,9.36,7.75,7.44,0-2.45-10-13.18-12.38-14.05A24.07,24.07,0,0,0,766.11,185.89Z"/><path class="cls-1" d="M768.68,100.43c2,1.72,2.09,1.44.35-.83C767.08,97.92,767,98.19,768.68,100.43Z"/><path class="cls-1" d="M771.45,103.67c3.52,2.23-3.4-2.1,0,0Z"/><path class="cls-1" d="M776.67,171.24q2.63.81,0-1.62C774.91,169.1,774.91,169.62,776.67,171.24Z"/><path class="cls-1" d="M316.8,128c1,.89,9.32,10.4,10,9.75,0,0-9.32-15.08-11.36-15.08A4.46,4.46,0,0,0,316.8,128Z"/><path class="cls-1" d="M319.56,246.51c1.61,0,2.19-.55,1.69-1.64C319.61,244.86,319.07,245.4,319.56,246.51Z"/><path class="cls-1" d="M328.41,243.41c1.33-3.3-.05.14,0,0Z"/><path class="cls-1" d="M328.41,238.61c0-1.09,0-2.17,0-3.25C328,233.94,328.06,240.69,328.41,238.61Z"/><path class="cls-1" d="M349.2,186.89c.69-.22.53-3.52-.31-3.52C347.54,184.73,347.63,185.89,349.2,186.89Z"/><path class="cls-1" d="M352,185.79Z"/><path class="cls-1" d="M358.12,197.85c2.13-.08-3.35.24,0,0Z"/><path class="cls-1" d="M358.2,226.87c1.48-5.3.16-.56,0,0Z"/><path class="cls-1" d="M362.19,201.79c1.63-6.1.22-.86,0,0Z"/><path class="cls-1" d="M362.22,196.52c1.67-4.22.11-.26,0,0Z"/><path class="cls-1" d="M363,218c1.52-5.21.2-.62,0,0Z"/><path class="cls-1" d="M363,213.11c1.53-6.13.23-.87,0,0Z"/><path class="cls-1" d="M367.08,201a17.77,17.77,0,0,0,1,6.67c.56,0,.37-14.57-.89-14.57C366.1,193.08,367.14,202.06,367.08,201Z"/><path class="cls-1" d="M367.48,192.28a3.79,3.79,0,0,0-.27-4A3.82,3.82,0,0,0,367.48,192.28Z"/><path class="cls-1" d="M367,181.15c1.65-4.1.15-.38,0,0Z"/><path class="cls-1" d="M368.66,217.16c1.1-2.5,1-4.63-.23-6.42C368.58,209.39,368.36,220.05,368.66,217.16Z"/><path class="cls-1" d="M369.39,180.06c2.22-.13-3.46.14,0,0Z"/><path class="cls-1" d="M371.06,198.47c.88-.56,1.6,9.95,1.55,11.21-.12-1.66,2.05-22.89.11-23C369.55,186.5,373.22,197.1,371.06,198.47Z"/><path class="cls-1" d="M372.52,179.64c4.43-1.71-3.59,1.3,0,0Z"/><path class="cls-1" d="M373.47,218.38c1.71-4.19.13-.29,0,0Z"/><path class="cls-1" d="M373.44,213.92c1.61-6.32.19-.7,0,0Z"/><path class="cls-1" d="M376,178.69a12.8,12.8,0,0,0,6.61-.72C384.84,176.17,371.85,177.59,376,178.69Z"/><path class="cls-1" d="M376.55,196c3.62-1,.8,12.55,2.41,12,2.8-.94-2.17-13.21,1.55-13.21,2.34,0,1.64,17,2.26,19.19-.66-2.34.34-10.1.13-13.46-.34-5.51,4.51-7.77,4.51-6.23,0-2.45,29-3.86,28.91-2.45.21-4.7-33.14,1-37.7,2.3,0-2.28-.87-4.79-.64-7.05C377.54,189.88,375.39,196.29,376.55,196Z"/><path class="cls-1" d="M381,186.28c5.61-.52,11.26-.86,16.89-1.3,5.11-.39,7.41,2.08,9.07,2.38-1.69-.3,6.33-4.1,5.9-3.33-2.28,3.77-32.23-3.73-37.49,2.35A15.47,15.47,0,0,0,381,186.28Z"/><path class="cls-1" d="M386.39,178c6.19-.75,13.93,1.25,19.8-.83C403.91,178,381.93,178.56,386.39,178Z"/><path class="cls-1" d="M386,211.62c6.37.37,14.94-3.11,21.15-4.62-2.07-.25-9.36-4.87-5.42-5s10,5.94,11.16,4c1.9-3.15-14.16-4.91-13.08-9.86-1.13,5.22,2.14,3.8-4.08,5.83.14,0-12.64,1.91-10.46,3.16,1.5.86,20.81-6.81,14.67,2C399.81,207.17,386.13,211.62,386,211.62Z"/><path class="cls-1" d="M388,197.3c1.33-3.38-.09.18,0,0Z"/><path class="cls-1" d="M408.11,197.33c.86-1.66.78-3-.24-3.85C408,192.88,407.81,199,408.11,197.33Z"/><path class="cls-1" d="M411.25,200.85c1.36.28,2.14-.13,2.37-1.21C412.19,197.31,408.3,202,411.25,200.85Z"/><path class="cls-1" d="M415.59,205.81c4.33-.36.79-7.74.79-7.57C416.38,199.48,415.15,205.83,415.59,205.81Z"/><path class="cls-1" d="M416.08,188.22Z"/><path class="cls-1" d="M415.59,185Z"/><path class="cls-1" d="M416.38,195.9c2.7-1.55-1.65,1,0,0Z"/><path class="cls-1" d="M419.62,184.84Z"/><path class="cls-1" d="M423.33,186a12.35,12.35,0,0,0,5.87-.72C429.75,184.78,420.11,183,423.33,186Z"/><path class="cls-1" d="M338.07,133.37c1.28-3.51-.11.26,0,0Z"/><path class="cls-1" d="M348.52,132.61c1.67-4.21.11-.31,0,0Z"/><path class="cls-1" d="M350.34,118.56c1.55,1.37,1.72,1,.49-1.13C349.33,116,349.16,116.43,350.34,118.56Z"/><path class="cls-1" d="M397.09,112.58c1.67,1-3.48-2,0,0Z"/><path class="cls-1" d="M398.84,116.05c4.26,4.26-4.68-4.72,0,0Z"/><path class="cls-1" d="M404.23,116.53c-.47-.34,1.49-7.64.89-7.44C403.51,109.62,402.78,115.63,404.23,116.53Z"/><path class="cls-1" d="M404.36,108.12Z"/><path class="cls-1" d="M409.16,107.9Z"/><path class="cls-1" d="M409.16,116.61Z"/><path class="cls-1" d="M414.1,109.28c3-1.83-1.17.66,0,0Z"/><path class="cls-1" d="M419.64,107.3c1.5,2.32-2.75-4.23,0,0Z"/><path class="cls-1" d="M425.82,111a2.37,2.37,0,0,0,.08-3.22A2.34,2.34,0,0,0,425.82,111Z"/><path class="cls-1" d="M430.54,108.69Z"/><path class="cls-1" d="M463.58,121.74c1.68.83,1.66.22-.08-1.81C461.73,119,461.75,119.58,463.58,121.74Z"/><path class="cls-1" d="M470.84,127.45c2.15-.1-3.41.18,0,0Z"/><path class="cls-1" d="M474.35,128c2,1.14-3.11-2,0,0Z"/><path class="cls-1" d="M475.5,124.24c2,.58,2.13.24.48-1C474.07,122.67,473.92,123,475.5,124.24Z"/><path class="cls-1" d="M477.14,133.22a16,16,0,0,0,2.37,1.53C484.46,130.43,472.35,133.22,477.14,133.22Z"/><path class="cls-1" d="M482.83,134.31c3.73,1.32-4.54-1.77,0,0Z"/><path class="cls-1" d="M487.2,130.78c1.84-.14,2.15-.78.92-1.87C486.48,129.07,486.16,129.7,487.2,130.78Z"/><path class="cls-1" d="M533.56,147Z"/><path class="cls-1" d="M537.21,150.2Z"/><path class="cls-1" d="M538.78,153Z"/><path class="cls-1" d="M567,160.72a71.13,71.13,0,0,0,9.75,11.73c-1.17-1.93-11.29-16.18-11.73-15.78A9.43,9.43,0,0,0,567,160.72Z"/><path class="cls-1" d="M566.55,165.57Z"/><path class="cls-1" d="M582.72,142.81c3.14,1.34,3.43,1.2.9-.43C580.4,141,580.11,141.13,582.72,142.81Z"/><path class="cls-1" d="M591.6,154.18c2.17-.13-3.43.14,0,0Z"/><path class="cls-1" d="M591.12,142.91c1.32-2.28,1.32-3,0-2C589.83,143.18,589.83,143.87,591.12,142.91Z"/><path class="cls-1" d="M593.12,164.32c2.56.85,3.21.32,1.94-1.57C594.31,162,589.07,163.31,593.12,164.32Z"/><path class="cls-1" d="M604.55,143.89c1.35-3.65-.17.4,0,0Z"/><path class="cls-1" d="M624.92,159.49c1.81,1.11-3-1.81,0,0Z"/></g></g></svg>
