<svg xmlns="http://www.w3.org/2000/svg" viewBox="0 0 892.27 369.44"><defs><style>.cls-1{fill:#9C3535;}</style></defs><g id="Layer_2" data-name="Layer 2"><g id="Layer_1-2" data-name="Layer 1"><path class="cls-1" d="M1.63,98.45C3.36,100.23,6,115.63,6,118.82c0,7.7,7.62,17.21,11.86,22.61,16.25,20.55,39.85,19.64,60.45,31,13.24,7.27,39,5,54,5.36a426.69,426.69,0,0,0,68.13-4c36.55-5.18,72.6-13.1,108.34-22.36,41.46-10.78,85.74-20.39,125.76-36.66,71.68-28.91,154.84-32.55,230.35-41.59C687,70.52,759.6,61,738.63,21.06,732.25,8.78,698.56,7.79,686.5,6.77c-27.57-2.27-55.44-.92-82.9,2.55-109.12,13.79-227,51.76-334.35,20.12-23.31-6.86-47-17.8-70.77-21.58-29.22-4.69-62.32-12.36-92-4.43C81.05,10.46,61.92,17,38.94,31c-9.55,5.82-17.89,15.27-24.33,24.65C10.06,62.32-4.91,91.25,1.63,98.45ZM8.45,77.92c2.19-7.44,15.5-1.64,20.49-1.58,8.64.07,17.51,2.59,25.94,4.47,2.95.66,29.62,4,30.65,2.94-2.91,3-27.85,7.23-32.79,6C39.63,86.49,20.79,93,6.92,93.39,7.13,88.37,7,82.77,8.45,77.92Zm3.3,18.71c4.16-.58,73.45-10.25,74.71-8.06-.16-.27-33.84,13.27-36.69,14.23-9.61,3.25-19.68,5.57-29.15,9.08C7.83,116.73,4.31,97.65,11.75,96.63Zm6.16-36.29C23.66,51,45.12,61,55.87,63c6.42,1.22,16.41,5.92,22.54,5.92,9.76,0,7.12,11,6,10-4.58-3.91-19.86-.79-25.56-1.42C52.06,76.77,45.44,75,38.75,74c-1.84-.28-21.59-1.8-21.59-1.71,0-.75-5.94-.47-5.33-3C12.47,66.62,16.57,62.53,17.91,60.34ZM15.58,117.2c6.9,0,71.26-21.57,71.26-22.52,0,4.57-28.72,17.35-34.06,20.6C43.4,121,33,126.89,22.75,130.62,19.09,132,11.64,117.2,15.58,117.2ZM27.7,46.13c8-11.69,51.51,12,62.79,16,4.79,1.67-.19,7.91-2.8,6.46A75.45,75.45,0,0,0,64.88,60.7c-1.49-.21-41.25-4.1-41.19-9.2A21.83,21.83,0,0,1,27.7,46.13Zm-1.23,87.46c5.6,0,63.12-36.14,63.4-31.88.33,5.84-30.8,23.62-36.59,27.56-3.4,2.31-9.14,6.39-12,9.48C31.05,149.42,29.28,133.59,26.47,133.59ZM37.63,37c4.37,0,7.15-7.78,12.09-5,4,2.24,8.29,3.72,12.42,5.7,4.4,2.09,38.18,15.32,38.45,18.83.56,7.06-23.29-3.16-25.63-4-7.68-2.83-15.47-5.37-23.15-8.23C51.2,44.09,32.26,37,37.63,37Zm2,107.56C47.73,139.05,54.85,132,63,126.31c3.14-2.18,19.22-10.35,19.22-14.18,0-2.13,12.69-10.93,11.17-2.34-1.56,8.79-20.69,25.08-26,30.92-3.22,3.54-11.12,14.55-16,13.63-1.07-.19-13.8-5.16-13.8-7.71C38.24,146,38.94,145.27,39.64,144.59ZM53.58,27c12-11.2,14.89,2.63,26.4,2.63,2.32,0,32.2,19.42,32.2,20.45C112.18,61.29,50.6,29.79,53.58,27ZM83,127.86c3.88-5.06,8.2-9.73,12.14-14.74,11.34,11.23-9.8,17.81-9.8,27.93,0,4.53-8.27,9.3-10.34,13.17-4.47,8.18-11.42,5.77-18.77,3C65.17,147.61,75,138.38,83,127.86Zm-13-110.49c4,0,7.91-3.7,11.76-4.42,6.75-1.31,15.55,8.53,20.35,12.4,2.06,1.64,21,14.12,21,16.58-2.09,1.33-4.13,2.71-6.16,4.16,0,.67,7.71-5,7.71-2.54C124.59,59.75,69.8,17.37,69.91,17.37ZM75.71,159c3.29-6.74,9.82-12,13.91-18.29,3.09-4.63,5.66-10.09,9.29-14.24,6.15-6.6,2.14.4,9.73.66.32,0-26.33,55.13-33.89,34.61C75.08,160.77,75.38,159.89,75.71,159ZM96.47,8.8c7-1.69,13.18-4,18.34,1.42,3.38,3.58,15.93,13.23,15.93,17.55,0,4.13-15.75,3.45-17.79,1.76-6.81-5.65-19-11.4-24-18.72C88.71,10.46,96.8,8.72,96.47,8.8Zm-.55,147.9c2.26-4.59,14.94-31.07,21.14-26.06,3.83,3-6.28,18.36-7.73,21-2.48,4.42-4.25,10.09-7.42,14-1.27,1.58-9.68,1.17-9.68-.36A62.43,62.43,0,0,1,95.92,156.7Zm-.56-68.39c13.41-58,106.29-47.48,146.05-37,45.86,12.14,91.48,12.64,138.46,9,48.55-3.58,98.21-10.33,145-15.77,15.42-1.78,161-24.77,161-8.29,0,5.84-145.72,17.49-162.3,19.64-25,3.23-49.51,10.07-74.16,15.81-10.55,2.45-21.26,4.78-31.58,8.18C406.7,83.6,382.64,85,373.69,92.66c-6.9,6-26,6.25-33.88,7.82a382.51,382.51,0,0,0-45.18,12.12c-26.67,8.9-56.95,12-84.5,16.71C180.89,134.31,81.45,148.12,95.36,88.31Zm11.45,76.38c8.13,0,7.94-44,23.77-28.23,1.78,1.83-7,14.15-7.84,15.87-1.83,3.95-4.71,13.3-9.46,14.42C110.65,167.4,104.44,164.69,106.81,164.69ZM122.42,5.54c11.17-.26,17,10.3,23,19.2-1.84,1.17-8.48,3.6-10.38,2.34C132.88,25.62,115.32,6.82,115.86,6A35.14,35.14,0,0,1,122.42,5.54Zm1.69,25.39c-.15,0,10.91-3.49,10.43,1.34-.87.52-1.76,1-2.65,1.46.25-.47,7.59,1,6.38,2.78s-6.06,1.34-7.88,3.17c-.51.51,11.11-2.58,11.11-1,0,11.34-23.8-4.35-22.35-5.84C120.81,32.21,122.43,31.58,124.11,30.93Zm4.62,117.79c3.19-4.82,9-20,18.07-10.6.56.63-14.91,27.19-17.4,28.88C113.76,177.57,126,152.83,128.73,148.72Zm5.73,16.79c4.88-5.59,15.92-37.92,27.79-25.8,1.07,1.21-12.37,18.2-13.22,19.41-1.49,2.15-4.05,8.33-6.34,9.5C140.94,169.5,130.36,170.07,134.46,165.51ZM138.78,5.36c9.88,1.09,16.6-1,16.6,9.52,0,6.76,18.43,6.14-3.19,9.07-3.75.51-16.06-13.58-16.06-17.72Zm.28,22.35c-1.85.39,12.06-3,9.19,1.36C145.27,33.59,133.52,28.85,139.06,27.71Zm5.6,3.67c18.94-4.61-3.92,10.09-3.92,1.53A9,9,0,0,1,144.66,31.38Zm1,4.81a8,8,0,0,1,5.11-.15C147.87,38,144,36.19,145.64,36.19ZM149,165c6-10.36,14.37-28.68,27.08-26.43-3.71,6.48-7,13.22-10.25,20-1.44,3-3.3,8.74-6.92,9.59-.88.23-12,2.13-12,1A23.39,23.39,0,0,1,149,165Zm2.28-139.56c2.3-.22,12.87-3.48,14.46-.71C168.58,29.71,148.22,25.78,151.29,25.45Zm2.22,9.93ZM155.84,29c2.3-.1,14.75-4.37,13.31,1.88-.39,1.68-7-.44-8.62.6a4.73,4.73,0,0,0,.83,2.06C159.7,33.26,149,29.27,155.84,29ZM159,4.36c6.75.12,17.49-.23,17.89,10-2,0-4.08.14-6.11.31,0,.24,11.58,1.24,9.18,6-6.32,12.57-25.94-15-25.08-15.85C156.24,4.69,157.63,4.53,159,4.36Zm6.39,29.14c2.06.6,2.06,1,0,1C163.32,34,163.32,33.59,165.39,33.5Zm3.73,125.41c1.49-2.84,13.83-31.48,22.23-22.56,2.41,2.56-8.24,17.51-8.24,20.88,0,8.88-18.49,13.25-18.49,10.33C166.09,164.66,167.61,161.78,169.12,158.91Zm.49-126.8c3.18,0,.46,2.94-1.23,2.36C167.86,33.31,168.28,32.52,169.61,32.11Zm5.78-9.73a7.51,7.51,0,0,1,5.89,1c-.47,2.27-10.37,2.13-12.48.5C167.31,22.77,177.35,22.32,175.39,22.38Zm1.85,3.26c-1.4.05,8.94-.2,5.93,2.71-1.34,1.31-13.1,4-11.81-1.43A6.68,6.68,0,0,1,177.24,25.64ZM180,32.21a7.72,7.72,0,0,1,6.49,1.2c1.26,3.36-12.58,3.43-12.58-.58A14.91,14.91,0,0,1,180,32.21Zm3.7-24.71c1.13.12,8.67.29,8.67,3.49a17,17,0,0,0-3.84.65s6.78,2.36,5.33,3.57c-6.08,5.37-18.53-7.16-16.63-8.16C179.33,7.13,181.48,7.3,183.65,7.5Zm-1.47,22.67c7.67-1.61-3.38,2.65-2.76.82Zm2.95,128.59c1.89-6.23,6.59-12.94,9-19.25.82-2.23,11.16-9.45,11.35-5.23.27,6.5-7.08,19.52-8.79,25.81-2.17,8-8,5.59-15.13,7.21A64.43,64.43,0,0,0,185.13,158.76ZM187.71,16c-1.53-.14,10.44,1.67,7.95,3.3.32-.21-12.08,1.59-11.56,1.81,1.07.44-1.69-4.63-1.71-4.85A10.1,10.1,0,0,1,187.71,16Zm-2,6.32c1.21,0,11.25-3.68,11.25.5C197,28.59,183,22.27,185.72,22.27Zm1.38,3.47c1.22.26,7.25-.39,10.33,1.22C199.66,28.14,183.37,24.92,187.1,25.74Zm6.1,4.31c1.52.19,6.54-1.77,7.07.37.39,1.64-2.49,2.78-3.42,2.21,1.71,1,5-1,5.78,2.06.59,2.46-12.48,2-12.59-1.95a12,12,0,0,1,3.22-1.18,9.5,9.5,0,0,1-4.78-1.19A5.18,5.18,0,0,1,193.2,30.05Zm3.46-5.62c3.45,1.43-3.84-1.56,0,0ZM200,10.82c.05,0,10,1.34,10,3.68,0,3.38-15.86-2.6-14.31-4.24A17.93,17.93,0,0,1,200,10.82Zm-.17,3.71c1.61.38,3.2.79,4.8,1.18a6.79,6.79,0,0,1-3.62,1.36c1.68-3.18,14,2,10.84,5.08-2.9,3-13.83-3.72-14.89-7.89Zm-.13,146.38c3.41-8.7,5.61-29.28,17.39-29.54-1.18,9.6-5.54,19.81-5,29.47-2.62,3.7.94,1.76-4.48,4.14C202.56,165.53,197.08,167.79,199.74,160.91ZM204.89,22.8c1.86.24,8.61,0,9.25,2.73,1.55,6.51-15.13-2.51-13-3C202.42,22.64,203.65,22.7,204.89,22.8Zm4.22,5.07c1.89.09,7.87,0,7.87,3.65,0,.51-14.72.85-13.92-2.86A7.19,7.19,0,0,1,209.11,27.87Zm-3.06,4.56c.15.12,15.53,1.58,12.22,4.28C213.42,40.63,206.9,33,206.05,32.43Zm10,126.48c-.71-5.23,2.43-28,7.29-28.81,7.48-1.3,7.68-1.06,6.85,7.42-.22,2.3-2.22,25.63,0,23.32,3.25-3.41,3.35-22.26,3.73-27,.54-6,1.47-5.31,7.27-6.92,6.19-1.66,3.32,6.52,3.17,10-.17,4.21,2.46,22.86-2.39,22.86-8.69,0-18.81,6-27.46,4A10.25,10.25,0,0,0,216.05,158.91Zm.54-142.59c2.06,0,2.75.59,2.14,1.81C217.53,18.24,212.05,15.43,216.59,16.32Zm1.85,3c2.92,1.1,6.26,4.39,6.26,7.83,0,2.1-8.67.16-6.8-2.76a10.63,10.63,0,0,0,4.08.25C220.77,26.66,210.42,16.43,218.44,19.36Zm3.86,9.88c-1-.1,8.55,2.39,5.39,3.94s-7.65-.36-8.35-4.05C220.33,29.14,221.3,29.19,222.3,29.24Zm.75,5.31a7.11,7.11,0,0,1,6.25,2.14C229.3,41.25,218.2,34.55,223.05,34.55Zm5.09-12.28c1.36,1.25,5.51.18,5,2.19C231.55,30.28,223.47,18,228.14,22.27Zm3.48,4.92c.65.2,7.27,6.62,5.47,7C231.37,35.55,229.3,26.46,231.62,27.19Zm6.08,9c6.7,1.9-3.13,1.3-3.77,1.09C234.15,35.38,235.41,35,237.7,36.16Zm-.14-11.91a14.42,14.42,0,0,1,7.93,3.44C245.49,32.63,233.15,22.87,237.56,24.25Zm4.6,5.11a10.21,10.21,0,0,1,4.67,2.12c.91,1-7.51-.66-7.51-2Zm2,3.15A6.46,6.46,0,0,1,250,37.06c-.17.82-8.54-1.56-9-4.85A10,10,0,0,1,244.12,32.51Zm3.44,12.56c2.71,1.69-4.23,0-4,.29C244.61,44,245.94,44,247.56,45.07Zm-.32-6.84c5.84,1,3.64,4.82,5.93,5.86a6.05,6.05,0,0,1-3.86-2.33,7.74,7.74,0,0,0,1.95-.66c-.91-1.55-7.34-.38-7.34-3C245,38.19,246.14,38.22,247.24,38.23Zm.66,100.27c-.21-11.51-.08-14.48,10.68-15.32.35,10.62,1.79,20.63,2.57,31.19.2,2.81-11.94,5.72-13,2.49C246.43,151.28,248,144.16,247.9,138.5Zm4-110.49c2.62,0,11.25,3.58,11.25,7.44,0,2.88-11.09-3.08-11.09-3.08,2.39,0,4.76.08,7.16.19-.93-2.75-9.94.26-9.94-3.75C250.19,28.56,251.07,28.28,251.93,28Zm6.36,8.13a13.24,13.24,0,0,1,8.35,5c-1.36-.25-9.62-2.11-9.62-.57,0,.85,9.89.69,10.76,3.16a88,88,0,0,1-9.6-.95c2,.48,11.16,2.27,11.16,4.08,0,5.32-19.21-7.64-15.9-11.17A17.21,17.21,0,0,1,258.29,36.14Zm-.76,85.35Zm7.57.39c15-2.06,16.75,29.22,9,31.05-10.76,2.59-9.5,1-10.94-10.42C262.32,135.79,259.1,124.17,265.1,121.88Zm2.17-89.77c9,0,7.08,3.37,8.52,8.92-.18-.7-9.94-4.72-8.31-5.5,1.66.07,3.3.22,5,.36C272.13,36,261.62,32.11,267.27,32.11Zm5.07,7.79c1.71.38,9.87,5,10,7.07.46,6.21-14.8-5.85-12.8-7.11C270.47,39.86,271.4,39.87,272.34,39.9Zm5.47,7.73a8.2,8.2,0,0,1,6.93,4.27c0,.69-12.11-3.88-11.3-4.74A14.34,14.34,0,0,1,277.81,47.63Zm.17,71.66c6.13,2.34,12.25-6.53,11.18,5.13-.68,7.28-.41,16.7-2.94,23.65C282.47,158.17,277,118.9,278,119.29Zm3.51-81.85c1.54.73,7.87.59,7.87,3.82C289.36,47.53,277.26,35.55,281.49,37.44Zm4.95,5.7a5.69,5.69,0,0,1,5.62,3.52c-.19.2-4.41-1.9-4.82.07.28-1.4,9.13,2,8.12,3-3.27,3.42-12.92-6-11.92-6.9Zm6.65,7.75c-1.67-.4,8,2.78,5.32,3.62-1,.31-12.67-1.83-10.23-4.24A14.29,14.29,0,0,1,293.09,50.89Zm-2.09,88c1.06-6.21-1.26-26.78,7.94-24,2.49.79-.42,21-.42,23.05C298.52,149,288.65,152.44,291,138.85Zm2.87-99.39c2.37,0,17.49,7.33,14.53,11.13-3.14,4-9-1.15-10.56-4.14a22.21,22.21,0,0,0,4.24-2.08C296.56,46.13,295.62,39.46,293.87,39.46Zm8.85,80.29c.24-5.36,4.27-9.25,9.82-7.18,2,.72.48,33.52-11.23,32.56C301.78,136.68,302.34,128.21,302.72,119.75Zm4.53-66a10.33,10.33,0,0,1,4.8,1.38c-.08-.08-8.81,1.69-8.81-1.44A9.36,9.36,0,0,1,307.25,53.76Zm2.67-11.6a8.92,8.92,0,0,1,7.74,2.71c-.48,1.15-4.32,1.42-5.57,1.72,3.57-.68,12.87,3.62,6,5.81-2.39.75-11-7.46-11-10.15C308,42.22,309,42.18,309.92,42.16Zm4.44,89.78c.12-1.3,2.26-33.28,11.36-23.91,2.67,2.76-1.31,19.49-1.81,24.07-.22,2-6.82,16.79-10.49,9.39A68,68,0,0,1,314.36,131.94Zm6.36-78.26c2.29-.62,3.61,0,3.92,1.83-1.18,1.26-7.94-1.35-7.88-1.47A5.63,5.63,0,0,1,320.72,53.68ZM324.51,57l2.59,1.2c0,1-7.24-.63-8.85-1.07A15.19,15.19,0,0,1,324.51,57Zm-.1-12.74c-2-.14,7.9,1.71,5.21,2.87-1.1.46-9.46-.47-9.46-2.68A9.37,9.37,0,0,1,324.41,44.27Zm1.46,3c3.26,1.08,5.78,3.61,8.34,4.72C333.85,51.84,321,45.67,325.87,47.28Zm2,75.25c.37-4.84-1.35-16,4.5-17.07,8.3-1.48,5.55,4,4.62,11.69C335,133.8,326.08,147.83,327.91,122.53Zm4.27-68.62c2.46-.63,4.31,0,5.55,1.76a9.23,9.23,0,0,0-3.69.25,27.7,27.7,0,0,1,5.35,2c-3.55,4.61-9.67-4.19-10.54-3.14C330,54.48,331.09,54.2,332.18,53.91Zm3.85-9c1.9.52,9.76-.44,10.17,2.13.29,1.73-4.85,2.26-5.44,2,.24.12,6.38,3.5,6.38,2.62C347.14,58.49,329.06,43.09,336,44.9Zm3.3,78.87c.91-6.21.59-12.91,2-19,.84-3.72,9.23-1,10-2.32C345.43,112.51,356.28,136,338,136,337.48,136,339.47,122.9,339.33,123.77Zm4.72-70.41c1,.41,2.06.84,3.09,1.23,0,3.13-6.82.24-6.07-.58C342.06,53.81,343.05,53.6,344.05,53.36Zm1.57,3.28c7.61,0-3.79,2.77-2.75.82C343.79,57.21,344.7,56.91,345.62,56.64Zm11.75-10.71c5.34,5.68-12.07,2.44-7.79-.09C350.77,45.12,356.17,44.66,357.37,45.93Zm.38,10.29c.71.32-4.82,2.93-6.94,1.58C350.52,57.6,356.49,55.71,357.75,56.22Zm-4.24-5.7c2.13-.82,3.59-.43,4.4,1.23,0,1-7.71,1.64-7.71-.29Zm1,2.84,3,.84a7,7,0,0,1-6.55,0A4.58,4.58,0,0,1,354.48,53.36Zm-1.45,68c1.48-12.34-3.08-22.18,11.27-22.18-4.19,0,2.86,32.62-12.72,32.59C352.12,128.34,352.63,124.87,353,121.39Zm11-65.55c2.1-1.18,3.93-1.09,5.47.3,0,2.56-8.45,1.32-8.45.5C362,56.39,363,56.1,364,55.84ZM362.61,53c1.34.89-.46-2.06-.43-2.11.68-1.13,6.25-1.91,7.13-1.3a3.24,3.24,0,0,1-1.09,4.34c-3,0,1.13-2-.41-2.09C364.19,51.61,363.23,53.43,362.61,53Zm3-7.81a4,4,0,0,1,4.63,1.16c0,3.09-9.22,3.31-9.22.47C361.67,44.8,363.21,44.27,365.59,45.19Zm-.79,75.22c1.05-6.74,1.43-13.6,1.94-20.38.3-3.59,10.24-7.32,9.73-.27-.45,6.35,2.09,19-1.84,24.25C369.61,130.71,363.45,128.68,364.8,120.41Zm12.35-65.66c2.33-.91,4.12-.43,5.4,1.37-1.36,1.44-7.69.89-9.56.65C373.14,54.78,374.51,54.11,377.15,54.75ZM375.82,52c-.2-.1-4.11-1.77,0,0ZM375,49a8.65,8.65,0,0,1,8.31.7C383.31,52.62,369.47,50.56,375,49Zm-.92-4.24c1.39-.9,8.64-2.05,9.64-.28C386.05,48.52,368.75,48.36,374.08,44.74Zm5.16,7c1.74.84,1.37,1.18-1.08,1Q375.82,51.43,379.24,51.75Zm.39,53c.15-7.65.09-13.37,8.92-12.25-.92,7.91-.55,15.86-1,23.8-.12,2-6.13,11.06-8.33,6.67C377.3,119.17,379.53,108.74,379.63,104.74ZM389.94,54c-.36.07,18-1.76,18,0,0,3.49-22.3,2.09-22.18,1.71A6.33,6.33,0,0,1,389.94,54Zm.88-3.23c1.48,0,3-.11,4.43-.15-1,.13-8.85-.38-8.85-1.08A6,6,0,0,1,390.17,46c-.39,0,1.85,2.66,4.13,1.36-.77-.37-1.55-.71-2.33-1,.52,1.11,4.25-4.17,4.13,1.89-.13,5.15-9.7,4.89-9.7,3.51A6.59,6.59,0,0,1,390.82,50.76Zm-3.67-7.35c-1,.14,8.5-1.91,8.5-.19C395.65,49.26,384.39,43.89,387.15,43.41Zm4.56,48.36c.16-1.27,6.38-2.2,6.88-2.09,3.2.74,1.76,12.88,2,15.67.81,9.59,1.42,15-9.6,15.15C391.5,110.93,390.27,101.29,391.71,91.77Zm8-49.89c.19,0,7.48-1.77,7.48.42,0,1.57-6.83,2-7.43,3.15C400.26,44.41,397.42,42,399.72,41.88Zm1.88,4.94c2.73,0-.54-3.07,3.51-2.43,1.18.2,3.41,6.44-1.39,6.51C407,50.83,394.52,46.82,401.6,46.82Zm.21,4.11Zm2.07,37.38c2.42-1.57,6-2.15,8.77-2.91-.26,5.61,5.05,26.12.16,28.47C399.42,120.24,400,90.91,403.88,88.31Zm8.05-44a14.36,14.36,0,0,0-1.54-3.18c.95,0,8.35-1.27,8.35-.07,0,.78-5.74,2.19-5.45,2.26,2.48.53,7.75,5.17,4.48,5.17-.11,0-7.46-1.47-6.95-.67C411.2,46.63,411.55,45.45,411.93,44.28Zm.54,7.47c1.38,0,18.25-1,16.8-2.94C436.38,58.79,406.17,51.75,412.47,51.75ZM418,83.21a8.43,8.43,0,0,1,5.83-.95c2.31,3,1.78,27-1.22,28C411.91,113.62,414.09,84.71,418,83.21Zm7.39-44.14,4.38.31c3.85,4.1-5.7,10.94-7.63,7.81-2.84-4.59,4-3-.35-5.7C421.31,39.38,422.52,38.58,425.36,39.07Zm4,46.44c3.81,1.64-2-1.85-2-2.54,0-1.36,12.15-9.82,4,4.18,1.67-.5,3.35-1,5-1.53,4.29,2.86,1.43,20.74-3.88,21.78S425.2,87.36,429.38,85.51Zm4.28-35.92c1-.43,6.66-2.93,6.66.14C440.32,56.1,429.17,51.52,433.66,49.59Zm3.23-11.77a4.63,4.63,0,0,1,3.43.76c0,1.25-6.21,1.79-7.1,1.17C433,37.68,434.27,37,436.89,37.82Zm-2.22,4.91c-3.51.14,7.8-5.58,5.49.29C439,46,431.18,42.84,434.67,42.73Zm5,35.8c.42-.44,6.77-3.83,6.77-1.23,0,3.88-5.36,2.24-6.62,5A6.49,6.49,0,0,1,439.7,78.53Zm2,4.68c-1.71.52,5.61-1.8,4-2.76,6.47,3.77-4.12,7.81-4.18,7.65.73,2.1,4.11-.3,5.37.17,5.6,2.15.78,16.68-7,16.68C438.37,105,439.81,84.78,441.72,83.21ZM444.16,37c.86,0,5.26-1.58,5.78-1.1,4.79,4.43-3.63,6.74-5,7.91C445,43.82,440,37,444.16,37Zm2.22,10.78c1.09.14,2.18.27,3.23.43,2.52,2.66-5.31,2.87-5.8,2.65C443,49,443.86,48,446.38,47.81Zm9.42,25.94c1.32-.28,2.66-.6,4-.93,1.62.15-7.08,8.43-9.65,4.7C450.57,74.75,452.44,73.48,455.8,73.75ZM451.48,87c-2.35,0,1.08-9.84,9.2-9.84,4.46,0-6.47,11.84-7.16,8.27.43,2.25,8.36-2,8.36,1.15a50.18,50.18,0,0,0,.3,7.18c.54,5-5.15,10.09-10.16,7.79C449.89,100.55,449.47,87,451.48,87Zm2.73-39.32c1.14,0,4.86-2.24,5.3-1.62C465.05,53.5,450,47.63,454.21,47.63Zm-.35-8.5c.16-.5,7.07-1.88,7.44-1.6C463.9,39.53,451.45,45.87,453.86,39.13ZM455.31,35a16.38,16.38,0,0,1,5.48-1C465.34,36.75,446.82,36.83,455.31,35Zm5.95,48.93c.17.09-3.29-1.34,0,0Zm7.38-13a28.55,28.55,0,0,1,5.42-.71c1.61,1.34-8.93,6.7-10.68,3.69C463.06,71,464.81,70,468.64,70.87ZM466.26,76c13.45-2.71,3.45,3.36,4.27,5l3.5.46c0-.09-6.73,2.43-7.38,1.15.86-.43,1.71-.82,2.6-1.2C469.45,81.52,458,77.71,466.26,76Zm1.34-43.18c2.68-.64,3.75.06,3.25,2.15-.59.38-7.32,1.86-6.46-.68Zm-1.69,51.64c1.5,0,6.09-1.86,8.82-1.46-.05,3.67,1.43,12.72-2.08,13.71C459.47,100.4,467.42,84.47,465.91,84.47Zm.46-38.67c4.2,1.71,2.47,5.07-.81,2.94C464.69,47.34,465,46.35,466.37,45.8Zm1.34-9.25,3-.07c4,2.16-7.32,5.77-5.82,1.86C465.83,37.74,466.79,37.15,467.71,36.55Zm2,6.44c2,.38-4.45.39-3.09,0Zm5.34.56c.82,0,6.86.46,6.8.82-.39,2.55-6.53,4.17-7.93,2.71C473.18,45.45,473.56,44.28,475.09,43.55ZM475,35.38c-.63,0-.12-7.87,5.65-3.77,2.07,1.46-1.1,11-4.34,9.27C476.14,40.82,473.33,35.38,475,35.38Zm2.85,33.77c3.05-.32,6.05-2.38,6.78,1.46.14.8-7.18,2.4-7.58,1.44C476.06,70.5,476.34,69.53,477.81,69.15Zm.3,12c-3.1,0,5.42-2.94,4.7-3-1.61-.25-9.06-4.32-4.58-4.32,1.89,0,8,3.26,6.67,3.26,1,0-.89,6.49-6.47,7.28,7.73-2.94,11.85,8.32,6.31,9.41C473.42,96.05,479.64,81.2,478.11,81.2Zm5.77-35.53a21.48,21.48,0,0,1,2.63-2.08,14.44,14.44,0,0,1-2.33-.77,8.55,8.55,0,0,1,5.55-.68,3.66,3.66,0,0,1-1.55,1.24c.31.66,2.8,0,3.32.35-.46.73-3,.31-3.33,1.23A4.41,4.41,0,0,1,491.06,46C490.45,47.23,482.46,49.53,483.88,45.67Zm2.63-9.48c3.08.1,3.08.46,0,1C483.43,37.1,483.43,36.77,486.51,36.19Zm.15-6.65c2.87-.78,3.69,2.57,3.69,4.42C490.35,38.47,478.68,31.76,486.66,29.54Zm1.77,10a2.23,2.23,0,0,1-2.7,1.54C486.05,39.86,487,39.33,488.43,39.52ZM490,65.46A10.6,10.6,0,0,1,497,64c3.13,4.29-7.67,7.53-9.37,5.81C487,67.69,487.79,66.21,490,65.46Zm-.08,18.19c.82,0-1.08-6-1.08-5.73a14.27,14.27,0,0,1,8.08-2.61c4-.44,3,6.69,3.37,9.37.95,6.95-4.93,6.86-10.75,7.81C489.46,91.09,489.21,83.65,489.89,83.65Zm-.51-11.49c2-.18,8.71-2.86,9.26.11.31,1.53-8.84,4.45-9.54,3.64A4.65,4.65,0,0,1,489.38,72.16Zm6.45-44.36c5.35-1.22,6.17,4.65,1.48,5.53C492.09,34.32,491.71,28.76,495.83,27.8Zm2.37,12.56c5.66-.16-2.68,2.85-4.31,1.76C494.66,40.42,496.11,39.82,498.2,40.36Zm-4-4.58c-.1,0,6.14-2.87,6.14-.78C500.37,38.76,492.8,34.9,494.23,35.78Zm1.52,8.35c.14,0,5.08-1.83,4.48.24C498.79,49.26,492,43.15,495.75,44.13Zm9.61,17.78,3.09-.3c-1.61-.41,1.17,4.42,1.17,3.13C509.62,70.35,490.4,64.31,505.36,61.91Zm-1.45,7.82c-.11,0,7.32-2,6.12.35-.41.85-7.1,3.81-8.25,1.88C501.21,70.21,501.93,69.46,503.91,69.73ZM504,80.11c6.54-1.87,12.63,4.9,5.93,6.73C504.31,88.39,499.91,81.25,504,80.11Zm-.46-6.72c.08,0,7.3-.25,7.29-.32,2.76,4.4-4.5,6.47-8,6.24C502.74,78.09,502.66,73.92,503.53,73.39Zm3.28-30.48c.93.18,1.86.41,2.81.61,0,1-6.41,1.93-6,.76Zm-1.59-3.73q2.55-1.7,3.61.59C508.83,42.74,499.46,40.83,505.22,39.18Zm.52-6c1.33-.8,2.41-.69,3.29.32C509.91,35.69,498.28,34.69,505.74,33.18Zm.78-6.81c3.93,0,4.07,3.72.55,4.76C502.27,32.52,502.09,26.37,506.52,26.37Zm-.78,9.41c1.84-1.14-2.95,1.9,0,0Zm2.81-.4Zm1.21,32.16Zm4.91-29.86,3.51-.16c1.29.82-7.35,4.13-6,1.73Zm1.1-6.14c1,.12,2,.27,3.06.4a8.48,8.48,0,0,1-6.3,1.3C512.12,31.47,513.2,30.91,515.77,31.54Zm.27-6.9h3.08c1.88,4.87-3.87,7-6.63,4.81C510.21,27.69,515.33,24.78,516,24.64Zm2.13,35.57c2.37-1.51,4.06-1.35,5.11.49a7.32,7.32,0,0,1-5,.91c.65.74,1.33,1.48,2,2.19-.16.51-6.87,1.07-6.87.34a4.92,4.92,0,0,1,2.76-1.48,12.48,12.48,0,0,1-3.57-.69A7.56,7.56,0,0,1,518.17,60.21Zm-4-18.28c1.29-.24,2.59-.51,3.87-.81C520,45.36,508.88,41.93,514.16,41.93ZM515.53,66c1.66,1.76-2.42-2.71,0,0Zm.38,12c-7,3,9.88-16.14,9.88-6.64,0,5.37-5.17,1.83-7.32,5.8-.34.6,6.91-1.67,7.59.41C527,80.32,509.23,80.76,515.91,78Zm.44-9.85c1.24,0,3.74-3.37,8.27-3.1-2.08.53-4.09,1.53-6.15,2.21.76,0,6.2-.5,6.1.49C524.13,72.64,510.28,68.1,516.35,68.1Zm2,12.67c.08,0,7.84-2.21,7.84.75s-8.53,3.56-10.58,3.74C513.35,85.4,516.78,81,518.32,80.77Zm5.62-56.87c6-2.4,4.35,4.91,3.3,4.91.91,0-5.12-.92-4.55-.49C521.63,26.55,522,25.09,523.94,23.9Zm.68,16.38q3.87.7,0,1.39Q520.8,41,524.62,40.28Zm.08-10.17c1.54-.84,2.38-.58,2.54.73C525.79,32.4,519.66,31.45,524.7,30.11Zm2.08,56c1.1,1.06.55,1.61-1.62,1.6C524.06,86.65,524.61,86.13,526.78,86.13Zm-1.4-49.94c1.56.81,1.56,1.63,0,2.44C523.87,37.82,523.87,37,525.38,36.19Zm.1-2.78c2.31-.93,2.38.81.31,1.4C523.84,34.94,523.73,34.46,525.48,33.41Zm5.22,25.38c1.3.28,2.61.54,3.92.79,0-.06-8.77,5.4-7.89.43A3.6,3.6,0,0,1,530.7,58.79Zm-1,4.3a6.56,6.56,0,0,1,6.08.12,35.47,35.47,0,0,0,1.12,8.25c.8,3.46-10.35,5.84-7.78-2.55-.08.29,6.27-1.74,6.39-1.89C536.31,66,522.28,65.31,529.7,63.09Zm.77,2.57c1.71.82,1.39,1.36-.92,1.63C527.84,66.48,528.15,65.93,530.47,65.66Zm-1.92-26.77c2.66,3-.8-.84,0,0ZM535.26,78c1.66-.58,2.55-.15,2.64,1.37-.31,1.67-8,4.52-8.43,1.43C530.25,78.09,532.18,77.15,535.26,78Zm-5.79-2c1.07-.7,7.86-2.33,7.86-.2C537.33,79,526.89,77.69,529.47,76Zm4.46-54c2-.83,3.16-.17,3.4,1.94-1.69,2.35-3.67,2.56-5.87.58C532.28,23.63,533.1,22.8,533.93,22Zm.62,15.86c2.27,0,16-2.12,15,1-.57,1.77-17.63,2.05-17.63.33C532.82,38.69,533.68,38.27,534.55,37.82Zm.69-2.74c6.45-1.64-4,2.56-2.9,1.36C533.3,36,534.27,35.55,535.24,35.08Zm2-3.27c1.46,1.14-4.77,1.12-5.68.78C532.63,32.37,536.6,31.36,537.22,31.81Zm-1.66-5.44c2.14.42,1.93.87-.56,1.38C532.78,27.32,533,26.84,535.56,26.37Zm4.05,30.93a50.94,50.94,0,0,0,5-1c2.33.82-4.21,4.44-6.22,3.49A1.72,1.72,0,0,1,539.61,57.3Zm.48,3.94a5.78,5.78,0,0,1,6.27.55C545.45,64.53,536,62.89,540.09,61.24Zm4.24,4.07,3.27.18c1.18,2-7.46,1.27-7.26,1.1Zm-2.46-44.66a37.71,37.71,0,0,0,7-1.08c.13,1,.21,6-1.15,6-1.42-.41-1.5-1.07-.21-2-1,.53-5.59,1.72-7.1.74A2.52,2.52,0,0,1,541.87,20.65Zm.71,56.18c.68-.21,7.06-2.72,7.06.24,0,1.51-7.8,3.56-7.83,3.5C540.39,78.93,540.67,77.69,542.58,76.83Zm.76-3.35c2.08-1.41,4-1.43,5.82-.13,1.07,3.13-9.66,2.28-8.51,1.18C541.54,74.16,542.45,73.83,543.34,73.48Zm.74-5.54c8.45-.77,2.1,5.09-3.32,5.09C539,73,541.55,68.16,544.08,67.94Zm-1.87-34.21c2.12-.26,4.24-.5,6.36-.77C550.17,33.41,536,33.73,542.21,33.73Zm6.51-3.68c.81.86-7.47,2-8.71,2C541.41,31.49,547.7,28.92,548.72,30.05Zm-4.83-4.78c3.23-1.37-4.15,1.57,0,0Zm9.53,29.18a3.35,3.35,0,0,1,3.94.57c0,.51-7,2.88-7.75,1.57C549,54.26,550.25,53.55,553.42,54.45Zm-.85,5.21c2.32-1.33,4.3-1.26,5.95.24-.89.9-8.88,2.26-8.88,1.1Zm0,4.52a16.56,16.56,0,0,1,7.14-.24c0,1-7.33,2-6.41,2.07,1.66.14,7.18-2,7.18,1.07C560.44,77.24,545.85,63.77,552.53,64.18Zm3,6.8c2.25-1.76,4.13-1.79,5.66-.17,0,.42-9.23,5.8-9.23,1.89C553.17,72.11,554.36,71.55,555.54,71Zm-2.92-52.1c.63-3.07,10.32,0,5.7,4.27C554.66,26.55,551.75,22.75,552.62,18.88Zm4,55.39c2.74-1.13,4.52-.42,5.31,2.19.08,2.27-11.15,1.23-9.08-.85C554.14,75.14,555.4,74.71,556.66,74.27Zm-3.08-39.52c2.87,5.38,13.79-6.24,13.79-3.1a50.81,50.81,0,0,0-4.63,2.7c0,1.58,5.38-2.06,5.38,1,0,1.51-11.72,2.44-13,2.44C551.65,37.82,552.89,33.47,553.58,34.75Zm.3-2.94c3.56-1.32-4.29,1.69,0,0Zm0-3Zm3.86,2.47ZM564,52.91c.75-.16,4.66.8,2.92,2.69-.89.94-6-1.42-6-1.37C561.91,53.77,562.94,53.35,564,52.91Zm2.84,5.42c4.89-.1-2.68,2.08-4.26,1.37A4,4,0,0,1,566.83,58.33Zm-3.16-1.44c.26.09-3.36-1.34,0,0Zm3.19-39.56c3.32,3.5-4.12,5.74-4.12,4.17,0,.73,0-4.55-.47-3.53A5.42,5.42,0,0,1,566.86,17.33Zm-2.74,46.51c-1.63-5,15.64,10.14,1.55,4.86,1,.36,6.3-1.68,6.3.66,0,2-6.06,2.5-7.24,1.89C562.89,70.35,564.15,64,564.12,63.84Zm4.32,8.07c.3-.07,6.95.09,4.82,3C570.31,78.93,560.57,73.85,568.44,71.91Zm-1.27-10.67c1.89.55,2.26,1.16,1.16,1.87C566.42,62.54,566,61.91,567.17,61.24Zm4.13-27.93a6.89,6.89,0,0,0,6.07-1.37c0-1.2-6.93.58-6.92-.42.13-7.09,16.94,4,16.94.91C587.39,38.8,566.54,32.41,571.3,33.31Zm.82,18.55a13.15,13.15,0,0,1,8,.28C581.47,56,565.84,52.63,572.12,51.86Zm-.82-33.67c-2.16,0,6.06-6.92,6.68-.72C578.77,25.35,568.9,18.19,571.3,18.19Zm4.14,3.35c3.56,0-4.22,2.16-4.22,1.4A7.91,7.91,0,0,1,575.44,21.54Zm-2.22,36.4c2.06-.86-2.86,1.23,0,0Zm4.39-3.23a4.68,4.68,0,0,1,3.62.23,19.17,19.17,0,0,1-8.41,1.7C572.72,54.47,574.31,53.83,577.61,54.71Zm-2.93,6.56c4.24,1.6-3.41-1.32,0,0Zm.59,1.94c.68,0,11.76-.62,9,1.36-1.88,1.36-8,2.92-9.77,1.47A2.23,2.23,0,0,1,575.27,63.21Zm3.33,3.67a7.21,7.21,0,0,1,7.26-.17c0,4.23-11.44,1.6-10.29.85Zm2.85,3a7,7,0,0,1,6.11.09c2.39,4.16-9.85,5.63-11,3.68Q575.24,68.82,581.45,69.91Zm1.21-11.19c-1.81-1.95.1,3.44.1,2,0,2.44-3.41-.86-3.65-.86A3.48,3.48,0,0,1,582.66,58.72Zm-.84-30.78c.49-.09,7.45-1.1,5.52,1.37C584.36,33.09,580.71,28.07,581.82,27.94Zm3.56-7.88,2.77.49c0,1-7.07,1.7-6.43.95Zm0-5.86c5-.27,4.59,4.54.11,4.92C580.8,19.53,580.13,14.48,585.38,14.2Zm.08,37.32c.71.14,6.53-2.08,6.53.23,0,.78-7.35,1.66-8.18.79C583.34,51.29,583.89,50.94,585.46,51.52Zm.61,2.37a9.5,9.5,0,0,1,7.09.31C593.84,55.41,579.54,55.65,586.07,53.89Zm4.17,3.3c1.47.08,2.94.18,4.38.27,1.09,1.16-8,1.87-8,1.07A5.32,5.32,0,0,1,590.24,57.19Zm1.07,3.51c2.47-1.46,4.24-1.07,5.33,1.19,0,3.22-8.78,2.37-8.5.88C589.2,62.1,590.26,61.4,591.31,60.7Zm4.61-30.81c.11,0,11.49-6.7,11.49-3.52,0-1.79-1.4,5.08-.49,3.3-1.53,3-17.53,1.54-17.85,2.91C589.71,29.93,594.21,29.69,595.92,29.89Zm-2.23,34.75c2.61-1.2,4.32-.72,5.1,1.42-1,1-9.1,2.18-9.1.24A3.55,3.55,0,0,1,593.69,64.64Zm-.37-37.95c2-1.25,3.59-1.12,4.84.46,0,2.12-6.34,2.74-7.38,1.66C590.57,27.17,591.41,26.46,593.32,26.69ZM593.38,68c-.16,0,8.84-1.16,6.8,2.4C597.05,75.85,587.72,68.18,593.38,68Zm.29-49c1.94,0,1.82.51-.32,1.53C591.41,20.57,591.51,20,593.67,19Zm2.85-5.61H600c3.68,1.68-6.65,5.17-8.14,4.93C591.61,14.71,593.09,13.62,596.52,13.41Zm2.41,36.68c1,.29,2.06.56,3.1.84a6.25,6.25,0,0,1-6.18,0C596.88,50.65,597.91,50.38,598.93,50.09ZM597.4,19.57c3.74-1-.14,1.49-.31,1.56C595.31,21,595.4,20.51,597.4,19.57Zm2.7,33a4.36,4.36,0,0,1,3.44.82c0,1.23-6.9,1.23-6.9,0A4.47,4.47,0,0,1,600.1,52.54ZM602,55.65l2.88.59c.42,1.22-6.61,1.41-6.36.49C599.63,56.39,600.79,56,602,55.65Zm-.09,3.81c1,.22,4.92.06,5.15.6C610.35,66.89,595.28,58,601.86,59.46Zm2.08,3.62a4.38,4.38,0,0,1,4.83.73c.49,1.58-5.25,2-6.27,1.65C601.54,64.29,602,63.5,603.94,63.08Zm.32-44.89c1.6-1.14,2.88-1,3.79.48C607.19,23.35,600.18,18.19,604.26,18.19Zm.83-5.74c8,0,1.51,6.2-1.57,3.79A2.86,2.86,0,0,1,605.09,12.45ZM604.78,67a6.7,6.7,0,0,1,6.36.64C614.1,71.55,599.23,69.2,604.78,67Zm1.7-17.73c-.71,0,7.09-1.2,7.09.62C613.57,53.39,604.24,49.43,606.48,49.24Zm4.82,2.51c1,.27,2,.54,3,.79,0,1.84-6.68.27-6.52,0C609,52.29,610.14,52,611.3,51.75Zm1.58,2.57c1,.23,2,.43,3,.62,0,1.27-6.27,1.76-7.17,1.18C609.09,54.16,610.48,53.58,612.88,54.32Zm.08,3.74c-.57.06,8.25-2,5.82,2.23-1.18,2.05-10-.16-8.59-1.62C611.11,58.45,612,58.25,613,58.06Zm-2.05-33.22a3.49,3.49,0,0,1,2.55.9,32.15,32.15,0,0,0-3,1.74c.22-.79,4.91.69,3.17,1.88a5.63,5.63,0,0,1-3.67-.07A8.91,8.91,0,0,1,610.91,24.84Zm3-7.36c6-.78-3.33,4.18-2.47,1.4C612.28,18.43,613.09,18,613.92,17.48Zm-.86-5.5a4,4,0,0,1,4.35-.18c-.63,2.87-2.28,4.25-4.92,4.18A6.49,6.49,0,0,1,613.06,12Zm1.87,50.34c1.86-1.22,3.23-1.07,4.09.38C617.1,65.21,609.74,62.5,614.93,62.32Zm1.88,3.14a3.41,3.41,0,0,1,4.44,1c0,.83-5.9,1.61-6.61.9C614.15,65.86,614.86,65.23,616.81,65.46Zm.84-16.57c1.36-.49,8.47-1.79,8.83.4C627.06,52.13,614.22,50.13,617.65,48.89Zm1.47-24.37c-3.57.62,7.21.62,4.23-.54,5.35,2.09-7,8.45-6.54,3C617.59,26.14,618.35,25.35,619.12,24.52Zm-.59,44.41ZM619,51.31c4.37,2.92-2.14-1.4,0,0Zm4.51-34.81c1.71-.84,3-.61,4,.71,0,2.21-8.23.59-8.25.63A7.64,7.64,0,0,1,623.47,16.5Zm-2.36,52c2.24-.23,2.68.19,1.31,1.15C620.9,70.3,618.37,68,621.11,68.51Zm.1-57.82c5-5.74,12.53,5-.35,5A4.4,4.4,0,0,1,621.21,10.69Zm4.17,45.93a5.86,5.86,0,0,1,3.59.11c0,5.23-7.56,1.6-7.51,1.39A5.77,5.77,0,0,1,625.38,56.62Zm-2.18-5.16c.56.81,4,.73,4.18,1.71a3.43,3.43,0,0,1-2.51,2.63C623.87,55.63,623.27,51.58,623.2,51.46Zm2.38,13.07a5.16,5.16,0,0,1,5.68.56C631.26,67.31,621.21,66.28,625.58,64.53Zm1.85-4.19q2.55.84,0,1.82C625.69,61.61,625.69,61,627.43,60.34Zm1.74,7.7a3.6,3.6,0,0,1,4,0C631.09,70,625.11,68.24,629.17,68Zm3.45-44c1.79-.77,3.15-.45,4,1,0,1.22-8.84,4.76-8.31,1C629,24.17,630.45,23.52,632.62,24.08Zm2.81,23.18c3.05-.36,7.15,5.71,5.25,6.42-.69.25-4.86-.6-6.4-1.37,1.45-1,2.8-2.23,4.31-3-1.87.45-10-.19-9.56-.46A22.22,22.22,0,0,1,635.43,47.26ZM633,20.9c-.4-.15-3.83-1.71,0,0Zm2.41-4.69c2-.85,3.4-.49,4.12,1.16-.43,2.05-7.52,1-8.66.1A3.81,3.81,0,0,1,635.43,16.21ZM633,52Zm5.55,2.78a3.44,3.44,0,0,1,4.08.73c1.18,3.48-9.63,3.82-10,2.05C633.5,55,635.44,54,638.53,54.78ZM632.5,13c1.1-3,5.08-6,9.37-3.86C647.15,11.8,630.09,19.53,632.5,13ZM641,62.7c-3.45.58,10.75-.63,5.69,2.53-.52.36-10.78.65-10.78-1A12.15,12.15,0,0,1,641,62.7Zm3.46-38.8c2.92-.81,4.31,0,4.11,2.54-.32.52-7.07.13-8.13-.24C637.31,25.2,646.32,23.9,644.44,23.9Zm-.8,34.38Zm-.19-11.46c-.89,0,11.15-1,7.43,3C646.1,54.94,641.17,46.82,643.45,46.82Zm1.51-25c1.39,1.5-3,1.34-2.89.27A3.41,3.41,0,0,1,645,21.79Zm1.79-6.07c.27,0,5,2.16,5.41,2.87C654.33,22.25,634.89,15.72,646.75,15.72Zm-.65,51Zm.14-57.11c.06-1.53,8.85-1.65,9.9-.49,1.35,1.41-5.16,8.51-11.08,5.07A9.87,9.87,0,0,1,646.24,9.6ZM648.06,52c1.53.23,6.16-1.61,6.25,2.55C654.55,63,639.2,50.63,648.06,52Zm.55-31.1c3.08.64,3.12,1.09.07,1.37C645.52,21.66,645.51,21.21,648.61,20.9Zm3.69,35.87a6.14,6.14,0,0,1,3.62-.13c0,1.44-8,1.44-7.35,1.14C649.8,57.43,651.06,57.12,652.3,56.77Zm-1,4c1.9,0,10,2.35,6.3,2.54a7.41,7.41,0,0,0,2.77,2.21c.6,1.89-8.42.59-8.59.35A29,29,0,0,1,655,64.27C653.88,64,645.17,60.74,651.31,60.74Zm.34-45Zm6,9,2.91.82c0,1.29-6.38.76-6.91.63C653.35,24.34,654.68,23.87,657.64,24.74ZM657,45.19a6.44,6.44,0,0,1,5.85,3.53C657.78,53.77,650.75,45.19,657,45.19Zm1.23-23.62a3.4,3.4,0,0,1,3.86,1.28c0,1.44-7.71,1.52-7.71-.58A5,5,0,0,1,658.22,21.57Zm2.9,29.61c.3.22,4-.7,4,1.3,0,4.12-9.33.87-8.87-.78A5.28,5.28,0,0,1,661.12,51.18Zm-3-33c-3.41.13,5.25-7.51,5.31-7.59a4.66,4.66,0,0,1-2.72-1.49c1.62-1.8,6.39-.72,6.68,2,.41,4.26-2.54.53-3.59,2.49.11-.19-.34,5.68-.3,5.63C661.66,20.47,652.45,18.35,658.07,18.13Zm6.5,39.52A4.11,4.11,0,0,1,669.86,59c0,3.1-7.75,4.72-8.47-.07C662.44,58.52,663.49,58.07,664.57,57.65Zm2.77,4c2.64-.8,5.07-.77,6.25,2.44.25.69-13,1.58-10.08-.9C664.78,62.67,666.06,62.16,667.34,61.67Zm-.8-36.95c-3.71.14,4.78-4.3,4.78-1.41C671.32,28.3,662.35,24.9,666.54,24.72Zm1.86,21.14c.83-.06,6.77,3.2,6.77,4.17,0,4.77-6.54,0-7.13,0-.11,0,3.38-2.27,3.65-2.45-.68.05-8.43.12-6-1.34Zm.13-27.14c.14,0,7-.88,7-1C677.73,22.09,664,20.58,668.53,18.72Zm4.32-7.21c4.8-.29-3-.83-1.3-1.69-.45.21,13.38-1.58,10.17,1.57-1.07,1.06-9.6,5.47-9.74,6C671.34,19.45,667.21,11.9,672.85,11.51Zm1,41.3c1.27-.1,2.56-.21,3.84-.33.54.58-6.71,2.54-7.24,2.54C669.89,53.32,671.05,52.59,673.88,52.81Zm1.82,1.88c-1.09.41,7-2.09,4.65,1.38-1.85,2.72-6.67,2.93-8.18.06A22.15,22.15,0,0,1,675.7,54.69Zm.23-30.44c0-2.2,4.72-1.29,4.1.92C679.58,26.82,675.93,26.46,675.93,24.25Zm2.82,33.64c2.7-1.19,4.89-.12,6.51,2.38-2,.87-9.33,4.78-9.33.4Zm-.1-12.7c2.56.61,27.77,12.14,26.42,13.26-1.81,1.43-15.94,2.73-14.87,1a18.77,18.77,0,0,0,3.25-1.66c.34.39-7.18-1.95-8.43-2.69.64-.36,4.88-2.58,4.7-2.92.44.93-13.79-2.11-13.79-6.9Zm3.84,17.1c2.34-1.61,4-1.48,4.92.41-.92,1-9.15,1.67-9.15,1.24A9,9,0,0,1,682.49,62.29Zm-2.56-43.11a16.61,16.61,0,0,1,6.29-1.26,11.61,11.61,0,0,1-4-1.23c-2.47-3.94,13.94-10.59,16.47-4.79.69,1.63-12.42,2.45-12.38,2.44.33-.1,7.38.65,7.38,1.38C693.65,20.63,676.65,22.67,679.93,19.18Zm6.86,5.54c9.29-2.66,11.4-11.1,22.28-5.15-2.71-1.36-5.15-3.59-8.1-4.82,2.19-.86,20.41-1.19,20.41,1.79s-7.45.83-8.43.83c2.51,0-7.66,6.56-10.13,6.84-3.47.38-15.79,6.67-19.12,2.11C684.74,25.81,685.77,25.25,686.79,24.72Zm4.37,17.21c5.6-1.79,31.27-.26,34.43,4.89,3.72,6.22-16.76,8.39-20.06,6.62-.38-.18-18-7.91-18-9.89A9.15,9.15,0,0,1,691.16,41.93Zm12.58-14.76c6.6-1.9,32.32-15.9,32.32.84-3.58-.05-37.18-.09-38.33,1.13A48,48,0,0,1,703.74,27.17Zm-1.82,7.42c11.32,1.1,23.37-3.57,34.86-3.31-4.3,9.3-4.92,12.82-14.78,10.86-4.86-.94-11-1.47-15.72-3.24C705.4,38.58,697.62,34.18,701.92,34.59Z"/><path class="cls-1" d="M78,310.54c3.68,4.34-.35,14.91,3.63,19.15s5.81,10.61,10.48,15.11c13.56,13.36,34.08,20.75,52,23.12,20.19,2.68,47.23,2.29,66.76-5.06,18.49-6.78,38.72-15.67,58-19.27,38.59-7.2,76.46-30.22,113.68-43.08,14.46-5,28.5-11.21,43-15.91,17.53-5.68,32.39-17.62,49.78-23.47,14.31-4.81,20.05-9.7,34.89-6.37,20.27,4.55,40.35,9.91,60.11,16.46,34.81,11.59,68.21,29,103.07,39.83,33.28,10.3,72.38,17.09,104-1.83,18.58-11.14,32.6-23.31,41.73-43.8,2.18-4.95,42-9.44,49.84-13.2,14.48-6.95,28.56-28.09,21.11-45.18-8-18.6-18.8-26.3-33.88-38.2-28.11-22.23-71.5-23.42-104.16-34-77.18-25.32-164.61-5.73-242.94,3.26-38.9,4.5-77.79,7.35-116.66,11.34-15.37,1.57-34.53,7.47-50.07,5.9-17-1.89-29,20.84-44.77,20.84-3.94,0-11,7.18-15.55,8.55a85.35,85.35,0,0,1-11.78,2.9c-19.74,2.6-41,8-59.07,17-20.61,10.32-42.4,18-62.94,29.52-12.93,7.27-25.48,13.76-37.45,22.88-7.85,6-16.81,13-22,21.81C85.85,284.21,73.37,304.9,78,310.54Zm9-3.4c4.63-1,36.41-13.14,38.93-10.58-3.9-4-36.16,23.53-43.07,19.11C77.88,312.09,84.29,307.24,87,307.14Zm-1.19-8.76c14.69-3,29.49-7,44.49-7.49-3.5,1.25-44.66,17.58-47.38,12.93A5.18,5.18,0,0,1,85.85,298.38Zm.69,20.34c4.47-6.54,23.07-10.09,29.58-13.17,2.73-1.3,21.17-8.48,17.76-3.84-5.65,7.63-21.52,6.68-27,14.38C103.81,320.47,78.23,330.57,86.54,318.72Zm-.46-27.57c-2.39-1.55,22.1-4.84,21.56-4.8.68,0,23.55-2.42,23.71,0,.06.88-31.75,5.72-33.3,6.08C88.07,294.69,89,293,86.08,291.15Zm3.14,37.21c6.17,0,47.18-28.58,50.44-25.11,1.24,1.31-23.44,17.95-25.28,19-5.34,3-10.65,7.41-15.66,11C88.64,340.52,93.57,328.36,89.22,328.36ZM93.09,280c4.41-5.11,39.74-4.56,39.93,1,.13,1.93-41.66,1.11-42.18,2.25C91.61,282.14,92.34,281.07,93.09,280Zm9.3,54.48c4.35-3.23,41-23.9,40.62-28.82.45,5.41-14.58,16-17.66,18.77-1.27,1.11-28.48,29.41-28.48,14.68A33.88,33.88,0,0,1,102.39,334.48Zm-3.57-62.56c1.88-1.4,3.82-2.71,5.8-3.94a34,34,0,0,1-2.68,4.74c3.68,0,6.7-3.2,11.45-2.76,1,.1,20.49,3.41,19.68,4.9C131.11,278.44,98.18,271.92,98.82,271.92Zm10.36-9c1.68-.71,4.12-4.17,6.38-2.72a31.45,31.45,0,0,1-2.84,4.37c2.07,0,26-3.95,26.44,3.2.45,7.6-32.29-2.68-32.29-3.12C107.64,264,108.4,263.48,109.18,262.9Zm14.18,67.54c1.68-1.37,23.63-22.32,24.57-19.65.51,1.44-17.27,19.15-18.35,20.46-5.12,6.29-11.85,19.62-20.54,14.57C108.72,345.64,121.94,331.59,123.36,330.44Zm-2.77-76.25q2.67-2.64,4.75-.29c0,3.15-8.3,3.94-7.5,2.45C118.77,255.62,119.68,254.93,120.59,254.19Zm.92,93.58c-.75-7.68,30.47-38.45,32.85-34C155.54,316,123.12,363.66,121.51,347.77Zm3.26-91.6c3.29-1.91,21.36,1.25,21.36,4.69,0,8.11-23.86-1.09-23.86-2.69C123.1,257.49,124,256.82,124.77,256.17Zm3.34,39.13c2-.52,2.15-.13.38,1.14C126.47,297,126.32,296.59,128.11,295.3Zm2.29-47.07,4.09-1.73c1.3-.17-6.82,7.32-6.82,4.2C128.59,249.88,129.5,249,130.4,248.23Zm3,2.4c1,0,10.9-2.68,10.7.78-.32,5.44-10.21,2.36-11.78,1.34C131.57,251.53,131.92,250.82,133.44,250.63Zm6.41,89.65c6.3-7.26,11.92-27.6,21.08-22.08-2.6-1.53-13.14,19.26-14.45,22.41C140.26,355.51,127.19,355.09,139.85,340.28Zm.81-98.54,3.11-.21c.62.4-3.83,3.56-6,2.65A3,3,0,0,1,140.66,241.74Zm-1.07,47.34c2.32-3.27,1.91-8.29,4.47-11.87,4.68-6.63,11.66-11.45,18.16-15.77,15.48-10.25,32.29-19,48.71-27.43,19.49-10,42.34-20.74,63.64-25.23,6.57-1.39,6.65,5.62,10.48,9.93,6.95,7.8,15.29,11.94,24.71,15.22,16.74,5.82,34.85,6.17,52.24,7.77,29.45,2.69,59.32-.17,88.69,3.28-5.56,4.44-21.06,10.51-27.61,12s-18.26,7.32-26.68,10.75c-25,10.19-50.47,17.69-76.39,25.07-30.37,8.64-61.55,18.13-93,22.28-18.72,2.48-36.27,1-54.78,1C165.92,316.09,130.81,301.61,139.59,289.08Zm6-37.95c-.21-.21,4.37,0,4.69,1.48a14.9,14.9,0,0,1-1.8,2.87c.32.14,6.17-4,6.07-1.75-.33,6.83-12.05,1.34-12.1,1.48A19.88,19.88,0,0,0,145.6,251.13Zm-1.16-6.65c-1-1,6.9-1,4.82.43C145.86,247.12,145.76,245.91,144.44,244.48ZM146.92,347c1.7-3.63,13-29.34,16.49-29.24,6.1.18-16.93,37-18.59,35A11,11,0,0,1,146.92,347Zm3.53-101.6c.91,0,1.83.06,2.74.07,1.62,2.21-7.59,4.15-5.48,1.5C148.62,246.43,149.53,245.87,150.45,245.36Zm8,94.48c5-9.2,17.6-33.82,10.47-7.82-2.56,9.22-5.27,25.3-17.38,20.93C153.81,348.54,156.13,344.18,158.45,339.84Zm-5.3-92.33c1-.69,6.71,2.07,6.87.75a6.59,6.59,0,0,1-3.81,4.25C155.39,252.13,151.19,248.81,153.15,247.51Zm2.08-8.33s-.29-4.24,1.17-1a2.28,2.28,0,0,1-2.27,2.56C152.92,239.86,153.29,239.35,155.23,239.18Zm3.22,1.42c1.7-1.6,3.36-1.85,5-.71,1.58,2.71-9,4.3-7.83,2.49C156.53,241.8,157.48,241.22,158.45,240.6Zm3.71,2c1.7-.88,6.13-1.8,7.47.72.82,1.54-6.55,3.47-6.55,3.45a31.77,31.77,0,0,1,3.62-3.89c-.37,1.31-8.27,2.62-7.27,1.37C160.33,243.72,161.25,243.16,162.16,242.62Zm-.46,114.64c.14.07-3.23-1.33,0,0Zm1.54-124.64c-.29,0,4.46-3.18,4.46-1,0,1.35-6.17,3.49-7.32,3.47A3.88,3.88,0,0,1,163.24,232.62Zm3.25,117c-1.43-2.47,5.2-15.39,6.12-19a71.07,71.07,0,0,1,3.08-9.77c.61-.82,7.48-.71,5.87,1.39-5.61,7.53,0,35.13-15.8,30.23A5.1,5.1,0,0,1,166.49,349.62Zm1.67-114.12a5.16,5.16,0,0,1,5.7-.67c0,3.07-8.77,2.88-8.3,2.2C166.43,236.51,167.31,236,168.16,235.5Zm4.16,1.61,3.42-.92s-6.5,5.94-6.5,3.16C170.25,238.59,171.29,237.85,172.32,237.11Zm-.17-9.48c1.88-1.57,3.22-1.61,4-.08a16.27,16.27,0,0,1-5.51,2.62C169.51,229.15,170,228.27,172.15,227.63Zm5.71,9.9c3.42,0-7.3,4.81-5.72,2.87A23.06,23.06,0,0,1,177.86,237.53Zm1.39-7.9c-1.48.45-3,.84-4.52,1.21.45-2,8.41-2.5,8.36-.76-.1,2.93-8.18,2.54-7.93,2.25C175.16,232.31,179.14,229.66,179.25,229.63Zm1.15,133a6,6,0,0,1,3.45.24c0,1-6.91,1.23-6.91.58A6.4,6.4,0,0,1,180.4,362.62Zm-1.05-18c1.44-3.08,3.25-22.94,6.07-23.54,8.15-1.67-4,38.22-7.37,31.38A23,23,0,0,1,179.35,344.58Zm2.13-112.36,3.23-1.19a9.34,9.34,0,0,1-4.92,3.18C178.78,233.29,179.35,232.63,181.48,232.22Zm1.26-10a5,5,0,0,1,3.44-1c0,2.35-7.46,4-6.71,3.17C180.54,223.63,181.64,222.93,182.74,222.22Zm-1.18-2.12c1.84.1,1.58.55-.77,1.31C179,221.28,179.22,220.85,181.56,220.1Zm3,13c-.16-.17,5.09-1.34,3.91.05a14.06,14.06,0,0,1-6.75,2.95A3,3,0,0,1,184.56,233.06Zm2.94-8.58c3.74-1.55,2.38,1.59,4.57,1.59a17.83,17.83,0,0,1-5.89,1.81c0-1.1,3.39-2.15,4.25-2.63-1.1.4-5.46,2.29-5.93,2C184.06,225.43,185.09,224.51,187.5,224.48Zm.65,120c3.06-6.71-.84-23.5,8.1-23.58-.48,8.09-1.09,16.16-1.93,24.24C193.38,354.12,184,353.78,188.15,344.5Zm3.2-128.75c1-.26,2.11-.48,3.16-.74.13.15-5.36,2.87-6.25,2.87C187.88,216.33,188.91,215.59,191.35,215.75Zm1,13.17c1.46-1.54,2.73-1.69,3.88-.47a7.69,7.69,0,0,1-5.48,2.86Q189.15,229.48,192.32,228.92Zm-1-1.55Zm4.39-11c4.92-2.29-1.53,2.31-2.87,2.31C192.72,217.21,193.66,216.45,195.66,216.4Zm.68,4.17c2-1.63,4-2,6-1.2,0,2.74-8.54,2.88-8.38,2.64Q195.15,221.31,196.34,220.57Zm1.55,118c5.31-48.78,13.22,17.2-1.29,11.76C196,350.16,198.05,337.17,197.89,338.61Zm3-113.94c.53-.09,5.36-3.47,5.36-.65,0,1-6.19,2.73-6.81,2.78C198.06,225.73,198.56,225,200.84,224.67Zm-.57-13.26a5.48,5.48,0,0,1,5.16-1.13,11,11,0,0,1-6,2.7C198.05,212.47,198.33,212,200.27,211.41Zm2.53,2Zm4.94,2.8c.24,0,4.63-2.74,4.63-1a7.51,7.51,0,0,1-5.49,2.61Q204.35,216.7,207.74,216.25Zm.89,111.56c2.29-19.4,5.75,2.76,5.92,10.59.15,6.42,1.33,6.93-2.92,9.61C203.36,350.4,208.05,332.58,208.63,327.81Zm2.05-108.12c.78,1,.52,1.72-.78,2.29C209.15,221,209.38,220.26,210.68,219.69Zm1.91,1.46c1.46-1.71,2.92-2.05,4.39-1,0,1.4-6.93,3.13-6.78,2.94Zm2.55-11.82,2.94-1.18c1.62-.25-6,3.2-5.63,2.79C213.32,210.4,214.23,209.87,215.14,209.33Zm2.76,2.46c1.57-1.35,2.73-1.35,3.54,0a9.72,9.72,0,0,1-6,2Zm-.06,108c5.4-5.59,14.56,25.41,1.18,26.14C216.75,346,215.51,322.25,217.84,319.77Zm3.6-102.7ZM228.3,204c2.52-.05-4.72,5.09-6.4,3.33C221.41,206.8,227.53,204,228.3,204Zm-.85,4.09c2.12-2,3.77-2,4.92.06,0,.57-8.7,2.32-8.23,1.87Zm.39,110.38c7.48-1,7.73,25.12,4,25.77C224.15,345.56,227.65,318.5,227.84,318.47Zm8.31-116.7c-.75,1.63-2.11,2.18-4,1.65A3.07,3.07,0,0,1,236.15,201.77Zm2.21,114.58c1-.27,2-.54,3.06-.79,3.11,3.3,4.6,24.32.37,26.14C234.25,345,233,318.2,238.36,316.35Zm4.42-117.89,3.14-.05c1.67,3-5.74,1.94-5.76,1.7ZM247.24,314c6.24-1,15,24.95,2.07,26.53-.54-2.49-5.26-25.86-6.32-25.31C244.4,314.87,245.82,314.46,247.24,314Zm4.63-118.27c1.67,1,1.14,1.57-1.63,1.65C248.57,196.39,249.09,195.84,251.87,195.77Zm4.92,2.53c2.55-.19-1.87,3.18-3.31,1.66A3.43,3.43,0,0,1,256.79,198.3ZM256.71,312c3.49,0,9.41,19.2,7.8,23.25C261.74,342.14,248.89,312,256.71,312Zm1.79-118.93c2.3-.41,3.05-.16,2.24.77C261,194,253.92,194.38,258.5,193.08ZM261,204.79q2.56,1.23-.94,1.65C258.32,205.61,258.63,205.08,261,204.79Zm1.68-8.48c5.93-1.69-.39,2.32-.78,2.15C260.45,197.48,260.7,196.72,262.65,196.31Zm2.82,114.43c2.95,1.73,7.94,21.18,5.74,22.39C265.14,336.48,262.52,308.94,265.47,310.74Zm1.72-111.62c1.07-.09-.64,3.2-2.68,1.89A2.24,2.24,0,0,1,267.19,199.12Zm.16,3.24a2.81,2.81,0,0,1,3.54.11C270.89,205.79,263.74,202.36,267.35,202.36Zm.84-11.49q2.32.82,0,1.65Q265.87,191.7,268.19,190.87Zm7.1,118.35c1.8,2.66,10.65,18.43,3.84,20.8-5.93,2.05-7.23-11.08-8.85-16C270.28,314,270.78,302.52,275.29,309.22Zm.21-113.3c1.95.4,1.67,1-.75,1.69C272.71,197.24,273,196.69,275.5,195.92Zm0,4.23a10.05,10.05,0,0,0,2.31-2.73c2.28,0-1,4.94-3,4.94C273.52,201.48,273.76,200.75,275.5,200.15Zm1.77-10.43a29.87,29.87,0,0,1,6.52-1.78c.54.66-3.49,6.9-4.19,7.76C278.39,194.92,274.45,190.55,277.27,189.72Zm2.48,117.08c.37-.17,6.66.11,5.41,2.35-.51.94-3,1.59-3.87,2.11.7-.06,5-1.28,5,.33a7.94,7.94,0,0,1-1.55,2.11c0-3.55,6.48,10.8-1.11,5.16C282.16,317.76,278.39,307.35,279.75,306.8Zm7.63,12.41c2-.23,5.55,4.7,4.06,6.43C287.68,330,280.71,320,287.38,319.21Zm3.36-118c1.09.09,16.06,1.19,15.62,2-2.36,4.42-12.95,4.91-17.07,7.29C289.85,210.19,279.89,200.24,290.74,201.17Zm-3.68-8.65c5.39,0,8.74-13.43,16.8,1.41,3.45,6.33-14.5,3.38-17.57,3.49C286.22,196.69,286.18,192.52,287.06,192.52Zm3.4,111.15c2.26-.62,5.37,1.32,3,3.78C290.41,310.68,284.57,305.35,290.46,303.67Zm2.45,5c.3-.1,5.45-1.23,3.64,1.87-.1.19-7.08.19-6.84-.21C290.79,309.81,291.84,309.25,292.91,308.71ZM291.52,213c5.33,0,12.92-6.32,17.35-6.13,10.2.52-8.78,15.78-7.68,15.71C298,222.79,286.31,213,291.52,213Zm.31,98.94c1.45-.08,14.59,5.87,9.55,9.4-11.67,8.12-5.64-6.88-4.53-5.71C299,317.94,283.55,312.25,291.83,311.92ZM299,181.62c2.75-1.43,10,6.06,8.38,7.79-.75.77-11.1-4.55-11.1-5.81C297.18,182.94,298.11,182.29,299,181.62Zm5.61,120.29c4.21,2.8-4.8,4.81-7.92.68C298.6,302,303.14,301,304.62,301.91Zm-.85,4.49c1-.35,6.27,2.53,5.31,4.14a17.6,17.6,0,0,1-5.12,2.78c3.75-3.62,11.87,2.87,9.63,5.2-4.32,4.53-10.76-3.31-12.51-9,1,0,3.41.35,4-.63a36.94,36.94,0,0,1-4.59-.77C301.6,307.57,302.7,307,303.77,306.4Zm2.17-85.22c1.23-2.53,16.54-13.58,16.54-5.69S302,229.36,305.94,221.18Zm.81-43.45c5.86-2.36-.19,5.27-1.22,4.57C304.27,180.36,304.68,178.86,306.75,177.73Zm1.18,17.34c1.2-3.6,15.87,8.68,20.95,10.07a106.92,106.92,0,0,0,19.64,3.57c15.88,1.22,31.5,2.46,47.32,2.08,22.77-.57,45.57-.53,68.35-.44,11.44,0,22.84.12,34.28.34,5.06.11,33.74,4.24,34.49,3.63-13.17,11.24-34.28,8.48-49.37,7.53-16.6-1.07-33.2-1.95-49.81-2.41C420.85,219.08,299.43,221,307.93,195.07Zm2.54,104.2q3.06-1.45,4.68,1.18C315.15,305.39,304.35,300.89,310.47,299.27Zm1.08,5.16a14.14,14.14,0,0,1,5.12-.63C319.94,307.61,307,303.39,311.55,304.43Zm1.1-128.16c2.68-5.83,16.51,2.32,16.55,2.25-1.87,2.17-15.37,4.4-17.87,3.28A7.87,7.87,0,0,1,312.65,176.27Zm4.44,129.93c-.2,0,4.62,6.47,4.62,6.8,0,7.29-9.18-2.56-9.86-5.48C313.59,307.11,315.38,306.69,317.09,306.2Zm.17-121.87c2.46-.47,11.61-3.36,13.76-1.07,1.25,1.3-18.56,13-18.56,2.79A10.17,10.17,0,0,1,317.26,184.33Zm5.05,36.19c1.65-1.44,9.24-7.57,11.6-2.65,2.95,6.14-14.25,12.64-19.28,9.51C317.21,225.12,319.78,222.87,322.31,220.52Zm-3.21,95.09,3.15-.82c.91,1-6.87,3.61-5.74,2.33C317.37,316.63,318.23,316.13,319.1,315.61Zm.32-146.74c3.9-2.32,16.58,3.32,10.63,6.17-.85.4-12.28-6.29-12.82-4.19C318,170.17,318.69,169.53,319.42,168.87ZM319.94,297c1.24-.27,4.07,2,4.07,2.72C324,303,313.31,298.43,319.94,297Zm3.92,4.36c4.26-.1-1.59,2.89-3.14,1.9C320.94,301.66,322,301,323.86,301.38Zm.3,2.53c1.75-1.5,2.72-1.41,2.94.24a4.66,4.66,0,0,1-4.62,2.51Q320.73,304.4,324.16,303.91ZM324,191.69c2.12,0,13.89-9.64,15.21-3.12C341.58,200,317.29,191.69,324,191.69Zm1.16,115.42c.76,0,5.79.66,5.79,1.54,0,1.21-5.39,3.44-6.32,2.81A3.08,3.08,0,0,1,325.17,307.11Zm2.16,5.08a5.89,5.89,0,0,1,5.43-1.24C333.67,312.43,321,315.53,327.33,312.19Zm6.05-88.12c5.17-5.52,6.46-8.59,14.5-5-3.35,3.85-6.7,7.87-10.3,11.48-2.06,2-12.67,1.23-11.79-.57C326.54,228.47,332.2,225.36,333.38,224.07ZM330,294.39c7.68-1.7-4.58,2.87-3.34,1.43C327.82,295.35,328.9,294.86,330,294.39Zm-.83-131.57c1.69-.82,9.82,1.25,9.76,4-.08,4.75-12.55-2-12.5-2.08Zm1.47,134.08c1.7-.46,3.86.7,5.14,1.93C332.73,300,325.66,298.3,330.66,296.9Zm3.06,3.73c5-1.91,2,.57,3.16,2.66-.79-1.39-5.92,1.77-5.92-1Zm4.85-106.48c.68,0,9.26-7.85,10-4.42,1.48,7.41-10.45,12.07-15.34,8.86C332.33,198,337.61,194.15,338.57,194.15Zm-2.46,110.64c1.8-1.2,3.19-1,4.06.58,0,1.85-8.35,2.64-6.69.73ZM334.64,178.7c1.45.64,7.74,4,7.83,5.79C342.7,188.66,330.9,177.1,334.64,178.7ZM340,307.14c4.47-.14-6.49,4.95-4.88,2A13.45,13.45,0,0,1,340,307.14Zm-1.66-16.83c4-.7-1.15,2.6.72,3.22s5-2.65,5,1.3c0,0-5.23,2.79-4.88,2.86C336.66,297.21,336.54,290.6,338.34,290.31ZM338.1,159.5c2.11-.63,14.42-.12,14.42,4.37C352.52,169,331.82,161.35,338.1,159.5Zm1.9,15.86c3.65,0,9.68,5.35,12.8,7.58C346.52,184.82,337.13,175.36,340,175.36Zm7.94,48.24c3-3.75,5.81-5.18,10.67-3.09C351.72,232.91,332.36,242.78,347.94,223.6ZM341,298.1s6.14-3.6,6.14-.41C347.14,304.35,338.17,298.1,341,298.1Zm.34-8.2Zm4.45,11.5c9-4.16-.07,3.92-.61,4.91.12-.23,7.62-2.83,7.21-1.72-1,3-10,3.3-8.71,1a10.09,10.09,0,0,0,2.83-2.06c-1.47,1.31-2.81,1.45-4,.37A6.61,6.61,0,0,1,345.79,301.4Zm5.63-109.78c1.48-1.27,5.82-1.35,7.94-1.24-2.62,4.94-5.68,14.89-12.41,10.63C345.74,200.24,350.57,192.39,351.42,191.62Zm-1.84-18.34c2.44-.43,11.42,4.56,11.42,7.87,0,4.92-15.69-5.16-14.45-6.67C347.57,174.07,348.58,173.69,349.58,173.28Zm-.46,117.12c1.59-.6,2.46,0,2.6,1.72S345.18,292,349.12,290.4Zm2.78,3.33c2-.53,3.09.21,3.23,2.25a5.63,5.63,0,0,1-4.76.6C349.88,295.16,350.42,294.23,351.9,293.73Zm2.64-136.45c2.38-.78,12.25,4.09,10.11,6.23-2.65,2.77-14.45-1.71-14.45-4.91A15.23,15.23,0,0,1,354.54,157.28Zm.23,140.48c5.28.44.36,1.95-.82,1.89C352.1,298.74,352.37,298.1,354.77,297.76Zm.65-67.29c1.26-1.53,6.33-6.59,6.33-9.39,0,.1,8.85-2.14,6.87,1.85-1.42,2.68-1.67,5-3.46,7.88-1.34,2.19-14.22,8.76-12.46,3.4Zm1.18,69.27c-3.11.07,2.85,4.61,2.85,2.28C359.45,306.36,350.63,299.89,356.6,299.74Zm1.07-11.44c7-.09-6.17,3.12-2.81.69C355.8,288.77,356.73,288.51,357.67,288.3Zm1.43-91.36c-.73,1,11.84-12.47,11.5-7.45-.4,6-8.75,17.4-15,13.21C354.51,202,359.05,197,359.1,196.94Zm.43,94.13c1,.18,2.08.33,3.11.52C366.6,295.52,350.06,293.3,359.53,291.07ZM366,175.2l4.28,3.23c-6.22,3.31-9.28-1.33-13.48-6C360.41,171.71,363,172.94,366,175.2Zm-2.64,121.9c1.56-.74,1.8-1.59.71-2.57a2.71,2.71,0,0,1,2.49,1.84,11.35,11.35,0,0,1-4.7,2.75C360.25,298.19,360.75,297.54,363.38,297.1ZM363,284.19c1.17.86.85,1.42-.94,1.63C360.87,285,361.19,284.41,363,284.19Zm1.84,14.32c1.74-1.68,3.27-1.84,4.61-.43-.72,1.78-6.93,2.71-6.87,2.54Zm-.24-12.72,3.28-.49a7.15,7.15,0,0,1-4.77,2.9C361.93,287.2,362.43,286.37,364.59,285.79Zm5.63-129.29c.3.18,6.28,6.79,5.88,7.11-4.5,3.62-10.22-3.06-12.12-6.69C365.7,156.25,368.68,155.62,370.22,156.5Zm-2.5,43c1.92-2.92,11.11-16.27,14.81-10.93,4.32,6.2-17.7,19.81-17.7,15.64Q366.17,201.76,367.72,199.46Zm.27,88.91c.92-.2,1.83-.38,2.77-.6,1.39,1.46-2.85,2.18-2.85,2.86a4.65,4.65,0,0,0,3,.25C371.43,291.55,360.7,291.07,368,288.37Zm-.27-55.66c5.66-7.86,3.52-11.53,13.13-10.81,5.57.35-15.26,23.15-15.26,14.15A20.35,20.35,0,0,1,367.72,232.71ZM369.6,172c2.77-.19,9.64,5,8.48,5.05C375.47,177.27,364.89,172.3,369.6,172Zm2.7,108.31,3.17-.58c.84.91-7.23,3.61-5.84,2.05C370.52,281.24,371.43,280.77,372.3,280.26ZM371.39,294c2.35,2.12,1.78-1.68,3.37-2.3.17-.06,3.05,3.15,3.11,2.69C376.69,301.4,368.83,291.73,371.39,294Zm1.14-4.92ZM377.15,155c2.55-.11,7.67,4.58,8.76,7.12.79,1.85-11.83-1.47-11.83-6.48Zm.24,129.78c1,.08,2.06.12,3.08.18a5,5,0,0,1-4.93,2.05C374.46,285.48,375.08,284.76,377.39,284.77Zm4.77-89c3.68-3.17,2.85-11.37,10.51-8.28-.46-.2-3.13,22.34-16.2,17.14C378,201.76,379.74,197.86,382.16,195.77Zm-1,90.85c3.64,0-2.2,2.73-3.39,2.37C378.17,287.4,379.3,286.6,381.17,286.62Zm-.41-57c-.15.24,12.56-14.9,12.56-7,0,6.22-16.17,17.08-16.17,13.84C378.27,234.07,379.45,231.8,380.76,229.6Zm2.16,46.92a5,5,0,0,1,3.48-.6,19.87,19.87,0,0,1-4.33,2.27c-.6.8,6.39-.26,5.45,1-1.6,2.14-8,3.1-8-1.18A18.43,18.43,0,0,1,382.92,276.52Zm6.24-105.12a30.12,30.12,0,0,1,8.73.61c-1.31-.83-18.41,8.48-18.41-.4C382.7,171.4,385.92,171.35,389.16,171.4Zm-5.93,118.21,3.19.38c1.37,2.39-5.52,2.71-5.49,2.73C380.11,290.89,380.85,289.85,383.23,289.61Zm.35-106.91c1.15,1.46.49,2.07-1.93,1.84C380.55,183.06,381.19,182.46,383.58,182.7Zm5.66,98.23c.1,0,4.15,2.14,3.88,2.43s-6.27,3.87-7.18,2.32a22.73,22.73,0,0,1,4.31-3.2,40.09,40.09,0,0,0-5.68,1.08A4.86,4.86,0,0,1,389.24,280.93ZM385.7,154.34c2.79-.51,11.48,4.64,11.48,8.22C397.18,168,379.83,155.35,385.7,154.34Zm5.12,26.81C432.3,168,473.6,165.06,516.41,159.77c19.44-2.39,39.1-6.94,58.58-8.3,6.25-.42,49.69.92,49.33,13-.29,10.18-29.68,18.72-36.82,21.15-17.74,6-43-1.3-61.44-2.51-9.81-.62-140.44-2.46-140.44.35A14.23,14.23,0,0,1,390.82,181.15Zm.45,50.4c-.21.28,10.57-15.87,12-8.66,1.5,8-8.14,15.45-14.67,13.56Q387.8,233.35,391.27,231.55Zm1.14,54.63c1.81-1.33,3.15-1.2,4,.44,0,2.71-7.91,2.26-7.41,1.46C390.14,287.43,391.27,286.81,392.41,286.18Zm-.47-86.94c1.58-2.73,6.15-20.64,13.55-13,2.17,2.32-8.07,15.95-3.92,17.48,1.73.62,6.63-11.35,7.12-13.53,1.32-5.87,12.38-9,8.2.83-3.33,7.76-3.65,13.14-12.29,14C398.12,205.66,386.29,209.21,391.94,199.24ZM393,274.86c5.24-2.11,1.23,3.57-.06,3C391.45,276.87,391.47,275.84,393,274.86Zm3.58-122.37c1.77.06,15.84,6.44,11.81,9.9-5.45,4.7-15.82-9.95-16.39-9.33Zm.31,125.59c2.53-.48,3.4.47,2.68,2.83a3,3,0,0,1-3.17.06c.77-.59,1.53-1.18,2.32-1.75a4.26,4.26,0,0,0-3.35.82C394.3,279.05,394.82,278.43,396.89,278.08Zm8.14-7.75c3.06-.12-3.26,4.17-5.94,2.53A8.74,8.74,0,0,1,405,270.33ZM400.1,283.1a4.12,4.12,0,0,1,4.79-.17C404.89,286.06,397.71,284.53,400.1,283.1Zm4-54.09c0-4.5,6.64-8.33,10.25-6.14.73.47-7.88,21.4-14.34,14.11C398.84,235.58,404.11,230.62,404.11,229Zm-2.74,50.28Zm5.32-5.13a4,4,0,0,1-1.71,2.57c.8,1.07,5.39-3.75,6.31-1.23,1.09,3-8.19,1.12-8.8,1C403.21,275.77,405.86,273.63,406.69,274.16ZM411.31,152c4.85,0,7,6.46,10.53,10-4.39,1.52-17.86-6.6-15.1-9.41A11.78,11.78,0,0,1,411.31,152Zm-.65,126.89a4.74,4.74,0,0,1,5-.63c0,3-8.67,2.88-7.54,1.65C409,279.59,409.81,279.24,410.66,278.92Zm1.69-12.6c1.23-.06,2.44-.09,3.68-.16.3.41-6.53,6.09-6.53,2.23ZM411,236.7c2.61,0,6.24-21.21,13.73-13.52,1.74,1.74-5.27,8.6-5.27,10.51C419.5,240.51,409.94,236.7,411,236.7Zm.86-65.14c1.68-.48,1.5.05-.57,1.62C409.76,173.56,409.93,173,411.9,171.56Zm5.74,25c4.8-12.24,16.41-17.34,10.45.1-1.85,5.42-13.32,9-13.21,7.79A50.19,50.19,0,0,1,417.64,196.53Zm10.63-43c1.16,1.15,7.45,6,7.25,7.83-1,8.18-16.68-7.38-18.33-9.38C420.82,150.82,425.46,150.73,428.27,153.54Zm-9,121.44a4,4,0,0,1,4.84-.2C424.12,278.26,416.81,276.48,419.28,275Zm.69-12.42a2.63,2.63,0,0,1,3.38.1C423.29,266.06,416,264.16,420,262.56Zm4.43-31.1c-.62,1.06,11.27-15.76,11.27-8.08,0,5.33-14.62,19-14.62,14.43A58.34,58.34,0,0,1,424.4,231.46Zm5.69,37.2c3.32-.1-3.71,3.47-3.55,2.38A8.16,8.16,0,0,1,430.09,268.66Zm.65-10.51c5.14-.62-3.13,3.1-2.56,1.35C429,259.07,429.9,258.6,430.74,258.15Zm2.56-65.89c.91-6.4,6.22-9.61,12-6.55-.27-.16-6.89,27.2-16.21,17.52C428.27,202.25,433.79,191.16,433.3,192.26Zm-.19,41.79c2-3.47,6.6-14.24,11.7-10.46,6.67,5-13.78,20-13.78,14.72A18.7,18.7,0,0,1,433.11,234.05Zm1.61-84.26c3.95-.28,13.28,6.54,13.28,10.92s-17-4.86-17-10A6.38,6.38,0,0,1,434.72,149.79ZM434.14,260c1.66-1.08-2.85,1.82,0,0Zm2.75,4.53c.94-.1,1.83-.19,2.74-.26C441.67,265.73,430,267.36,436.89,264.55Zm1.64-10.65c.66,1.44,0,2.27-1.85,2.45C436,254.9,436.65,254.09,438.53,253.9Zm.24,13.09Zm3.94-11a3.26,3.26,0,0,1-4.08,2.27A3.33,3.33,0,0,1,442.71,256Zm1-21.36c4.25-6.57,5.51-13.61,14.41-10.91-2.08,3.65-4.06,7.36-5.87,11.15-1.14,2.32-11.52,7.38-10.75,3.62C442.21,237.24,443,236,443.69,234.67Zm.17-37.34c3.47-5.94,2.61-14.27,11-12.17-1.51,4.51-5.56,21.69-13,17.65A5.72,5.72,0,0,1,443.86,197.33ZM445,260.39c1-.08,2.1-.17,3.15-.21.62.89-5.54,5.33-5.54,1.9Zm-.63-111.52c4.83-1.38,14.39,4,14.39,10.08C458.76,165.63,436.92,151,444.37,148.87Zm2.32,101.76c1.11,1.08.56,1.61-1.61,1.61C444,251.16,444.53,250.63,446.69,250.63Zm1,1.72c1.54-1.09,2.67-.88,3.39.65a5,5,0,0,1-4.48,1.95C445.23,253.83,445.58,253,447.7,252.35Zm8.23,3.88c1.16,1.51-1.17,5.31-4.67,2.32C451.53,256.05,453.1,255.27,455.93,256.23Zm-3.12-58.56c1.4-3.31,10.53-22,16.39-12.51C475.65,195.46,448.53,207.91,452.81,197.67Zm1.5,50c1-.6,4.95,3.39,3.36,3.7C456.64,251.53,451.5,249.53,454.31,247.64Zm-.14-10.11c-2.32,0,13.08-19.45,13.08-13.34,0,3.58-3.83,9.37-5.39,12.51C458.85,242.68,453.55,237.53,454.17,237.53Zm.75-33.15Zm3-56.89c1.83,0,14.24,5.75,11.48,9.67-4.5,6.35-15.25-5.73-15.25-8.8A4.72,4.72,0,0,1,457.94,147.49Zm3.77,105.09c4.89-.25-.08,3.39-1.48,2.47C459.29,253.55,459.79,252.73,461.71,252.58Zm0-6.46c3.6.69.33,2.07-.89,1.73C459.34,246.65,459.64,246,461.67,246.12Zm3.51,1.25c.89-.33,7.94.06,7.9,1.39C472.93,254.5,460.28,249.39,465.18,247.37Zm2.39-15.57c.48-.92,4.24-10.22,7.29-6.92,5.78,6-11.47,20.32-11.47,15.31A83,83,0,0,1,467.57,231.8Zm-1,23.74c1.84.74,1.73,1.43-.34,2.1C464.41,256.91,464.52,256.23,466.57,255.54Zm3.67-62.85c1.55-2,1.71-5.44,1.25-7.94,16.47-3.84,4.51,19.58-6.63,16.76A68.21,68.21,0,0,1,470.24,192.69Zm-.87-46c4.63,0,12.52,2.16,12.52,9.34C481.89,165.79,459.79,146.68,469.37,146.68Zm4.82,104a4.6,4.6,0,0,1,4.35,1.43c-1.07,2.21-7.07,3.29-8.26.62A3.62,3.62,0,0,1,474.19,250.7ZM474,238.83c1.44-1.57,3.35-16.25,7.15-13.63C488,229.93,469.58,243.49,474,238.83ZM479.51,196c2-3.22,4-12,8.45-11.35,1,.17,11.8.46,11.44,1.5-.57,1.74-22.9,19.43-22.9,14.84A54.58,54.58,0,0,1,479.51,196Zm2.95-51.23c2.79-.46,10.92,9.72,10.12,10.47-6.39,6.32-14-9.5-13.55-9.82A31.83,31.83,0,0,1,482.46,144.77Zm-2.18,94.87c1.51-1,5.55-20.37,10.34-14.08,1.17,1.52-3.65,13.09-4.3,14.72C484.13,245.79,478.71,240.6,480.28,239.64ZM483,249q2.36.81,0,1.64Q480.74,249.81,483,249Zm6.48-8.57c5.47-3.47,0-20.12,11.78-13.8,1.74.95-4.54,15.8-6,17.17C493.21,245.7,486.21,242.58,489.51,240.42Zm4.26-46.6a96.7,96.7,0,0,1,10.26-8.5c4.52-.67-5.5,13.29-5.56,13.41C496,203.48,485.6,204.55,493.77,193.82Zm.94-50.85c5.68-.74,13.9,11.77,10.12,12.05C498.21,155.47,483.53,144.35,494.71,143Zm5.74,96.92c2.29-3.52,2.6-8.09,4.64-11.75,2.52-4.54,5.71,2.42,3.89,6.19-1.48,3.06-2.63,9-5.15,11.18C498.47,250.15,498.53,242.8,500.45,239.89Zm1.91-41.48c4.56-5.47,5.64-14.48,14.34-12-2.27,3.72-2.84,7.62-4.74,11.54C509.66,202.6,499.67,201.58,502.36,198.41Zm5.55-57.06c3.8-.48,15.26,7.94,12.62,10.7-4.26,4.46-18.28-2.5-16.43-8.83C505.36,142.6,506.64,142,507.91,141.35Zm4.79,91c2.8-11.1,4.56,2.75,3.37,7.86-2.21,7.27-1.05,10.79-9.35,7.19C506.81,247.46,512.36,233.64,512.7,232.38ZM516.44,196c2.38-4.19,6.28-18,14.48-8.9C536.87,193.59,507.61,211.41,516.44,196Zm2.88,42.31c1.71-6.89.65-9.51,7.31-8.3,3.34.61.4,13.68-.1,16.78s-1,4.81-4.06,4.21C514,249.34,517.1,247.17,519.32,238.34Zm-.55-98.68c1.45-.15,10.39-2.69,11-1.19.15.36,1.84,12.34,4,11.16C522.28,156,520.65,139.48,518.77,139.66Zm6.61,83.05c4,3,11,1.19,15,4.21-2.43-1.8-15.71-1-20-1.6A5.26,5.26,0,0,1,525.38,222.71ZM530,195.43c-1.37,2.27,4.34-9.09,3-8.47,4.52-2.08,23.6-.89,19.4,6.95-2.33,4.29-8.31,18.65-15.55,10.64-3.21-3.16,8.37-11.54,6.41-14.88.43.74-16.85,17.11-16.75,12A50.1,50.1,0,0,1,530,195.43Zm0,45c.4-3.45.82-6.94,1.24-10.4C549.57,231,526,272.77,530,240.48Zm3-21c2.15,1.82,14.91,3,15.07,5C548.59,230.29,528.05,215.19,533,219.44Zm2-82a51.92,51.92,0,0,1,7.4-1.14c-.45-.39,3.24,11.64,3.09,11.79-6.29,6.15-15.16-9-14.14-10A25.54,25.54,0,0,1,535,137.42Zm3.53,78c1.64.68,1.46,1.23-.47,1.64Q535.63,216,538.53,215.43Zm1.41,24.87c2.94-25.49,18.5,23.18-1.84,14.26C538.83,249.83,539.41,245.07,539.94,240.3Zm6.4-23c2.81,2.16,16.14.34,17,3.08,1.55,5-21.47-2.06-22.17-2.31A4.67,4.67,0,0,1,546.34,217.28Zm2.38-81.68c3.47-.49,15.83,4.11,9.93,10.77C552.51,153.1,538.68,137,548.72,135.6Zm3,78.94c2.19,1.29-4.1-.22-2.71-.53Zm-1.64,29.54c2.3-14.69,7.92-8.08,6.31,4.73C554.42,264.59,548.32,255.33,550.09,244.08Zm3.08-44.62c.47-.83,3.58-10.09,4.75-10.76,2.54-1.54,10.27,1,6.2,5.29.51-.54-14.48,20.41-14.48,12C550.75,203.8,551.91,201.6,553.17,199.46Zm5.1,15.47c.62.06,12.84,1.85,12.88,2.33.34,4-17.06-2.58-17.51-2.42C555.17,214.88,556.72,214.93,558.27,214.93Zm.46,14.58c28.89-14,53.58-4.33,83.28,2.11,5.11,1.11,90.15,17.37,90.15,21,0,9.26-33.53,17-39.12,17.64-15.67,1.89-35.53-3.6-50-9.79-8.34-3.55-88-23.44-88-28.72A12.17,12.17,0,0,1,558.73,229.51Zm-.17,25c.44-3.54-.15-14.31,2.26-16.8,3.3-3.55,7.21,2.9,7,5.87-.11,2.29.17,17.4-2.68,18C559.21,262.72,558,258.76,558.56,254.5ZM562,204c0-4.61,9.17-19.43,15.26-13.46.83.81-6,12.33-6.37,13.05-3.22,5.53-3.17,5.77-11,3.75A24,24,0,0,0,562,204ZM564,133.92c7.54-1,6.47,11.14,4.72,11.21C561.2,145.44,554.89,134.28,564,133.92Zm6,119.55c.4-4.27.81-8.56,1.35-12.82C591,240,567.42,283,570,253.47Zm4.47-50.69c2.4-4.23,9-17.58,15.81-10.75,6.84,7.93-19.1,23.43-19.1,16.91C572.22,206.81,573.31,204.79,574.49,202.78Zm1.91-70.46c5.49-.66,11.49,9.05,8.67,10.26C573.91,147.3,567.12,132.21,576.4,132.32Zm4.41,123.62c1.27-15.89,8.79-12.78,7.4,1.09C586.83,270.7,579.84,268.75,580.81,255.94Zm6.5-49.53c3.6-3,6-21.25,14.64-12.59,2.51,2.65-8.51,21.49-16.27,17A5.8,5.8,0,0,1,587.31,206.41ZM591.42,130l4.43-.44c2.25,5.3,2.84,11.54-3.54,12.59C586.7,143.08,582.49,130.93,591.42,130Zm-.89,131.32s1.72-14,2.65-14c9,0,5.58,19.32,3.2,23.59C592.49,277.49,590.34,262.56,590.53,261.34Zm6.33-73.52c6.52,2.41-4.28.57-4.16.62C593.37,186.8,594.77,186.59,596.86,187.82Zm3.15,17c3.75,0,2.4-11.29,9.25-10.07,5.7,1-.67,8.53-1.94,11.51C600.56,222,595.05,204.79,600,204.79Zm3-20.57c2,2.1,16,2.14,16,4.28,0,1.5-18.32-1.25-19.44-3.64A3,3,0,0,1,603,184.22ZM601.8,129c8.32-.07,16.7-.85,25-1.34-.11,3.29-1,10.84-4.4,12-13.42,4.76-2.28-8.74-8.15-10.07-2.51-.58-2.63,7.82-2.88,9.54-.45,3-10.89,2.32-10.89.51,0,1.28,1-12.42-1.39-10.21C600,129.36,600.89,129.2,601.8,129Zm-.59,130.59c1.37-14.65,8.07-6.06,7.43,3.85C607.41,282.19,600,273,601.21,259.63Zm2.5-69.73c2.08,2.15-3-3.22,0,0Zm6,17.72c0-8.34,17.17-16.41,12-4.58-3.3,7.62-6.57,16.28-15.9,11.59C606.93,213.06,609.71,209.19,609.71,207.62Zm1-28.21c-1.46,0,2.51,2.51,1.93,1.13.85,2-5.1,1.24-5.13,1.17A8.41,8.41,0,0,1,610.68,179.41ZM610.35,274c.92-5.75-1.07-19.83,6.46-17.45,4.44,1.4,3.06,20.44.38,23.26C614.83,282.32,610,276.21,610.35,274Zm2.84-95.63c3-1.22-4,1.57,0,0ZM622.28,147c2.18-.2,16-2.92,17-1.35-.22-.35-20.84,7.42-25.89,3.26C613,148.66,622.73,147,622.28,147Zm-1.23,33.23c4.46-.09-7.37,5-6.43,2.95A15,15,0,0,1,621.05,180.27Zm-4.4-.44Zm7.65,25.09c2.68-5.7,12.74-9.2,9-.77-1.45,3.22-9,21.15-15,12.49C617.55,215.65,624.16,205.24,624.3,204.92Zm-3.41,72.26c1.12-6.1-2-18.43,4.92-18.34,5.57.09,3.16,22.3,1,24.68C623.68,287.2,620.47,279.35,620.89,277.18Zm0-102.38c-.7.27,2.71-4.11,1.88-.79S618.1,175.82,620.89,174.8Zm3.84,8c1.37-.33,2.71-.64,4.09-.95,1.81,1.06-8.25,5-6.58,2.72Q623.49,183.66,624.73,182.79Zm3.46-8.27c2-1.2,3.4-1,4.16.67-.68,1.18-7.4,3.87-6.39,1.33Zm.94-6.76a7,7,0,0,0,4.75-1.45c-1,0-5,4.52-7.59,2.87C626.71,167.9,627.65,167.41,629.13,167.76ZM629,132.27c1.26-4.15,11.31-7.36,10.3-2.35C637.63,138.16,625.08,144.93,629,132.27Zm1.92,82.83c4.38-6.91,7.47-19.26,17.72-13.93.89.45-7.25,19.18-9.67,18.52C639.13,219.74,624.79,224.7,630.89,215.1Zm-1.14-49.59Zm7.31-15a29.33,29.33,0,0,1,5.65-1c.73.66-10.87,3.95-12.62,3.37A10.41,10.41,0,0,1,637.06,150.54ZM631.48,268c.55-4.35,3-9.53,7.49-4.82,1.63,1.66-1,17.43-.88,19.63.29,6.15-1.75,4.94-6.54,3.29C627.47,284.68,631,271.69,631.48,268Zm.95-74.15c10.38-2.71,22.37-10.22,31-17,5.29-4.14,13.41-10.82,16-17.51.66-1.72-1-14.31-2.36-14.31,14.42,0,38.4,18.55,48.84,27.46,6.77,5.76,12.59,11.77,17.29,19.84,2.28,3.93,9.54,23.67,1,22.32-21.23-3.36-41.8-7.15-62.75-11.88-9.42-2.12-19.34-3.34-28.91-4.53C649.3,197.88,627.57,195.13,632.43,193.83ZM631.26,161c1.91-1.21-3.51,2.31,0,0ZM635,176.15c0,1.44-.78,2.22-2.37,2.37Q632.55,176.34,635,176.15Zm-.92-14.64c.11.18,6.46-1.76,5.71,1.14C639.12,165,633.71,160.8,634.06,161.51Zm2.55,15.21c1.34-1.55,2.63-1.82,3.91-.73a15,15,0,0,1-5.85,3.42C634.17,178.07,634.82,177.16,636.61,176.72Zm-.94-6.88a4.93,4.93,0,0,1,4.11-2.16,5.74,5.74,0,0,1-4.56,4.37Q633.33,170.91,635.67,169.84Zm2.69-13.09Zm1.85,21.09c1.22-.52,2.43-1,3.62-1.5,1.2.43-7,4.3-6.23,3.37Zm0-41.64c.35-.49,11.14-15,11.14-8.75C651.31,137.28,637.66,140.05,640.17,136.2Zm1.11,20.07q3.09.15,0,1C639.24,157.2,639.24,156.86,641.28,156.27Zm.2,115.42a23.25,23.25,0,0,1,1.43-7.14c10.27,0,1.87,27,3.57,27C637.47,291.54,640.85,277.14,641.48,271.69Zm.59-110.28c2,.06,2,.59,0,1.65C640,163,640,162.44,642.07,161.41Zm.06-16.35Zm6,65.86c8.4-15.06,21.59-7.84,9.79,7-7.21,9-1.26,7.42-12.85,6.09C638.86,223.28,647,213,648.11,210.92Zm-3.73-61.27c3.2-2,30.71-8,29.92-.36.1-.87-7.52.71-7.54.71a6.61,6.61,0,0,1,1.09-3.93c-.19-.18-5.92,2.65-6.23,3.19a8.84,8.84,0,0,0,1,.53c-.72,1.29-8.9,2.42-9.58,1.48-.35-.48,3.52-2.61,4.08-3-1.44.32-14.59,5.41-14.89,3.4C642.91,151,643.64,150.34,644.38,149.65Zm4.23,19.12c5.11,0-3.65,5.4-5.16,4.41C641.73,172.07,647.93,168.77,648.61,168.77Zm-3.56-6c-.13.07,5.48-.63,5.48-.66-.45.46-.91.92-1.35,1.39,1.65-.57,3.27-1.24,4.89-1.91,1.9,2.25-11.26,3.82-11.26,3.23C643.57,164.18,644.31,163.48,645.05,162.8Zm3.33-7.37c4.54-1.3.43,2.71-.7,2.71C646.15,157.12,646.4,156.22,648.38,155.43Zm1.93,15.81c.66-.43,7.28-1.28,7-.5a15.39,15.39,0,0,1-4.94,2.89c1.7-.31-5-1.11-5-.26A12.81,12.81,0,0,1,650.31,171.24Zm.22,102.49c-.11-7.62,6.93-8,6.93-1.14,0,7.74.58,15.49,1,23.22C646.18,295.41,650.68,282.9,650.53,273.73Zm3.38-144.4c.72-3.5,6.84-3.15,8.4-1.11,3.53,4.65-8.69,11.2-12.64,10.28C651.33,135.76,653.28,132.53,653.91,129.33Zm3.51,33.18c2.5-.69,6,1,8.88.47-1.35,1.14-3.95,4.65-5.79,4.43a5.29,5.29,0,0,1,1.28-3.23,10.84,10.84,0,0,1-3.53,2.45,4,4,0,0,0,1-2.67c-2.26.32-5.23,1.75-7.57,2.35A16.48,16.48,0,0,1,657.42,162.51Zm1.74-7.31c.05,0,5.34-1.48,4.77-.44-1.87,3.38-6.64,3.53-9.78,3.15C655.23,156.82,657.77,154.84,659.16,155.2ZM659,224.26c0-4.92,6.17-15.48,9.13-19,5.47-6.44,10.61,1.13,7.66,7.11C674.2,215.56,659,242.8,659,224.26Zm4.16,46.26c5.28.16,11.54,30.47,3.19,28.7-9.68-2.07-5.74-20.69-5.89-28.79Q661.83,270.46,663.16,270.52ZM662.92,135c-5.58-2.6,14.86-11.89,12.9-6.32-2.63,7.7-8.16,11.32-15.6,10C660.58,138.23,663.14,135,662.92,135Zm1.39,21.22a19.79,19.79,0,0,1,8.54-2.94c.74,0,1.79,6.39.64,6.93-.49.21-12.19-2.16-12.19-1A9.63,9.63,0,0,1,664.31,156.17Zm4.09,6.89c2,0-3.15,4.9-4.23,4.9A9.42,9.42,0,0,1,668.4,163.06ZM673,224.53c-2.86,1.28,19.1-29.71,19.1-15.32,0,9.34-12.29,28.71-22.26,22.24C668.65,230.66,672,225,673,224.53Zm-.27,47.39c3.54,1.51,10.72,27.4,7.42,30.93C674.85,308.68,663.75,271.92,672.75,271.92Zm3.18-137.64c3.14-4.6,5-8.25,11.84-5.08,6.12,2.85-14.13,16.93-14.13,8.88A25.73,25.73,0,0,1,675.93,134.28Zm5,139.06c9.39,1.16,5.42,5.06,7.74,14.92.52,2.33,4.95,16.71,4,17.77C683,316.29,677,272.83,681,273.34Zm3.9-43.62c3.16-5,5.49-10.45,8.49-15.53,1.51-2.54,11.24-6.85,10-1.4-1.48,6.42-4.4,12.79-7.11,18.7-1.71,3.76-13.35,7.53-13.35,1.95A19.23,19.23,0,0,1,684.86,229.72Zm4.86-95.9c1.57-1.64,1.65-2.91.22-3.76.76.19,10.66-.86,10.66,0C700.6,137.12,685.18,144.62,689.72,133.82Zm1.09,140.87c7.88-8.78,16,34.38,16.15,34.29C695.31,316.66,686,279.61,690.81,274.69Zm6.89-129.36c4.27.49,11.86,3.7,15.77,2.74-1,.25-7.59,1.52-8.28.75,1.23,1,2.44,2.05,3.61,3.1-.4-1.62-15.15-4.31-15.15-6.56A8.8,8.8,0,0,1,697.7,145.33Zm2.82,83.59c1.48-3.25,4.83-16.33,9-15.75,6.1.85,7.09.37,5,7.38a83.28,83.28,0,0,1-6,15c-1.83,3.57-11.82,5.78-11.82,2.08C697.87,234.67,699.15,231.78,700.52,228.92Zm1.36-94.44c1.15-1.27,5.23-7.29,7.6-3.2,2.47,4.51-7.41,10.37-11.14,8.64A6,6,0,0,1,701.88,134.48ZM700.6,273.77c4.42,1.21,7.11-.76,10.22,4,4.49,6.89,15.17,23.48,15.17,31.9,0,2.53-18.47.72-18.47-10.38C707.52,295.38,698.63,273.29,700.6,273.77Zm10-136.5c.38-.37,10.78-11.18,10.78-4.54,0,2.56-11.22,11.62-12.26,7.18C709.63,139.05,710.11,138.16,710.6,137.27Zm3.57,93c.05-.15,4.66-14.54,6.11-15.11,2.72-1.07,11.34.08,10.64,4.47-1.15,7.09-4.69,13.38-6.59,20.22-1.26,4.52-13.73,1-13.73.44C711.67,236.88,712.88,233.54,714.17,230.24Zm4.35,39.95c4.12,4.38-9,4.28-6.39,1.38A9.93,9.93,0,0,1,718.52,270.19ZM714.41,151.6c1.67,0,6.83,4.13,7.64,5.74C723,159.18,711.3,151.6,714.41,151.6Zm1,123.5c6.25-.57,7.65,1.43,12.2,5,2,1.61,15.37,15.8,13.8,15.62,2.43.24,5.74,1.57,6.61,4.44.06.18-4.48,1.69-3.57,1.83a20.83,20.83,0,0,1,6.45.12c.61.37-15.86,11-19.63,7.79C726.59,305.94,716.74,275,715.37,275.1Zm4.16-126.79c.79,0,6.63,2.51,6.31,2.87-1.35,1.33-5.85-3.2-7.2-1.68-.69.76,8.91,4.22,6.76,5.68C723.47,156.42,713.52,148.31,719.53,148.31Zm3.27-11.45c2.36,0,5.88-4.31,10.13-3.11-4.39,5.07-8.47,10.63-15.56,7.87C718.45,140.25,721.4,136.86,722.8,136.86Zm2.12,129.75c1-.38,2-.75,3-1.16,1.7-.08-3.83,4.82-4.9,4.82C721.57,268.63,722.22,267.4,724.92,266.61Zm-.06-106.84c1.09,0,5.71,3,5.73,4.28C730.63,167.9,722.85,159.77,724.86,159.77Zm6,109.1a6.68,6.68,0,0,1-5,3A6.92,6.92,0,0,1,730.88,268.87Zm1.78,1.45c7.79-.36-10.29,9.47-6.27,2.88A18.72,18.72,0,0,1,732.66,270.32Zm-2-38.77c1.22-3,5.06-23.39,12.79-13.37,1.39,1.24-3.89,18.59-4.33,21-1.44,7.71-7,6.18-13,3.82C727.63,239.2,729.14,235.38,730.64,231.55Zm-1.27-81.11q1.9,2-.75,1.1Q726.76,149.55,729.37,150.44Zm-.13,6.92c1.93,0,4.75,4.83,5.37,4.81C732.93,162.22,727,157.28,729.24,157.36Zm5.88-21.94c1.66-1.43,11,.39,12.27,1.77,4.59,4.95-17.91,6.32-18.39,6.13C730.79,140.66,732.73,137.48,735.12,135.42Zm-2.19,139.63c-1.49.88,4.33-2.88,1.68-3.13a7,7,0,0,1,5.11,2.9,28.79,28.79,0,0,1-5,4.23c1.07,1.08,9.63-5.68,9.72-2.07a15,15,0,0,0-1.77,1.94c2.11,1.79,9.14.8,10.77,3.87a13.47,13.47,0,0,1-2,2.14c.28.59,7.62-.66,7.62,2.78,0,12.51-29.26-2.93-29.26-10.44A12.56,12.56,0,0,1,732.93,275.05Zm.29-13.26c1.59-1.89,2.75-1.94,3.56-.2a5.66,5.66,0,0,1-4.92,3.19C731.07,263.39,731.54,262.4,733.22,261.79Zm.1-95.48c2,0,7.7,5.16,8.52,6.95C743.21,176.39,728.06,166.31,733.32,166.31Zm.59-13.08c1.28,0,6.24,5.44,5.33,6.05C737.52,160.39,731.29,153.23,733.91,153.23Zm5.56,110.51c3.26-.08-6.32,3.22-4.4,3.24C734.71,267,738.37,263.74,739.47,263.74Zm-.35-110.87,1.51,2.44C740.63,157.14,733.2,147.22,739.12,152.87ZM737.45,164c1.06.42,8,7.24,7.5,7.83C743.37,173.49,736.3,163.51,737.45,164Zm.86,103Zm1.79-10.3c1.53-2.1,3-2.32,4.37-.75,0,1.45-6.16,4.86-6.16,3C738.92,258.22,739.49,257.47,740.1,256.69Zm.3,9.65c.82.21,4.83-2.95,4.83-.08A6.61,6.61,0,0,0,741.9,269c.46,1.31,7.79-3.12,6.73-.81C744.47,277.42,741.14,266.52,740.4,266.34Zm2-25.95c2.94-2.49,2.43-14.71,3.72-18.6,1.8-5.45,14-1.06,13.12.82-7.3,15.46,3.23,27-18.72,23.69C740.66,244.64,741.26,241.34,742.36,240.39Zm1.28-87.56c.78.53,1.58,1.07,2.37,1.62C746,156.18,736.32,151.07,743.64,152.83Zm-.4,23.32c2.09,0,6.06,5.28,6.54,6.9C750.53,185.52,739,176.15,743.24,176.15Zm-.35-14.74Zm4.9,145.28c-.42.14,5.94-2.6,5.94-1.32,0,4-9.67,2.91-10,3.48C745.12,308.14,746.45,307.4,747.79,306.69ZM746,256.91c0-2.75,4.42-.56,4.08.19a15.08,15.08,0,0,1-5.59,4.08A9.27,9.27,0,0,1,746,256.91Zm4.64-118.33c0-2.18,6.15,1.69,6.15,1.47,0,6.35-8.92,7.62-12.63,5.57C745.69,144.35,750.65,140.66,750.65,138.58Zm-4.23,25.82q2.37,1.84,0,1.11C744.81,164.28,744.81,163.9,746.42,164.4Zm3.3,106.1c.81-.54,7.87-1.06,7.82,1.58,0,1.87-7.51,5.63-7.43,4.44.61-.94,1.25-1.83,1.92-2.69a7.62,7.62,0,0,1-5,1.22C745.65,272.8,746.54,271.27,749.72,270.5Zm-2.39-96.81c1.17,0,7.15,7.62,6.7,8.09C753.13,182.74,745.92,173.69,747.33,173.69Zm.23-13.09Zm.77,100.69c-1.68,0,9.95-7.76,8.29-4a29,29,0,0,1-8,6.19C747.31,263,747.19,262.19,748.33,261.29Zm4,31.16c4.72-2.19,8-4,13.12-2.05-2.15,1.35-17.17,12.45-17.17,4.49A11.68,11.68,0,0,1,752.38,292.45Zm-2.89-125.27c3.75,3.3-2.9-2.58,0,0Zm1.93,6.7c2.16,2.1,2.16,2.71,0,1.86Q748.17,172.64,751.42,173.88Zm1,12.09c1.39,0,5.16,4.68,5.16,6.13C757.57,195.11,747.51,186,752.41,186Zm1.47,75.45c3.41-3.09,6-4.6,10.23-2.95-2.34,3.15-9.18,12-8.9,5,0-.25-3.79,2-3.79.67C752.22,263.2,753.05,262.31,753.88,261.42Zm6.21,33.77a20.33,20.33,0,0,1,7-3c1.53.27-14.94,12.85-13.8,7.26A21.39,21.39,0,0,1,760.09,295.19Zm-4.66-17.7c.66-.07,9.85-5.91,9.85-2C765.28,284.62,749,278.11,755.43,277.49ZM754.48,177Zm1.23-12.76c1.47,1,1.21,1.3-.78.81C753.51,164,753.77,163.71,755.71,164.2Zm.94-8.12c1.9-.18,2.63.46,2.19,1.89C757.77,159.75,751.36,154.67,756.65,156.08Zm-.41-10.39c1.91-2,7.86-9.41,11.14-3.11,1.63,3.16-12.9,8.43-12.9,5.43C755.08,147.22,755.68,146.46,756.24,145.69ZM756,195.77c.7,0,4.32,4.47,2,5.46C754.73,202.58,754.83,195.77,756,195.77Zm.7-18.45c3,3-2.46-2.23,0,0Zm3-3.39a9.79,9.79,0,0,1,3,4.5c-.63.65-7.4-7.4-6.85-8A13.19,13.19,0,0,1,759.65,173.93Zm-2.82,39.86c3.71,0,11.24-1.82,16.91.57,4.32,1.85,15.52-.71,18.57,2.3-1.79-1.76-17.16,5-18.93,2.05C774,219.63,753,213.79,756.83,213.79Zm1.5,87.59c1.81-1,13.1-6.72,13.1-6.65C771.43,299.37,754.73,303.46,758.33,301.38Zm-.93-95.77c.46,0,7.69.62,5.76,2.22C760.79,209.75,756.14,205.61,757.4,205.61Zm2.69-19c-.66-.68,4,3.4,4.09,3.24-1.68,3.18-7.38-3.44-7.38-5.45C758.23,184.29,759.31,185,760.09,186.61Zm2.72,75.23c4.67-4.39,9.58-.55,14.86,1.39-.78.81-10.89,9.65-11.14,7.84-.36-2.49,4.9-1.49,4.9-3.62,0-2.39-7.37,2.07-7.44,2.42a45.56,45.56,0,0,1,4.57-6.46c-.7,1.48-11.33,6-10.61,3.4A26.61,26.61,0,0,1,762.81,261.84Zm-4.75-15.54c6-7-2.86-25.82,9.37-24.82,12.25,1.23.57,18.54.19,23.66C766.7,257.44,761.62,242.38,758.06,246.3Zm2.13-51.07A5.29,5.29,0,0,1,763,201C760.84,203.18,755.62,193.38,760.19,195.23Zm-.46-27.35c1,.6,8.73,7.67,7.3,9.16C765.21,179,755.74,165.58,759.73,167.88Zm2.33,135.26c1-.51,11.19-7.38,11.6-7.14,2.92,1.86-4.92,5.09-4.65,5.2,3,1.16,5.09-2.63,8-1.13-2.07-1.06-17.65,8.4-17.85,5.14C760.11,304.51,761.07,303.84,762.06,303.14Zm-2.12-21.41c1.48,0,13.72-8.18,14.38-3C775.4,286.94,757.81,281.73,759.94,281.73ZM763.65,184c-.59-.71,5.44,5.46,3.78,6.56s-7.44-7.24-7.24-7.45C761.52,181.51,762.66,181.83,763.65,184ZM763,195.43a7.55,7.55,0,0,1,3.48,5C765.87,201.11,759.39,193.93,763,195.43Zm.7-37.29q3.13,2.15,0,.81C761.68,157.55,761.68,157.27,763.73,158.14ZM764.87,204a8.08,8.08,0,0,1,4.88,5.77C769,212.78,758.79,204,764.87,204Zm3.66-7.28c2.44,1.58,2.82,2.92,1.12,4-1.39,0-5-6.05-4.08-6.45C766.56,195.07,767.54,195.86,768.53,196.69Zm-2.71-15.27c1.43.24,7.64,6.82,6.39,8.16C769.66,192.26,762.76,181,765.82,181.42Zm3.78-35.8c1.61-1.48,8.23-3.71,9.68-.26,1.69,4-12,7.23-14.41,4.29A16.38,16.38,0,0,1,769.6,145.62Zm1.45,137.21a8.63,8.63,0,0,1,6.36-2.16,12.47,12.47,0,0,1-2.1,3.38c.09.25,5.37-4.75,5.37-2.5,0,3.36-8.22,4.43-9.71,6.8a2.74,2.74,0,0,0,2.55.09c.19.11-8.24.86-8.24-2A24.8,24.8,0,0,1,771.05,282.83Zm1.71-87.28,2.39,3.48c.51,3-9.89-4.14-6.14-5.88C770.25,194,771.51,194.76,772.76,195.55ZM768.82,204c2.5,0,3.17,6.4,3.38,6.45C771.93,210.35,766.94,204,768.82,204Zm.6-24.56c.48,0,7.79,7.41,8,8C778.64,191.16,763.79,179.41,769.42,179.41Zm2.4-6.49c3.73,3.27-2.83-2.6,0,0Zm.39,30.66a33.38,33.38,0,0,1,4.37,5c-.57-1.61-1.21-3.24-1.93-4.8,1.25-3.86,9.1,5.74,9.1,7.57C783.75,213.74,765.8,207.71,772.21,203.58Zm0-33.58c4,2.72-2.55-1.67,0,0Zm.8,74.48c1.85-11.45,0-24.79,13.91-23.4-.35,8.19-.62,16.44-1.39,24.61C784.67,254.76,771.27,254.82,773,244.48Zm1.72-52.35c1.41.31,7.21,5.44,6.21,7.18C778.9,202.78,769.33,191,774.73,192.13Zm-.2-23.33c1.83.55,2.71,1.65,2.62,3.25C776.33,172.05,768.31,164.18,774.53,168.8Zm.78,120.64c1.27-.41,7.33-7.49,8.12-6.65-.25.76-.5,1.48-.79,2.21a7.25,7.25,0,0,1,3.21-1.38c-.56,1-1.1,2-1.69,3,.25,0,5.15-2.85,4.78-.41-.28,1.89-12.12,7.08-12.12,6.42,0-.93,6.36-4.46,5.85-4.94C783.6,288.53,769,291.62,775.31,289.44Zm8-24.07c2.76,0,14.75,8,15,7.83,0,0,5.9-4.41,5.48-.55-.34,3.28-10,12.56-13,9.46-.77-.78,6.1-6.49,6.1-7.83,0-1-7.91,7.27-10,5.79a6.57,6.57,0,0,1,.91-3.59c-.53-.33-5.54,3.74-5.54,1.15,0-.56,7.91-4.47,6.42-6.06-1-1-4.09,2.72-4.79.49a17.35,17.35,0,0,1,2.06-2.3c-1.32-1.1-7.53,5.77-7.27,5.06-.66,1.76-3.48-1.77-3.78-1C775.48,272.1,781,265.37,783.28,265.37Zm-6.84.81c.86-1.65,2.06-2.29,3.54-1.89,1.21,1.3-3.81,7.46-5.31,6.47C773.3,269,773.89,267.43,776.44,266.18ZM775.12,177c1.45,0,8.21,8.59,7.48,9.82C782.23,187.46,773.62,177,775.12,177Zm5.74-28.17c3.65-2.78,7.64-2.7,11.73-.23a70.11,70.11,0,0,1-6.44,6.79c-2.07,1.9-10.25-2-9.65-3.1A25,25,0,0,1,780.86,148.79Zm-2.49,35.14c2.09,2.56,2.06,3,0,1.39C776.26,182.72,776.26,182.29,778.37,183.93Zm2.86,8.37a33.1,33.1,0,0,1,4.46,6.39C786.15,203.45,774.42,185,781.23,192.3Zm0,83.21c1.37-1.56,2.38-1.58,3.06-.09C783.84,276.91,777.25,278.71,781.23,275.51ZM782,202.7c5.28.08,3,6.56,5.58,8.25,1.65,1.09-2.14-8.11-2.12-8.21.23-2.55,8.29,7.06,8.29,9.91C793.77,217.7,772.92,202.47,782,202.7Zm-1.5-27.33c.85.06,3,3.4,3.55,4.38C783.38,179.39,778.77,175.25,780.52,175.37Zm6.16,114.41c1.17-.84,7.2-4.54,9-1.58-.48-.82-11.31,8.26-12.66,8.26C781.76,293.46,783,291.25,786.68,289.78Zm-3.77-99.34c1.9,1.23,3.42,7.2,4.77,7.7C785.29,197.24,782.88,190.41,782.91,190.44Zm2.38-.37c1.53,0,5.76,6.73,5.26,8.25C790.46,198.67,782.64,190.07,785.29,190.07Zm-.46-16.38Zm.81,10.64Zm4.61-4.34c2.84,1.49,3.46,2.91,1.83,4.28-1.64-.05-5.69-7-5.24-7.13A8.29,8.29,0,0,1,790.25,180Zm.85,11.38c-.66-.88,4.22,7.26,4.22,6.14,0,3.77-10.35-7.73-6.87-8.21Zm2.34-22.31c9.55,5.05,23.58,8.87,30.84,17.55,4.53,5.41,7.11,13.23,2.65,19.43-.55.76-7.09,8.07-8.86,6.5-2-1.77-24.89-52.7-30.22-45.93A21.81,21.81,0,0,1,793.44,169.06Zm-3,57.41c.39-4.66,1.38-6.65,6.27-6.29,1.68,10.9.72,22.27.54,33.29C783.81,256.15,789.72,235.05,790.42,226.47Zm2.4-72.18c-.27.26,11.7-8.78,10.51-2.64-.56,2.8-14.18,10.33-14.18,6.95C790.31,157.12,791.54,155.7,792.82,154.29Zm5.38,109c1.49,1.62-6.68,3.16-7.52.35C790.73,263.77,797.33,262.28,798.2,263.27Zm-3.93-59.71a97,97,0,0,0,5,8.61c.24,0-4.12-10-4.1-10s10.14,7.26,10.14,12.72c0,2.07-23.6-7-14-12.92C792.32,202.53,793.28,203.05,794.27,203.56ZM794,191.32c1.35,2.1,2.6,4.32,3.83,6.53C796,196.19,793.36,190.3,794,191.32Zm1.13-3.69c2,.05,8.2,7.53,7.19,9.21C800.27,200.36,791.54,187.58,795.16,187.63Zm5.25,91.59c1.56-1.57,8.59-5.91,9.07-7.62-.7,2.5-13.43,15.45-13.43,12.25Q798.18,281.46,800.41,279.22ZM798,181.58c1.61,1.23,1.61,1.59,0,1.12Q795.6,180.84,798,181.58Zm3.51-23.81c5-4.05,7.62-7.68,14.22-3.48-1.32,1.33-18.13,16.4-18.13,7.22A18,18,0,0,1,801.51,157.77Zm.41,105.86a24.76,24.76,0,0,1,10,1,6.12,6.12,0,0,1-2.87,5.11,11.51,11.51,0,0,1,.75-3.23C813.15,270.4,791.46,263.68,801.92,263.63Zm.69-62.12c4.32,0,5.2,8.84,6.81,11.93-.12-.2-2.5-13.08-3-12.49-2.77,3,12.6,12.79,2.1,15C805.89,216.45,797.92,201.51,802.61,201.51Zm-.91,18.82c7.22,0,18.59,35.42,8.24,34-9.13-1.15-9,1.3-9-8.87C800.87,241.76,800.15,220.33,801.7,220.33Zm1.43-31.91a11.49,11.49,0,0,1,3.88,7.25c-2-.75-6.06-7.09-6.19-9.29A3.87,3.87,0,0,1,803.13,188.42Zm7.27,30.77c7.58-3.08.88,4.41,5,4.41a22.9,22.9,0,0,0,.36-5.42c1.14-1.54,10.23,20.87,11.14,23,7.46,17.29-7.74,8.06-7.74,11.78C819.17,248,806.56,220.8,810.4,219.19Zm3.88-58.8c2.39-2.11,7.49-6.91,10.43-1.63,1.94,3.53-15.56,14.89-15.56,6.75A36.5,36.5,0,0,1,814.28,160.39Zm-3.57,44c3.36,2.11-1.71-1.12,0,0Zm13.08-38.07c4,0,6.76-12.95,13.07-2.13.91,1.59-14,14-20.07,7C818.38,169.78,821.73,166.31,823.79,166.31Zm4.28,53.06c2.83,3,25.57,29.16,24.45,29.86-24.53,15.53-30.5-33.92-30.25-34A7.9,7.9,0,0,1,828.07,219.37Zm1-44.21c3.7-2.33,7.17-6.34,11-8.38,2.42-1.27,10.79,3,10.17,3.66-4.88,4.87-17.4,12.33-22.13,7.63-.09-.07.36,2.77-1.44.84A3.13,3.13,0,0,1,829.05,175.16Zm.44,35.36c3,0,38.19,30.35,38.19,33.14,0,6.84-11.78,2.28-14.17-.07C849.09,239.24,827.16,210.52,829.49,210.52Zm3.56-4.08c4.39,0,15.85,7.09,19.61,9,6,3,35.58,11.49,29.17,19-9.33,10.88-14.72,5.18-23.38-3.17C855.19,228.07,834.07,206.44,833.05,206.44Zm4.07-24.66c16.2-8.38,18-12.17,32.51,1.73-3.63-.08-36.42,1.26-36.33,1.12Zm.61,19.51c13.32.92,36.44,11.75,49.14,5.21,17.57,42.53-51.92-5-52.12-4C835.74,202.11,836.73,201.7,837.73,201.29Zm.15-11.31c19-.52,39.77-10,48.22,14.65-10.79-2.72-22-1.75-32.81-4.47-4.1-1-9.9-2.74-14.09-2.74C835.38,197.42,833.08,190.11,837.88,190Z"/><path class="cls-1" d="M109.44,42.74Z"/><path class="cls-1" d="M114.64,40.24c1.87-1.32,1.77-1.66-.34-1Q111.57,41.15,114.64,40.24Z"/><path class="cls-1" d="M570.83,46.35c2.92-.41,3.38-.8,1.44-1.16C569.28,45.65,568.77,46.06,570.83,46.35Z"/><path class="cls-1" d="M126.88,35.69c2.62.38,3.73-.24,3.3-1.88-2,.35-4.06,1.63-6,2.38C125.08,36,126,35.87,126.88,35.69Z"/><path class="cls-1" d="M153.07,15.72c2-.53,2-1.08,0-1.63C151,14.64,151,15.19,153.07,15.72Z"/><path class="cls-1" d="M166.75,15.43c1-.27,2-.55,3-.84C170.35,14,161.39,16.05,166.75,15.43Z"/><path class="cls-1" d="M184,10.65c1.07,1.34,1.95,1.42,2.59.25C186.49,10.68,181.12,7.62,184,10.65Z"/><path class="cls-1" d="M193.11,24.32c1.8,1.13-3-1.92,0,0Z"/><path class="cls-1" d="M276,44.28c2-.09-3.24.2,0,0Z"/><path class="cls-1" d="M304,49.68c2.56-1.58-1.66,1.08,0,0Z"/><path class="cls-1" d="M415.2,45.19c2.95-.48,3.08-.82.39-.94C412.76,44.71,412.62,45,415.2,45.19Z"/><path class="cls-1" d="M420.27,85.3Z"/><path class="cls-1" d="M426.89,41.85c2.1-.12-3.27.15,0,0Z"/><path class="cls-1" d="M445.69,39.28Z"/><path class="cls-1" d="M455.71,89.77c1-.43,2.07-.87,3.1-1.32C458.64,88.57,452.08,90.88,455.71,89.77Z"/><path class="cls-1" d="M468,86.77Z"/><path class="cls-1" d="M471.89,86Z"/><path class="cls-1" d="M477.64,38.13c4.34-1.8-3.57,1.33,0,0Z"/><path class="cls-1" d="M478.81,34.39Z"/><path class="cls-1" d="M494.1,82a6,6,0,0,0,4-.73c0-.79-6.83-.29-7.63.44A10.09,10.09,0,0,0,494.1,82Z"/><path class="cls-1" d="M494.6,78.68l3.46-.76C499.41,77,489.13,78.46,494.6,78.68Z"/><path class="cls-1" d="M519.65,73.68Z"/><path class="cls-1" d="M554.73,22.2Z"/><path class="cls-1" d="M573.13,19c1.47.16,2.37-.33,2.71-1.55A2.26,2.26,0,0,0,573.13,19Z"/><path class="cls-1" d="M645.92,18Z"/><path class="cls-1" d="M648.68,10.73c2.12-.11-3.28.19,0,0Z"/><path class="cls-1" d="M662.55,16.48c2.11-.14-3.3.16,0,0Z"/><path class="cls-1" d="M665.7,11.19Z"/><path class="cls-1" d="M672.09,15.34c.86.5-3.16-2.09,0,0Z"/><path class="cls-1" d="M674.4,13.93Z"/><path class="cls-1" d="M677.48,12.45c3.08-.1,3.08-.44,0-1C674.4,11.54,674.4,11.86,677.48,12.45Z"/><path class="cls-1" d="M684,51.75a2.17,2.17,0,0,0,2.33-1.66A2.16,2.16,0,0,0,684,51.75Z"/><path class="cls-1" d="M696.72,56.64Z"/><path class="cls-1" d="M709.5,17.29Z"/><path class="cls-1" d="M137.66,251.86c2.63-1.67-1.67,1.09,0,0Z"/><path class="cls-1" d="M276.66,322.6c1.47.18,2.36-.32,2.7-1.56A2.25,2.25,0,0,0,276.66,322.6Z"/><path class="cls-1" d="M314.93,310.37Z"/><path class="cls-1" d="M316,311.92c2.1-.1-3.3.19,0,0Z"/><path class="cls-1" d="M332.23,299.08c3.51-.78-4.52,1,0,0Z"/><path class="cls-1" d="M739.78,280.91Z"/><path class="cls-1" d="M743.48,283.36c1.53,0,2.07-.53,1.63-1.63C743.54,281.71,743,282.26,743.48,283.36Z"/><path class="cls-1" d="M749.49,285.82Z"/><path class="cls-1" d="M748.33,274.36Z"/><path class="cls-1" d="M753.16,258.37Z"/><path class="cls-1" d="M767.53,216.17c1.45,1.24,1.59,1,.46-.7C766.62,214.26,766.48,214.5,767.53,216.17Z"/><path class="cls-1" d="M766.34,281.73a5,5,0,0,0,1.7-3.29A5.35,5.35,0,0,0,766.34,281.73Z"/><path class="cls-1" d="M780.14,271.92c1.15,0,4-4.3,4.77-5.32A58.43,58.43,0,0,0,780.14,271.92Z"/><path class="cls-1" d="M793.8,207.24Z"/></g></g></svg>
