<svg width="200" height="288" viewBox="0 0 200 288" fill="none" xmlns="http://www.w3.org/2000/svg">
<path d="M100 0C44.8604 0 0 44.8604 0 100C0 169.305 100.098 287.691 100.098 287.691C100.098 287.691 200 165.896 200 100C200 44.8604 155.141 0 100 0ZM130.172 129.28C121.853 137.598 110.927 141.758 100 141.758C89.0746 141.758 78.1457 137.598 69.8297 129.28C53.1923 112.644 53.1923 85.5751 69.8297 68.9377C77.8859 60.878 88.6023 56.439 100 56.439C111.398 56.439 122.112 60.8797 130.172 68.9377C146.809 85.5751 146.809 112.644 130.172 129.28Z" fill="white"/>
</svg>
