<svg width="272" height="369" viewBox="0 0 272 369" fill="none" xmlns="http://www.w3.org/2000/svg">
<path d="M136 0C61.008 0 0 61.008 0 136C0 160.688 11.072 187.24 11.536 188.36C15.112 196.848 22.168 210.032 27.256 217.76L120.504 359.048C124.32 364.84 129.968 368.16 136 368.16C142.032 368.16 147.68 364.84 151.496 359.056L244.752 217.76C249.848 210.032 256.896 196.848 260.472 188.36C260.936 187.248 272 160.696 272 136C272 61.008 210.992 0 136 0ZM245.72 182.152C242.528 189.76 235.96 202.024 231.392 208.952L138.136 350.248C136.296 353.04 135.712 353.04 133.872 350.248L40.616 208.952C36.048 202.024 29.48 189.752 26.288 182.144C26.152 181.816 16 157.376 16 136C16 69.832 69.832 16 136 16C202.168 16 256 69.832 256 136C256 157.408 245.824 181.912 245.72 182.152Z" fill="white"/>
<path d="M136 64.008C96.296 64.008 64 96.312 64 136.008C64 175.704 96.296 208.008 136 208.008C175.704 208.008 208 175.704 208 136.008C208 96.312 175.704 64.008 136 64.008ZM136 192.008C105.128 192.008 80 166.888 80 136.008C80 105.128 105.128 80.008 136 80.008C166.872 80.008 192 105.128 192 136.008C192 166.888 166.872 192.008 136 192.008Z" fill="white"/>
</svg>
