<svg width="1264" height="247" viewBox="0 0 1264 247" fill="none" xmlns="http://www.w3.org/2000/svg">
<path d="M0 199.007C9.55387 195.281 11.5602 190.695 12.9933 178.562C15.2862 158.69 19.1077 119.232 21.6873 87.5135C38.8843 110.061 57.7054 133.754 75.189 155.155C84.7429 166.333 88.1823 170.25 98.4049 168.435V169.199C92.386 170.823 86.0804 172.639 78.4373 175.027C70.7942 177.415 63.0556 179.995 57.4188 182.097V181.237C68.1191 177.033 72.5139 172.83 65.7307 163.371C60.6671 156.206 53.6928 147.321 49.298 141.588L17.4836 151.429C17.4836 151.429 16.7193 160.41 16.4327 173.881C16.4327 189.453 21.7828 191.842 34.1073 188.402V189.262C29.9036 190.504 26.4642 191.173 18.5345 193.657C10.6048 196.141 4.01263 198.434 0.0955388 199.963L0 199.007ZM48.4381 139.964C40.2218 129.359 30.1902 116.557 21.5918 106.048L17.6747 149.614L48.4381 139.964Z" fill="black"/>
<path d="M112.356 153.626C107.484 149.614 101.943 141.779 96.8791 121.716L89.236 91.6217C85.0323 74.9024 81.975 72.5139 68.313 74.9024V74.0425C76.4338 72.1318 82.0706 70.8898 90.7646 68.7879C99.4586 66.6861 102.325 65.6351 111.305 63.0556V63.9154C98.7898 68.0236 96.7835 71.9407 100.987 88.5644L108.63 118.564C110.219 126.915 113.087 134.971 117.133 142.448C120.314 146.992 124.884 150.381 130.156 152.104C135.429 153.827 141.118 153.791 146.368 152.002C151.189 151.086 155.747 149.111 159.712 146.22C163.677 143.329 166.951 139.593 169.297 135.283C172.483 124.809 172.215 113.588 168.533 103.277L160.89 73.2782C156.686 56.5589 153.247 54.1705 139.394 56.6545V55.7946C144.744 54.7437 148.948 53.9794 157.164 51.782C162.323 50.4445 166.718 49.298 173.119 47.2917V48.1515C161.177 51.9731 159.075 55.9857 163.565 72.6094L171.113 102.322C175.093 113.922 175.394 126.468 171.973 138.245C169.87 143.457 166.495 148.059 162.156 151.63C157.817 155.202 152.651 157.629 147.132 158.69C130.318 162.989 120.191 160.218 112.356 153.626Z" fill="black"/>
<path d="M227.77 137.384C240.858 134.423 242.865 129.837 239.999 114.455L229.776 58.0873C227.101 43.2788 224.426 38.9796 210.191 40.9859V40.126L245.635 33.6294C263.692 30.3811 282.704 32.0052 286.717 53.6925C287.754 61.1415 285.88 68.7035 281.485 74.8065C277.09 80.9095 270.512 85.084 263.119 86.4623C258.136 87.6053 253.04 88.1822 247.928 88.182L252.132 111.111C254.998 126.684 258.151 131.27 271.24 129.455V130.315C261.686 131.652 257.196 132.416 247.928 134.136C238.661 135.856 236.368 136.334 227.674 138.244L227.77 137.384ZM273.533 56.081C270.667 40.3171 260.444 32.1008 238.566 36.1134C239.521 42.1323 240.094 45.6673 241.241 52.1639L247.642 87.3222C267.514 84.2649 277.068 73.5646 273.533 56.081Z" fill="black"/>
<path d="M305.719 123.341C319.095 120.857 321.101 116.557 318.904 100.22L311.069 43.7568C308.777 26.6553 304.668 25.3178 291.962 26.1776V25.3178C300.942 24.3624 312.025 23.1204 326.356 21.0185L360.654 15.7639C362.971 19.6483 364.038 24.1507 363.711 28.6616L364.667 40.3174H363.998C357.406 21.2096 349.667 19.4899 324.063 22.4516H320.528C320.528 24.3624 321.292 30.668 321.961 35.4449L326.451 67.6414H330.368C357.406 63.7244 358.075 61.527 359.03 50.6356H359.699L363.807 80.5392H363.043C359.699 67.8325 357.788 65.6351 330.846 69.1701L326.833 69.7433L330.941 99.6469C333.139 115.411 336.101 117.895 351.96 115.697C369.73 113.309 376.418 102.991 377.66 85.9849H378.52C378.52 90.5707 379.475 97.7362 379.762 102.035C379.762 108.819 378.997 112.163 376.418 114.551C362.851 116.08 358.17 116.557 344.699 118.468C328.362 120.665 321.77 121.43 305.528 124.296L305.719 123.341Z" fill="black"/>
<path d="M407.276 110.252C420.651 108.437 422.944 104.042 421.511 88.4696L416.447 33.3437C415.683 24.9363 414.346 12.0386 414.346 12.0386C388.359 14.4271 383.678 19.6817 381.576 40.7002H380.716L379.378 22.6434C378.832 19.1781 379.297 15.6289 380.716 12.4208C384.311 13.2823 388.03 13.5086 391.703 13.0895L449.026 7.73936C452.824 7.53969 456.566 6.73333 460.109 5.35089C462.02 8.18393 463.111 11.4904 463.261 14.9048L465.172 32.8661H464.312C458.58 12.8029 453.325 8.59921 426.861 10.7966C426.861 10.7966 427.912 23.8854 428.676 32.2928L433.836 87.5142C435.269 103.756 439.472 106.622 451.51 106.144V107.004C443.485 107.482 438.708 107.768 429.059 108.628C419.409 109.488 416.352 109.966 407.18 111.112L407.276 110.252Z" fill="black"/>
<path d="M505.024 82.4495C505.883 98.7867 509.992 101.557 522.029 101.557V102.417C514.004 102.417 509.323 102.417 499.578 103.277C489.833 104.137 487.253 104.328 477.699 105.092V104.232C491.17 102.895 493.654 98.5956 492.795 83.0228L489.642 25.6995C488.782 10.6999 486.68 6.59178 472.349 6.59178V5.44531C481.903 5.44531 484.674 5.44531 493.845 4.681C503.017 3.91669 507.125 3.82115 516.679 2.9613V3.82115C503.017 5.34977 500.915 10.0312 501.775 25.0308L505.024 82.4495Z" fill="black"/>
<path d="M547.73 100.793C561.201 99.9335 563.685 95.5387 563.685 80.157L562.539 24.8401C562.539 16.3371 561.966 3.34386 561.966 3.34386C535.884 3.82155 530.82 8.78956 527.19 29.8081H526.33V11.6557C526.057 8.15988 526.751 4.65628 528.336 1.52862C531.862 2.59542 535.552 3.01619 539.228 2.77062L597.124 1.62416C600.819 1.68314 604.498 1.13444 608.015 0C609.749 3.05221 610.609 6.52302 610.499 10.0316L611.455 27.9928H610.595C605.914 7.35648 601.041 2.67508 574.577 3.05724C574.577 3.05724 574.577 16.146 574.577 24.5535L575.628 80.0615C575.628 96.3986 579.831 99.7424 591.869 99.9335V100.793C583.844 100.793 579.163 100.793 569.418 100.793C559.673 100.793 556.616 100.793 547.444 101.653L547.73 100.793Z" fill="black"/>
<path d="M671.824 11.1784C669.626 31.146 667.333 57.8013 665.709 81.1128C664.563 97.0677 670.009 100.221 680.136 101.08V101.94C672.97 101.271 668.862 100.889 661.697 100.507C654.531 100.125 651.665 100.507 643.927 100.507V99.6473C654.054 99.6473 660.455 97.2588 663.034 80.5395C665.709 60.3809 667.333 42.324 669.722 18.3438C670.486 6.11484 668.767 4.01298 653.767 1.52898V0.669128C659.881 0.669128 662.461 1.43344 668.671 1.72005C674.881 2.00667 677.174 2.19775 682.333 2.29329C690.932 29.5218 702.396 62.5782 710.995 85.5075C722.65 61.6229 736.026 33.5345 748.446 5.63714C752.745 5.63714 756.184 6.21038 760.77 6.40145C765.356 6.59253 770.897 6.40145 775.197 6.40145V7.739C761.439 7.739 760.293 13.2802 759.815 22.1653C758.669 47.4831 758 77.0046 758 89.0425C758 101.08 761.248 104.329 772.808 106.048V106.908C765.165 106.239 760.006 105.857 752.267 105.475C742.714 105.475 738.032 104.902 728.574 104.711V103.851C741.185 103.278 744.815 100.316 745.484 87.896C746.344 69.5526 747.013 34.1077 747.395 13.4713C734.497 40.4132 718.733 74.3295 705.453 102.896L704.211 103.564C695.231 75.2849 683.288 42.0374 671.824 11.1784Z" fill="black"/>
<path d="M774.43 106.143C783.984 106.143 788.284 103.182 794.494 92.6724C804.716 75.4755 824.206 40.8904 839.301 12.8976H839.875C846.467 40.5083 854.11 70.2208 861.466 96.3985C865.383 110.347 867.294 115.506 877.326 117.895V118.755C871.211 117.799 864.619 116.939 856.689 116.079C847.135 114.933 840.543 114.36 834.524 113.978V113.118C846.084 113.595 851.721 111.494 849.428 100.124C847.613 91.526 844.843 80.539 843.218 73.5647L809.589 69.7431C809.589 69.7431 805.194 77.6729 800.035 89.9018C793.347 103.946 797.646 108.436 810.257 110.347V111.207C805.863 110.538 802.423 109.869 794.207 108.914C785.991 107.959 778.921 107.385 775.099 107.194L774.43 106.143ZM842.645 71.6539C839.301 58.5651 835.289 42.9923 831.754 29.8079L810.544 68.0234L842.645 71.6539Z" fill="black"/>
<path d="M880.294 118.372C893.669 119.996 897.109 116.366 899.402 100.984L908.956 44.4251C911.344 29.5211 910.293 24.553 896.249 21.6869V20.827L931.694 26.6549C952.33 30.0943 968.19 39.7437 963.89 59.8068C962.381 64.9864 959.335 69.586 955.156 72.9977C950.976 76.4094 945.86 78.4726 940.483 78.9146C943.503 88.2275 947.076 97.3518 951.184 106.239C960.738 125.346 969.336 132.512 978.317 134.9V135.665C974.858 135.61 971.408 135.291 967.999 134.709C963.587 134.186 959.334 132.743 955.516 130.471C951.697 128.2 948.399 125.152 945.834 121.525C941.869 115.237 938.662 108.503 936.28 101.462C933.127 93.1499 931.503 88.3729 928.923 80.8254C924.57 80.1289 920.263 79.1718 916.025 77.9592L912.108 101.844C909.529 117.417 910.866 122.862 924.146 125.633V126.493C914.592 124.678 910.198 123.722 900.93 122.194C891.663 120.665 889.275 120.378 880.485 119.232L880.294 118.372ZM939.91 75.4752C943.155 73.6311 945.887 71.0038 947.856 67.8331C949.825 64.6624 950.969 61.0491 951.184 57.3228C953.477 43.0876 948.318 30.572 924.719 26.3683C923.573 32.3872 922.809 35.9221 921.758 42.4188L916.121 76.6217C923.948 78.9791 932.347 78.5743 939.91 75.4752Z" fill="black"/>
<path d="M982.709 86.94C989.875 53.7881 1014.24 39.935 1041.08 45.7628C1048.18 47.2101 1055 49.8251 1061.24 53.5015C1063.89 54.4176 1066.07 56.324 1067.34 58.8191C1068.6 61.3142 1068.85 64.203 1068.03 66.8769C1068.03 69.2654 1064.11 84.6471 1064.11 84.6471H1063.06C1064.68 66.9724 1057.8 51.3996 1040.7 47.7691C1017.68 42.8011 1003.73 60.2847 997.327 89.9017C990.925 119.519 995.702 141.015 1019.4 146.078C1026.85 147.501 1034.57 146.213 1041.15 142.446C1047.74 138.68 1052.76 132.683 1055.32 125.538H1056.18C1054.79 131.399 1052.87 137.123 1050.45 142.639C1048.25 147.225 1045.67 148.467 1039.46 148.754C1032.57 149.131 1025.66 148.585 1018.92 147.129C992.167 140.728 975.448 120.57 982.709 86.94Z" fill="black"/>
<path d="M1056.47 151.716C1069.66 154.773 1073.38 151.716 1077.49 136.429L1092.68 81.1125C1096.6 66.5906 1096.03 62.0048 1082.36 57.2278V56.368C1091.15 59.1386 1094.12 60.094 1103 62.4825C1111.89 64.8709 1115.99 65.9219 1125.36 68.2148V68.9791C1111.89 66.1129 1108.54 69.8389 1104.53 84.3608L1097.56 109.679L1146.47 123.054L1153.73 96.6853C1157.46 83.3099 1155.26 77.5776 1143.51 73.9471V73.1828C1152.49 76.049 1156.5 77.1954 1165.39 79.5839C1174.27 81.9724 1176.85 82.7367 1186.22 84.8385V85.6984C1173.41 82.6411 1169.31 86.5582 1165.67 99.9337L1150.2 156.206C1145.8 172.256 1147.81 176.365 1159.75 180.186V181.046C1150.87 178.275 1148.67 177.607 1139.78 175.123C1130.9 172.639 1126.12 171.397 1116.47 169.199V168.339C1128.8 171.014 1133.38 169.008 1137.78 152.958L1145.52 124.296L1096.6 110.921L1088.77 139.582C1084.47 155.346 1087.24 159.741 1098.32 163.276V164.136C1090.68 161.747 1086.19 160.314 1076.73 157.735C1067.27 155.155 1064.4 154.582 1055.52 152.384L1056.47 151.716Z" fill="black"/>
<path d="M1164.43 181.524C1177.52 185.345 1181.25 182.384 1186.5 166.811L1204.75 112.736C1210.2 96.4943 1207.14 93.6282 1195.77 88.7557V87.8958C1204.18 91.0486 1214.88 94.8702 1228.44 99.3605C1242.01 103.851 1248.6 105.857 1261.5 109.965C1261.92 114.459 1260.92 118.971 1258.63 122.863L1254.72 133.754H1253.95C1256.63 113.787 1250.42 108.819 1226.25 100.029L1222.81 98.8828C1222.04 100.603 1219.94 106.526 1218.41 111.112L1208 141.971L1211.82 143.213C1237.61 151.811 1239.24 150.092 1244.78 140.824H1245.45L1235.9 169.486H1235.04C1237.71 156.684 1237.04 153.818 1211.25 145.028L1207.52 143.786L1197.97 172.448C1192.81 187.543 1194.34 191.078 1209.53 196.237C1226.53 201.969 1237.14 195.664 1245.83 181.046H1246.6L1240.58 195.95C1237.71 202.065 1235.32 204.644 1231.98 205.504C1219.18 200.918 1214.78 199.199 1201.88 194.899C1186.31 189.645 1180.1 187.352 1164.24 182.67L1164.43 181.524ZM1229.88 92.9594L1257.77 71.5587L1263.7 83.6921L1230.26 93.246L1229.88 92.9594Z" fill="black"/>
<path d="M437.442 200.612L413.747 229.171L390.053 200.612H386.452V244.841H389.674V205.287L413.558 233.973H413.811L437.631 205.287V244.841H440.917V200.612H437.442Z" fill="black"/>
<path d="M486.05 246.168C502.668 246.168 512.461 237.006 512.461 222.726C512.461 208.447 502.668 199.285 486.05 199.285C469.432 199.285 459.639 208.447 459.639 222.726C459.639 237.006 469.432 246.168 486.05 246.168ZM486.05 243.072C472.086 243.072 462.988 235.679 462.988 222.726C462.988 209.773 472.086 202.381 486.05 202.381C499.951 202.381 509.049 209.773 509.049 222.726C509.049 235.679 499.951 243.072 486.05 243.072Z" fill="black"/>
<path d="M573.47 200.612V239.976L534.738 200.612H531.073V244.841H534.296V204.782L573.786 244.841H576.693V200.612H573.47Z" fill="black"/>
<path d="M641.816 244.841H645.481L620.712 200.612H617.047L592.279 244.841H595.944L603.21 231.762H634.486L641.816 244.841ZM604.853 228.729L618.817 203.645L632.844 228.729H604.853Z" fill="black"/>
<path d="M681.784 243.072C667.947 243.072 658.848 235.869 658.848 222.726C658.848 209.584 667.947 202.381 681.784 202.381C690.441 202.381 696.949 205.287 700.74 211.164L703.836 209.584C699.666 203.202 692.273 199.285 681.847 199.285C665.293 199.285 655.499 208.51 655.499 222.726C655.499 236.943 665.293 246.168 681.721 246.168C692.273 246.168 699.666 242.25 703.836 235.869L700.74 234.289C697.012 240.165 690.441 243.072 681.784 243.072Z" fill="black"/>
<path d="M743.763 246.168C760.38 246.168 770.174 237.006 770.174 222.726C770.174 208.447 760.38 199.285 743.763 199.285C727.145 199.285 717.351 208.447 717.351 222.726C717.351 237.006 727.145 246.168 743.763 246.168ZM743.763 243.072C729.799 243.072 720.7 235.679 720.7 222.726C720.7 209.773 729.799 202.381 743.763 202.381C757.663 202.381 766.762 209.773 766.762 222.726C766.762 235.679 757.663 243.072 743.763 243.072Z" fill="black"/>
</svg>
