<svg width="481" height="17" viewBox="0 0 481 17" fill="none" xmlns="http://www.w3.org/2000/svg">
<path d="M1.98276 14.2842V0.600183H0.134766V16.0002H13.7748V14.2842H1.98276Z" fill="#DBD8D8"/>
<path d="M33.0861 16.0002H35.1761L26.7061 0.600183H24.6381L16.1681 16.0002H18.2141L20.4581 11.8642H30.8421L33.0861 16.0002ZM21.3601 10.1922L25.6501 2.29418L29.9401 10.1922H21.3601Z" fill="#DBD8D8"/>
<path d="M64.9122 0.600183L57.1902 10.0162L49.4682 0.600183H47.4442V16.0002H49.2482V3.19618L57.0802 12.6782H57.2122L65.0442 3.19618V16.0002H66.8922V0.600183H64.9122Z" fill="#DBD8D8"/>
<path d="M88.2589 16.0002H90.3489L81.8789 0.600183H79.8109L71.3409 16.0002H73.3869L75.6309 11.8642H86.0149L88.2589 16.0002ZM76.5329 10.1922L80.8229 2.29418L85.1129 10.1922H76.5329Z" fill="#DBD8D8"/>
<path d="M96.6515 16.0002V0.600183H94.8035V16.0002H96.6515Z" fill="#DBD8D8"/>
<path d="M110.762 7.22218C107.132 6.93618 104.228 6.54018 104.228 4.62618C104.228 2.60218 107.44 1.83218 110.19 1.85418C112.764 1.87618 115.03 2.64618 116.526 4.12018L117.978 2.88818C116.196 1.30418 113.446 0.138184 110.102 0.138184C105.988 0.138184 102.336 1.78818 102.336 4.69218C102.336 7.72818 106.274 8.63018 110.388 8.98218C114.546 9.33418 116.812 9.79618 116.812 11.6662C116.812 13.5802 114.634 14.7462 110.916 14.7462C107.836 14.7462 105.35 13.8882 103.106 11.9082L101.808 13.2942C104.206 15.4062 107.44 16.4622 110.806 16.4622C115.822 16.4622 118.704 14.3722 118.704 11.5342C118.704 8.49818 115.448 7.59618 110.762 7.22218Z" fill="#DBD8D8"/>
<path d="M132.086 16.4622C137.938 16.4622 141.458 13.3162 141.458 8.30018C141.458 3.28418 137.938 0.138184 132.086 0.138184C126.234 0.138184 122.714 3.28418 122.714 8.30018C122.714 13.3162 126.234 16.4622 132.086 16.4622ZM132.086 14.7462C127.554 14.7462 124.606 12.4362 124.606 8.30018C124.606 4.16418 127.554 1.85418 132.086 1.85418C136.618 1.85418 139.566 4.16418 139.566 8.30018C139.566 12.4362 136.618 14.7462 132.086 14.7462Z" fill="#DBD8D8"/>
<path d="M161.532 0.600183V13.2942L148.97 0.600183H146.968V16.0002H148.772V2.95418L161.708 16.0002H163.336V0.600183H161.532Z" fill="#DBD8D8"/>
<path d="M186.038 0.600183H178.558V16.0002H186.038C191.67 16.0002 195.278 13.0302 195.278 8.30018C195.278 3.57018 191.67 0.600183 186.038 0.600183ZM185.906 14.2842H180.406V2.31618H185.906C190.284 2.31618 193.386 4.36218 193.386 8.30018C193.386 12.2382 190.284 14.2842 185.906 14.2842Z" fill="#DBD8D8"/>
<path d="M214.89 0.600183V8.63018C214.89 12.4142 212.624 14.7462 208.62 14.7462C204.594 14.7462 202.328 12.4142 202.328 8.63018V0.600183H200.48V8.74018C200.48 13.2282 203.318 16.4622 208.62 16.4622C213.922 16.4622 216.738 13.2282 216.738 8.74018V0.600183H214.89Z" fill="#DBD8D8"/>
<path d="M246.188 0.600183V7.31018H233.516V0.600183H231.668V16.0002H233.516V9.07018H246.188V16.0002H248.036V0.600183H246.188Z" fill="#DBD8D8"/>
<path d="M269.389 16.0002H271.479L263.009 0.600183H260.941L252.471 16.0002H254.517L256.761 11.8642H267.145L269.389 16.0002ZM257.663 10.1922L261.953 2.29418L266.243 10.1922H257.663Z" fill="#DBD8D8"/>
<path d="M293.402 0.600183L285.68 10.0162L277.958 0.600183H275.934V16.0002H277.738V3.19618L285.57 12.6782H285.702L293.534 3.19618V16.0002H295.382V0.600183H293.402Z" fill="#DBD8D8"/>
<path d="M314.329 8.08018C316.595 7.90418 317.629 6.27618 317.629 4.51618C317.629 1.92018 315.407 0.600183 312.283 0.600183H302.031V16.0002H312.723C316.287 16.0002 318.509 14.5922 318.509 11.7762C318.509 9.20218 316.727 8.23418 314.329 8.08018ZM303.857 2.27218H312.019C314.219 2.27218 315.781 2.84418 315.781 4.78018C315.781 6.71618 314.219 7.28818 312.019 7.28818H303.857V2.27218ZM312.393 14.3282H303.857V8.96018H312.393C315.033 8.96018 316.595 9.73018 316.595 11.6442C316.595 13.5362 315.033 14.3282 312.393 14.3282Z" fill="#DBD8D8"/>
<path d="M332.166 16.4622C338.018 16.4622 341.538 13.3162 341.538 8.30018C341.538 3.28418 338.018 0.138184 332.166 0.138184C326.314 0.138184 322.794 3.28418 322.794 8.30018C322.794 13.3162 326.314 16.4622 332.166 16.4622ZM332.166 14.7462C327.634 14.7462 324.686 12.4362 324.686 8.30018C324.686 4.16418 327.634 1.85418 332.166 1.85418C336.698 1.85418 339.646 4.16418 339.646 8.30018C339.646 12.4362 336.698 14.7462 332.166 14.7462Z" fill="#DBD8D8"/>
<path d="M361.15 0.600183V8.63018C361.15 12.4142 358.884 14.7462 354.88 14.7462C350.854 14.7462 348.588 12.4142 348.588 8.63018V0.600183H346.74V8.74018C346.74 13.2282 349.578 16.4622 354.88 16.4622C360.182 16.4622 362.998 13.2282 362.998 8.74018V0.600183H361.15Z" fill="#DBD8D8"/>
<path d="M386.062 16.0002L380.804 10.0382C383.642 9.70818 385.578 8.03618 385.578 5.35218C385.578 2.31618 383.114 0.600183 379.682 0.600183H369.342V16.0002H371.212V10.1042H378.538L383.642 16.0002H386.062ZM371.19 8.38818V2.31618H379.55C382.036 2.31618 383.686 3.26218 383.686 5.35218C383.686 7.44218 382.036 8.38818 379.55 8.38818H371.19Z" fill="#DBD8D8"/>
<path d="M408.104 7.99218H399.26V9.70818H406.256V11.7102C405.112 13.8442 402.604 14.7462 399.546 14.7462C394.838 14.7462 391.89 12.5682 391.89 8.30018C391.89 4.03218 394.816 1.85418 399.414 1.85418C402.208 1.85418 404.254 2.73418 405.64 4.47218L407.246 3.35018C405.706 1.54618 403.176 0.138184 399.414 0.138184C393.518 0.138184 389.998 3.28418 389.998 8.30018C389.998 13.3162 393.518 16.4622 399.48 16.4622C403.748 16.4622 406.828 14.6582 408.104 12.2602V7.99218Z" fill="#DBD8D8"/>
<path d="M415.391 14.2842V9.02618H426.259V7.31018H415.391V2.31618H428.217V0.600183H413.543V16.0002H428.437V14.2842H415.391Z" fill="#DBD8D8"/>
<path d="M441.573 16.4622C447.425 16.4622 450.945 13.3162 450.945 8.30018C450.945 3.28418 447.425 0.138184 441.573 0.138184C435.721 0.138184 432.201 3.28418 432.201 8.30018C432.201 13.3162 435.721 16.4622 441.573 16.4622ZM441.573 14.7462C437.041 14.7462 434.093 12.4362 434.093 8.30018C434.093 4.16418 437.041 1.85418 441.573 1.85418C446.105 1.85418 449.053 4.16418 449.053 8.30018C449.053 12.4362 446.105 14.7462 441.573 14.7462Z" fill="#DBD8D8"/>
<path d="M458.303 16.0002V0.600183H456.455V16.0002H458.303Z" fill="#DBD8D8"/>
<path d="M472.414 7.22218C468.784 6.93618 465.88 6.54018 465.88 4.62618C465.88 2.60218 469.092 1.83218 471.842 1.85418C474.416 1.87618 476.682 2.64618 478.178 4.12018L479.63 2.88818C477.848 1.30418 475.098 0.138184 471.754 0.138184C467.64 0.138184 463.988 1.78818 463.988 4.69218C463.988 7.72818 467.926 8.63018 472.04 8.98218C476.198 9.33418 478.464 9.79618 478.464 11.6662C478.464 13.5802 476.286 14.7462 472.568 14.7462C469.488 14.7462 467.002 13.8882 464.758 11.9082L463.46 13.2942C465.858 15.4062 469.092 16.4622 472.458 16.4622C477.474 16.4622 480.356 14.3722 480.356 11.5342C480.356 8.49818 477.1 7.59618 472.414 7.22218Z" fill="#DBD8D8"/>
</svg>
