<svg width="40" height="56" viewBox="0 0 40 56" fill="none" xmlns="http://www.w3.org/2000/svg">
<path d="M4.66667 56H38.2667C38.5142 56 38.7516 55.9017 38.9266 55.7266C39.1017 55.5516 39.2 55.3142 39.2 55.0667V32.6667C39.1994 31.9008 39.0108 31.1467 38.651 30.4707L31.7333 17.5V4.66667C31.7319 3.42942 31.2398 2.24324 30.365 1.36837C29.4901 0.493501 28.3039 0.00138956 27.0667 0H4.66667C3.42942 0.00138956 2.24324 0.493501 1.36837 1.36837C0.493501 2.24324 0.00138956 3.42942 0 4.66667V51.3333C0.00138956 52.5706 0.493501 53.7568 1.36837 54.6316C2.24324 55.5065 3.42942 55.9986 4.66667 56V56ZM30.8 41.0667C31.0475 41.0667 31.2849 40.9683 31.46 40.7933C31.635 40.6183 31.7333 40.3809 31.7333 40.1333V21.4667L37.004 31.349C37.2198 31.7547 37.3329 32.2071 37.3333 32.6667V54.1333H31.7333C29.5369 54.1308 27.4286 53.2691 25.8592 51.7324C24.2899 50.1957 23.3839 48.106 23.3352 45.9101C23.382 45.6672 23.3305 45.4157 23.1921 45.2108L17.1378 36.2508C16.9297 35.9462 16.784 35.6035 16.7088 35.2423C16.6336 34.8812 16.6305 34.5088 16.6997 34.1465C16.7689 33.7842 16.909 33.4391 17.112 33.1311C17.3149 32.8231 17.5767 32.5582 17.8823 32.3517C18.188 32.1452 18.5314 32.0011 18.8929 31.9277C19.2544 31.8543 19.6268 31.8531 19.9888 31.924C20.3507 31.995 20.6951 32.1368 21.0021 32.3413C21.3091 32.5457 21.5727 32.8088 21.7777 33.1155C21.7832 33.1236 21.7894 33.1316 21.7946 33.1396L27.2435 40.6805C27.3301 40.8001 27.4438 40.8975 27.5753 40.9646C27.7068 41.0317 27.8524 41.0667 28 41.0667H30.8ZM16.8779 39.2H12.1333C11.6383 39.2 11.1635 39.0033 10.8134 38.6533C10.4633 38.3032 10.2667 37.8284 10.2667 37.3333C10.2667 36.8383 10.4633 36.3635 10.8134 36.0134C11.1635 35.6633 11.6383 35.4667 12.1333 35.4667H14.859C14.9692 36.1216 15.2188 36.7452 15.591 37.2953L16.8779 39.2ZM25.2 20.5322V20.5333C25.2 21.5626 24.3028 22.4 23.2 22.4C22.8722 22.4036 22.5485 22.328 22.2562 22.1795C21.964 22.0311 21.7119 21.8143 21.5215 21.5475C21.4355 21.424 21.321 21.3232 21.1876 21.2535C21.0542 21.1838 20.906 21.1475 20.7555 21.1475C20.6051 21.1475 20.4568 21.1838 20.3234 21.2535C20.1901 21.3232 20.0755 21.424 19.9895 21.5475C19.7966 21.8116 19.544 22.0265 19.2523 22.1746C18.9607 22.3227 18.6382 22.3999 18.3111 22.3999C17.984 22.3999 17.6615 22.3227 17.3698 22.1746C17.0781 22.0265 16.8256 21.8116 16.6326 21.5475C16.5466 21.4241 16.4321 21.3232 16.2987 21.2536C16.1653 21.1839 16.0171 21.1476 15.8667 21.1476C15.7162 21.1476 15.568 21.1839 15.4346 21.2536C15.3013 21.3232 15.1867 21.4241 15.1007 21.5475C14.9078 21.8116 14.6552 22.0265 14.3635 22.1746C14.0719 22.3227 13.7494 22.3999 13.4223 22.3999C13.0952 22.3999 12.7727 22.3227 12.481 22.1746C12.1893 22.0265 11.9368 21.8116 11.7438 21.5475C11.6578 21.424 11.5433 21.3232 11.4099 21.2535C11.2765 21.1838 11.1283 21.1475 10.9778 21.1475C10.8273 21.1475 10.6791 21.1838 10.5457 21.2535C10.4124 21.3232 10.2978 21.424 10.2118 21.5475C10.0214 21.8143 9.76934 22.0311 9.4771 22.1795C9.18486 22.328 8.8611 22.4036 8.53335 22.4C7.4305 22.4 6.53333 21.5626 6.53333 20.5333L25.2 20.5322ZM8.49392 18.6667C8.71046 17.6134 9.2835 16.667 10.1165 15.9869C10.9494 15.3069 11.9914 14.9348 13.0667 14.9333H18.6667C19.7421 14.9346 20.7842 15.3067 21.6172 15.9867C22.4503 16.6668 23.0234 17.6133 23.24 18.6667H8.49392ZM8.23037 24.2667V24.2541C8.33047 24.2616 8.43127 24.2667 8.5337 24.2667C9.41972 24.269 10.2807 23.9731 10.9782 23.4267C11.6766 23.9711 12.5368 24.2668 13.4224 24.2668C14.3079 24.2668 15.1681 23.9711 15.8665 23.4267C16.5649 23.9711 17.4252 24.2668 18.3107 24.2668C19.1963 24.2668 20.0565 23.9711 20.7549 23.4267C21.4523 23.9731 22.3134 24.269 23.1994 24.2667C23.3015 24.2667 23.4023 24.2616 23.5027 24.2541V24.2667C23.9238 24.2667 24.2664 24.6854 24.2664 25.2C24.2664 25.7146 23.9238 26.1333 23.5027 26.1333H8.23037C7.80932 26.1333 7.46667 25.7146 7.46667 25.2C7.46667 24.6854 7.80932 24.2667 8.23037 24.2667V24.2667ZM8.4 28H23.3333V28.9333C23.3331 29.1808 23.2346 29.418 23.0597 29.593C22.8847 29.768 22.6475 29.8664 22.4 29.8667H9.33333C9.08588 29.8664 8.84865 29.768 8.67367 29.593C8.4987 29.418 8.40028 29.1808 8.4 28.9333V28ZM1.86667 4.66667C1.86753 3.92433 2.16281 3.21264 2.68772 2.68772C3.21264 2.16281 3.92433 1.86753 4.66667 1.86667H27.0667C27.809 1.86753 28.5207 2.16281 29.0456 2.68772C29.5705 3.21264 29.8658 3.92433 29.8667 4.66667V7.46667H1.86667V4.66667ZM1.86667 9.33333H29.8667V39.2H28.477L23.3157 32.057C23.2229 31.9209 23.123 31.7898 23.0165 31.6642C23.6359 31.5235 24.1892 31.1768 24.5859 30.6807C24.9826 30.1846 25.1991 29.5685 25.2 28.9333V27.3369C25.4964 27.0658 25.7327 26.7356 25.8935 26.3675C26.0542 25.9994 26.136 25.6017 26.1333 25.2C26.1356 24.5807 25.9396 23.9769 25.574 23.477C26.0346 23.1361 26.4093 22.6926 26.6684 22.1816C26.9275 21.6706 27.0639 21.1063 27.0667 20.5333C27.0661 20.0384 26.8692 19.564 26.5193 19.214C26.1693 18.8641 25.6949 18.6673 25.2 18.6667H25.1322C24.906 17.1127 24.1284 15.6919 22.9413 14.6637C21.7543 13.6356 20.2371 13.0687 18.6667 13.0667H13.0667C11.4963 13.0687 9.97904 13.6356 8.792 14.6637C7.60496 15.6919 6.82733 17.1127 6.60112 18.6667H6.53333C6.03844 18.6673 5.56399 18.8641 5.21405 19.214C4.86411 19.564 4.66725 20.0384 4.66667 20.5333C4.66947 21.1063 4.80584 21.6706 5.06495 22.1816C5.32406 22.6926 5.69877 23.1361 6.1593 23.477C5.79374 23.9769 5.59775 24.5807 5.6 25.2C5.59738 25.6017 5.67909 25.9994 5.83987 26.3675C6.00064 26.7356 6.23689 27.0658 6.53333 27.3369V28.9333C6.5342 29.6757 6.82948 30.3874 7.35439 30.9123C7.8793 31.4372 8.59099 31.7325 9.33333 31.7333H15.8417C15.3983 32.2783 15.0836 32.9164 14.9212 33.6H12.1333C11.1432 33.6 10.1936 33.9933 9.49347 34.6935C8.79333 35.3936 8.4 36.3432 8.4 37.3333C8.4 38.3235 8.79333 39.2731 9.49347 39.9732C10.1936 40.6733 11.1432 41.0667 12.1333 41.0667H18.1391L20.6617 44.8H1.86667V9.33333ZM1.86667 46.6667H21.5113C21.6478 48.1509 22.1057 49.5877 22.8534 50.8771C23.6011 52.1665 24.6205 53.2777 25.841 54.1333H4.66667C3.92433 54.1325 3.21264 53.8372 2.68772 53.3123C2.16281 52.7874 1.86753 52.0757 1.86667 51.3333V46.6667Z" fill="#EEEEEE"/>
<path d="M10.2673 5.60006C10.7828 5.60006 11.2007 5.1822 11.2007 4.66673C11.2007 4.15127 10.7828 3.7334 10.2673 3.7334C9.75185 3.7334 9.33398 4.15127 9.33398 4.66673C9.33398 5.1822 9.75185 5.60006 10.2673 5.60006Z" fill="#EEEEEE"/>
<path d="M21.4667 3.7334H14.9333C14.6858 3.7334 14.4484 3.83173 14.2734 4.00677C14.0983 4.1818 14 4.4192 14 4.66673C14 4.91427 14.0983 5.15166 14.2734 5.3267C14.4484 5.50173 14.6858 5.60006 14.9333 5.60006H21.4667C21.7142 5.60006 21.9516 5.50173 22.1266 5.3267C22.3017 5.15166 22.4 4.91427 22.4 4.66673C22.4 4.4192 22.3017 4.1818 22.1266 4.00677C21.9516 3.83173 21.7142 3.7334 21.4667 3.7334Z" fill="#EEEEEE"/>
<path d="M15.8664 53.2001C16.4202 53.2001 16.9615 53.0359 17.422 52.7282C17.8825 52.4205 18.2413 51.9832 18.4533 51.4716C18.6652 50.96 18.7206 50.397 18.6126 49.8538C18.5046 49.3107 18.2379 48.8118 17.8463 48.4202C17.4547 48.0286 16.9558 47.7619 16.4127 47.6539C15.8695 47.5459 15.3065 47.6013 14.7949 47.8132C14.2833 48.0252 13.846 48.384 13.5383 48.8445C13.2306 49.305 13.0664 49.8463 13.0664 50.4001C13.0673 51.1424 13.3625 51.8541 13.8875 52.379C14.4124 52.904 15.1241 53.1992 15.8664 53.2001V53.2001ZM15.8664 49.4668C16.051 49.4668 16.2315 49.5215 16.3849 49.6241C16.5384 49.7266 16.6581 49.8724 16.7287 50.0429C16.7993 50.2135 16.8178 50.4011 16.7818 50.5822C16.7458 50.7632 16.6569 50.9295 16.5264 51.0601C16.3958 51.1906 16.2295 51.2795 16.0485 51.3155C15.8674 51.3515 15.6798 51.333 15.5092 51.2624C15.3387 51.1917 15.1929 51.0721 15.0904 50.9186C14.9878 50.7651 14.9331 50.5847 14.9331 50.4001C14.9334 50.1526 15.0318 49.9154 15.2067 49.7404C15.3817 49.5655 15.619 49.467 15.8664 49.4668V49.4668Z" fill="#EEEEEE"/>
</svg>
