<svg width="115" height="115" viewBox="0 0 115 115" fill="none" xmlns="http://www.w3.org/2000/svg">
<path d="M114.755 89.1038C114.43 88.1237 112.361 86.6799 108.548 84.7758C107.515 84.1756 106.044 83.36 104.139 82.3253C102.234 81.2906 100.504 80.3371 98.9527 79.4658C97.3987 78.5947 95.9428 77.7508 94.5824 76.9352C94.365 76.7718 93.6844 76.2961 92.5409 75.5048C91.3963 74.7159 90.431 74.1303 89.64 73.7484C88.8507 73.3688 88.0742 73.1777 87.3118 73.1777C86.2229 73.1777 84.8629 73.9541 83.2299 75.5048C81.5969 77.0576 80.0989 78.7443 78.7383 80.57C77.3774 82.3949 75.9341 84.0815 74.4109 85.6334C72.8855 87.186 71.6322 87.9615 70.6532 87.9615C70.1617 87.9615 69.5489 87.8245 68.8145 87.5541C68.0804 87.2821 67.5219 87.0489 67.1386 86.861C66.7587 86.669 66.1067 86.2891 65.1803 85.7156C64.2522 85.1437 63.7361 84.8305 63.6274 84.7758C56.1677 80.6367 49.7699 75.8993 44.4329 70.565C39.0977 65.2275 34.3595 58.8307 30.2212 51.3705C30.1668 51.2615 29.853 50.744 29.2817 49.8189C28.7095 48.8929 28.3282 48.2403 28.1376 47.8581C27.9471 47.4774 27.7156 46.919 27.4439 46.1841C27.1721 45.4491 27.0356 44.837 27.0356 44.3463C27.0356 43.3668 27.8118 42.1138 29.3638 40.5891C30.9155 39.0652 32.604 37.6217 34.4276 36.2614C36.2525 34.9012 37.9393 33.4033 39.4916 31.7704C41.0433 30.1367 41.8192 28.7761 41.8192 27.6873C41.8192 26.9255 41.6287 26.1488 41.2479 25.3596C40.8668 24.5686 40.2815 23.6034 39.4916 22.4594C38.7014 21.316 38.2251 20.636 38.0614 20.4171C37.2455 19.0569 36.4024 17.6005 35.5301 16.0485C34.6579 14.4969 33.7058 12.7673 32.6707 10.8618C31.6365 8.95715 30.8203 7.48646 30.2206 6.45203C28.3159 2.64129 26.8731 0.571283 25.8927 0.245734C25.5113 0.0823883 24.9392 0 24.1776 0C22.7065 0 20.7874 0.271767 18.4189 0.817017C16.0495 1.36141 14.1851 1.93241 12.8236 2.53229C10.1009 3.67515 7.21514 6.99642 4.16544 12.495C1.38839 17.6122 0 22.6771 0 27.6859C0 29.1549 0.0952673 30.5841 0.285802 31.9738C0.476337 33.3621 0.816781 34.9278 1.30742 36.6705C1.79721 38.4127 2.19229 39.7069 2.49097 40.5496C2.78993 41.393 3.34809 42.9037 4.16516 45.0824C4.98108 47.2605 5.47172 48.5939 5.63508 49.084C7.54071 54.4203 9.80052 59.1842 12.4139 63.3772C16.7138 70.3464 22.5818 77.5488 30.0144 84.9815C37.4472 92.4136 44.6486 98.2809 51.6189 102.582C55.8115 105.195 60.5774 107.455 65.9133 109.362C66.4036 109.524 67.7371 110.014 69.9145 110.832C72.0928 111.649 73.6042 112.207 74.4475 112.506C75.2912 112.806 76.5858 113.201 78.3266 113.692C80.0712 114.183 81.6355 114.523 83.0239 114.715C84.4131 114.903 85.8427 115 87.3121 115C92.3209 115 97.3864 113.611 102.505 110.834C108.003 107.786 111.324 104.9 112.467 102.175C113.069 100.815 113.638 98.9503 114.183 96.5811C114.729 94.213 115 92.2943 115 90.8236C115.002 90.059 114.92 89.4883 114.755 89.1038Z" fill="white"/>
</svg>
