<svg width="513" height="513" viewBox="0 0 513 513" fill="none" xmlns="http://www.w3.org/2000/svg">
<path d="M498.639 395.021L394.993 325.901C381.84 317.2 364.209 320.063 354.485 332.48L324.294 371.298C320.414 376.414 313.361 377.898 307.748 374.78L302.005 371.614C282.967 361.237 259.279 348.318 211.552 300.574C163.825 252.83 150.88 229.124 140.503 210.121L137.354 204.378C134.193 198.766 135.649 191.683 140.767 187.772L179.559 157.59C191.971 147.865 194.838 130.239 186.147 117.082L117.027 13.4361C108.12 0.0380592 90.2497 -3.98394 76.4607 4.30506L33.1197 30.3401C19.5017 38.3461 9.51068 51.3121 5.24168 66.5211C-10.3653 123.387 1.37567 221.529 145.948 366.118C260.952 481.113 346.567 512.038 405.413 512.038C418.956 512.096 432.446 510.334 445.52 506.799C460.732 502.535 473.7 492.543 481.701 478.921L507.762 435.606C516.063 421.814 512.043 403.933 498.639 395.021ZM493.058 426.85L467.057 470.191C461.312 480.023 451.985 487.252 441.03 490.364C388.533 504.777 296.817 492.839 158.022 354.044C19.2267 215.249 7.28968 123.541 21.7027 71.0361C24.8187 60.0681 32.0567 50.7291 41.9007 44.9751L85.2417 18.9741C91.2247 15.3741 98.9807 17.1191 102.846 22.9331L140.393 79.3041L171.907 126.57C175.681 132.277 174.441 139.926 169.057 144.149L130.256 174.331C118.448 183.36 115.076 199.697 122.346 212.663L125.427 218.261C136.333 238.263 149.892 263.146 199.394 312.64C248.896 362.133 273.771 375.693 293.764 386.598L299.37 389.687C312.335 396.956 328.673 393.585 337.702 381.777L367.884 342.976C372.108 337.595 379.754 336.356 385.463 340.126L489.1 409.246C494.918 413.108 496.663 420.868 493.058 426.85Z" fill="white"/>
</svg>
