<svg width="480" height="469" viewBox="0 0 480 469" fill="none" xmlns="http://www.w3.org/2000/svg">
<rect width="480" height="469" fill="#EEEEEE"/>
<path d="M146.589 83.2024C137.386 90.5644 127.877 98.5399 118.061 107.129C108.859 115.718 99.9632 125.227 91.3742 135.656C83.3988 146.086 76.6503 157.129 71.1288 168.785C66.2209 179.828 63.7669 191.791 63.7669 204.675C63.7669 216.945 65.6074 226.761 69.2883 234.123C73.5828 241.485 76.6503 246.699 78.4908 249.767C82.1718 245.472 87.0798 240.564 93.2147 235.043C99.9632 229.521 108.552 226.761 118.982 226.761C132.479 226.761 143.828 231.055 153.031 239.644C162.233 248.233 166.834 259.89 166.834 274.613C166.834 286.883 161.926 298.54 152.11 309.583C142.294 320.012 129.411 325.227 113.46 325.227C97.5092 325.227 84.6258 321.853 74.8098 315.104C64.9939 308.356 57.3252 300.38 51.8037 291.178C46.2822 281.362 42.6012 271.546 40.7607 261.73C38.9202 251.301 38 243.018 38 236.883C38 217.251 41.3742 199.153 48.1227 182.589C55.4847 165.411 64.3804 150.074 74.8098 136.577C85.2393 122.466 96.2822 110.196 107.939 99.7669C119.595 89.3374 130.025 80.7485 139.227 74L146.589 83.2024ZM317.755 83.2024C308.552 90.5644 299.043 98.5399 289.227 107.129C280.024 115.718 271.129 125.227 262.54 135.656C254.564 146.086 247.816 157.129 242.294 168.785C237.386 179.828 234.932 191.791 234.932 204.675C234.932 216.945 236.773 226.761 240.454 234.123C244.748 241.485 247.816 246.699 249.656 249.767C253.337 245.472 258.245 240.564 264.38 235.043C271.129 229.521 279.718 226.761 290.147 226.761C303.644 226.761 314.994 231.055 324.196 239.644C333.399 248.233 338 259.89 338 274.613C338 286.883 333.092 298.54 323.276 309.583C313.46 320.012 300.577 325.227 284.626 325.227C268.675 325.227 255.791 321.853 245.975 315.104C236.159 308.356 228.491 300.38 222.969 291.178C217.448 281.362 213.767 271.546 211.926 261.73C210.086 251.301 209.166 243.018 209.166 236.883C209.166 217.251 212.54 199.153 219.288 182.589C226.65 165.411 235.546 150.074 245.975 136.577C256.405 122.466 267.448 110.196 279.104 99.7669C290.761 89.3374 301.19 80.7485 310.393 74L317.755 83.2024Z" fill="#DBD8D8"/>
</svg>
