<svg width="300" height="252" viewBox="0 0 300 252" fill="none" xmlns="http://www.w3.org/2000/svg">
<path d="M108.589 9.20243C99.3865 16.5644 89.8773 24.5399 80.0613 33.1288C70.8589 41.7178 61.9632 51.227 53.3742 61.6564C45.3988 72.0859 38.6503 83.1288 33.1288 94.7853C28.2209 105.828 25.7669 117.791 25.7669 130.675C25.7669 142.945 27.6074 152.761 31.2883 160.123C35.5828 167.485 38.6503 172.699 40.4908 175.767C44.1718 171.472 49.0798 166.564 55.2147 161.043C61.9632 155.521 70.5521 152.761 80.9816 152.761C94.4785 152.761 105.828 157.055 115.031 165.644C124.233 174.233 128.834 185.89 128.834 200.613C128.834 212.883 123.926 224.54 114.11 235.583C104.294 246.012 91.411 251.227 75.4601 251.227C59.5092 251.227 46.6258 247.853 36.8098 241.104C26.9939 234.356 19.3252 226.38 13.8037 217.178C8.28221 207.362 4.60123 197.546 2.76074 187.73C0.920246 177.301 0 169.018 0 162.883C0 143.251 3.37424 125.153 10.1227 108.589C17.4847 91.411 26.3804 76.0736 36.8098 62.5767C47.2393 48.4662 58.2822 36.1963 69.9386 25.7669C81.5951 15.3374 92.0245 6.74845 101.227 0L108.589 9.20243ZM279.755 9.20243C270.552 16.5644 261.043 24.5399 251.227 33.1288C242.024 41.7178 233.129 51.227 224.54 61.6564C216.564 72.0859 209.816 83.1288 204.294 94.7853C199.386 105.828 196.932 117.791 196.932 130.675C196.932 142.945 198.773 152.761 202.454 160.123C206.748 167.485 209.816 172.699 211.656 175.767C215.337 171.472 220.245 166.564 226.38 161.043C233.129 155.521 241.718 152.761 252.147 152.761C265.644 152.761 276.994 157.055 286.196 165.644C295.399 174.233 300 185.89 300 200.613C300 212.883 295.092 224.54 285.276 235.583C275.46 246.012 262.577 251.227 246.626 251.227C230.675 251.227 217.791 247.853 207.975 241.104C198.16 234.356 190.491 226.38 184.969 217.178C179.448 207.362 175.767 197.546 173.926 187.73C172.086 177.301 171.166 169.018 171.166 162.883C171.166 143.251 174.54 125.153 181.288 108.589C188.65 91.411 197.546 76.0736 207.975 62.5767C218.405 48.4662 229.448 36.1963 241.104 25.7669C252.761 15.3374 263.19 6.74845 272.393 0L279.755 9.20243Z" fill="#DBD8D8"/>
</svg>
