<?xml version="1.0" standalone="no"?>
<!DOCTYPE svg PUBLIC "-//W3C//DTD SVG 20010904//EN"
 "http://www.w3.org/TR/2001/REC-SVG-20010904/DTD/svg10.dtd">
<svg version="1.0" xmlns="http://www.w3.org/2000/svg"
 width="301.000000pt" height="301.000000pt" viewBox="0 0 301.000000 301.000000"
 preserveAspectRatio="xMidYMid meet">
<metadata>
Created by potrace 1.11, written by Peter Selinger 2001-2013
</metadata>
<g transform="translate(0.000000,301.000000) scale(0.100000,-0.100000)"
fill="#000000" stroke="none">
<path d="M1578 2995 c-2 -3 -56 -5 -118 -6 -73 0 -123 -5 -139 -14 -33 -16
-175 -55 -203 -55 -12 0 -63 -20 -113 -44 -49 -24 -102 -46 -117 -50 -31 -7
-161 -143 -151 -159 3 -5 1 -7 -5 -4 -15 10 -72 -25 -72 -45 0 -9 -17 -49 -37
-89 -36 -67 -38 -77 -37 -158 0 -71 5 -95 26 -141 15 -30 36 -65 47 -78 39
-44 158 -81 331 -103 41 -5 104 -13 140 -18 86 -11 807 -6 940 7 111 11 235
42 285 71 40 23 91 101 111 169 20 67 13 159 -17 229 -11 25 -18 52 -15 59 3
7 -12 27 -34 44 -21 17 -52 52 -69 78 -43 66 -49 72 -74 72 -12 0 -47 16 -77
34 -107 67 -276 149 -325 158 -27 5 -77 12 -110 15 -33 3 -68 11 -79 19 -20
13 -77 19 -88 9z m-188 -24 c0 -6 -9 -9 -19 -8 -11 0 -17 5 -15 9 7 11 34 10
34 -1z m154 -6 c-4 -8 -11 -12 -16 -9 -6 4 -5 10 3 15 19 12 19 11 13 -6z
m-204 -5 c0 -5 -8 -10 -17 -10 -15 0 -16 2 -3 10 19 12 20 12 20 0z m455 -10
c3 -5 -1 -10 -9 -10 -9 0 -16 5 -16 10 0 6 4 10 9 10 6 0 13 -4 16 -10z m-132
-34 c-4 -17 0 -25 14 -29 12 -3 9 -5 -9 -6 -28 -1 -37 -22 -20 -48 6 -10 52
-17 90 -14 25 2 0 51 -27 51 -6 0 -11 4 -11 8 0 8 42 15 75 12 11 -1 52 -2 90
-3 41 0 60 -3 45 -7 -19 -5 -24 -12 -22 -28 3 -18 -1 -21 -19 -19 -25 2 -36
-22 -23 -51 4 -9 6 -21 5 -25 0 -4 6 -10 15 -14 20 -7 34 13 34 50 0 23 4 27
30 27 37 0 38 -8 4 -35 -17 -14 -23 -26 -18 -38 10 -26 42 -41 59 -27 10 9 19
8 35 0 12 -6 24 -9 28 -6 3 3 -1 6 -9 7 -9 0 -6 4 6 10 16 7 14 8 -10 4 -27
-5 -28 -4 -12 9 10 8 19 23 20 35 1 20 27 31 27 11 0 -5 10 -20 23 -32 13 -14
22 -35 22 -52 0 -25 5 -31 33 -38 21 -6 40 -5 54 3 17 9 23 9 26 0 2 -6 15
-24 28 -40 13 -16 20 -32 16 -37 -4 -4 0 -3 9 4 9 7 24 10 33 6 20 -8 20 -13
-1 -31 -16 -12 -15 -13 11 -11 21 2 29 -2 31 -14 3 -15 0 -16 -16 -7 -24 13
-54 4 -79 -24 -11 -11 -20 -16 -20 -10 0 20 -48 1 -59 -23 -9 -21 -8 -24 12
-24 22 -1 22 -1 -3 -16 -16 -10 -18 -13 -5 -8 11 4 34 7 51 6 21 -1 31 3 31
13 0 8 -4 15 -9 15 -4 0 -8 4 -8 9 0 6 12 3 27 -4 24 -13 30 -12 50 1 20 13
29 13 21 0 -2 -2 5 -13 15 -24 12 -13 15 -22 8 -27 -14 -8 -33 3 -26 15 3 5 1
11 -4 14 -11 7 -9 -13 2 -31 5 -8 -2 -17 -18 -26 -22 -11 -24 -15 -13 -25 10
-7 18 -8 28 0 12 8 12 9 -2 4 -26 -8 -22 -1 10 20 19 13 24 13 15 2 -7 -8 -10
-17 -7 -20 6 -6 -41 -41 -69 -51 -10 -4 -15 -12 -12 -17 4 -6 3 -9 -2 -8 -4 1
-18 -3 -30 -10 -23 -12 -29 -7 -24 21 2 11 -9 9 -56 -10 -24 -10 -43 -22 -43
-26 0 -5 5 -5 10 -2 15 9 12 -11 -3 -23 -7 -6 -26 -13 -42 -15 -20 -2 -31 -10
-33 -23 -3 -16 -1 -17 8 -4 10 13 11 13 7 0 -2 -8 -9 -15 -16 -15 -6 0 -16 -7
-21 -15 -8 -13 -10 -13 -10 -1 0 11 -4 9 -15 -5 -14 -19 -14 -19 -15 1 -1 18
-2 18 -14 -4 -8 -14 -20 -25 -27 -27 -8 -1 -20 -3 -28 -5 -8 -2 -16 4 -17 14
-1 10 0 12 3 3 6 -22 33 -7 33 18 0 17 -2 18 -10 6 -8 -12 -11 -13 -19 -1 -6
10 -11 6 -19 -15 -8 -22 -11 -24 -11 -9 -1 17 -3 18 -11 5 -8 -11 -9 -7 -5 15
l5 30 -14 -30 c-17 -34 -21 -20 -6 19 5 14 7 26 5 26 -3 0 -10 -12 -16 -27
-10 -26 -12 -27 -19 -8 -5 11 -9 16 -9 11 -1 -5 -7 -4 -14 2 -7 6 -18 7 -25 3
-17 -10 -13 -88 5 -103 7 -6 13 -7 13 -2 0 5 4 2 10 -6 6 -9 5 -17 -3 -22 -7
-4 -17 2 -25 15 -13 22 -13 22 -8 -3 5 -22 2 -25 -24 -26 -26 -2 -30 2 -29 25
0 14 3 20 6 14 3 -9 10 -10 22 -3 36 19 5 150 -35 150 -13 0 -15 -8 -9 -42 4
-24 11 -48 16 -54 5 -6 6 -14 2 -18 -4 -4 -12 7 -18 25 -11 31 -39 47 -51 28
-3 -5 -9 -7 -14 -4 -4 3 -6 -5 -2 -17 5 -21 6 -21 13 -2 4 10 8 14 8 7 1 -6 4
-20 7 -30 4 -13 3 -14 -4 -5 -7 11 -12 11 -25 -3 -15 -14 -17 -12 -28 24 -7
22 -16 38 -20 35 -4 -2 -6 -11 -2 -19 3 -8 0 -15 -6 -15 -7 0 -16 10 -21 23
-7 17 -9 18 -9 5 -1 -21 -21 -24 -21 -4 0 8 -4 17 -9 21 -10 5 -5 -40 5 -57 3
-4 3 -8 0 -8 -3 0 -13 16 -21 37 -8 20 -18 34 -21 31 -3 -3 2 -22 10 -42 10
-25 11 -34 3 -29 -6 4 -28 7 -48 8 -20 0 -43 6 -52 13 -14 12 -15 10 -4 -17
12 -34 15 -35 37 -21 11 7 22 2 42 -23 23 -26 29 -29 37 -17 5 8 8 17 5 21 -2
4 2 9 10 12 10 4 12 0 9 -14 -5 -18 11 -27 20 -11 2 4 2 0 0 -8 -2 -10 2 -8
12 4 12 16 15 17 15 4 0 -9 6 -19 13 -21 6 -3 -15 -5 -48 -4 -33 0 -63 5 -67
11 -5 8 -8 8 -8 0 0 -5 -18 -11 -40 -12 -22 -2 -40 1 -40 6 0 5 -7 9 -15 9 -8
0 -15 -4 -15 -9 0 -5 -6 -6 -12 -1 -7 4 -35 6 -63 5 -40 -3 -48 -1 -38 9 7 7
9 18 5 24 -4 6 0 3 10 -7 19 -21 33 -24 22 -5 -4 6 -4 9 1 5 4 -4 14 0 22 10
12 16 14 16 24 -2 9 -15 13 -16 21 -5 8 11 9 11 5 -2 -3 -9 1 -16 8 -16 7 0
11 7 8 16 -3 12 0 10 14 -4 10 -11 28 -21 40 -21 18 -1 20 1 10 17 -8 12 -14
15 -18 7 -8 -12 -49 47 -49 69 0 23 19 23 34 1 9 -12 16 -18 16 -12 0 5 -7 19
-15 30 -8 12 -11 25 -7 29 4 5 1 4 -7 0 -11 -6 -13 -4 -8 9 4 9 3 15 -2 11 -5
-3 -11 -2 -14 2 -5 10 1 -12 10 -34 4 -11 3 -14 -6 -9 -6 4 -11 4 -10 -1 5
-27 -5 -23 -26 12 -14 22 -25 35 -25 30 0 -6 7 -21 16 -33 8 -12 14 -28 11
-35 -2 -6 -12 4 -22 23 -10 19 -23 38 -28 42 -21 13 -27 -3 -11 -27 9 -14 20
-22 25 -19 11 6 11 1 3 -20 -5 -14 -9 -13 -26 6 -11 13 -27 37 -35 53 l-14 30
6 -30 c5 -28 4 -29 -10 -11 -8 11 -15 16 -15 10 0 -5 7 -18 15 -28 11 -14 15
-16 15 -5 0 12 2 12 10 -1 13 -20 13 -33 0 -25 -5 3 -10 0 -11 -7 0 -10 -2
-10 -6 0 -2 6 -10 9 -15 6 -7 -4 -8 -2 -4 5 11 17 -12 40 -35 36 -11 -2 -17 0
-14 6 4 5 0 9 -9 9 -8 0 -19 12 -25 28 -10 26 -11 25 -6 -9 3 -20 2 -44 -1
-54 -6 -16 -9 -15 -26 6 -10 14 -16 17 -12 7 4 -12 1 -16 -13 -13 -10 2 -19 4
-20 5 -2 2 -9 3 -15 4 -7 0 -13 8 -13 16 -1 8 -9 29 -18 45 -13 22 -16 24 -12
8 9 -31 -1 -29 -19 5 -8 15 -15 21 -16 13 0 -11 -3 -11 -15 -1 -19 16 -20 3
-1 -16 10 -9 16 -10 18 -3 2 6 9 -1 16 -16 9 -19 9 -24 1 -19 -9 5 -10 0 -6
-17 5 -21 5 -22 -7 -7 -7 10 -16 15 -19 12 -3 -3 -3 3 0 15 7 28 -14 27 -36
-1 -13 -15 -20 -18 -25 -9 -4 7 -2 10 5 9 8 -2 13 11 15 35 2 24 -1 35 -8 31
-6 -4 -8 1 -3 15 4 12 2 21 -4 21 -6 0 -11 -5 -11 -11 0 -6 -7 -9 -15 -5 -8 3
-15 1 -15 -5 0 -6 -4 -7 -10 -4 -6 4 -10 -7 -10 -26 0 -26 -2 -29 -14 -20 -12
10 -17 8 -26 -10 -10 -17 -14 -19 -21 -8 -5 8 -9 19 -9 24 0 6 4 3 10 -5 7
-12 10 -11 16 5 5 11 18 28 30 38 27 21 27 55 2 63 -10 3 -18 10 -18 16 0 6
-9 8 -20 5 -11 -3 -20 -1 -20 4 0 4 -6 7 -12 5 -7 -1 -9 -1 -4 2 4 2 2 9 -5
14 -10 6 -7 7 10 3 16 -5 21 -4 17 4 -4 6 -2 11 5 11 7 0 5 6 -5 13 -17 13
-17 15 10 37 16 13 22 21 13 17 -12 -4 -15 0 -11 19 4 23 -11 34 -22 15 -3 -5
-14 -11 -24 -13 -21 -6 -26 18 -5 26 7 3 13 15 13 26 0 23 4 24 29 9 13 -9 23
-9 37 -1 11 7 13 12 6 12 -7 0 -11 4 -7 10 3 5 13 7 23 4 14 -5 15 -4 2 5 -22
15 -5 24 20 11 12 -6 24 -9 28 -6 3 3 0 6 -7 6 -9 0 -9 5 0 21 6 12 9 32 6 45
-2 13 -1 24 3 24 4 0 10 9 13 20 8 29 54 44 98 31 45 -13 102 -14 94 -2 -3 5
-1 12 5 16 6 4 8 11 5 16 -4 5 3 9 14 9 11 0 28 11 37 25 9 14 23 25 30 25 12
0 12 -4 1 -27 -14 -29 -12 -63 3 -63 11 0 60 51 60 62 0 5 20 8 45 8 38 0 45
-3 45 -19 0 -11 -5 -23 -11 -27 -7 -4 -7 -10 -1 -16 18 -18 79 9 84 37 3 14 3
27 0 30 -3 3 -33 6 -66 7 -47 1 -52 2 -21 5 22 3 44 9 50 14 5 5 40 9 77 9 61
0 72 -3 91 -25 26 -30 65 -36 80 -13 8 12 7 20 -2 32 -11 13 -36 16 -125 17
-86 1 -102 3 -71 10 22 4 66 8 98 8 33 1 56 5 52 10 -3 5 0 13 7 17 7 4 10 4
6 -1 -4 -4 9 -16 29 -26 40 -21 57 -12 52 27 -1 5 20 23 27 24 1 0 -1 -11 -3
-24z m282 -14 c-3 -3 -11 0 -18 7 -9 10 -8 11 6 5 10 -3 15 -9 12 -12z m-830
-11 c-16 -10 -34 -16 -39 -13 -13 7 24 32 48 32 18 0 16 -3 -9 -19z m140 -1
c-3 -5 0 -10 7 -10 8 0 6 -5 -4 -11 -10 -5 -18 -17 -18 -25 0 -8 -4 -12 -10
-9 -5 3 -19 1 -30 -5 -13 -7 -20 -7 -20 0 0 5 7 10 16 10 8 0 13 4 10 9 -3 5
-15 7 -26 4 -11 -3 -20 0 -20 6 0 6 7 8 17 4 12 -5 15 -2 10 10 -6 15 -3 16
13 7 12 -7 20 -7 20 -1 0 5 8 12 18 14 9 3 18 5 20 6 2 0 0 -3 -3 -9z m744
-17 c7 -1 19 -7 25 -14 8 -9 7 -10 -6 -6 -10 4 -17 3 -17 -1 4 -23 -3 -24 -14
-2 -8 14 -19 24 -26 22 -7 -1 -10 2 -6 8 3 6 12 7 18 3 7 -4 18 -8 26 -10z
m-966 -15 c-24 -6 -31 -13 -26 -24 5 -14 3 -14 -16 -2 -21 13 -21 13 16 29 21
9 42 14 48 11 5 -3 -5 -10 -22 -14z m294 16 c-3 -3 -12 -4 -19 -1 -8 3 -5 6 6
6 11 1 17 -2 13 -5z m238 -23 c3 -5 1 -12 -5 -16 -5 -3 -10 1 -10 9 0 18 6 21
15 7z m-678 -58 c-9 -9 -19 -14 -23 -11 -10 10 6 28 24 28 15 0 15 -1 -1 -17z
m1127 1 c5 -12 2 -15 -10 -10 -8 3 -20 6 -25 6 -6 0 -7 5 -4 10 10 15 32 12
39 -6z m-1067 -20 c-3 -3 -12 -4 -19 -1 -8 3 -5 6 6 6 11 1 17 -2 13 -5z m57
-2 c3 -5 -1 -9 -9 -9 -8 0 -15 4 -15 9 0 4 4 8 9 8 6 0 12 -4 15 -8z m1199
-19 c-7 -2 -21 -2 -30 0 -10 3 -4 5 12 5 17 0 24 -2 18 -5z m77 -18 c16 -19 1
-19 -24 0 -16 12 -17 15 -4 15 8 0 21 -7 28 -15z m-1420 -19 c0 -2 -7 -7 -16
-10 -8 -3 -12 -2 -9 4 6 10 25 14 25 6z m1307 -2 c-8 -8 -48 -13 -43 -6 2 4
14 8 26 9 12 1 20 0 17 -3z m27 -29 c-10 -8 -23 -14 -29 -14 -5 0 -1 6 9 14
11 8 24 15 30 15 5 0 1 -7 -10 -15z m136 -24 c0 -6 -5 -13 -10 -16 -6 -4 -8
-10 -6 -14 3 -4 -1 -8 -9 -8 -8 0 -15 4 -15 9 0 4 5 8 11 8 6 0 9 7 5 15 -3 9
0 15 9 15 8 0 15 -4 15 -9z m-1544 -48 c-10 -10 -19 5 -10 18 6 11 8 11 12 0
2 -7 1 -15 -2 -18z m-81 7 c-3 -5 -11 -10 -16 -10 -6 0 -7 5 -4 10 3 6 11 10
16 10 6 0 7 -4 4 -10z m1652 -6 c-3 -3 -12 -4 -19 -1 -8 3 -5 6 6 6 11 1 17
-2 13 -5z m53 -40 c0 -22 -16 -17 -17 6 -1 11 2 18 8 15 5 -4 9 -13 9 -21z
m-45 6 c3 -5 2 -10 -4 -10 -5 0 -13 5 -16 10 -3 6 -2 10 4 10 5 0 13 -4 16
-10z m1 -55 c-3 -8 2 -19 12 -24 10 -7 12 -11 4 -11 -7 0 -12 -6 -10 -14 2 -8
-1 -15 -7 -15 -5 -1 -10 2 -10 7 0 4 -4 13 -9 21 -6 10 -5 12 2 7 7 -4 12 -2
12 3 0 14 -17 14 -25 1 -3 -5 -15 -15 -26 -21 -20 -10 -20 -9 2 20 12 17 26
28 30 25 4 -2 10 0 14 6 9 15 18 12 11 -5z m-61 -5 c-3 -5 -16 -15 -28 -21
l-22 -12 20 21 c21 22 41 30 30 12z m-1578 -34 c-10 -8 -18 -18 -17 -22 1 -5
-3 -10 -9 -12 -20 -7 -11 17 11 32 28 20 40 21 15 2z m1493 10 c0 -2 -7 -7
-16 -10 -8 -3 -12 -2 -9 4 6 10 25 14 25 6z m-1543 -28 c-3 -8 -6 -5 -6 6 -1
11 2 17 5 13 3 -3 4 -12 1 -19z m1553 2 c0 -5 -2 -10 -4 -10 -3 0 -8 5 -11 10
-3 6 -1 10 4 10 6 0 11 -4 11 -10z m-1510 -40 c0 -5 -7 -7 -15 -4 -8 4 -15 8
-15 10 0 2 7 4 15 4 8 0 15 -4 15 -10z m1684 -36 c3 -8 2 -12 -4 -9 -6 3 -10
10 -10 16 0 14 7 11 14 -7z m-1625 -48 c9 -10 8 -15 -2 -19 -8 -3 -13 3 -14
14 -2 23 1 24 16 5z m1411 -57 c0 -5 -5 -7 -12 -3 -8 5 -9 1 -4 -12 5 -14 4
-16 -5 -7 -6 6 -8 16 -5 22 9 14 26 14 26 0z m-1458 -21 c-7 -7 -12 -8 -12 -2
0 14 12 26 19 19 2 -3 -1 -11 -7 -17z m108 2 c0 -5 -5 -10 -11 -10 -5 0 -7 5
-4 10 3 6 8 10 11 10 2 0 4 -4 4 -10z m1390 -19 c-6 -12 -15 -19 -21 -16 -5 4
-9 1 -9 -5 0 -7 -6 -10 -14 -7 -7 3 -19 0 -25 -6 -8 -8 -11 -8 -11 1 0 11 51
38 58 30 2 -2 8 5 14 15 14 26 22 14 8 -12z m-90 -33 c0 -4 -4 -10 -10 -13 -5
-3 -10 0 -10 7 0 9 -3 9 -10 -2 -9 -13 -10 -13 -10 0 0 8 -9 2 -20 -15 -22
-33 -25 -30 -11 8 8 19 16 24 40 23 17 0 31 -4 31 -8z m-861 -32 c-3 -3 -11 5
-18 17 -13 21 -12 21 5 5 10 -10 16 -20 13 -22z m444 11 c3 -8 1 -20 -4 -28
-5 -8 -9 -12 -10 -9 0 3 -2 15 -5 28 -4 24 10 31 19 9z m-538 -17 c3 -5 1 -10
-4 -10 -6 0 -11 5 -11 10 0 6 2 10 4 10 3 0 8 -4 11 -10z m938 -5 c-3 -9 -8
-14 -10 -11 -3 3 -2 9 2 15 9 16 15 13 8 -4z m-456 -17 c-3 -8 -6 -5 -6 6 -1
11 2 17 5 13 3 -3 4 -12 1 -19z m120 0 c-3 -8 -6 -5 -6 6 -1 11 2 17 5 13 3
-3 4 -12 1 -19z m257 6 c3 -8 2 -12 -4 -9 -6 3 -10 10 -10 16 0 14 7 11 14 -7z
m-504 -14 c0 -5 -5 -10 -11 -10 -5 0 -7 5 -4 10 3 6 8 10 11 10 2 0 4 -4 4
-10z m-589 -37 c13 -16 12 -17 -3 -4 -10 7 -18 15 -18 17 0 8 8 3 21 -13z
m1183 5 c-4 -5 -9 -7 -12 -4 -3 3 -12 0 -21 -7 -14 -10 -14 -10 -4 4 13 16 46
23 37 7z m-1270 -6 c3 -5 -1 -9 -9 -9 -8 0 -12 4 -9 9 3 4 7 8 9 8 2 0 6 -4 9
-8z m959 -34 l-10 -22 -5 22 c-4 14 -2 20 5 15 7 -4 8 0 3 13 -6 15 -5 16 5 7
9 -9 9 -19 2 -35z m141 25 c4 -10 4 -14 0 -10 -4 4 -13 -1 -21 -11 -14 -16
-14 -16 -9 1 3 10 6 23 6 28 0 16 18 10 24 -8z m-880 -23 c-6 -6 -10 -2 -11
12 -2 16 1 18 10 9 7 -7 8 -14 1 -21z m123 17 c10 -6 10 -11 0 -21 -6 -8 -16
-12 -21 -9 -4 3 -2 9 5 14 9 5 -4 7 -33 5 -26 -2 -45 1 -42 6 3 4 10 6 15 3 5
-4 9 -2 9 3 0 11 50 10 67 -1z m483 -21 c0 -20 -5 -23 -50 -23 -27 -1 -50 3
-50 7 0 5 9 7 20 5 15 -3 20 2 21 18 0 21 1 21 9 2 l9 -20 1 20 1 20 9 -20 c8
-19 9 -19 9 3 1 30 21 18 21 -12z m226 22 c4 -7 2 -8 -4 -4 -7 4 -12 3 -12 -3
0 -5 3 -11 8 -14 4 -2 2 -3 -4 -1 -6 1 -16 -2 -22 -8 -8 -8 -16 -8 -27 2 -12
10 -15 10 -15 0 0 -8 -3 -11 -6 -7 -3 3 -1 14 5 24 8 14 11 15 11 3 1 -13 2
-13 10 0 10 18 47 23 56 8z m90 -11 c1 -7 -10 -13 -25 -14 -14 0 -18 1 -8 4 9
2 17 12 17 20 0 18 13 10 16 -10z m54 9 c0 -2 -8 -10 -17 -17 -16 -13 -17 -12
-4 4 13 16 21 21 21 13z"/>
<path d="M1778 2873 c7 -3 16 -2 19 1 4 3 -2 6 -13 5 -11 0 -14 -3 -6 -6z"/>
<path d="M1421 2829 c-25 -27 -32 -56 -16 -69 29 -24 69 26 54 68 -10 27 -13
27 -38 1z"/>
<path d="M1682 2799 c-42 -9 -46 -13 -38 -44 8 -31 26 -32 55 -1 32 34 25 54
-17 45z"/>
<path d="M1224 2789 c-4 -6 -10 -26 -14 -45 -6 -28 -5 -34 11 -39 11 -4 29 -4
42 0 22 6 22 6 2 -12 -30 -27 -16 -72 22 -73 15 0 34 33 40 71 4 27 2 29 -27
29 -27 0 -31 3 -28 23 3 21 -18 57 -34 57 -4 0 -10 -5 -14 -11z m36 -44 c0 -8
-2 -15 -4 -15 -2 0 -6 7 -10 15 -3 8 -1 15 4 15 6 0 10 -7 10 -15z m-22 -20
c-3 -3 -9 2 -12 12 -6 14 -5 15 5 6 7 -7 10 -15 7 -18z m72 -29 c0 -2 -7 -7
-16 -10 -8 -3 -12 -2 -9 4 6 10 25 14 25 6z"/>
<path d="M1794 2782 c-14 -8 -15 -90 -2 -98 27 -17 60 64 38 91 -14 17 -20 18
-36 7z"/>
<path d="M1452 2747 c-7 -8 -15 -28 -18 -45 -5 -24 -3 -32 8 -32 23 0 50 36
46 61 -4 27 -21 35 -36 16z"/>
<path d="M1602 2713 c3 -44 5 -48 28 -48 33 0 37 27 10 65 -30 43 -42 37 -38
-17z m33 -2 c3 -5 1 -12 -5 -16 -5 -3 -10 1 -10 9 0 18 6 21 15 7z"/>
<path d="M1730 2718 c-25 -42 -22 -63 10 -63 23 0 25 4 28 48 4 56 -10 61 -38
15z m30 -8 c0 -5 -4 -10 -10 -10 -5 0 -10 5 -10 10 0 6 5 10 10 10 6 0 10 -4
10 -10z"/>
<path d="M1093 2734 c-8 -4 -9 -13 -3 -29 8 -22 6 -24 -28 -27 -29 -2 -37 -7
-37 -23 0 -26 41 -47 77 -40 33 8 36 -4 8 -28 -44 -37 -9 -59 51 -32 33 16 40
23 37 44 -3 22 -9 26 -40 29 -32 3 -38 7 -38 25 0 18 6 22 33 22 25 0 33 5 35
21 2 16 -5 23 -36 32 -42 13 -41 13 -59 6z m55 -20 c30 -9 28 -23 -3 -20 -29
3 -59 26 -34 26 7 0 24 -3 37 -6z m-38 -64 c0 -5 -2 -10 -4 -10 -3 0 -8 5 -11
10 -3 6 -1 10 4 10 6 0 11 -4 11 -10z"/>
<path d="M949 2713 c-9 -2 -22 -16 -28 -31 -11 -22 -10 -28 5 -39 10 -8 25
-11 32 -8 8 3 18 5 23 5 6 0 7 5 4 10 -4 6 -3 16 3 23 5 7 12 20 15 30 6 17
-14 21 -54 10z m21 -44 c0 -11 -27 -12 -34 -1 -2 4 4 9 15 9 10 1 19 -2 19 -8z"/>
<path d="M1374 2685 c-20 -31 -15 -59 13 -63 33 -5 49 32 28 64 -19 30 -21 30
-41 -1z m28 -32 c-6 -3 -9 -10 -6 -15 4 -7 2 -8 -5 -4 -9 6 -9 11 0 22 6 8 15
12 18 8 3 -4 0 -9 -7 -11z"/>
<path d="M1852 2703 c-7 -2 -19 -18 -28 -34 -13 -26 -13 -30 1 -35 24 -10 45
3 39 23 -5 15 -4 15 5 3 12 -18 20 -11 23 20 3 24 -14 34 -40 23z m-9 -48 c-3
-9 -8 -14 -10 -11 -3 3 -2 9 2 15 9 16 15 13 8 -4z"/>
<path d="M1919 2685 c-2 -11 0 -39 6 -63 9 -38 13 -43 35 -40 18 2 26 10 30
31 l5 28 18 -30 c10 -17 22 -31 26 -31 14 0 18 59 7 83 -15 30 -46 35 -53 8
-6 -25 -21 -27 -29 -6 -4 8 -12 15 -19 15 -7 0 -15 6 -18 13 -2 7 -6 3 -8 -8z
m121 -55 c0 -11 -2 -20 -4 -20 -2 0 -6 9 -9 20 -3 11 -1 20 4 20 5 0 9 -9 9
-20z"/>
<path d="M1540 2616 c0 -24 21 -36 68 -36 27 0 28 10 2 38 -29 31 -70 30 -70
-2z"/>
<path d="M1737 2633 c-25 -24 15 -73 60 -73 27 0 28 2 8 39 -17 34 -51 51 -68
34z m52 -40 c11 -24 11 -25 -4 -13 -24 20 -39 51 -22 44 8 -3 20 -17 26 -31z"/>
<path d="M2074 2607 c1 -30 3 -32 36 -31 54 2 60 3 60 13 0 12 -39 36 -71 44
-24 6 -26 4 -25 -26z m71 -7 c3 -5 -1 -10 -9 -10 -8 0 -18 5 -21 10 -3 6 1 10
9 10 8 0 18 -4 21 -10z"/>
<path d="M1408 2600 c-47 -48 -23 -67 49 -39 37 14 27 69 -14 69 -2 0 -18 -14
-35 -30z m42 -15 c-7 -9 -19 -14 -26 -11 -7 3 -15 1 -18 -5 -2 -5 -3 -4 -2 3
2 7 11 12 21 10 10 -2 14 1 10 7 -10 17 5 35 18 22 7 -7 6 -15 -3 -26z"/>
<path d="M938 2603 c7 -3 16 -2 19 1 4 3 -2 6 -13 5 -11 0 -14 -3 -6 -6z"/>
<path d="M900 2582 c-27 -4 -66 -28 -63 -39 3 -10 75 -33 106 -33 22 0 27 4
27 24 0 13 5 26 11 28 19 6 -54 24 -81 20z m49 -21 c14 -9 5 -18 -19 -16 -8 0
-18 -4 -22 -10 -5 -6 -8 -6 -8 3 0 6 -8 12 -17 13 -12 1 -10 4 7 9 34 11 43
11 59 1z"/>
<path d="M857 2499 c7 -7 15 -10 18 -7 3 3 -2 9 -12 12 -14 6 -15 5 -6 -5z"/>
<path d="M2032 2464 c2 -40 6 -49 22 -49 33 0 43 31 20 62 -34 45 -46 41 -42
-13z m48 -20 c0 -8 -7 -14 -15 -14 -10 0 -15 10 -15 26 0 22 2 25 15 14 8 -7
15 -19 15 -26z"/>
<path d="M1583 2493 c-15 -5 -18 -89 -4 -98 13 -7 51 48 51 73 0 15 -22 36
-33 31 -1 0 -8 -3 -14 -6z m24 -50 c-16 -16 -17 -16 -17 3 0 26 11 37 24 24 7
-7 5 -16 -7 -27z"/>
<path d="M1663 2493 c-7 -2 -13 -16 -13 -30 0 -24 2 -25 46 -20 49 5 75 21 59
36 -13 11 -76 21 -92 14z m36 -36 c0 -9 -2 -8 -6 1 -2 6 -10 9 -15 6 -7 -4 -8
-2 -4 5 9 13 26 5 25 -12z"/>
<path d="M918 2483 c7 -3 16 -2 19 1 4 3 -2 6 -13 5 -11 0 -14 -3 -6 -6z"/>
<path d="M798 2468 c5 -5 16 -8 23 -6 8 3 3 7 -10 11 -17 4 -21 3 -13 -5z"/>
<path d="M998 2473 c6 -2 18 -2 25 0 6 3 1 5 -13 5 -14 0 -19 -2 -12 -5z"/>
<path d="M1304 2458 c-8 -27 17 -48 58 -48 33 0 33 1 13 40 -19 37 -60 42 -71
8z m30 -3 c-4 -8 -8 -15 -10 -15 -2 0 -4 7 -4 15 0 8 4 15 10 15 5 0 7 -7 4
-15z"/>
<path d="M878 2443 c7 -3 16 -2 19 1 4 3 -2 6 -13 5 -11 0 -14 -3 -6 -6z"/>
<path d="M916 2423 c-10 -32 3 -53 34 -53 16 0 32 5 35 10 3 6 14 10 23 10 11
0 18 8 19 20 1 13 -4 20 -15 20 -9 0 -33 3 -53 6 -31 5 -38 3 -43 -13z m44 -3
c0 -5 -4 -10 -10 -10 -5 0 -10 5 -10 10 0 6 5 10 10 10 6 0 10 -4 10 -10z m40
-6 c0 -8 -19 -13 -24 -6 -3 5 1 9 9 9 8 0 15 -2 15 -3z"/>
<path d="M1154 2404 c-7 -39 4 -58 32 -52 25 4 29 33 10 63 -23 34 -34 31 -42
-11z m36 -3 c0 -6 -4 -13 -10 -16 -5 -3 -10 1 -10 9 0 9 5 16 10 16 6 0 10 -4
10 -9z"/>
<path d="M1643 2424 c-13 -6 -38 -72 -30 -81 7 -7 77 36 77 47 0 32 -18 45
-47 34z"/>
<path d="M2298 2424 c-4 -3 -32 -16 -65 -30 -32 -13 -49 -24 -38 -24 11 0 40
10 65 22 25 12 49 20 53 19 5 -1 6 3 2 9 -7 12 -10 12 -17 4z"/>
<path d="M780 2410 c8 -5 20 -10 25 -10 6 0 3 5 -5 10 -8 5 -19 10 -25 10 -5
0 -3 -5 5 -10z"/>
<path d="M1869 2399 c-28 -28 -22 -64 11 -64 22 0 25 5 28 43 4 47 -7 53 -39
21z m21 -38 c-6 -12 -15 -21 -20 -21 -16 0 -11 32 8 53 14 16 17 17 20 4 2 -9
-2 -25 -8 -36z"/>
<path d="M810 2390 c-8 -5 -10 -10 -5 -10 6 0 17 5 25 10 8 5 11 10 5 10 -5 0
-17 -5 -25 -10z"/>
<path d="M2170 2340 c-11 -8 -7 -9 15 -4 37 8 45 14 19 14 -10 0 -26 -5 -34
-10z"/>
<path d="M938 2293 c12 -2 30 -2 40 0 9 3 -1 5 -23 4 -22 0 -30 -2 -17 -4z"/>
<path d="M1028 2283 c6 -2 18 -2 25 0 6 3 1 5 -13 5 -14 0 -19 -2 -12 -5z"/>
<path d="M1005 2245 c4 -11 7 -29 7 -40 -1 -15 1 -16 7 -6 7 11 11 10 20 -5 6
-11 11 -14 11 -8 0 5 -12 26 -26 45 -15 19 -23 25 -19 14z"/>
<path d="M1150 2245 c0 -5 5 -17 10 -25 5 -8 10 -10 10 -5 0 6 -5 17 -10 25
-5 8 -10 11 -10 5z"/>
<path d="M1420 2235 c-7 -8 -16 -12 -21 -9 -15 9 -10 -25 8 -59 13 -25 18 -28
21 -14 2 9 8 17 13 17 5 0 9 18 9 40 0 42 -9 50 -30 25z m11 -38 c-8 -8 -11
-7 -11 4 0 9 3 19 7 23 4 4 9 2 11 -4 3 -7 -1 -17 -7 -23z"/>
<path d="M1053 2217 c-3 -6 -1 -7 5 -3 6 3 18 -4 28 -16 12 -17 15 -18 10 -5
-3 10 -6 22 -6 26 0 11 -30 9 -37 -2z"/>
<path d="M1966 2212 c-3 -5 1 -9 9 -9 8 0 12 4 9 9 -3 4 -7 8 -9 8 -2 0 -6 -4
-9 -8z"/>
<path d="M1590 2184 c0 -10 5 -26 10 -34 8 -11 9 -7 4 15 -8 37 -14 45 -14 19z"/>
<path d="M1943 2175 c-3 -9 -3 -18 -1 -21 3 -3 8 4 11 16 6 23 -1 27 -10 5z"/>
<path d="M1420 2101 c0 -5 7 -15 17 -22 15 -13 15 -12 4 9 -12 23 -21 28 -21
13z"/>
<path d="M1287 2087 c-3 -8 1 -14 9 -14 16 0 19 13 5 21 -5 3 -11 0 -14 -7z"/>
<path d="M1866 2085 c-3 -8 -1 -15 4 -15 13 0 22 18 11 24 -5 3 -11 -1 -15 -9z"/>
<path d="M1655 1909 c-16 -5 -75 -11 -130 -13 -55 -3 -125 -9 -155 -14 -34 -6
-88 -5 -140 0 -143 16 -235 7 -309 -30 -36 -18 -80 -32 -98 -32 -19 0 -44 -5
-56 -12 -12 -7 -32 -11 -45 -9 -38 4 -90 -36 -101 -77 -28 -111 -30 -132 -21
-157 6 -15 10 -54 10 -88 0 -71 12 -94 80 -157 50 -46 74 -55 128 -46 20 4 81
6 136 5 84 -1 105 -4 145 -25 48 -27 75 -27 181 -3 35 8 55 6 89 -6 24 -8 59
-15 79 -15 47 0 166 22 173 32 3 5 20 3 39 -3 45 -16 304 -6 351 14 54 23 123
37 160 31 23 -3 47 1 74 15 21 12 50 21 63 21 13 0 43 17 68 37 35 30 48 49
60 93 9 30 20 65 25 78 13 34 10 83 -6 112 -8 14 -14 39 -15 55 0 52 -23 72
-101 90 -39 8 -93 27 -120 40 -26 14 -59 25 -71 24 -33 -1 34 -32 142 -65 47
-15 90 -31 95 -36 6 -6 3 -7 -7 -3 -12 5 -20 1 -24 -9 -6 -15 -8 -15 -26 1
-25 23 -73 27 -55 4 10 -12 9 -13 -12 -2 -19 11 -22 11 -16 0 6 -9 3 -11 -9
-6 -14 5 -15 3 -6 -13 9 -16 8 -18 -6 -13 -11 4 -15 2 -11 -4 4 -6 -4 -9 -21
-7 -15 2 -21 1 -15 -2 25 -11 -12 -31 -68 -37 -40 -5 -47 -4 -29 3 25 10 25
10 -3 6 -21 -3 -27 0 -23 10 3 8 4 14 3 14 -1 0 -20 -7 -42 -14 l-40 -15 42
-7 c24 -3 40 -11 37 -16 -4 -5 3 -16 15 -24 12 -9 19 -20 16 -25 -4 -5 2 -6
12 -2 15 6 16 5 3 -8 -8 -9 -24 -14 -37 -11 -18 3 -22 1 -17 -12 5 -12 2 -15
-10 -10 -9 3 -16 12 -16 20 0 8 -10 14 -26 14 -14 0 -34 5 -45 11 -14 7 -35 7
-65 1 -24 -5 -44 -6 -44 -2 0 12 -57 17 -98 9 l-37 -7 33 -1 c17 0 32 -5 32
-10 0 -13 -45 -22 -113 -22 -31 -1 -57 -6 -57 -11 0 -6 24 -8 60 -5 33 2 57 0
54 -4 -3 -5 -24 -10 -47 -10 -30 -2 -34 -3 -14 -6 45 -7 30 -18 -28 -20 -33
-1 -61 -8 -70 -17 -20 -19 -19 -28 1 -24 10 2 19 -3 21 -9 3 -8 -5 -14 -19
-15 -12 0 -29 -2 -37 -2 -8 -1 -15 -10 -17 -20 -1 -10 -8 -24 -15 -30 -9 -8
-10 -4 -7 17 3 15 1 30 -4 33 -5 3 -7 13 -4 21 4 10 2 13 -8 10 -8 -3 -17 0
-20 8 -3 9 0 12 8 9 8 -3 17 -1 21 5 10 18 38 13 31 -5 -3 -8 -2 -13 3 -9 5 3
12 -1 14 -7 3 -7 6 -3 6 9 1 12 7 24 14 26 9 4 9 8 -1 15 -8 5 -13 13 -12 18
1 5 -4 10 -12 12 -9 2 -8 0 2 -7 12 -9 9 -11 -15 -12 -29 -1 -29 -1 -5 -9 16
-5 1 -6 -40 -4 -36 1 -73 3 -83 3 -11 1 -15 6 -11 12 4 8 -1 9 -15 4 -13 -4
-28 -1 -36 5 -12 10 -15 9 -15 -5 0 -11 -5 -15 -15 -11 -8 3 -22 9 -30 12 -8
3 -15 1 -15 -5 0 -6 -16 -11 -35 -11 -19 0 -35 5 -35 11 0 8 -4 8 -14 0 -11
-9 -15 -8 -20 6 -5 11 -1 22 10 30 15 11 21 10 36 -3 16 -16 18 -15 27 9 9 22
16 26 53 27 91 2 100 3 87 11 -8 4 -45 6 -83 4 -39 -2 -75 0 -81 4 -17 14 -55
20 -61 10 -3 -5 -10 -6 -17 -2 -6 3 -35 8 -65 10 l-55 3 24 -19 c22 -18 25
-18 30 -3 6 16 7 16 14 0 4 -10 15 -18 25 -18 10 0 26 -7 34 -15 13 -13 13
-20 4 -35 -7 -11 -15 -15 -18 -10 -10 17 -114 44 -118 31 -2 -6 -10 -11 -18
-11 -9 0 -13 -4 -9 -9 3 -6 -7 -6 -27 0 -18 5 -34 9 -35 9 -2 0 -3 3 -3 8 0 4
19 7 43 5 l42 -2 -40 8 c-22 4 -53 15 -69 24 -16 8 -35 13 -44 10 -10 -4 -13
-2 -8 5 4 7 -7 17 -30 27 -50 21 -56 18 -14 -6 19 -11 27 -18 17 -15 -11 4
-29 9 -42 12 -19 5 -22 12 -21 44 1 29 4 36 13 28 7 -6 11 -14 8 -17 -2 -4 3
-8 12 -8 11 0 6 9 -15 29 -37 33 -39 38 -12 38 11 0 30 10 41 21 20 20 25 20
60 9 22 -7 39 -17 39 -22 0 -5 -6 -6 -12 -2 -10 5 -10 4 -2 -5 9 -10 17 -10
32 -2 23 12 72 -1 72 -19 0 -5 9 -10 21 -10 11 0 29 -4 39 -10 14 -8 21 -5 34
15 9 13 22 22 29 19 14 -5 40 20 50 49 6 15 4 16 -14 7 -11 -6 -17 -15 -14
-19 10 -16 -36 -19 -66 -4 -16 8 -36 12 -44 9 -8 -3 -15 -1 -15 4 0 6 -5 10
-11 10 -5 0 -8 -4 -5 -9 8 -13 -75 -24 -87 -12 -7 7 2 16 29 26 21 9 53 23 70
30 46 21 180 29 234 14 51 -14 166 -14 205 1 19 7 25 6 25 -4 0 -9 -18 -16
-47 -21 -27 -4 -56 -11 -66 -17 -12 -6 -23 -6 -32 2 -16 13 -81 10 -77 -4 3
-14 149 -11 167 4 11 9 15 9 15 1 0 -8 5 -9 19 -2 14 8 20 7 25 -4 6 -17 78
-20 111 -4 13 6 -2 7 -45 3 l-65 -6 27 21 c15 12 30 20 35 19 4 -1 20 5 34 15
20 14 32 15 52 8 17 -7 28 -7 32 -1 4 6 14 10 23 10 9 0 26 7 36 15 22 17 15
18 -29 4z m-162 -29 c-13 -5 -23 -14 -23 -20 0 -6 -5 -8 -11 -5 -13 8 19 35
41 34 8 0 5 -4 -7 -9z m-843 -176 c0 -22 -16 -17 -17 6 -1 11 2 18 8 15 5 -4
9 -13 9 -21z m1655 16 c3 -5 1 -10 -4 -10 -6 0 -11 5 -11 10 0 6 2 10 4 10 3
0 8 -4 11 -10z m-15 -30 c6 -11 9 -20 7 -20 -2 0 -12 9 -22 20 -10 11 -13 20
-7 20 6 0 16 -9 22 -20z m-65 -10 c3 -5 1 -10 -4 -10 -6 0 -11 5 -11 10 0 6 2
10 4 10 3 0 8 -4 11 -10z m-138 -26 c-3 -3 -12 -4 -19 -1 -8 3 -5 6 6 6 11 1
17 -2 13 -5z m120 -8 c4 -5 0 -6 -9 -3 -10 4 -21 0 -26 -9 -7 -13 -11 -12 -25
4 -16 18 -16 19 17 17 19 0 39 -5 43 -9z m204 -19 c-10 -9 -11 -8 -5 6 3 10 9
15 12 12 3 -3 0 -11 -7 -18z m-296 3 c-3 -5 -11 -10 -16 -10 -6 0 -7 5 -4 10
3 6 11 10 16 10 6 0 7 -4 4 -10z m-1258 -26 c-3 -3 -12 -4 -19 -1 -8 3 -5 6 6
6 11 1 17 -2 13 -5z m-222 -12 c-2 -3 0 -13 6 -24 9 -18 8 -18 -10 -8 -24 12
-28 37 -6 37 8 0 13 -2 10 -5z m375 -12 c0 -5 -4 -10 -10 -10 -5 0 -10 5 -10
10 0 6 5 10 10 10 6 0 10 -4 10 -10z m848 -20 c27 0 33 -3 22 -9 -8 -6 -18 -7
-22 -4 -13 7 -39 -17 -32 -31 3 -6 -1 -3 -9 6 -9 12 -22 16 -38 12 -47 -11
-66 -12 -79 -4 -7 4 11 10 44 14 37 5 54 11 49 18 -4 8 0 9 11 5 10 -4 34 -7
54 -7z m57 0 c3 -5 1 -10 -4 -10 -6 0 -11 5 -11 10 0 6 2 10 4 10 3 0 8 -4 11
-10z m-1015 -16 c0 4 14 0 30 -9 17 -9 30 -11 30 -5 0 5 5 10 11 10 6 0 8 -8
5 -17 -5 -15 -4 -15 9 1 8 11 15 16 16 10 0 -5 4 0 9 11 6 14 9 16 9 4 1 -20
-37 -61 -50 -54 -5 4 -9 -2 -9 -12 0 -14 -2 -15 -9 -5 -4 8 -12 13 -17 12 -5
-1 -10 4 -13 11 -2 7 1 9 9 4 8 -5 11 -3 8 6 -2 7 -19 17 -36 21 -18 5 -32 13
-32 20 0 7 5 6 15 -2 8 -7 15 -10 15 -6z m154 -9 c-4 -8 -10 -12 -15 -9 -11 6
-2 24 11 24 5 0 7 -7 4 -15z m-404 -16 c0 -6 -4 -7 -10 -4 -5 3 -10 11 -10 16
0 6 5 7 10 4 6 -3 10 -11 10 -16z m1781 -6 c-12 -20 -14 -14 -5 12 4 9 9 14
11 11 3 -2 0 -13 -6 -23z m-1351 7 c0 -5 -4 -10 -10 -10 -5 0 -10 5 -10 10 0
6 5 10 10 10 6 0 10 -4 10 -10z m1027 -12 c-3 -8 -6 -5 -6 6 -1 11 2 17 5 13
3 -3 4 -12 1 -19z m161 4 c2 -6 -1 -12 -8 -12 -6 0 -8 5 -5 10 3 6 1 10 -5 10
-6 0 -14 -10 -19 -22 -8 -21 -8 -21 -13 4 -4 23 -2 26 20 25 14 -1 27 -8 30
-15z m-1361 -14 c-3 -8 -6 -5 -6 6 -1 11 2 17 5 13 3 -3 4 -12 1 -19z m298 13
c3 -5 0 -13 -6 -17 -7 -4 -9 -3 -5 4 3 6 -3 12 -16 15 -23 4 -23 4 -1 6 12 0
24 -3 28 -8z m32 -13 c-3 -8 -6 -5 -6 6 -1 11 2 17 5 13 3 -3 4 -12 1 -19z
m160 3 c0 -11 -5 -18 -9 -15 -4 3 -5 11 -1 19 7 21 12 19 10 -4z m373 9 c0 -5
-2 -10 -4 -10 -3 0 -8 5 -11 10 -3 6 -1 10 4 10 6 0 11 -4 11 -10z m231 -12
c-4 -13 -6 -30 -4 -38 3 -10 1 -9 -7 2 -8 13 -8 23 0 38 14 27 22 25 11 -2z
m159 -53 c8 20 9 20 9 -1 1 -11 -5 -29 -13 -40 -13 -17 -15 -18 -21 -2 -4 9
-4 34 -1 55 3 21 6 45 7 53 2 8 5 -7 7 -35 3 -38 6 -45 12 -30z m-1519 48 c13
-16 12 -17 -3 -4 -10 7 -18 15 -18 17 0 8 8 3 21 -13z m634 -33 c2 -11 0 -20
-6 -20 -5 0 -9 9 -9 19 0 11 -3 28 -6 38 -5 17 -5 17 6 0 6 -9 13 -26 15 -37z
m166 28 c19 -24 25 -43 10 -33 -5 3 -12 1 -16 -5 -3 -5 2 -10 12 -10 15 0 16
-2 3 -10 -8 -5 -26 -9 -40 -9 -17 1 -19 3 -7 6 9 2 17 8 17 13 0 5 -7 7 -15 4
-10 -4 -15 0 -15 11 0 10 5 15 14 12 9 -4 12 2 10 19 -3 30 3 30 27 2z m180 8
c11 7 12 -16 0 -34 -6 -11 -11 -10 -25 3 -9 9 -16 20 -16 25 0 12 24 19 28 8
2 -4 8 -6 13 -2z m54 -2 c9 -9 19 -14 22 -10 3 3 12 1 19 -5 12 -10 66 -8 122
5 20 4 22 3 12 -9 -7 -8 -8 -15 -3 -15 12 0 33 -44 33 -70 0 -20 -31 -22 -38
-2 -2 7 -9 9 -15 6 -7 -3 -1 3 12 14 l24 19 -22 22 c-23 23 -41 20 -40 -7 0
-10 3 -12 6 -5 4 10 9 10 26 1 21 -12 21 -12 -8 -18 -20 -3 -31 -12 -35 -29
-5 -23 -6 -23 -23 -7 -9 10 -17 12 -17 6 0 -7 -12 -10 -28 -9 -15 2 -33 0 -40
-5 -10 -6 -10 -2 -1 18 9 20 9 28 -4 40 -8 9 -13 26 -11 38 2 13 2 17 -2 10
-7 -15 -24 -6 -24 14 0 19 15 18 35 -2z m278 1 c4 -8 2 -17 -3 -20 -6 -4 -10
3 -10 14 0 25 6 27 13 6z m94 -5 c1 -11 -2 -20 -5 -20 -4 0 -8 9 -9 20 -1 11
2 20 5 20 4 0 8 -9 9 -20z m-1013 -12 c-3 -4 -14 -8 -25 -8 -10 0 -19 4 -19 8
0 4 11 8 24 8 14 0 22 -4 20 -8z m79 -3 c9 2 15 -1 11 -6 -3 -5 -10 -6 -16 -3
-7 5 -9 -6 -5 -32 l6 -39 -15 33 c-8 18 -19 30 -24 27 -6 -3 -10 0 -10 8 0 20
11 28 24 18 6 -5 19 -7 29 -6z m1311 -9 c-6 -16 -24 -23 -24 -8 0 10 22 33 27
28 2 -2 1 -11 -3 -20z m-1204 4 c0 -5 -6 -10 -12 -10 -9 0 -8 -4 2 -10 12 -7
8 -10 -15 -10 -21 0 -26 3 -16 9 10 6 6 11 -15 19 -28 10 -28 10 14 11 23 1
42 -3 42 -9z m30 -16 c0 -8 -4 -14 -10 -14 -5 0 -10 9 -10 21 0 11 5 17 10 14
6 -3 10 -13 10 -21z m94 15 c-2 -4 -13 -7 -24 -6 -10 1 -17 4 -14 8 2 4 13 7
24 6 10 -1 17 -4 14 -8z m563 -14 c0 -8 -6 -16 -14 -19 -8 -3 -13 2 -13 14 0
11 6 20 13 20 8 0 14 -7 14 -15z m353 5 c0 -5 -5 -10 -11 -10 -5 0 -7 5 -4 10
3 6 8 10 11 10 2 0 4 -4 4 -10z m-880 -10 c0 -5 -15 -10 -32 -10 -25 0 -29 3
-18 10 20 13 50 13 50 0z m566 -18 c-1 -24 -4 -27 -28 -24 -15 2 -25 9 -22 14
3 5 9 7 12 4 3 -3 11 3 19 14 18 26 20 25 19 -8z m-632 3 c3 -8 1 -15 -3 -15
-5 0 -11 7 -15 15 -3 8 -1 15 3 15 5 0 11 -7 15 -15z m284 9 c-3 -3 -23 -7
-44 -10 -28 -3 -35 -1 -24 6 16 10 78 14 68 4z m617 -23 c3 -18 1 -20 -16 -11
-15 9 -17 13 -7 24 15 17 17 15 23 -13z m-1038 3 c-3 -3 -12 -4 -19 -1 -8 3
-5 6 6 6 11 1 17 -2 13 -5z m46 -1 c-7 -2 -19 -2 -25 0 -7 3 -2 5 12 5 14 0
19 -2 13 -5z m61 -8 c-4 -8 -8 -15 -10 -15 -2 0 -4 7 -4 15 0 8 4 15 10 15 5
0 7 -7 4 -15z m79 8 c-7 -2 -19 -2 -25 0 -7 3 -2 5 12 5 14 0 19 -2 13 -5z
m190 -10 c-7 -2 -21 -2 -30 0 -10 3 -4 5 12 5 17 0 24 -2 18 -5z m-352 -12
c-8 -5 -20 -7 -28 -4 -21 8 -15 13 15 13 20 0 23 -3 13 -9z m179 -1 c0 -5 -9
-10 -20 -10 -11 0 -20 5 -20 10 0 6 9 10 20 10 11 0 20 -4 20 -10z m220 0 c0
-5 -5 -10 -11 -10 -5 0 -7 5 -4 10 3 6 8 10 11 10 2 0 4 -4 4 -10z m-659 -23
c-10 -9 -11 -8 -5 6 3 10 9 15 12 12 3 -3 0 -11 -7 -18z m866 1 c-3 -8 -6 -5
-6 6 -1 11 2 17 5 13 3 -3 4 -12 1 -19z m257 14 c3 -5 -1 -9 -9 -9 -8 0 -15 4
-15 9 0 4 4 8 9 8 6 0 12 -4 15 -8z m295 5 c-2 -1 -13 -9 -24 -17 -19 -14 -19
-14 -6 3 7 9 18 17 24 17 6 0 8 -1 6 -3z m-838 -30 c-10 -9 -11 -8 -5 6 3 10
9 15 12 12 3 -3 0 -11 -7 -18z m451 13 c6 0 8 -7 5 -15 -3 -7 3 -24 14 -37 11
-13 18 -17 14 -10 -4 7 0 12 9 12 16 0 22 -25 9 -33 -5 -2 -26 -8 -48 -11 -36
-7 -38 -6 -21 7 17 12 17 14 2 20 -12 5 -15 13 -10 33 4 17 2 30 -7 36 -11 8
-10 8 4 4 10 -3 23 -6 29 -6z m25 -12 c-3 -8 -6 -5 -6 6 -1 11 2 17 5 13 3 -3
4 -12 1 -19z m-69 -6 c2 -7 -1 -12 -7 -12 -6 0 -11 -7 -11 -15 0 -8 -4 -15 -9
-15 -15 0 -23 19 -16 39 6 20 36 22 43 3z m228 6 c4 -7 4 -10 -1 -6 -4 4 -16
3 -26 -3 -12 -6 -19 -6 -19 0 0 5 8 12 18 14 9 3 18 5 19 6 1 0 5 -5 9 -11z
m-659 -4 c-10 -10 -147 -15 -147 -5 0 4 34 9 77 9 42 1 73 -1 70 -4z m365 -16
c-12 -12 -35 -1 -27 12 3 5 13 6 21 3 10 -4 12 -9 6 -15z m-917 -32 c15 -6 17
-9 6 -16 -20 -12 -34 -4 -48 26 -11 25 -11 25 5 12 9 -8 26 -18 37 -22z m850
24 c-28 -12 -63 -12 -70 0 -4 6 12 10 42 9 36 0 43 -3 28 -9z m301 -9 c9 7 14
7 14 1 0 -11 -24 -22 -50 -22 -13 0 -17 5 -13 20 5 17 7 18 20 4 12 -11 18
-12 29 -3z m-1233 -17 c-2 -7 -15 -15 -28 -18 -13 -3 -30 -8 -38 -12 -8 -3
-17 2 -21 12 -5 13 -3 14 6 7 14 -12 58 0 58 15 0 5 6 9 14 9 8 0 12 -6 9 -13z
m867 -26 c0 -6 -6 -5 -15 2 -8 7 -15 14 -15 16 0 2 7 1 15 -2 8 -4 15 -11 15
-16z m-630 -3 c7 -8 8 -15 2 -15 -5 0 -15 7 -22 15 -7 8 -8 15 -2 15 5 0 15
-7 22 -15z m70 -37 c0 -13 -23 -5 -28 10 -2 7 2 10 12 6 9 -3 16 -11 16 -16z"/>
<path d="M1740 1440 c0 -6 4 -9 9 -6 5 4 12 1 14 -4 3 -6 4 -5 3 2 -3 15 -26
23 -26 8z"/>
<path d="M1965 1320 c10 -11 20 -18 23 -15 7 6 -18 35 -31 35 -5 0 -2 -9 8
-20z"/>
<path d="M1718 1904 c-5 -4 -8 -12 -8 -18 0 -7 3 -7 8 1 8 12 13 11 179 -16
38 -7 65 -5 99 5 35 10 57 11 83 4 45 -12 51 -7 10 10 -25 11 -41 11 -75 2
-54 -15 -146 -16 -160 -2 -13 13 -127 25 -136 14z"/>
<path d="M1685 1880 c3 -5 1 -10 -5 -10 -6 0 -9 -4 -6 -9 7 -11 -17 -21 -52
-21 -35 0 -16 -16 28 -24 26 -4 42 -1 60 14 l25 19 -22 20 c-23 22 -38 28 -28
11z"/>
<path d="M1774 1854 c-16 -7 -23 -13 -16 -13 7 -1 10 -6 7 -12 -5 -7 -1 -7 11
-1 11 6 30 14 44 19 23 9 23 10 4 15 -12 3 -34 0 -50 -8z"/>
<path d="M1000 1850 c-13 -8 -12 -10 3 -10 9 0 17 5 17 10 0 12 -1 12 -20 0z"/>
<path d="M1086 1841 c-12 -5 -15 -10 -9 -14 6 -4 16 0 23 8 14 17 13 17 -14 6z"/>
<path d="M1806 1822 c-27 -9 -44 -18 -38 -20 7 -2 29 2 49 9 21 7 41 12 46 11
4 -1 7 3 7 8 0 13 -5 12 -64 -8z"/>
<path d="M1028 1823 c7 -3 16 -2 19 1 4 3 -2 6 -13 5 -11 0 -14 -3 -6 -6z"/>
<path d="M1881 1804 c-14 -10 -47 -17 -82 -19 -33 -1 -65 -7 -71 -13 -9 -9 -8
-12 4 -12 9 0 19 4 22 9 7 11 97 2 114 -12 11 -8 11 -12 0 -18 -10 -7 -9 -9 3
-9 9 0 19 7 23 15 3 8 13 15 23 14 16 0 16 -1 -2 -9 -15 -6 -8 -9 27 -9 55 -1
69 -15 31 -30 -26 -10 -26 -11 -3 -6 14 2 33 5 43 5 10 0 15 5 12 10 -12 20
15 39 48 34 l32 -5 -34 15 c-18 9 -39 16 -46 16 -7 0 -15 6 -18 13 -3 9 -8 8
-22 -3 -11 -9 -16 -10 -11 -2 9 16 -22 28 -36 14 -12 -12 -41 -4 -32 9 8 13 2
11 -25 -7z"/>
<path d="M1070 1800 c-9 -6 -10 -10 -3 -10 6 0 15 5 18 10 8 12 4 12 -15 0z"/>
<path d="M1560 1790 c-8 -5 -46 -10 -85 -11 -47 0 -62 -3 -45 -8 14 -4 70 -3
125 3 70 7 93 12 75 17 -36 10 -53 10 -70 -1z"/>
<path d="M1708 1793 c6 -2 18 -2 25 0 6 3 1 5 -13 5 -14 0 -19 -2 -12 -5z"/>
<path d="M787 1773 c-3 -5 2 -9 11 -9 9 -1 26 -5 37 -9 14 -5 17 -5 10 2 -14
15 -52 25 -58 16z"/>
<path d="M1255 1773 c-11 -3 -24 -9 -30 -15 -6 -6 -3 -7 10 -2 11 4 17 4 13 0
-3 -4 -26 -10 -50 -12 -51 -5 -138 -34 -138 -46 0 -4 -10 -8 -22 -9 -13 0 -17
-3 -10 -6 6 -2 31 5 55 16 23 11 75 23 114 27 62 6 73 4 79 -10 3 -9 13 -16
21 -16 8 0 12 4 9 9 -6 9 36 31 59 31 8 0 15 7 15 16 0 13 -8 15 -39 12 -22
-2 -37 0 -35 4 5 9 -18 9 -51 1z"/>
<path d="M2325 1770 c3 -5 11 -10 16 -10 6 0 7 5 4 10 -3 6 -11 10 -16 10 -6
0 -7 -4 -4 -10z"/>
<path d="M2150 1760 c0 -6 7 -10 15 -10 8 0 15 2 15 4 0 2 -7 6 -15 10 -8 3
-15 1 -15 -4z"/>
<path d="M880 1751 c0 -4 -16 -7 -35 -5 -19 1 -37 -2 -40 -7 -4 -5 2 -6 11 -2
12 4 15 3 10 -5 -5 -8 3 -12 24 -12 17 0 29 -4 26 -8 -2 -4 3 -9 12 -10 63 -7
83 -9 61 -5 -15 2 -35 14 -45 25 -19 21 -19 21 6 15 24 -6 24 -5 6 8 -22 17
-36 19 -36 6z"/>
<path d="M2115 1750 c3 -5 11 -10 16 -10 6 0 7 5 4 10 -3 6 -11 10 -16 10 -6
0 -7 -4 -4 -10z"/>
<path d="M1608 1743 c6 -2 18 -2 25 0 6 3 1 5 -13 5 -14 0 -19 -2 -12 -5z"/>
<path d="M1488 1723 c12 -2 32 -2 45 0 12 2 2 4 -23 4 -25 0 -35 -2 -22 -4z"/>
<path d="M2058 1723 c7 -3 16 -2 19 1 4 3 -2 6 -13 5 -11 0 -14 -3 -6 -6z"/>
<path d="M1418 1713 c6 -2 18 -2 25 0 6 3 1 5 -13 5 -14 0 -19 -2 -12 -5z"/>
<path d="M1708 1713 c7 -3 16 -2 19 1 4 3 -2 6 -13 5 -11 0 -14 -3 -6 -6z"/>
<path d="M1490 1700 c-31 -6 -27 -8 30 -10 36 -2 74 -3 85 -2 11 1 30 2 43 3
12 1 22 6 22 10 0 5 -13 8 -30 7 -16 -1 -30 -6 -30 -11 0 -5 -8 -6 -17 -3 -40
11 -70 13 -103 6z"/>
<path d="M837 1689 c7 -7 15 -10 18 -7 3 3 -2 9 -12 12 -14 6 -15 5 -6 -5z"/>
<path d="M1825 1690 l-20 -9 20 0 c11 0 38 4 60 8 l40 9 -40 0 c-22 0 -49 -3
-60 -8z"/>
<path d="M1743 1673 c9 -2 23 -2 30 0 6 3 -1 5 -18 5 -16 0 -22 -2 -12 -5z"/>
<path d="M828 1663 c7 -3 16 -2 19 1 4 3 -2 6 -13 5 -11 0 -14 -3 -6 -6z"/>
<path d="M1305 1660 c39 -4 76 -5 83 -3 6 3 30 -2 52 -11 45 -18 70 -20 70 -7
0 12 -67 22 -180 26 -89 3 -91 2 -25 -5z"/>
<path d="M1668 1663 c7 -3 16 -2 19 1 4 3 -2 6 -13 5 -11 0 -14 -3 -6 -6z"/>
<path d="M1864 1662 c3 -6 19 -12 36 -14 37 -6 27 7 -13 16 -17 4 -26 3 -23
-2z"/>
<path d="M1940 1666 c0 -2 15 -6 34 -8 19 -2 32 0 30 4 -5 8 -64 12 -64 4z"/>
<path d="M918 1653 c7 -3 16 -2 19 1 4 3 -2 6 -13 5 -11 0 -14 -3 -6 -6z"/>
<path d="M1545 1650 c3 -5 8 -10 11 -10 2 0 4 5 4 10 0 6 -5 10 -11 10 -5 0
-7 -4 -4 -10z"/>
<path d="M1820 1640 c0 -6 7 -10 15 -10 8 0 15 2 15 4 0 2 -7 6 -15 10 -8 3
-15 1 -15 -4z"/>
<path d="M1613 1623 c9 -2 23 -2 30 0 6 3 -1 5 -18 5 -16 0 -22 -2 -12 -5z"/>
<path d="M1438 1593 c12 -2 32 -2 45 0 12 2 2 4 -23 4 -25 0 -35 -2 -22 -4z"/>
<path d="M1558 1553 c6 -2 18 -2 25 0 6 3 1 5 -13 5 -14 0 -19 -2 -12 -5z"/>
<path d="M1568 1533 c7 -3 16 -2 19 1 4 3 -2 6 -13 5 -11 0 -14 -3 -6 -6z"/>
<path d="M2306 1291 c-16 -3 -31 -12 -33 -18 -3 -9 5 -9 31 2 38 16 108 19
141 5 17 -6 13 -9 -20 -14 -70 -12 -71 -14 -18 -15 29 0 62 -5 75 -10 13 -5
42 -14 65 -21 26 -8 59 -30 88 -60 46 -47 47 -48 26 -59 -23 -13 -45 -6 -35
10 3 6 0 10 -7 8 -28 -3 -50 1 -45 10 3 4 0 16 -8 26 -10 14 -16 15 -34 6 -20
-10 -22 -9 -19 11 2 23 -18 32 -39 16 -6 -5 -24 -2 -40 7 -18 9 -32 11 -38 5
-15 -15 -24 -12 -31 9 -5 18 -8 18 -35 4 -16 -8 -34 -12 -39 -9 -5 4 -13 1
-17 -5 -5 -8 -3 -9 6 -4 9 5 11 4 6 -4 -6 -8 -12 -9 -20 -2 -7 6 -15 9 -18 6
-2 -2 -22 -7 -44 -11 -21 -3 -44 -10 -50 -15 -6 -5 -13 -6 -17 -3 -3 3 -20 -1
-39 -9 -18 -8 -39 -17 -46 -19 -7 -2 29 -3 80 -3 86 0 96 -2 133 -28 26 -19
46 -26 60 -22 11 3 59 9 107 12 87 6 87 6 123 -26 40 -34 50 -37 62 -17 11 18
69 47 78 38 5 -4 5 -1 1 6 -4 6 -2 12 3 12 6 0 11 7 11 15 0 8 -6 12 -14 9 -9
-4 -34 14 -63 44 -33 34 -62 54 -91 61 -23 7 -42 16 -42 21 0 31 -112 49 -194
31z m52 -106 c1 -14 -2 -25 -6 -25 -7 0 -8 31 -3 48 3 8 7 -2 9 -23z"/>
<path d="M2113 1273 c-53 -30 -88 -67 -90 -93 -1 -23 0 -23 10 -6 41 66 94
106 139 106 l23 0 -25 -20 c-25 -19 -25 -19 28 -3 41 13 49 19 35 24 -33 13
-88 9 -120 -8z"/>
<path d="M484 1238 c-12 -17 -15 -18 -10 -5 4 12 2 17 -6 15 -22 -7 -21 -46 1
-65 12 -9 21 -21 21 -25 0 -13 -35 -9 -56 7 -31 23 -35 18 -29 -32 6 -42 3
-53 -24 -93 -40 -58 -42 -106 -5 -120 37 -15 40 -12 10 11 -14 11 -26 27 -26
34 0 21 22 65 30 60 4 -3 15 4 25 15 10 11 15 20 10 20 -4 0 0 11 9 25 14 21
14 24 1 19 -11 -4 -15 0 -15 16 0 22 2 22 98 16 53 -3 108 -7 122 -8 14 0 39
5 57 13 28 11 37 11 66 -3 34 -16 35 -16 30 3 -7 27 -29 36 -109 49 -53 8 -74
16 -89 35 -12 14 -27 25 -34 25 -22 0 19 -40 56 -56 18 -8 47 -14 65 -14 29 0
30 -1 13 -13 -21 -16 -65 -14 -75 3 -4 6 -10 12 -13 12 -24 0 -46 13 -50 30
-3 11 -10 17 -16 13 -7 -3 -11 2 -11 14 0 28 -25 27 -46 -1z"/>
<path d="M1935 1191 c-22 -10 -59 -39 -83 -65 -48 -51 -52 -53 -174 -60 -70
-4 -94 -2 -125 13 -21 10 -73 21 -118 24 -98 7 -88 1 20 -12 63 -8 83 -14 97
-31 10 -12 18 -27 18 -34 0 -14 -59 -55 -96 -66 -17 -5 -22 -9 -11 -9 27 -1
78 27 120 68 37 35 40 36 128 40 l90 3 65 60 c40 38 80 65 106 73 24 8 34 14
23 14 -11 0 -38 -8 -60 -18z"/>
<path d="M738 1193 c6 -2 18 -2 25 0 6 3 1 5 -13 5 -14 0 -19 -2 -12 -5z"/>
<path d="M780 1182 c0 -18 47 -52 71 -51 22 0 22 1 4 8 -11 5 -29 18 -39 30
-20 22 -36 27 -36 13z"/>
<path d="M1030 1140 c0 -7 -17 -28 -37 -47 -34 -31 -35 -34 -13 -28 14 4 52
20 85 36 33 16 80 34 105 39 l45 9 -55 -5 c-76 -7 -82 -7 -107 1 -16 5 -23 3
-23 -5z"/>
<path d="M905 1130 c-28 -7 -28 -8 -5 -9 14 0 32 4 40 9 17 11 8 11 -35 0z"/>
<path d="M1236 1125 c10 -8 33 -14 49 -14 27 0 25 2 -15 15 -56 17 -58 17 -34
-1z"/>
<path d="M1980 1120 c-18 -12 -2 -12 25 0 13 6 15 9 5 9 -8 0 -22 -4 -30 -9z"/>
<path d="M545 1077 c17 -7 82 -38 145 -71 83 -43 124 -59 150 -57 19 0 52 -2
73 -5 l38 -6 -6 -40 c-9 -49 -1 -46 51 22 26 33 45 50 60 50 12 0 45 5 72 11
37 9 79 9 167 1 84 -8 131 -8 168 -1 70 15 77 25 31 44 -48 20 -154 28 -154
12 0 -9 -2 -9 -8 -1 -8 14 -62 21 -79 11 -6 -4 -15 -2 -18 4 -4 5 -13 8 -21 5
-8 -3 -14 0 -14 7 0 9 -3 8 -9 -1 -6 -11 -10 -10 -15 4 -5 12 -10 14 -18 6 -6
-6 -16 -8 -23 -6 -7 3 -16 1 -20 -5 -3 -6 -11 -11 -16 -11 -6 0 -7 6 -3 13 6
9 4 9 -8 -1 -13 -10 -18 -10 -24 -1 -5 9 -11 7 -21 -7 -12 -16 -15 -17 -24 -4
-8 11 -9 9 -3 -10 7 -24 6 -24 -19 -7 -24 15 -26 15 -42 -6 -15 -20 -16 -20
-11 -2 6 19 5 19 -8 2 -8 -11 -27 -17 -52 -17 -51 -1 -119 11 -130 23 -4 4
-15 7 -25 7 -10 0 -23 8 -28 18 -6 9 -11 11 -11 5 0 -9 -7 -10 -25 -3 -14 5
-25 8 -25 6 0 -2 -24 2 -52 10 -62 16 -86 17 -43 1z"/>
<path d="M2034 1070 c-5 -5 -23 -11 -39 -12 -42 -2 -48 -7 -33 -26 11 -15 11
-15 -3 -5 -9 7 -20 9 -24 5 -5 -4 -5 -1 0 7 5 8 4 12 -1 9 -61 -33 -118 -52
-163 -54 -29 -2 -64 -10 -77 -19 -13 -8 -28 -15 -35 -15 -6 0 -25 -10 -42 -22
-17 -12 -28 -17 -24 -11 5 7 0 9 -13 6 -11 -3 -17 -9 -14 -14 8 -13 -10 -11
-24 3 -9 9 -17 7 -34 -9 -13 -11 -41 -27 -63 -34 -47 -17 -113 -73 -96 -83 6
-4 16 -4 22 0 7 4 24 8 39 10 15 2 78 27 141 55 166 75 171 77 230 92 36 9 99
12 189 9 74 -2 158 -4 186 -4 60 -2 114 26 133 68 10 24 10 26 -3 15 -17 -14
-64 -10 -75 7 -4 7 -31 14 -59 16 -29 3 -50 1 -47 -3 6 -11 -49 0 -56 10 -3 5
-10 4 -15 -1z"/>
<path d="M2445 1052 c33 -16 66 -36 73 -45 12 -14 9 -17 -20 -26 -18 -5 -27
-10 -19 -10 35 -2 132 34 163 60 41 35 34 38 -12 4 -45 -33 -70 -32 -144 10
-35 19 -71 35 -82 35 -10 0 8 -13 41 -28z"/>
<path d="M519 984 c-1 -27 0 -63 1 -80 2 -38 -19 -56 -27 -25 -4 17 -8 19 -19
10 -11 -9 -19 -8 -37 7 -21 19 -21 19 -7 -1 42 -59 72 -59 130 0 40 40 43 47
34 72 -5 15 -18 29 -29 31 -11 2 -26 11 -32 20 -11 13 -13 8 -14 -34z m61 -14
c0 -5 -2 -10 -4 -10 -3 0 -8 5 -11 10 -3 6 -1 10 4 10 6 0 11 -4 11 -10z"/>
<path d="M406 999 c-17 -13 -23 -25 -19 -37 6 -14 8 -13 13 7 3 14 12 27 20
29 13 5 13 3 1 -12 -21 -25 -9 -26 17 -1 20 18 21 23 8 28 -8 3 -26 -3 -40
-14z"/>
<path d="M2346 984 c-3 -9 -6 -32 -6 -51 0 -30 -3 -35 -20 -30 -11 3 -20 1
-20 -4 0 -15 -67 -10 -80 7 -8 8 -23 20 -34 26 -17 8 -15 5 7 -19 27 -29 27
-30 9 -46 -18 -16 -21 -15 -56 18 -21 19 -47 40 -59 47 -12 6 1 -9 28 -34 28
-26 47 -49 44 -52 -4 -4 -23 -9 -42 -13 -30 -4 -42 -1 -69 22 -26 22 -34 25
-36 13 -2 -13 -24 -17 -101 -23 -88 -6 -102 -5 -139 14 -45 23 -68 19 -125
-21 -16 -12 -64 -36 -106 -55 l-76 -33 55 6 c51 6 62 3 124 -30 69 -37 126
-46 156 -26 11 8 7 9 -15 4 -23 -4 -26 -3 -15 5 8 6 22 11 30 11 18 1 67 37
59 44 -3 3 -16 8 -30 10 -13 2 -26 5 -29 6 -3 2 -8 2 -12 1 -5 0 -8 3 -8 7 0
13 -43 12 -59 -1 -11 -9 -15 -9 -18 1 -3 6 -9 9 -14 6 -6 -3 -31 -8 -56 -10
l-45 -4 25 21 c15 11 47 29 72 40 l46 20 40 -20 c36 -19 50 -20 154 -14 130 7
133 5 90 -59 -25 -36 -62 -65 -72 -55 -2 3 3 19 12 37 19 37 14 47 -17 33 -31
-14 -109 -78 -83 -68 27 11 44 10 83 -6 37 -15 35 -17 107 76 14 18 31 26 60
29 48 3 86 18 104 39 7 9 37 19 67 23 67 8 87 25 79 65 -7 31 3 36 34 20 10
-6 27 -7 39 -4 l22 5 -24 19 c-29 23 -72 25 -80 3z"/>
<path d="M640 975 c-10 -12 -9 -24 5 -62 26 -72 31 -131 11 -139 -22 -8 -44
12 -55 50 -8 29 -9 29 -10 6 -1 -33 25 -70 49 -70 10 0 28 12 39 26 l20 25 9
-33 c7 -24 9 -6 6 69 -1 56 -8 111 -14 123 -13 24 -42 26 -60 5z m38 -10 c-4
-11 -28 -16 -28 -6 0 12 13 22 23 18 5 -1 7 -7 5 -12z m19 -77 c-3 -7 -5 -2
-5 12 0 14 2 19 5 13 2 -7 2 -19 0 -25z"/>
<path d="M1167 956 c-38 -7 -72 -16 -75 -22 -4 -5 -16 -14 -26 -20 -11 -5 -26
-21 -35 -34 l-16 -25 35 26 c54 40 64 45 57 26 -8 -22 14 -28 37 -8 18 15 18
15 12 -6 -5 -14 -3 -23 4 -23 6 0 4 -11 -6 -25 -9 -14 -14 -28 -11 -32 4 -3
11 6 16 19 13 35 68 66 137 79 33 6 63 14 67 19 10 9 -76 40 -107 39 -12 0
-52 -6 -89 -13z"/>
<path d="M1930 930 c35 -24 54 -31 30 -11 -14 11 -29 21 -35 21 -5 0 -3 -5 5
-10z"/>
<path d="M802 898 c-14 -14 -15 -57 -3 -112 5 -21 7 -45 4 -52 -6 -17 -55 -18
-72 -1 -10 10 -11 9 -6 -5 7 -17 23 -23 55 -18 17 2 100 79 100 93 0 5 -7 3
-17 -4 -15 -13 -15 -12 -5 7 6 12 10 23 8 25 -1 2 17 -16 40 -39 l42 -44 64 6
c123 13 141 11 198 -17 72 -35 112 -42 141 -26 13 8 44 19 69 26 l45 12 -50
-5 c-27 -3 -62 -12 -77 -20 -25 -13 -31 -12 -74 11 -26 14 -53 25 -60 25 -8 0
-22 8 -33 19 -17 17 -24 18 -92 6 -41 -7 -77 -11 -81 -8 -5 2 -8 13 -8 25 0
20 -1 20 -18 -3 -26 -31 -43 -21 -89 48 -40 60 -60 72 -81 51z m20 -30 c-7 -7
-12 -8 -12 -2 0 14 12 26 19 19 2 -3 -1 -11 -7 -17z"/>
<path d="M1066 649 c-159 -8 -286 -29 -339 -56 -36 -18 -84 -85 -98 -135 -21
-81 -16 -138 19 -210 39 -80 66 -99 188 -132 49 -13 128 -35 177 -49 127 -38
222 -47 507 -47 269 0 361 7 525 41 167 34 218 52 302 107 103 67 132 190 72
310 -28 56 -34 63 -83 81 -68 25 -230 56 -371 70 -60 6 -157 15 -215 21 -118
11 -443 11 -684 -1z m408 -10 c-4 -8 1 -9 15 -4 16 5 27 1 38 -12 13 -16 14
-16 9 0 -3 9 -1 17 4 17 6 0 10 -4 10 -10 0 -5 5 -10 11 -10 5 0 8 4 5 8 -5 8
33 9 222 4 43 -1 61 -6 56 -13 -4 -8 -1 -8 12 -1 60 30 514 -61 514 -103 0
-58 -162 -89 -600 -115 -156 -9 -232 -21 -255 -41 -6 -4 -31 -12 -55 -18 -39
-9 -59 -6 -145 19 -107 30 -178 45 -265 55 -192 22 -352 90 -317 134 9 12 9
13 0 7 -7 -4 -13 -3 -13 3 0 12 30 30 59 34 11 2 24 6 27 10 12 12 56 8 48 -4
-3 -6 6 -3 22 7 21 14 26 15 19 4 -7 -13 -6 -13 7 -2 9 7 32 11 52 9 20 -2 39
0 42 5 3 5 20 8 37 8 84 -1 421 11 425 15 10 10 23 5 16 -6z m-764 -134 c14
-19 14 -19 -2 -6 -10 7 -18 18 -18 24 0 6 1 8 3 6 1 -2 9 -13 17 -24z m-42
-20 c-6 -14 -13 -23 -15 -21 -5 5 15 46 22 46 3 0 -1 -11 -7 -25z m77 -15 c3
-5 1 -10 -4 -10 -6 0 -11 5 -11 10 0 6 2 10 4 10 3 0 8 -4 11 -10z m1595 -35
c-6 -15 -6 -25 0 -25 5 0 8 -14 7 -30 -1 -21 -6 -29 -16 -25 -12 5 -12 3 0
-12 12 -15 12 -16 -5 -10 -14 6 -16 4 -9 -5 14 -18 8 -50 -13 -65 -14 -10 -14
-13 -3 -13 8 -1 5 -6 -9 -13 -12 -7 -20 -16 -17 -19 3 -3 -1 -8 -10 -12 -9 -3
-13 -2 -10 4 9 15 -9 12 -31 -6 -10 -8 -12 -12 -4 -8 9 4 12 3 7 -2 -5 -5 -13
-10 -18 -10 -5 -1 -10 -2 -11 -4 -9 -6 -37 -7 -33 0 3 4 -4 6 -16 3 -13 -4
-16 -8 -9 -13 8 -5 7 -10 -4 -19 -12 -10 -14 -7 -12 17 2 26 0 28 -16 18 -10
-6 -16 -16 -14 -23 3 -7 -1 -10 -10 -6 -8 3 -21 0 -28 -6 -11 -9 -16 -9 -21
-1 -5 8 -15 4 -33 -12 -14 -13 -23 -18 -20 -13 7 12 -49 12 -60 0 -4 -5 0 -5
8 0 8 5 12 4 7 -1 -10 -11 -58 -14 -51 -2 3 4 10 5 16 2 7 -4 8 -2 4 5 -5 7
-12 9 -19 3 -7 -4 -22 -7 -34 -6 -12 0 -24 -5 -27 -13 -3 -8 -11 -11 -16 -8
-6 4 -17 2 -25 -5 -14 -12 -59 -9 -72 5 -4 4 -2 5 5 1 13 -8 17 6 5 18 -4 3
-12 -4 -19 -16 -10 -19 -21 -23 -58 -23 -38 0 -43 2 -31 12 11 7 12 13 6 18
-14 8 -31 -3 -31 -20 0 -10 -12 -13 -47 -9 -25 2 -48 6 -50 8 -2 2 -19 0 -38
-4 -25 -6 -35 -4 -39 6 -3 8 -13 13 -23 13 -17 -1 -17 -2 0 -6 23 -6 22 -16
-5 -39 -15 -13 -18 -14 -10 -3 10 14 10 18 -3 23 -9 3 -13 2 -10 -4 8 -13 -5
-13 -25 0 -9 6 -17 5 -22 -3 -6 -9 -8 -9 -8 1 0 6 -7 12 -15 12 -8 0 -15 -6
-16 -12 0 -7 -5 -3 -11 9 -14 29 -32 29 -46 1 -6 -13 -11 -17 -11 -10 -1 7 -5
11 -10 7 -5 -3 -12 -1 -16 4 -3 6 3 8 15 6 11 -2 20 0 20 4 0 13 -56 19 -74 9
-10 -6 -16 -5 -16 2 0 5 -11 10 -24 10 -14 0 -31 7 -40 15 -8 8 -19 15 -25 15
-6 0 -11 5 -11 11 0 8 -4 8 -14 0 -11 -10 -16 -8 -21 8 -6 20 -24 25 -82 23
-13 -1 -23 3 -23 9 0 6 5 7 11 3 7 -4 10 -1 7 7 -3 8 -9 14 -14 15 -5 1 -24 5
-43 9 l-33 8 23 14 c24 13 23 13 -9 9 -18 -2 -30 0 -26 5 3 5 0 9 -5 9 -17 0
-13 28 7 40 14 9 13 10 -7 4 -17 -4 -21 -3 -16 6 5 8 3 11 -6 8 -8 -3 -19 1
-26 8 -15 14 -17 28 -4 20 5 -3 11 3 14 15 4 16 2 19 -16 15 -12 -3 -16 -3 -9
0 6 3 12 11 12 19 0 7 7 18 15 25 11 9 15 9 15 1 0 -7 5 -9 13 -5 8 5 8 3 -2
-9 -7 -9 -18 -14 -25 -11 -6 3 -2 -2 8 -10 25 -20 30 -20 46 -1 11 13 10 14
-6 9 -15 -6 -17 -4 -7 6 10 11 29 10 110 -4 108 -19 121 -24 102 -38 -10 -7
-5 -8 14 -3 21 4 27 3 21 -6 -7 -12 6 -11 51 6 l20 8 -20 -16 c-26 -21 -6 -22
23 -1 20 14 29 13 102 -7 44 -11 80 -25 80 -30 0 -5 3 -8 8 -8 15 3 72 -26 72
-37 0 -6 21 -14 47 -18 62 -8 68 0 6 10 -47 7 -47 8 -16 14 42 9 86 1 80 -14
-3 -7 4 -18 15 -25 16 -10 24 -9 44 4 26 17 31 39 12 51 -8 5 -6 10 8 15 18 7
18 8 -1 9 l-20 1 20 8 c12 5 23 4 27 -3 5 -7 8 -4 8 6 0 15 9 18 48 17 26 -1
63 1 82 5 69 13 208 22 236 14 16 -4 31 -4 34 0 3 5 51 14 108 21 57 7 111 15
120 17 14 5 13 2 -2 -10 -15 -12 -16 -16 -5 -16 12 0 12 -2 -1 -10 -13 -8 -13
-10 2 -10 9 0 23 7 31 15 8 8 16 13 18 12 3 -1 -1 3 -8 9 -19 16 -16 27 4 20
10 -4 14 -4 10 0 -6 6 18 21 50 33 1 1 -2 -10 -7 -24z m-1691 -105 c11 -24 11
-24 -3 -6 -9 11 -16 24 -16 30 0 12 5 7 19 -24z m891 -40 c0 -5 -4 -10 -10
-10 -5 0 -10 5 -10 10 0 6 5 10 10 10 6 0 10 -4 10 -10z m-876 -16 c3 -8 2
-12 -4 -9 -6 3 -10 10 -10 16 0 14 7 11 14 -7z m1737 -11 c-12 -20 -14 -14 -5
12 4 9 9 14 11 11 3 -2 0 -13 -6 -23z m-1646 -23 c3 -5 1 -10 -4 -10 -6 0 -11
5 -11 10 0 6 2 10 4 10 3 0 8 -4 11 -10z m1280 -120 c-5 -8 -11 -8 -17 -2 -6
6 -7 16 -3 22 5 8 11 8 17 2 6 -6 7 -16 3 -22z m-1020 -11 c-7 -11 -35 -12
-35 -1 0 4 9 8 20 9 11 1 18 -2 15 -8z m42 -21 c-3 -8 -6 -5 -6 6 -1 11 2 17
5 13 3 -3 4 -12 1 -19z m97 -3 c-4 -8 -11 -12 -16 -9 -6 4 -5 10 3 15 19 12
19 11 13 -6z m745 -11 c-13 -16 -29 -18 -29 -4 0 6 7 10 16 10 9 0 12 5 8 12
-4 7 -3 8 5 4 9 -6 9 -11 0 -22z m46 6 c-3 -5 -11 -10 -16 -10 -6 0 -7 5 -4
10 3 6 11 10 16 10 6 0 7 -4 4 -10z m-145 -20 c0 -5 -8 -10 -17 -10 -15 0 -16
2 -3 10 19 12 20 12 20 0z"/>
<path d="M1310 626 c0 -2 7 -9 15 -16 13 -11 14 -10 9 4 -5 14 -24 23 -24 12z"/>
<path d="M1347 618 c2 -5 10 -8 18 -8 8 0 16 3 18 8 3 4 -5 7 -18 7 -13 0 -21
-3 -18 -7z"/>
<path d="M1440 620 c-9 -6 -10 -10 -3 -10 6 0 15 5 18 10 8 12 4 12 -15 0z"/>
<path d="M1199 616 c-2 -3 -18 -7 -34 -10 -16 -3 -35 -12 -43 -20 -13 -13 -10
-13 24 -5 21 6 57 10 79 9 38 -1 39 0 20 14 -20 15 -38 20 -46 12z"/>
<path d="M1290 610 c0 -5 5 -10 11 -10 5 0 7 5 4 10 -3 6 -8 10 -11 10 -2 0
-4 -4 -4 -10z"/>
<path d="M1475 610 c3 -5 8 -10 11 -10 2 0 4 5 4 10 0 6 -5 10 -11 10 -5 0 -7
-4 -4 -10z"/>
<path d="M1270 601 c0 -10 19 -25 25 -20 1 2 -3 10 -11 17 -8 7 -14 8 -14 3z"/>
<path d="M1386 601 c-14 -5 -16 -10 -8 -15 7 -4 19 0 28 8 17 17 11 19 -20 7z"/>
<path d="M1076 574 c-3 -9 -11 -12 -18 -8 -7 4 -9 3 -5 -1 14 -16 33 -13 34 6
2 23 -3 24 -11 3z"/>
<path d="M850 564 c-36 -13 -35 -13 23 -18 6 -1 11 5 9 13 -2 8 3 11 12 8 9
-4 17 -3 20 1 7 12 -26 10 -64 -4z"/>
<path d="M993 555 c0 -8 7 -15 15 -15 12 0 12 3 2 15 -7 8 -13 15 -15 15 -1 0
-2 -7 -2 -15z"/>
<path d="M1310 560 c0 -5 5 -10 10 -10 6 0 10 5 10 10 0 6 -4 10 -10 10 -5 0
-10 -4 -10 -10z"/>
<path d="M1938 563 c6 -2 18 -2 25 0 6 3 1 5 -13 5 -14 0 -19 -2 -12 -5z"/>
<path d="M2038 563 c6 -2 18 -2 25 0 6 3 1 5 -13 5 -14 0 -19 -2 -12 -5z"/>
<path d="M1400 550 c8 -5 20 -10 25 -10 6 0 3 5 -5 10 -8 5 -19 10 -25 10 -5
0 -3 -5 5 -10z"/>
<path d="M2145 552 c-36 -7 -41 -22 -8 -22 18 0 34 4 38 9 7 13 -6 18 -30 13z"/>
<path d="M2223 543 c9 -2 23 -2 30 0 6 3 -1 5 -18 5 -16 0 -22 -2 -12 -5z"/>
<path d="M1118 533 c12 -2 30 -2 40 0 9 3 -1 5 -23 4 -22 0 -30 -2 -17 -4z"/>
<path d="M1803 533 c9 -2 23 -2 30 0 6 3 -1 5 -18 5 -16 0 -22 -2 -12 -5z"/>
<path d="M1993 533 c9 -2 23 -2 30 0 6 3 -1 5 -18 5 -16 0 -22 -2 -12 -5z"/>
<path d="M770 520 c0 -5 7 -7 15 -4 8 4 15 8 15 10 0 2 -7 4 -15 4 -8 0 -15
-4 -15 -10z"/>
<path d="M828 523 c-16 -4 -16 -6 -4 -19 8 -8 17 -14 21 -14 8 0 35 26 35 34
0 7 -26 6 -52 -1z"/>
<path d="M908 523 c6 -2 18 -2 25 0 6 3 1 5 -13 5 -14 0 -19 -2 -12 -5z"/>
<path d="M1865 520 c-4 -6 5 -10 19 -10 14 0 26 5 26 10 0 6 -9 10 -19 10 -11
0 -23 -4 -26 -10z"/>
<path d="M980 510 c0 -5 16 -10 36 -10 21 0 33 4 29 10 -3 6 -19 10 -36 10
-16 0 -29 -4 -29 -10z"/>
<path d="M1180 510 c-13 -8 -12 -10 3 -10 9 0 17 5 17 10 0 12 -1 12 -20 0z"/>
<path d="M1248 509 c-8 -6 1 -9 25 -9 20 0 37 2 37 4 0 9 -50 12 -62 5z"/>
<path d="M1643 513 c9 -2 23 -2 30 0 6 3 -1 5 -18 5 -16 0 -22 -2 -12 -5z"/>
<path d="M1775 509 c-16 -6 -14 -8 13 -8 33 -1 41 4 20 12 -7 2 -22 1 -33 -4z"/>
<path d="M2073 513 c9 -2 25 -2 35 0 9 3 1 5 -18 5 -19 0 -27 -2 -17 -5z"/>
<path d="M2175 510 c-19 -8 -19 -9 3 -9 12 -1 22 4 22 9 0 6 -1 10 -2 9 -2 0
-12 -4 -23 -9z"/>
<path d="M2288 513 c6 -2 18 -2 25 0 6 3 1 5 -13 5 -14 0 -19 -2 -12 -5z"/>
<path d="M1468 503 c6 -2 18 -2 25 0 6 3 1 5 -13 5 -14 0 -19 -2 -12 -5z"/>
<path d="M1915 495 l-30 -15 35 6 c19 3 39 10 45 15 14 14 -16 10 -50 -6z"/>
<path d="M1340 490 c-11 -7 -3 -10 30 -10 33 0 41 3 30 10 -8 5 -22 10 -30 10
-8 0 -22 -5 -30 -10z"/>
<path d="M1553 493 c9 -2 23 -2 30 0 6 3 -1 5 -18 5 -16 0 -22 -2 -12 -5z"/>
<path d="M2225 490 c-3 -5 3 -10 14 -10 11 0 23 5 26 10 3 6 -3 10 -14 10 -11
0 -23 -4 -26 -10z"/>
<path d="M1658 483 c6 -2 18 -2 25 0 6 3 1 5 -13 5 -14 0 -19 -2 -12 -5z"/>
<path d="M1990 480 c0 -5 8 -10 18 -10 9 0 28 -3 42 -6 23 -5 23 -5 -4 10 -32
18 -56 21 -56 6z"/>
<path d="M893 473 c9 -2 25 -2 35 0 9 3 1 5 -18 5 -19 0 -27 -2 -17 -5z"/>
<path d="M985 470 c-3 -5 2 -10 12 -10 10 0 29 -3 43 -7 22 -6 24 -5 11 10
-15 19 -56 23 -66 7z"/>
<path d="M1110 470 c-11 -7 -4 -10 25 -10 29 0 36 3 25 10 -8 5 -19 10 -25 10
-5 0 -17 -5 -25 -10z"/>
<path d="M1228 473 c12 -2 30 -2 40 0 9 3 -1 5 -23 4 -22 0 -30 -2 -17 -4z"/>
<path d="M1445 470 l-30 -8 27 -1 c15 0 30 4 33 9 3 6 5 9 3 9 -2 -1 -16 -5
-33 -9z"/>
<path d="M2128 472 c-21 -2 -38 -7 -38 -11 0 -6 56 -4 85 3 21 5 -12 11 -47 8z"/>
<path d="M1295 460 c-25 -6 -21 -8 25 -9 39 0 51 2 40 9 -17 11 -22 11 -65 0z"/>
<path d="M1585 459 c-28 -6 -26 -7 13 -8 42 -1 53 3 30 11 -7 2 -26 1 -43 -3z"/>
<path d="M1740 460 c0 -5 7 -10 15 -10 8 0 15 5 15 10 0 6 -7 10 -15 10 -8 0
-15 -4 -15 -10z"/>
<path d="M1818 463 c6 -2 18 -2 25 0 6 3 1 5 -13 5 -14 0 -19 -2 -12 -5z"/>
<path d="M1905 460 c-7 -12 12 -12 40 0 18 8 17 9 -7 9 -15 1 -30 -3 -33 -9z"/>
<path d="M1480 445 l-35 -13 59 -1 c55 -1 58 0 40 14 -23 17 -20 17 -64 0z"/>
<path d="M1660 445 c-10 -12 -9 -15 6 -15 11 0 25 4 32 9 11 7 10 10 -3 15
-22 8 -21 8 -35 -9z"/>
<path d="M1100 440 c20 -13 73 -13 65 0 -3 6 -23 10 -43 10 -28 0 -33 -3 -22
-10z"/>
<path d="M1840 440 c-12 -8 -9 -10 13 -10 15 0 27 5 27 10 0 13 -20 13 -40 0z"/>
<path d="M1970 442 c0 -5 14 -7 30 -4 17 2 30 6 30 8 0 2 -13 4 -30 4 -16 0
-30 -4 -30 -8z"/>
<path d="M1205 430 c-3 -5 4 -11 17 -11 13 -1 35 -2 51 -3 33 -2 36 9 5 18
-34 9 -66 7 -73 -4z"/>
<path d="M1360 430 c-11 -7 -3 -10 28 -10 26 0 41 4 37 10 -8 13 -45 13 -65 0z"/>
<path d="M1735 430 c3 -5 10 -10 16 -10 5 0 9 5 9 10 0 6 -7 10 -16 10 -8 0
-12 -4 -9 -10z"/>
<path d="M1595 420 c-3 -6 1 -7 9 -4 18 7 21 14 7 14 -6 0 -13 -4 -16 -10z"/>
<path d="M1520 410 c-13 -9 -13 -10 0 -10 8 0 22 5 30 10 13 9 13 10 0 10 -8
0 -22 -5 -30 -10z"/>
<path d="M1389 383 c22 -9 47 -12 70 -8 51 10 20 25 -49 24 l-55 -1 34 -15z"/>
<path d="M825 390 c-3 -5 -1 -10 4 -10 6 0 11 5 11 10 0 6 -2 10 -4 10 -3 0
-8 -4 -11 -10z"/>
<path d="M775 379 c-4 -5 2 -9 13 -9 10 0 22 -3 26 -7 4 -4 19 -8 34 -10 15
-1 20 1 12 4 -8 3 -30 11 -47 19 -20 8 -35 9 -38 3z"/>
<path d="M1966 346 c7 -18 22 -20 44 -6 13 8 13 10 -2 10 -9 0 -24 3 -32 6
-12 5 -15 2 -10 -10z"/>
<path d="M1056 335 c-3 -8 -2 -15 3 -15 5 0 14 7 21 15 10 12 10 15 -3 15 -8
0 -17 -7 -21 -15z"/>
<path d="M1096 326 c-30 -27 -33 -36 -8 -30 9 3 22 16 29 30 14 30 11 30 -21
0z"/>
<path d="M1638 343 c7 -3 16 -2 19 1 4 3 -2 6 -13 5 -11 0 -14 -3 -6 -6z"/>
<path d="M840 320 c-8 -5 -10 -10 -5 -10 6 0 17 5 25 10 8 5 11 10 5 10 -5 0
-17 -5 -25 -10z"/>
<path d="M2290 320 c8 -5 20 -10 25 -10 6 0 3 5 -5 10 -8 5 -19 10 -25 10 -5
0 -3 -5 5 -10z"/>
<path d="M1120 309 c0 -6 -8 -18 -17 -26 -16 -12 -14 -12 10 -2 28 13 34 24
17 34 -5 3 -10 1 -10 -6z"/>
<path d="M1958 308 c31 -15 28 -30 -4 -18 -34 13 -39 13 -24 -5 10 -12 10 -15
-1 -16 -8 0 -5 -4 6 -10 16 -7 13 -8 -12 -5 -25 4 -31 2 -26 -9 7 -19 18 -19
53 2 36 21 55 59 34 67 -9 3 -23 6 -32 5 -13 0 -11 -3 6 -11z"/>
<path d="M2280 280 c8 -5 20 -10 25 -10 6 0 3 5 -5 10 -8 5 -19 10 -25 10 -5
0 -3 -5 5 -10z"/>
<path d="M1120 260 c-9 -6 -10 -10 -3 -10 6 0 15 5 18 10 8 12 4 12 -15 0z"/>
<path d="M1500 240 c0 -9 39 -25 46 -18 2 3 -7 10 -21 16 -14 6 -25 7 -25 2z"/>
<path d="M1545 200 c3 -5 11 -10 16 -10 6 0 7 5 4 10 -3 6 -11 10 -16 10 -6 0
-7 -4 -4 -10z"/>
<path d="M1338 103 c6 -2 18 -2 25 0 6 3 1 5 -13 5 -14 0 -19 -2 -12 -5z"/>
</g>
</svg>
