<svg width="477" height="367" viewBox="0 0 477 367" fill="none" xmlns="http://www.w3.org/2000/svg">
<path d="M169.932 302.947H0V296.138C0 273.603 8.95173 251.992 24.8859 236.058C40.8201 220.124 62.4315 211.172 84.9658 211.172C107.5 211.172 129.112 220.124 145.046 236.058C160.98 251.992 169.932 273.603 169.932 296.138V302.947ZM13.9396 289.328H155.992C154.271 271.685 146.045 255.315 132.916 243.404C119.787 231.494 102.696 224.896 84.9692 224.896C67.2428 224.896 50.1509 231.494 37.0221 243.404C23.8932 255.315 15.6674 271.685 13.9465 289.328H13.9396Z" fill="white"/>
<path d="M85.0621 366.986C66.2878 366.958 48.2907 359.487 35.0153 346.211C21.7399 332.936 14.2691 314.939 14.2402 296.165H27.8598C27.8598 311.318 33.8797 325.852 44.595 336.567C55.3104 347.282 69.8436 353.302 84.9974 353.302C100.151 353.302 114.684 347.282 125.4 336.567C136.115 325.852 142.135 311.318 142.135 296.165H155.755C155.755 314.925 148.311 332.92 135.057 346.197C121.803 359.475 103.823 366.952 85.0621 366.986Z" fill="white"/>
<path d="M85.0609 337.241C74.1634 337.228 63.7158 332.894 56.01 325.188C48.3043 317.482 43.9696 307.035 43.957 296.137H57.5766C57.5766 303.401 60.4622 310.368 65.5987 315.504C70.7351 320.641 77.7016 323.526 84.9656 323.526C92.2296 323.526 99.1961 320.641 104.333 315.504C109.469 310.368 112.355 303.401 112.355 296.137H125.974C125.987 307.01 121.687 317.443 114.017 325.149C106.347 332.854 95.9332 337.203 85.0609 337.241V337.241Z" fill="white"/>
<path d="M336.104 367C325.267 366.96 314.583 364.442 304.868 359.64C295.153 354.838 286.665 347.878 280.053 339.292C273.441 330.706 268.879 320.722 266.716 310.103C264.554 299.484 264.848 288.511 267.577 278.023L280.747 281.517C278.675 289.387 278.305 297.609 279.661 305.634C281.018 313.659 284.069 321.302 288.612 328.054C293.155 334.807 299.086 340.513 306.008 344.793C312.931 349.073 320.686 351.828 328.757 352.874C336.828 353.92 345.029 353.234 352.814 350.861C360.599 348.488 367.788 344.482 373.903 339.111C380.018 333.74 384.917 327.127 388.275 319.714C391.632 312.3 393.371 304.256 393.374 296.117C393.357 291.163 392.733 286.23 391.515 281.428L404.726 278.126C406.215 284.01 406.977 290.054 406.994 296.124C406.969 314.916 399.491 332.931 386.202 346.218C372.913 359.505 354.896 366.979 336.104 367V367Z" fill="white"/>
<path d="M336.103 336.676C329.054 336.655 322.131 334.798 316.017 331.288C309.902 327.778 304.808 322.737 301.234 316.659C297.661 310.582 295.731 303.679 295.636 296.63C295.542 289.581 297.284 282.628 300.693 276.457L312.596 283.076C310.339 287.167 309.187 291.777 309.255 296.449C309.323 301.121 310.609 305.695 312.984 309.719C315.36 313.742 318.743 317.077 322.801 319.394C326.859 321.71 331.451 322.929 336.124 322.929C340.797 322.929 345.389 321.71 349.447 319.394C353.504 317.077 356.888 313.742 359.264 309.719C361.639 305.695 362.924 301.121 362.993 296.449C363.061 291.777 361.909 287.167 359.652 283.076L371.555 276.457C374.962 282.629 376.703 289.581 376.607 296.629C376.511 303.678 374.581 310.58 371.008 316.656C367.435 322.733 362.341 327.774 356.228 331.284C350.115 334.795 343.193 336.653 336.144 336.676H336.103Z" fill="white"/>
<path d="M420.328 286.61H161.393V272.991H405.599C402.681 249.356 393.8 226.853 379.789 207.596C365.778 188.34 347.099 172.965 325.509 162.917L324.222 162.291L330.146 150.033L331.447 150.66C356.339 162.253 377.668 180.308 393.213 202.944C408.758 225.58 417.95 251.97 419.831 279.365L420.328 286.61Z" fill="white"/>
<path d="M73.3286 220.283H59.709V189.564C59.7658 147.421 74.0098 106.524 100.146 73.4638L108.12 63.3989L118.791 71.8567L110.816 81.9216C86.5828 112.573 73.3751 150.49 73.3218 189.564L73.3286 220.283Z" fill="white"/>
<path d="M183.088 224.743C176.841 224.707 170.606 224.195 164.436 223.211C155.891 222.235 147.638 219.518 140.184 215.228C132.73 210.937 126.235 205.165 121.099 198.267C88.7726 151.477 129.727 80.9749 131.484 77.9922L143.21 84.9177C142.822 85.5987 104.932 150.911 132.314 190.524C136.407 195.887 141.551 200.357 147.431 203.663C153.312 206.968 159.805 209.039 166.513 209.748C187.91 213.03 203.565 210.429 214.393 201.794C224.894 193.411 230.954 178.886 232.391 158.634L246.011 159.601C244.288 183.81 236.518 201.59 222.919 212.438C211.479 221.05 197.393 225.402 183.088 224.743V224.743Z" fill="white"/>
<path d="M144.995 88.2753H130.545V0H144.995C156.346 0.0126171 167.229 4.52733 175.255 12.5536C183.281 20.5799 187.796 31.4623 187.808 42.8132V45.4622C187.796 56.8131 183.281 67.6954 175.255 75.7217C167.229 83.748 156.346 88.2627 144.995 88.2753V88.2753ZM144.165 74.6558H144.995C152.735 74.6467 160.154 71.5679 165.626 66.0948C171.098 60.6217 174.175 53.2014 174.182 45.4622V42.8132C174.175 35.0728 171.097 27.6514 165.624 22.1782C160.15 16.7049 152.729 13.6268 144.988 13.6196H144.165V74.6558Z" fill="white"/>
<path d="M130.748 78.6123C121.605 78.6123 112.836 74.9801 106.371 68.5149C99.9056 62.0496 96.2734 53.2809 96.2734 44.1377C96.2734 34.9944 99.9056 26.2257 106.371 19.7605C112.836 13.2952 121.605 9.66309 130.748 9.66309C133.596 9.68254 136.429 10.081 139.172 10.848L135.583 23.9909C134.008 23.5543 132.382 23.3254 130.748 23.3099C125.217 23.3099 119.912 25.5071 116.001 29.4182C112.09 33.3293 109.893 38.6338 109.893 44.1649C109.893 49.696 112.09 55.0005 116.001 58.9116C119.912 62.8227 125.217 65.0199 130.748 65.0199C132.382 65.0044 134.008 64.7755 135.583 64.3389L139.172 77.4818C136.426 78.2304 133.594 78.6105 130.748 78.6123V78.6123Z" fill="white"/>
<path d="M322.104 162.952H238.725C232.446 162.952 226.425 160.457 221.985 156.017C217.545 151.578 215.051 145.556 215.051 139.277C215.051 132.998 217.545 126.977 221.985 122.537C226.425 118.097 232.446 115.603 238.725 115.603H322.104C328.383 115.603 334.405 118.097 338.844 122.537C343.284 126.977 345.778 132.998 345.778 139.277C345.778 145.556 343.284 151.578 338.844 156.017C334.405 160.457 328.383 162.952 322.104 162.952V162.952ZM238.725 129.223C236.058 129.223 233.501 130.282 231.615 132.168C229.73 134.053 228.67 136.611 228.67 139.277C228.67 141.944 229.73 144.501 231.615 146.387C233.501 148.273 236.058 149.332 238.725 149.332H322.104C324.771 149.332 327.328 148.273 329.214 146.387C331.099 144.501 332.159 141.944 332.159 139.277C332.159 136.611 331.099 134.053 329.214 132.168C327.328 130.282 324.771 129.223 322.104 129.223H238.725Z" fill="white"/>
<path d="M392.231 209.721L382.418 200.276L440.587 139.798V122.413H454.207V145.287L392.231 209.721Z" fill="white"/>
<path d="M476.687 129.222H347.301V13.4556H476.687V129.222ZM360.92 115.602H463.067V27.0752H360.92V115.602Z" fill="white"/>
<path d="M210.315 64.2437H178.922V50.6241H210.308C211.193 50.6815 212.08 50.5568 212.915 50.2577C213.75 49.9586 214.514 49.4914 215.161 48.885C215.808 48.2787 216.324 47.546 216.677 46.7324C217.029 45.9188 217.211 45.0415 217.211 44.1548C217.211 43.268 217.029 42.3907 216.677 41.5771C216.324 40.7635 215.808 40.0308 215.161 39.4245C214.514 38.8181 213.75 38.3509 212.915 38.0518C212.08 37.7527 211.193 37.628 210.308 37.6855H178.922V24.0659H210.308C213.009 23.9664 215.701 24.4124 218.225 25.3772C220.749 26.3419 223.053 27.8057 224.999 29.6809C226.944 31.5562 228.492 33.8044 229.549 36.2913C230.606 38.7781 231.151 41.4526 231.151 44.1548C231.151 46.8569 230.606 49.5314 229.549 52.0183C228.492 54.5051 226.944 56.7534 224.999 58.6286C223.053 60.5038 220.749 61.9676 218.225 62.9323C215.701 63.8971 213.009 64.3431 210.308 64.2437H210.315Z" fill="white"/>
<path d="M322.09 115.603H356.765V129.223H322.09V115.603Z" fill="white"/>
<path d="M408.59 20.2656H422.209V47.5048H408.59V20.2656Z" fill="white"/>
</svg>
