<svg width="464" height="472" viewBox="0 0 464 472" fill="none" xmlns="http://www.w3.org/2000/svg">
<path d="M399.984 336H335.984V440H399.984V336ZM383.984 424H351.984V352H383.984V424Z" fill="white"/>
<path d="M255.984 264H63.9844C50.7294 264 39.9844 274.745 39.9844 288V440H279.984V288C279.984 274.745 269.239 264 255.984 264ZM263.984 424H55.9844V320H263.984V424ZM263.984 304H55.9844V288C55.9844 283.582 59.5664 280 63.9844 280H255.984C260.402 280 263.984 283.582 263.984 288V304Z" fill="white"/>
<path d="M463.432 109.272C463.352 109.048 463.272 108.832 463.176 108.616C463.08 108.4 463.064 108.272 462.976 108.12L423.984 37.928V8C423.984 3.582 420.402 0 415.984 0H39.984C35.566 0 31.984 3.582 31.984 8V38.304L0.672 108.752V108.824C0.672 108.912 0.624 109.016 0.584 109.104C0.273 109.92 0.1 110.783 0.072 111.656C0.072 111.776 0 111.88 0 112V472H463.984V112C463.984 111.952 463.984 111.904 463.984 111.856C463.948 110.97 463.761 110.096 463.432 109.272ZM442.384 104H349.752L331.088 48H411.28L442.384 104ZM335.984 120V200C335.984 217.673 321.657 232 303.984 232H271.984C254.311 232 239.984 217.673 239.984 200V192V120H335.984ZM239.984 104V48H314.216L332.88 104H239.984ZM47.984 16H407.984V32H47.984V16V16ZM131.088 104L149.752 48H223.984V104H131.088ZM223.984 120V192C223.958 214.08 206.064 231.974 183.984 232H167.984C145.904 231.974 128.01 214.08 127.984 192V120H223.984ZM45.184 48H132.88L114.216 104H20.296L45.184 48ZM15.984 120H111.984V188.8C111.958 212.648 92.632 231.974 68.784 232H55.984C33.904 231.974 16.01 214.08 15.984 192V120V120ZM415.984 456H319.984V320H415.984V456ZM415.984 304H319.984V294.4C319.984 286.447 326.431 280 334.384 280H401.584C409.537 280 415.984 286.447 415.984 294.4V304V304ZM447.984 456H431.984V294.4C431.984 277.611 418.373 264 401.584 264H334.384C317.595 264 303.984 277.611 303.984 294.4V456H15.984V231.112C26.49 241.912 40.917 248.004 55.984 248H68.784C89.431 247.978 108.571 237.189 119.28 219.536C129.201 237.105 147.807 247.979 167.984 248H183.984C202.484 247.986 219.784 238.836 230.208 223.552C238.704 238.64 254.668 247.982 271.984 248H303.984C321.3 247.982 337.264 238.64 345.76 223.552C356.184 238.836 373.484 247.986 391.984 248H407.984C423.051 248.004 437.478 241.912 447.984 231.112V456V456ZM447.984 192C447.958 214.08 430.064 231.974 407.984 232H391.984C369.904 231.974 352.01 214.08 351.984 192V120H447.984V192Z" fill="white"/>
</svg>
